<svg class="animated" id="freepik_stories-basketball" xmlns="http://www.w3.org/2000/svg" viewBox="0 0 500 500" version="1.1" xmlns:xlink="http://www.w3.org/1999/xlink" xmlns:svgjs="http://svgjs.com/svgjs"><style>svg#freepik_stories-basketball:not(.animated) .animable {opacity: 0;}svg#freepik_stories-basketball.animated #freepik--Ball--inject-7 {animation: 6s Infinite  linear floating;animation-delay: 0s;}svg#freepik_stories-basketball.animated #freepik--Character--inject-7 {animation: 6s Infinite  linear floating;animation-delay: 0s;}            @keyframes floating {                0% {                    opacity: 1;                    transform: translateY(0px);                }                50% {                    transform: translateY(-10px);                }                100% {                    opacity: 1;                    transform: translateY(0px);                }            }        </style><g id="freepik--background-complete--inject-7" class="animable" style="transform-origin: 250px 228.23px;"><rect y="382.4" width="500" height="0.25" style="fill: rgb(235, 235, 235); transform-origin: 250px 382.525px;" id="elb2e9ctd4mya" class="animable"></rect><path d="M237,337.8H43.92a5.71,5.71,0,0,1-5.71-5.71V60.66A5.71,5.71,0,0,1,43.92,55H237a5.71,5.71,0,0,1,5.71,5.71V332.09A5.71,5.71,0,0,1,237,337.8ZM43.92,55.2a5.47,5.47,0,0,0-5.46,5.46V332.09a5.47,5.47,0,0,0,5.46,5.46H237a5.47,5.47,0,0,0,5.46-5.46V60.66A5.47,5.47,0,0,0,237,55.2Z" style="fill: rgb(235, 235, 235); transform-origin: 140.46px 196.4px;" id="el4ru2bm8znkc" class="animable"></path><path d="M453.31,337.8H260.21a5.72,5.72,0,0,1-5.71-5.71V60.66A5.72,5.72,0,0,1,260.21,55h193.1A5.71,5.71,0,0,1,459,60.66V332.09A5.71,5.71,0,0,1,453.31,337.8ZM260.21,55.2a5.47,5.47,0,0,0-5.46,5.46V332.09a5.47,5.47,0,0,0,5.46,5.46h193.1a5.47,5.47,0,0,0,5.46-5.46V60.66a5.47,5.47,0,0,0-5.46-5.46Z" style="fill: rgb(235, 235, 235); transform-origin: 356.75px 196.4px;" id="el0n3u25dm7i" class="animable"></path><rect x="52.46" y="391.92" width="42.43" height="0.25" style="fill: rgb(235, 235, 235); transform-origin: 73.675px 392.045px;" id="el5q9m47z3nof" class="animable"></rect><rect x="121.67" y="389.21" width="78.77" height="0.25" style="fill: rgb(235, 235, 235); transform-origin: 161.055px 389.335px;" id="el14nhg8fn4y2" class="animable"></rect><rect x="95.89" y="401.21" width="9.89" height="0.25" style="fill: rgb(235, 235, 235); transform-origin: 100.835px 401.335px;" id="el1mhv50nisnc" class="animable"></rect><rect x="413.5" y="399.53" width="36.4" height="0.25" style="fill: rgb(235, 235, 235); transform-origin: 431.7px 399.655px;" id="el1o3aue5ucho" class="animable"></rect><rect x="391.47" y="399.53" width="13.13" height="0.25" style="fill: rgb(235, 235, 235); transform-origin: 398.035px 399.655px;" id="el2rks652057r" class="animable"></rect><rect x="183.33" y="395.31" width="54.56" height="0.25" style="fill: rgb(235, 235, 235); transform-origin: 210.61px 395.435px;" id="elbuwj9ysgorm" class="animable"></rect><polygon points="258.61 160.62 43.14 109.34 36.05 300.33 258.61 349.56 258.61 160.62" style="fill: rgb(245, 245, 245); transform-origin: 147.33px 229.45px;" id="elbp82j4xqkju" class="animable"></polygon><polygon points="258.61 160.62 451.42 152.33 458.51 324.33 258.61 349.56 258.61 160.62" style="fill: rgb(240, 240, 240); transform-origin: 358.56px 250.945px;" id="eledq895sph6e" class="animable"></polygon><polygon points="258.61 324.33 36.05 300.33 36.05 382.4 258.61 382.4 258.61 324.33" style="fill: rgb(230, 230, 230); transform-origin: 147.33px 341.365px;" id="el4iroc96o2zd" class="animable"></polygon><polygon points="258.61 219.93 36.05 168.65 36.05 209.68 258.61 252.67 258.61 219.93" style="fill: rgb(230, 230, 230); transform-origin: 147.33px 210.66px;" id="el96fq7q3eeh4" class="animable"></polygon><g id="eldh2rweb03zg"><rect x="258.61" y="324.33" width="199.9" height="58.07" style="fill: rgb(224, 224, 224); transform-origin: 358.56px 353.365px; transform: rotate(180deg);" class="animable"></rect></g><polygon points="258.61 219.93 460.79 217.62 457.89 250 258.61 252.67 258.61 219.93" style="fill: rgb(224, 224, 224); transform-origin: 359.7px 235.145px;" id="eljn32a6prka8" class="animable"></polygon><path d="M239.51,263a4.34,4.34,0,1,0,5.08-3.42A4.33,4.33,0,0,0,239.51,263Z" style="fill: rgb(230, 230, 230); transform-origin: 243.768px 263.84px;" id="elxfw40ali2v8" class="animable"></path><path d="M223.85,292.9a3.59,3.59,0,1,0,4.2-2.83A3.59,3.59,0,0,0,223.85,292.9Z" style="fill: rgb(224, 224, 224); transform-origin: 227.372px 293.595px;" id="eldp2vjygxr94" class="animable"></path><path d="M208.94,292.89a4.33,4.33,0,1,0,5.08-3.42A4.32,4.32,0,0,0,208.94,292.89Z" style="fill: rgb(230, 230, 230); transform-origin: 213.19px 293.719px;" id="el908kwp4zsqr" class="animable"></path><path d="M231.16,274a4.33,4.33,0,1,0,5.08-3.42A4.33,4.33,0,0,0,231.16,274Z" style="fill: rgb(230, 230, 230); transform-origin: 235.41px 274.83px;" id="eltmbr2iuvrj9" class="animable"></path><path d="M193.39,266.67a3.59,3.59,0,1,0,4.2-2.83A3.59,3.59,0,0,0,193.39,266.67Z" style="fill: rgb(224, 224, 224); transform-origin: 196.912px 267.365px;" id="el18n8s3k7iaf" class="animable"></path><path d="M163.41,271.24a3.59,3.59,0,1,0,4.21-2.83A3.59,3.59,0,0,0,163.41,271.24Z" style="fill: rgb(224, 224, 224); transform-origin: 166.932px 271.934px;" id="elajdso1wi5k4" class="animable"></path><path d="M177.57,248.51a3.59,3.59,0,1,0,4.21-2.84A3.58,3.58,0,0,0,177.57,248.51Z" style="fill: rgb(224, 224, 224); transform-origin: 181.094px 249.193px;" id="elklr6entl0we" class="animable"></path><path d="M193.39,285.45a3.59,3.59,0,1,0,4.2-2.83A3.59,3.59,0,0,0,193.39,285.45Z" style="fill: rgb(224, 224, 224); transform-origin: 196.912px 286.145px;" id="elopxuce4n5d9" class="animable"></path><path d="M202.94,281.12a3.59,3.59,0,1,0,4.2-2.83A3.59,3.59,0,0,0,202.94,281.12Z" style="fill: rgb(235, 235, 235); transform-origin: 206.462px 281.815px;" id="eli88465gaxge" class="animable"></path><path d="M220.8,281a3.59,3.59,0,1,0,4.2-2.84A3.58,3.58,0,0,0,220.8,281Z" style="fill: rgb(224, 224, 224); transform-origin: 224.324px 281.685px;" id="elm5u0k1j2pg" class="animable"></path><path d="M186.38,275.71a3.59,3.59,0,1,0,4.2-2.83A3.59,3.59,0,0,0,186.38,275.71Z" style="fill: rgb(224, 224, 224); transform-origin: 189.902px 276.405px;" id="elk4zx2by3pb" class="animable"></path><path d="M178.48,266.66a4.33,4.33,0,1,0,5.08-3.42A4.33,4.33,0,0,0,178.48,266.66Z" style="fill: rgb(230, 230, 230); transform-origin: 182.73px 267.49px;" id="elq6ylhgelb1" class="animable"></path><g id="ela4ivc0191qu"><circle cx="155.95" cy="258.19" r="4.33" style="fill: rgb(230, 230, 230); transform-origin: 155.95px 258.19px; transform: rotate(-33.98deg);" class="animable"></circle></g><g id="el0sgq01bqt4dc"><circle cx="183.32" cy="287.14" r="4.33" style="fill: rgb(235, 235, 235); transform-origin: 183.32px 287.14px; transform: rotate(-69.91deg);" class="animable"></circle></g><path d="M211.5,270.15a4.33,4.33,0,1,0,5.08-3.43A4.35,4.35,0,0,0,211.5,270.15Z" style="fill: rgb(235, 235, 235); transform-origin: 215.752px 270.972px;" id="ela9cehhbojxi" class="animable"></path><g id="elayxcoeinphl"><circle cx="225.02" cy="158.38" r="3.03" style="fill: rgb(224, 224, 224); transform-origin: 225.02px 158.38px; transform: rotate(-1.92deg);" class="animable"></circle></g><g id="els8hhdxmcf7"><circle cx="233.1" cy="303.26" r="4.33" style="fill: rgb(230, 230, 230); transform-origin: 233.1px 303.26px; transform: rotate(-78.05deg);" class="animable"></circle></g><path d="M246.29,286.91a3.59,3.59,0,1,1-2.83-4.21A3.58,3.58,0,0,1,246.29,286.91Z" style="fill: rgb(224, 224, 224); transform-origin: 242.767px 286.222px;" id="el4ndd6kf9e8e" class="animable"></path><path d="M158.27,287.61a3.59,3.59,0,1,0,4.2-2.84A3.58,3.58,0,0,0,158.27,287.61Z" style="fill: rgb(224, 224, 224); transform-origin: 161.794px 288.295px;" id="eljsw4j83bvtb" class="animable"></path><path d="M111.88,239.32a3.59,3.59,0,1,0,4.21-2.84A3.59,3.59,0,0,0,111.88,239.32Z" style="fill: rgb(224, 224, 224); transform-origin: 115.404px 240.004px;" id="el0ojx0stz115" class="animable"></path><path d="M146.55,273.73a4.34,4.34,0,1,0,5.09-3.42A4.34,4.34,0,0,0,146.55,273.73Z" style="fill: rgb(230, 230, 230); transform-origin: 150.808px 274.57px;" id="el6ojwjxuo4vi" class="animable"></path><path d="M138.2,284.67a4.34,4.34,0,1,0,5.08-3.42A4.34,4.34,0,0,0,138.2,284.67Z" style="fill: rgb(230, 230, 230); transform-origin: 142.458px 285.511px;" id="eliqmvo4a2wnq" class="animable"></path><path d="M100.43,277.37a3.59,3.59,0,1,0,4.21-2.83A3.58,3.58,0,0,0,100.43,277.37Z" style="fill: rgb(224, 224, 224); transform-origin: 103.952px 278.063px;" id="elavx1gi198w7" class="animable"></path><path d="M70.45,281.94a3.59,3.59,0,1,0,4.21-2.83A3.59,3.59,0,0,0,70.45,281.94Z" style="fill: rgb(224, 224, 224); transform-origin: 73.9724px 282.634px;" id="elf22f2yyqja" class="animable"></path><path d="M110,291.82a3.59,3.59,0,1,0,4.2-2.83A3.59,3.59,0,0,0,110,291.82Z" style="fill: rgb(235, 235, 235); transform-origin: 113.522px 292.515px;" id="eljmtnx537kkh" class="animable"></path><path d="M74.91,230.74a3.59,3.59,0,1,0,4.2-2.84A3.58,3.58,0,0,0,74.91,230.74Z" style="fill: rgb(235, 235, 235); transform-origin: 78.4339px 231.425px;" id="elsso7yvfhf0e" class="animable"></path><path d="M127.84,291.65a3.59,3.59,0,1,0,4.21-2.84A3.58,3.58,0,0,0,127.84,291.65Z" style="fill: rgb(224, 224, 224); transform-origin: 131.364px 292.333px;" id="el0qkzwq9870si" class="animable"></path><path d="M93.42,286.41a3.59,3.59,0,1,0,4.2-2.83A3.59,3.59,0,0,0,93.42,286.41Z" style="fill: rgb(224, 224, 224); transform-origin: 96.942px 287.105px;" id="el63u8bmzi5od" class="animable"></path><path d="M85.52,277.36a4.33,4.33,0,1,0,5.08-3.43A4.34,4.34,0,0,0,85.52,277.36Z" style="fill: rgb(230, 230, 230); transform-origin: 89.7716px 278.181px;" id="el2mpjoqho86m" class="animable"></path><path d="M58.74,268.06a4.34,4.34,0,1,0,5.08-3.42A4.33,4.33,0,0,0,58.74,268.06Z" style="fill: rgb(230, 230, 230); transform-origin: 62.9977px 268.9px;" id="elq5n3q6uudsh" class="animable"></path><path d="M118.55,280.84a4.33,4.33,0,1,0,5.08-3.42A4.32,4.32,0,0,0,118.55,280.84Z" style="fill: rgb(235, 235, 235); transform-origin: 122.8px 281.669px;" id="elur9befapx7" class="animable"></path><path d="M153.33,297.61a3.59,3.59,0,1,1-2.83-4.21A3.58,3.58,0,0,1,153.33,297.61Z" style="fill: rgb(224, 224, 224); transform-origin: 149.807px 296.922px;" id="elnfti6u0926" class="animable"></path><g id="elha7opnid6mr"><circle cx="162.91" cy="302.36" r="4.33" style="fill: rgb(230, 230, 230); transform-origin: 162.91px 302.36px; transform: rotate(-69.43deg);" class="animable"></circle></g><path d="M189.32,190.68a3,3,0,1,0,3.7-2.14A3,3,0,0,0,189.32,190.68Z" style="fill: rgb(224, 224, 224); transform-origin: 192.224px 191.432px;" id="elny0hpzs4xdm" class="animable"></path><path d="M178.88,181.88a3.66,3.66,0,1,0,4.48-2.6A3.66,3.66,0,0,0,178.88,181.88Z" style="fill: rgb(230, 230, 230); transform-origin: 182.418px 182.817px;" id="elkt8ou8nbwhp" class="animable"></path><path d="M201.1,192.5a3.66,3.66,0,1,0,4.48-2.59A3.66,3.66,0,0,0,201.1,192.5Z" style="fill: rgb(230, 230, 230); transform-origin: 204.636px 193.446px;" id="elju6bgzfjv" class="animable"></path><path d="M198.71,167.2a3.66,3.66,0,1,0,4.48-2.59A3.66,3.66,0,0,0,198.71,167.2Z" style="fill: rgb(230, 230, 230); transform-origin: 202.246px 168.146px;" id="elb6xg1b9rnbv" class="animable"></path><path d="M222.88,173.64a3.66,3.66,0,1,0,4.48-2.59A3.65,3.65,0,0,0,222.88,173.64Z" style="fill: rgb(230, 230, 230); transform-origin: 226.416px 174.585px;" id="elw6scmmb2l1m" class="animable"></path><path d="M167.28,158.88a3,3,0,1,0,3.71-2.15A3,3,0,0,0,167.28,158.88Z" style="fill: rgb(224, 224, 224); transform-origin: 170.187px 159.621px;" id="elomr001v6tqb" class="animable"></path><path d="M177.84,152.34a3,3,0,1,0,3.71-2.15A3,3,0,0,0,177.84,152.34Z" style="fill: rgb(224, 224, 224); transform-origin: 180.747px 153.081px;" id="el5p6psyset3w" class="animable"></path><path d="M194.37,157.49a3,3,0,1,0,3.7-2.15A3,3,0,0,0,194.37,157.49Z" style="fill: rgb(224, 224, 224); transform-origin: 197.276px 158.233px;" id="elffnhe93douc" class="animable"></path><path d="M141.74,161a3,3,0,1,0,3.71-2.15A3,3,0,0,0,141.74,161Z" style="fill: rgb(224, 224, 224); transform-origin: 144.647px 161.741px;" id="elb5l77zfpcv" class="animable"></path><path d="M145.55,150a3,3,0,1,0,3.71-2.15A3,3,0,0,0,145.55,150Z" style="fill: rgb(224, 224, 224); transform-origin: 148.457px 150.741px;" id="ellexc13ay88" class="animable"></path><path d="M166.2,174.71a3,3,0,1,0,3.71-2.15A3,3,0,0,0,166.2,174.71Z" style="fill: rgb(224, 224, 224); transform-origin: 169.107px 175.451px;" id="eldy5ey4zdeg4" class="animable"></path><path d="M201.29,180a3,3,0,1,0,3.71-2.15A3,3,0,0,0,201.29,180Z" style="fill: rgb(224, 224, 224); transform-origin: 204.197px 180.741px;" id="el8vth1hqkhcd" class="animable"></path><g id="el86woyefjvdm"><circle cx="216.31" cy="163.33" r="3.03" style="fill: rgb(224, 224, 224); transform-origin: 216.31px 163.33px; transform: rotate(-86.04deg);" class="animable"></circle></g><circle cx="177.43" cy="172.39" r="3.03" style="fill: rgb(235, 235, 235); transform-origin: 177.43px 172.39px;" id="elb4g6t1p0zn" class="animable"></circle><path d="M189.57,172.49a3,3,0,1,0,3.71-2.15A3,3,0,0,0,189.57,172.49Z" style="fill: rgb(224, 224, 224); transform-origin: 192.477px 173.231px;" id="el66rw3te511a" class="animable"></path><path d="M215.12,310.12a3.59,3.59,0,1,0,4.2-2.83A3.59,3.59,0,0,0,215.12,310.12Z" style="fill: rgb(224, 224, 224); transform-origin: 218.642px 310.815px;" id="el0lm7ofyz8zb" class="animable"></path><path d="M160.85,166.1a3,3,0,1,0,3.7-2.15A3,3,0,0,0,160.85,166.1Z" style="fill: rgb(224, 224, 224); transform-origin: 163.757px 166.843px;" id="elg1xq99o7pjt" class="animable"></path><path d="M154.71,158a3.66,3.66,0,1,0,4.48-2.6A3.66,3.66,0,0,0,154.71,158Z" style="fill: rgb(230, 230, 230); transform-origin: 158.248px 158.937px;" id="elx3f6226p5j" class="animable"></path><path d="M180.3,301.34a4.33,4.33,0,1,0,5.09-3.43A4.34,4.34,0,0,0,180.3,301.34Z" style="fill: rgb(230, 230, 230); transform-origin: 184.552px 302.159px;" id="elxhaiwirnq6g" class="animable"></path><g id="el0oisn93hroa"><circle cx="168.28" cy="250.79" r="4.33" style="fill: rgb(230, 230, 230); transform-origin: 168.28px 250.79px; transform: rotate(-78.05deg);" class="animable"></circle></g><path d="M132.66,148.63a3.66,3.66,0,1,0,4.48-2.59A3.66,3.66,0,0,0,132.66,148.63Z" style="fill: rgb(230, 230, 230); transform-origin: 136.196px 149.576px;" id="elpsm9v0if05" class="animable"></path><path d="M122.25,139.49a3.66,3.66,0,1,0,4.48-2.59A3.66,3.66,0,0,0,122.25,139.49Z" style="fill: rgb(230, 230, 230); transform-origin: 125.786px 140.436px;" id="el7jmpyekohjl" class="animable"></path><path d="M154.07,174.62a3.66,3.66,0,1,0,4.48-2.6A3.66,3.66,0,0,0,154.07,174.62Z" style="fill: rgb(235, 235, 235); transform-origin: 157.608px 175.557px;" id="ellhz1k4yesth" class="animable"></path><path d="M182.35,162.85a3.66,3.66,0,1,0,4.48-2.6A3.66,3.66,0,0,0,182.35,162.85Z" style="fill: rgb(235, 235, 235); transform-origin: 185.888px 163.787px;" id="elu7igqtlnxk" class="animable"></path><path d="M215.51,199.58A3.66,3.66,0,1,0,220,197,3.65,3.65,0,0,0,215.51,199.58Z" style="fill: rgb(235, 235, 235); transform-origin: 219.044px 200.532px;" id="elffpk4i6mys" class="animable"></path><path d="M197.79,303.63a4.34,4.34,0,1,0,5.08-3.42A4.33,4.33,0,0,0,197.79,303.63Z" style="fill: rgb(235, 235, 235); transform-origin: 202.048px 304.471px;" id="el28xsuo9z9hu" class="animable"></path><path d="M117.74,172.92a3,3,0,1,0,3.71-2.15A3,3,0,0,0,117.74,172.92Z" style="fill: rgb(224, 224, 224); transform-origin: 120.647px 173.661px;" id="el8066as4202v" class="animable"></path><path d="M105.17,172.06a3.66,3.66,0,1,0,4.48-2.6A3.66,3.66,0,0,0,105.17,172.06Z" style="fill: rgb(230, 230, 230); transform-origin: 108.708px 172.997px;" id="elkr05n9bwq8q" class="animable"></path><path d="M125,157.38a3.66,3.66,0,1,0,4.48-2.6A3.66,3.66,0,0,0,125,157.38Z" style="fill: rgb(230, 230, 230); transform-origin: 128.538px 158.317px;" id="elfpriy4e65sw" class="animable"></path><circle cx="109.78" cy="143.03" r="3.66" style="fill: rgb(230, 230, 230); transform-origin: 109.78px 143.03px;" id="el1hwlzl963pg" class="animable"></circle><path d="M93.56,149.05a3,3,0,1,0,3.71-2.15A3,3,0,0,0,93.56,149.05Z" style="fill: rgb(224, 224, 224); transform-origin: 96.4672px 149.791px;" id="eljk9cf7lzrz" class="animable"></path><path d="M79.87,135.59a3,3,0,1,0,3.71-2.15A3,3,0,0,0,79.87,135.59Z" style="fill: rgb(224, 224, 224); transform-origin: 82.7772px 136.331px;" id="elvfwom5nkzy" class="animable"></path><g id="elfg5tsvwnimo"><circle cx="70.95" cy="151.96" r="3.03" style="fill: rgb(224, 224, 224); transform-origin: 70.95px 151.96px; transform: rotate(-1.92deg);" class="animable"></circle></g><circle cx="95.41" cy="165.67" r="3.03" style="fill: rgb(224, 224, 224); transform-origin: 95.41px 165.67px;" id="eloey07ba0wi" class="animable"></circle><path d="M100.78,161.78a3,3,0,1,0,3.71-2.14A3,3,0,0,0,100.78,161.78Z" style="fill: rgb(235, 235, 235); transform-origin: 103.685px 162.53px;" id="el0nh3gu7jyq2l" class="animable"></path><path d="M115.85,162.66a3,3,0,1,0,3.71-2.14A3,3,0,0,0,115.85,162.66Z" style="fill: rgb(224, 224, 224); transform-origin: 118.755px 163.41px;" id="el8y2n3nj9exs" class="animable"></path><path d="M87.13,156.27a3,3,0,1,0,3.71-2.14A3,3,0,0,0,87.13,156.27Z" style="fill: rgb(224, 224, 224); transform-origin: 90.0348px 157.02px;" id="elrikdbytx7ha" class="animable"></path><path d="M81,148.19a3.66,3.66,0,1,0,4.48-2.6A3.66,3.66,0,0,0,81,148.19Z" style="fill: rgb(230, 230, 230); transform-origin: 84.5381px 149.127px;" id="elf49e2vseir9" class="animable"></path><g id="el9bpghuo4iyh"><circle cx="73.57" cy="125.31" r="3.66" style="fill: rgb(230, 230, 230); transform-origin: 73.57px 125.31px; transform: rotate(-10.33deg);" class="animable"></circle></g><path d="M47.14,278.65a4.33,4.33,0,1,0,5.08-3.43A4.33,4.33,0,0,0,47.14,278.65Z" style="fill: rgb(230, 230, 230); transform-origin: 51.3916px 279.47px;" id="el3im2b83dbur" class="animable"></path><path d="M65.06,161.23a3,3,0,1,0,3.71-2.15A3,3,0,0,0,65.06,161.23Z" style="fill: rgb(224, 224, 224); transform-origin: 67.9672px 161.971px;" id="elf4xgdkfcfim" class="animable"></path><path d="M55,152.71a3.66,3.66,0,1,0,4.48-2.59A3.66,3.66,0,0,0,55,152.71Z" style="fill: rgb(230, 230, 230); transform-origin: 58.5356px 153.656px;" id="elhmr793cz59c" class="animable"></path><path d="M59,138.81a3.66,3.66,0,1,0,4.48-2.6A3.65,3.65,0,0,0,59,138.81Z" style="fill: rgb(230, 230, 230); transform-origin: 62.5381px 139.746px;" id="el43m8l3wdhu" class="animable"></path><path d="M56.81,128.33a3.66,3.66,0,1,0,4.48-2.6A3.66,3.66,0,0,0,56.81,128.33Z" style="fill: rgb(230, 230, 230); transform-origin: 60.3481px 129.267px;" id="ellr59qrgnil" class="animable"></path><path d="M80.36,164.79a3.66,3.66,0,1,0,4.48-2.59A3.66,3.66,0,0,0,80.36,164.79Z" style="fill: rgb(235, 235, 235); transform-origin: 83.8956px 165.736px;" id="els2ndy1bhkx" class="animable"></path><path d="M108.64,153a3.66,3.66,0,1,0,4.48-2.59A3.66,3.66,0,0,0,108.64,153Z" style="fill: rgb(235, 235, 235); transform-origin: 112.176px 153.946px;" id="elfrxy7p5r687" class="animable"></path><path d="M93,131.7a3.66,3.66,0,1,0,4.48-2.59A3.66,3.66,0,0,0,93,131.7Z" style="fill: rgb(235, 235, 235); transform-origin: 96.5356px 132.646px;" id="eln9ctegsq4ia" class="animable"></path><path d="M249.93,188.29a3,3,0,1,0,3.71-2.15A3,3,0,0,0,249.93,188.29Z" style="fill: rgb(224, 224, 224); transform-origin: 252.837px 189.031px;" id="elr6z27jteah" class="animable"></path><path d="M236.23,174.83a3,3,0,1,0,3.71-2.15A3,3,0,0,0,236.23,174.83Z" style="fill: rgb(224, 224, 224); transform-origin: 239.137px 175.571px;" id="elr5orn5p6ga" class="animable"></path><path d="M248.85,204.13a3,3,0,1,0,3.7-2.15A3,3,0,0,0,248.85,204.13Z" style="fill: rgb(224, 224, 224); transform-origin: 251.756px 204.873px;" id="elr54in5n6c48" class="animable"></path><path d="M243.49,195.52a3,3,0,1,0,3.71-2.15A3,3,0,0,0,243.49,195.52Z" style="fill: rgb(224, 224, 224); transform-origin: 246.397px 196.261px;" id="ell8wx0jh4j5" class="animable"></path><path d="M237.36,187.43a3.66,3.66,0,1,0,4.48-2.6A3.66,3.66,0,0,0,237.36,187.43Z" style="fill: rgb(230, 230, 230); transform-origin: 240.898px 188.367px;" id="elaf7d2hfmftc" class="animable"></path><path d="M236.72,204a3.66,3.66,0,1,0,4.48-2.59A3.66,3.66,0,0,0,236.72,204Z" style="fill: rgb(235, 235, 235); transform-origin: 240.256px 204.946px;" id="el1pphkanhem" class="animable"></path><path d="M249.39,171a3.66,3.66,0,1,0,4.48-2.6A3.66,3.66,0,0,0,249.39,171Z" style="fill: rgb(235, 235, 235); transform-origin: 252.928px 171.937px;" id="el623n38ly5ic" class="animable"></path><path d="M135.23,255.73a4.34,4.34,0,1,0,5.08-3.42A4.34,4.34,0,0,0,135.23,255.73Z" style="fill: rgb(230, 230, 230); transform-origin: 139.488px 256.571px;" id="eltf6pu2onm6" class="animable"></path><g id="elngecjxxc5v"><circle cx="126.46" cy="246.6" r="4.33" style="fill: rgb(230, 230, 230); transform-origin: 126.46px 246.6px; transform: rotate(-69.43deg);" class="animable"></circle></g><path d="M126.88,266.67a4.34,4.34,0,1,0,5.08-3.42A4.33,4.33,0,0,0,126.88,266.67Z" style="fill: rgb(230, 230, 230); transform-origin: 131.138px 267.511px;" id="el8vq1elkkgxi" class="animable"></path><path d="M103.52,250.13a4.33,4.33,0,1,0,5.08-3.42A4.33,4.33,0,0,0,103.52,250.13Z" style="fill: rgb(230, 230, 230); transform-origin: 107.77px 250.96px;" id="elckt417rfi36" class="animable"></path><path d="M89.11,259.37a3.59,3.59,0,1,0,4.21-2.83A3.58,3.58,0,0,0,89.11,259.37Z" style="fill: rgb(224, 224, 224); transform-origin: 92.6324px 260.063px;" id="el74uxq3jihdl" class="animable"></path><path d="M148.22,246.39a3.59,3.59,0,1,0,4.21-2.83A3.59,3.59,0,0,0,148.22,246.39Z" style="fill: rgb(224, 224, 224); transform-origin: 151.742px 247.084px;" id="eltz9scnmdqk9" class="animable"></path><path d="M71.86,244.58a3.59,3.59,0,1,0,4.2-2.83A3.58,3.58,0,0,0,71.86,244.58Z" style="fill: rgb(224, 224, 224); transform-origin: 75.382px 245.275px;" id="elosfgcvphsug" class="animable"></path><path d="M53,248.28a3.59,3.59,0,1,0,4.2-2.84A3.58,3.58,0,0,0,53,248.28Z" style="fill: rgb(224, 224, 224); transform-origin: 56.5239px 248.965px;" id="elgm280ok6kje" class="animable"></path><path d="M74.2,259.36a4.34,4.34,0,1,0,5.08-3.43A4.33,4.33,0,0,0,74.2,259.36Z" style="fill: rgb(230, 230, 230); transform-origin: 78.4595px 260.191px;" id="elhocpx7k10gc" class="animable"></path><g id="elkboeu38wgjf"><circle cx="63.6" cy="232.95" r="4.33" style="fill: rgb(230, 230, 230); transform-origin: 63.6px 232.95px; transform: rotate(-69.43deg);" class="animable"></circle></g><path d="M190.79,255.17a4.33,4.33,0,1,0,5.08-3.43A4.33,4.33,0,0,0,190.79,255.17Z" style="fill: rgb(230, 230, 230); transform-origin: 195.042px 255.99px;" id="el0m5wkvs64vs" class="animable"></path><g id="elr6s26cytr9e"><circle cx="222.88" cy="259.79" r="4.33" style="fill: rgb(230, 230, 230); transform-origin: 222.88px 259.79px; transform: rotate(-69.5777deg);" class="animable"></circle></g><g id="eluqbgrfhhw7f"><circle cx="111.48" cy="263.67" r="4.33" style="fill: rgb(235, 235, 235); transform-origin: 111.48px 263.67px; transform: rotate(-69.43deg);" class="animable"></circle></g><path d="M87.08,238.93a4.33,4.33,0,1,0,5.08-3.42A4.34,4.34,0,0,0,87.08,238.93Z" style="fill: rgb(235, 235, 235); transform-origin: 91.3298px 239.761px;" id="eloorlh55zhh" class="animable"></path><path d="M173.74,186.24a3,3,0,1,1-2.15-3.71A3,3,0,0,1,173.74,186.24Z" style="fill: rgb(224, 224, 224); transform-origin: 170.849px 185.437px;" id="elwxnp3i94ej" class="animable"></path><path d="M137,169.16a3,3,0,1,1-2.15-3.71A3,3,0,0,1,137,169.16Z" style="fill: rgb(224, 224, 224); transform-origin: 134.109px 168.357px;" id="elpj1pgi5c11s" class="animable"></path><circle cx="224.97" cy="190.05" r="3.03" style="fill: rgb(224, 224, 224); transform-origin: 224.97px 190.05px;" id="el7q2w5rp3vzh" class="animable"></circle><path d="M213,176.9a3.66,3.66,0,1,0,4.48-2.6A3.66,3.66,0,0,0,213,176.9Z" style="fill: rgb(230, 230, 230); transform-origin: 216.538px 177.837px;" id="eljc05krzn78b" class="animable"></path><path d="M148.34,174.66a3.66,3.66,0,1,1-2.59-4.48A3.66,3.66,0,0,1,148.34,174.66Z" style="fill: rgb(230, 230, 230); transform-origin: 144.804px 173.716px;" id="elqvtuwjylcv" class="animable"></path><path d="M277.23,263.67a4.33,4.33,0,1,1-4.36-4.3A4.32,4.32,0,0,1,277.23,263.67Z" style="fill: rgb(230, 230, 230); transform-origin: 272.9px 263.7px;" id="elb4qgnscccim" class="animable"></path><path d="M287.11,295.92a3.59,3.59,0,1,1-3.61-3.56A3.58,3.58,0,0,1,287.11,295.92Z" style="fill: rgb(224, 224, 224); transform-origin: 283.52px 295.95px;" id="elyam52p0cuf" class="animable"></path><path d="M301.77,298.66a4.33,4.33,0,1,1-4.36-4.3A4.33,4.33,0,0,1,301.77,298.66Z" style="fill: rgb(230, 230, 230); transform-origin: 297.44px 298.69px;" id="elfox2x8fer7o" class="animable"></path><path d="M283.42,276a4.33,4.33,0,1,1-4.36-4.31A4.33,4.33,0,0,1,283.42,276Z" style="fill: rgb(230, 230, 230); transform-origin: 279.09px 276.02px;" id="elbyplqn7qow7" class="animable"></path><path d="M321.89,275.76a3.59,3.59,0,1,1-3.61-3.56A3.59,3.59,0,0,1,321.89,275.76Z" style="fill: rgb(224, 224, 224); transform-origin: 318.3px 275.79px;" id="ell9z4dtrnejj" class="animable"></path><path d="M350.51,285.78a3.59,3.59,0,1,1-3.61-3.56A3.59,3.59,0,0,1,350.51,285.78Z" style="fill: rgb(224, 224, 224); transform-origin: 346.92px 285.81px;" id="elagamqx88d6h" class="animable"></path><path d="M340.79,260.82a3.59,3.59,0,1,1-3.61-3.56A3.59,3.59,0,0,1,340.79,260.82Z" style="fill: rgb(224, 224, 224); transform-origin: 337.2px 260.85px;" id="el1t8dilcbh8p" class="animable"></path><g id="elt5xwu5okte"><circle cx="314.84" cy="294.24" r="3.59" style="fill: rgb(224, 224, 224); transform-origin: 314.84px 294.24px; transform: rotate(-78.42deg);" class="animable"></circle></g><path d="M309.84,288.2a3.59,3.59,0,1,1-3.61-3.56A3.59,3.59,0,0,1,309.84,288.2Z" style="fill: rgb(235, 235, 235); transform-origin: 306.25px 288.23px;" id="elhnro9pix3sf" class="animable"></path><path d="M292.32,284.73a3.59,3.59,0,1,1-3.61-3.56A3.59,3.59,0,0,1,292.32,284.73Z" style="fill: rgb(224, 224, 224); transform-origin: 288.73px 284.76px;" id="elldk7q1mdqq" class="animable"></path><path d="M327.11,285.94a3.59,3.59,0,1,1-3.61-3.56A3.58,3.58,0,0,1,327.11,285.94Z" style="fill: rgb(224, 224, 224); transform-origin: 323.52px 285.97px;" id="elx33oa1ykp2e" class="animable"></path><path d="M336.55,278.5a4.34,4.34,0,1,1-4.37-4.3A4.34,4.34,0,0,1,336.55,278.5Z" style="fill: rgb(230, 230, 230); transform-origin: 332.21px 278.54px;" id="el92r72ge3vpw" class="animable"></path><path d="M364.58,274.3a4.33,4.33,0,1,1-4.36-4.3A4.33,4.33,0,0,1,364.58,274.3Z" style="fill: rgb(230, 230, 230); transform-origin: 360.25px 274.33px;" id="elpvcxm6rffh" class="animable"></path><path d="M332.34,297.71a4.33,4.33,0,1,1-4.36-4.3A4.33,4.33,0,0,1,332.34,297.71Z" style="fill: rgb(235, 235, 235); transform-origin: 328.01px 297.74px;" id="elavwutckyua9" class="animable"></path><path d="M303.45,275.83a4.34,4.34,0,1,1-4.37-4.3A4.33,4.33,0,0,1,303.45,275.83Z" style="fill: rgb(235, 235, 235); transform-origin: 299.11px 275.87px;" id="eljehi352ok3" class="animable"></path><path d="M313.59,166.57a3,3,0,1,1-3.11-2.95A3,3,0,0,1,313.59,166.57Z" style="fill: rgb(224, 224, 224); transform-origin: 310.59px 166.618px;" id="elj57wb7nq7cq" class="animable"></path><path d="M280.44,304.36a4.33,4.33,0,1,1-4.36-4.3A4.33,4.33,0,0,1,280.44,304.36Z" style="fill: rgb(230, 230, 230); transform-origin: 276.11px 304.39px;" id="elwcl337im03" class="animable"></path><g id="el5lu6ovb6e0f"><circle cx="269.75" cy="285.86" r="3.59" style="fill: rgb(224, 224, 224); transform-origin: 269.75px 285.86px; transform: rotate(-75.82deg);" class="animable"></circle></g><path d="M352.55,302.82a3.59,3.59,0,1,1-3.61-3.56A3.59,3.59,0,0,1,352.55,302.82Z" style="fill: rgb(224, 224, 224); transform-origin: 348.96px 302.85px;" id="elxn73oeu93w" class="animable"></path><path d="M407,263.91a3.59,3.59,0,1,1-3.61-3.56A3.58,3.58,0,0,1,407,263.91Z" style="fill: rgb(224, 224, 224); transform-origin: 403.41px 263.94px;" id="elvpt891mzmjc" class="animable"></path><path d="M366.62,291.34a4.34,4.34,0,1,1-4.36-4.3A4.34,4.34,0,0,1,366.62,291.34Z" style="fill: rgb(230, 230, 230); transform-origin: 362.28px 291.38px;" id="el020qd4qur2y8" class="animable"></path><path d="M372.81,303.63a4.34,4.34,0,1,1-4.36-4.3A4.33,4.33,0,0,1,372.81,303.63Z" style="fill: rgb(230, 230, 230); transform-origin: 368.47px 303.67px;" id="elysopwlan1d" class="animable"></path><path d="M411.28,303.42a3.59,3.59,0,1,1-3.61-3.56A3.59,3.59,0,0,1,411.28,303.42Z" style="fill: rgb(224, 224, 224); transform-origin: 407.69px 303.45px;" id="eltl4y65jutnm" class="animable"></path><path d="M439.9,313.45a3.59,3.59,0,1,1-3.61-3.56A3.59,3.59,0,0,1,439.9,313.45Z" style="fill: rgb(224, 224, 224); transform-origin: 436.31px 313.48px;" id="elk5yaa0r4w2p" class="animable"></path><path d="M399.23,315.87a3.59,3.59,0,1,1-3.61-3.57A3.59,3.59,0,0,1,399.23,315.87Z" style="fill: rgb(235, 235, 235); transform-origin: 395.64px 315.89px;" id="el6cg0m16cs37" class="animable"></path><path d="M445,262.3a3.59,3.59,0,1,1-3.61-3.56A3.59,3.59,0,0,1,445,262.3Z" style="fill: rgb(235, 235, 235); transform-origin: 441.41px 262.33px;" id="elg5you30uqgq" class="animable"></path><path d="M381.7,312.4a3.59,3.59,0,1,1-3.61-3.56A3.58,3.58,0,0,1,381.7,312.4Z" style="fill: rgb(224, 224, 224); transform-origin: 378.11px 312.43px;" id="elwzu8fvcy8go" class="animable"></path><path d="M416.5,313.61a3.59,3.59,0,1,1-3.61-3.56A3.59,3.59,0,0,1,416.5,313.61Z" style="fill: rgb(224, 224, 224); transform-origin: 412.91px 313.64px;" id="eltc83yz1xhye" class="animable"></path><path d="M425.93,306.16a4.33,4.33,0,1,1-4.36-4.3A4.33,4.33,0,0,1,425.93,306.16Z" style="fill: rgb(230, 230, 230); transform-origin: 421.6px 306.19px;" id="elvxa5b2ihz9" class="animable"></path><path d="M392.83,303.5a4.33,4.33,0,1,1-4.36-4.31A4.33,4.33,0,0,1,392.83,303.5Z" style="fill: rgb(235, 235, 235); transform-origin: 388.5px 303.52px;" id="elk7fgunlvxz9" class="animable"></path><path d="M355.55,313.55a3.59,3.59,0,1,0,3.56-3.61A3.59,3.59,0,0,0,355.55,313.55Z" style="fill: rgb(224, 224, 224); transform-origin: 359.14px 313.53px;" id="elctun575dsy" class="animable"></path><path d="M340.93,316.49a4.34,4.34,0,1,0,4.31-4.36A4.34,4.34,0,0,0,340.93,316.49Z" style="fill: rgb(230, 230, 230); transform-origin: 345.27px 316.47px;" id="eluxfly6os0wk" class="animable"></path><path d="M337.84,206.34a3,3,0,1,1-3.12-3A3,3,0,0,1,337.84,206.34Z" style="fill: rgb(224, 224, 224); transform-origin: 334.84px 206.338px;" id="el3f5aiylu7rz" class="animable"></path><path d="M350,200.18a3.66,3.66,0,1,1-3.76-3.56A3.66,3.66,0,0,1,350,200.18Z" style="fill: rgb(230, 230, 230); transform-origin: 346.341px 200.279px;" id="el03ve0fzpel5s" class="animable"></path><path d="M326,205.38a3.66,3.66,0,1,1-3.76-3.56A3.66,3.66,0,0,1,326,205.38Z" style="fill: rgb(230, 230, 230); transform-origin: 322.341px 205.479px;" id="el3kvvspafp4l" class="animable"></path><path d="M334.13,181.32a3.66,3.66,0,1,1-3.76-3.56A3.67,3.67,0,0,1,334.13,181.32Z" style="fill: rgb(230, 230, 230); transform-origin: 330.471px 181.419px;" id="elu2g3eiouooq" class="animable"></path><path d="M309.12,182a3.66,3.66,0,1,1-3.75-3.56A3.66,3.66,0,0,1,309.12,182Z" style="fill: rgb(230, 230, 230); transform-origin: 305.461px 182.099px;" id="ellwavjuwjg7" class="animable"></path><path d="M366.63,180.48a3,3,0,1,1-3.11-2.94A3,3,0,0,1,366.63,180.48Z" style="fill: rgb(224, 224, 224); transform-origin: 363.631px 180.538px;" id="eldxreo9wcq1" class="animable"></path><path d="M357.86,171.68a3,3,0,1,1-3.11-2.94A3,3,0,0,1,357.86,171.68Z" style="fill: rgb(224, 224, 224); transform-origin: 354.861px 171.738px;" id="elawz5rlike6n" class="animable"></path><path d="M340.6,172.87a3,3,0,1,1-3.11-3A3,3,0,0,1,340.6,172.87Z" style="fill: rgb(224, 224, 224); transform-origin: 337.6px 172.868px;" id="elg8rhmze8osp" class="animable"></path><path d="M391,188.46a3,3,0,1,1-3.11-2.94A3,3,0,0,1,391,188.46Z" style="fill: rgb(224, 224, 224); transform-origin: 388.001px 188.518px;" id="el59wilwoqvlh" class="animable"></path><path d="M389.83,176.82a3,3,0,1,1-3.11-2.94A3,3,0,0,1,389.83,176.82Z" style="fill: rgb(224, 224, 224); transform-origin: 386.831px 176.878px;" id="el8ikd76119em" class="animable"></path><path d="M364,196.14a3,3,0,1,1-3.11-2.95A3,3,0,0,1,364,196.14Z" style="fill: rgb(224, 224, 224); transform-origin: 361px 196.188px;" id="eln7nh8rktbb" class="animable"></path><path d="M328.65,193.18a3,3,0,1,1-3.11-3A3,3,0,0,1,328.65,193.18Z" style="fill: rgb(224, 224, 224); transform-origin: 325.65px 193.178px;" id="elpnxusbn6x6h" class="animable"></path><path d="M320.92,173.4a3,3,0,1,1-3.11-2.94A3,3,0,0,1,320.92,173.4Z" style="fill: rgb(224, 224, 224); transform-origin: 317.921px 173.458px;" id="elnvmzwjo54j" class="animable"></path><path d="M356.66,191.2a3,3,0,1,1-3.11-2.94A3,3,0,0,1,356.66,191.2Z" style="fill: rgb(235, 235, 235); transform-origin: 353.661px 191.258px;" id="elxgdiuy5fb4" class="animable"></path><path d="M341.79,188.57a3,3,0,1,1-3.11-2.94A3,3,0,0,1,341.79,188.57Z" style="fill: rgb(224, 224, 224); transform-origin: 338.791px 188.628px;" id="el9xh4xnqa1cr" class="animable"></path><path d="M292.52,314.46a3.59,3.59,0,1,1-3.61-3.56A3.59,3.59,0,0,1,292.52,314.46Z" style="fill: rgb(224, 224, 224); transform-origin: 288.93px 314.49px;" id="elvq4dxhv4hc8" class="animable"></path><path d="M371.22,189a3,3,0,1,1-3.11-2.95A3,3,0,0,1,371.22,189Z" style="fill: rgb(224, 224, 224); transform-origin: 368.22px 189.048px;" id="el6svnnybkwz7" class="animable"></path><path d="M379.06,182.55A3.66,3.66,0,1,1,375.3,179,3.67,3.67,0,0,1,379.06,182.55Z" style="fill: rgb(230, 230, 230); transform-origin: 375.402px 182.659px;" id="el7mjqanjxus" class="animable"></path><path d="M328.35,312.25a4.33,4.33,0,1,1-4.36-4.31A4.33,4.33,0,0,1,328.35,312.25Z" style="fill: rgb(230, 230, 230); transform-origin: 324.02px 312.27px;" id="elem5pks25n8f" class="animable"></path><path d="M353.83,264.75a4.34,4.34,0,1,1-4.36-4.3A4.34,4.34,0,0,1,353.83,264.75Z" style="fill: rgb(230, 230, 230); transform-origin: 349.49px 264.79px;" id="eldhlmfdvb8rg" class="animable"></path><path d="M402.68,178.52a3.66,3.66,0,1,1-3.76-3.56A3.66,3.66,0,0,1,402.68,178.52Z" style="fill: rgb(230, 230, 230); transform-origin: 399.021px 178.619px;" id="elj1efmaxmp28" class="animable"></path><path d="M414.92,172a3.66,3.66,0,1,1-3.76-3.56A3.66,3.66,0,0,1,414.92,172Z" style="fill: rgb(230, 230, 230); transform-origin: 411.261px 172.099px;" id="el0p6ks63zfatd" class="animable"></path><circle cx="372.18" cy="198.95" r="3.66" style="fill: rgb(235, 235, 235); transform-origin: 372.18px 198.95px;" id="el8k4gcc1oqj" class="animable"></circle><path d="M351.05,180.86a3.66,3.66,0,1,1-3.76-3.56A3.67,3.67,0,0,1,351.05,180.86Z" style="fill: rgb(235, 235, 235); transform-origin: 347.391px 180.959px;" id="elwrpye80pll7" class="animable"></path><path d="M310.3,208.94a3.66,3.66,0,1,1-3.76-3.56A3.67,3.67,0,0,1,310.3,208.94Z" style="fill: rgb(235, 235, 235); transform-origin: 306.641px 209.039px;" id="elwudkym8m4a" class="animable"></path><path d="M310.74,311.27a4.33,4.33,0,1,1-4.36-4.3A4.33,4.33,0,0,1,310.74,311.27Z" style="fill: rgb(235, 235, 235); transform-origin: 306.41px 311.3px;" id="el9p25hfdi5jj" class="animable"></path><path d="M411.58,205.6a3,3,0,1,1-3.11-2.95A3,3,0,0,1,411.58,205.6Z" style="fill: rgb(224, 224, 224); transform-origin: 408.58px 205.648px;" id="elcpp7mk2s46g" class="animable"></path><path d="M424,207.67a3.66,3.66,0,1,1-3.76-3.56A3.66,3.66,0,0,1,424,207.67Z" style="fill: rgb(230, 230, 230); transform-origin: 420.341px 207.769px;" id="el6dtxfcre6x2" class="animable"></path><path d="M376.47,168.37a3.66,3.66,0,1,1-3.76-3.56A3.66,3.66,0,0,1,376.47,168.37Z" style="fill: rgb(230, 230, 230); transform-origin: 372.811px 168.469px;" id="elp0h5hn3hsgf" class="animable"></path><path d="M408.12,188.8a3.66,3.66,0,1,1-3.76-3.56A3.66,3.66,0,0,1,408.12,188.8Z" style="fill: rgb(230, 230, 230); transform-origin: 404.461px 188.899px;" id="elfjtpaumm8cp" class="animable"></path><path d="M429.89,178.27a3.66,3.66,0,1,1-3.76-3.57A3.65,3.65,0,0,1,429.89,178.27Z" style="fill: rgb(230, 230, 230); transform-origin: 426.231px 178.358px;" id="el4e8s9cpw2p6" class="animable"></path><path d="M440.62,188a3,3,0,1,1-3.11-2.95A3,3,0,0,1,440.62,188Z" style="fill: rgb(224, 224, 224); transform-origin: 437.62px 188.048px;" id="elerqb2cqiep8" class="animable"></path><path d="M438,203.63a3,3,0,1,1-3.11-2.95A3,3,0,0,1,438,203.63Z" style="fill: rgb(224, 224, 224); transform-origin: 435px 203.678px;" id="el9l6st82qkqq" class="animable"></path><path d="M430.65,198.69a3,3,0,1,1-3.11-2.95A3,3,0,0,1,430.65,198.69Z" style="fill: rgb(235, 235, 235); transform-origin: 427.65px 198.738px;" id="el7wwmvezn7wf" class="animable"></path><path d="M415.78,196.06a3,3,0,1,1-3.11-2.95A3,3,0,0,1,415.78,196.06Z" style="fill: rgb(224, 224, 224); transform-origin: 412.78px 196.108px;" id="elsgx33fufrw" class="animable"></path><path d="M396.73,164.73a3,3,0,1,1-3.11-2.95A3,3,0,0,1,396.73,164.73Z" style="fill: rgb(224, 224, 224); transform-origin: 393.73px 164.778px;" id="ellm4v3tms6k" class="animable"></path><path d="M425,188.35a3.66,3.66,0,1,1-3.76-3.56A3.67,3.67,0,0,1,425,188.35Z" style="fill: rgb(235, 235, 235); transform-origin: 421.341px 188.449px;" id="elkjh82g7mcng" class="animable"></path><path d="M445.15,171.22a3.66,3.66,0,1,1-3.75-3.56A3.66,3.66,0,0,1,445.15,171.22Z" style="fill: rgb(235, 235, 235); transform-origin: 441.491px 171.319px;" id="elbnpiyxntfd" class="animable"></path><path d="M279.42,190a3,3,0,1,1-3.11-2.95A3,3,0,0,1,279.42,190Z" style="fill: rgb(224, 224, 224); transform-origin: 276.42px 190.048px;" id="elnhm5c9zngai" class="animable"></path><path d="M295.86,180.06a3,3,0,1,1-3.12-2.94A3,3,0,0,1,295.86,180.06Z" style="fill: rgb(224, 224, 224); transform-origin: 292.861px 180.118px;" id="elsom8gdpk3lp" class="animable"></path><path d="M276.81,205.65a3,3,0,1,1-3.11-3A3,3,0,0,1,276.81,205.65Z" style="fill: rgb(224, 224, 224); transform-origin: 273.81px 205.648px;" id="elfdijhmypw6m" class="animable"></path><path d="M284,198.51a3,3,0,1,1-3.11-2.95A3,3,0,0,1,284,198.51Z" style="fill: rgb(224, 224, 224); transform-origin: 281px 198.558px;" id="elusxp27kq7wg" class="animable"></path><path d="M291.85,192.06a3.66,3.66,0,1,1-3.76-3.56A3.67,3.67,0,0,1,291.85,192.06Z" style="fill: rgb(230, 230, 230); transform-origin: 288.191px 192.159px;" id="eln8vzbgmxegm" class="animable"></path><path d="M288.63,208.36a3.66,3.66,0,1,1-3.76-3.56A3.66,3.66,0,0,1,288.63,208.36Z" style="fill: rgb(235, 235, 235); transform-origin: 284.971px 208.459px;" id="el5es46ovff1i" class="animable"></path><path d="M284,173.24a3.66,3.66,0,1,1-3.75-3.56A3.66,3.66,0,0,1,284,173.24Z" style="fill: rgb(235, 235, 235); transform-origin: 280.341px 173.339px;" id="elem2bjinezqe" class="animable"></path><path d="M381.07,275.74a4.34,4.34,0,1,1-4.37-4.31A4.34,4.34,0,0,1,381.07,275.74Z" style="fill: rgb(230, 230, 230); transform-origin: 376.73px 275.77px;" id="elv01pvr4bji" class="animable"></path><path d="M395.7,268.35a4.33,4.33,0,1,1-4.36-4.3A4.33,4.33,0,0,1,395.7,268.35Z" style="fill: rgb(230, 230, 230); transform-origin: 391.37px 268.38px;" id="elgovna5uz0n" class="animable"></path><path d="M387.26,288a4.34,4.34,0,1,1-4.37-4.3A4.33,4.33,0,0,1,387.26,288Z" style="fill: rgb(230, 230, 230); transform-origin: 382.92px 288.04px;" id="elk89eck5ve8o" class="animable"></path><path d="M413.27,276.09a4.34,4.34,0,1,1-4.36-4.31A4.34,4.34,0,0,1,413.27,276.09Z" style="fill: rgb(230, 230, 230); transform-origin: 408.93px 276.12px;" id="el6uaoz698g2n" class="animable"></path><path d="M425.73,287.82a3.59,3.59,0,1,1-3.61-3.56A3.59,3.59,0,0,1,425.73,287.82Z" style="fill: rgb(224, 224, 224); transform-origin: 422.14px 287.85px;" id="elryve9o35p9o" class="animable"></path><path d="M370,264.16a3.59,3.59,0,1,1-3.61-3.56A3.59,3.59,0,0,1,370,264.16Z" style="fill: rgb(224, 224, 224); transform-origin: 366.41px 264.19px;" id="el4d2ndq0019w" class="animable"></path><path d="M445.41,276.47a3.59,3.59,0,1,1-3.61-3.56A3.59,3.59,0,0,1,445.41,276.47Z" style="fill: rgb(224, 224, 224); transform-origin: 441.82px 276.5px;" id="el4xladwq8w" class="animable"></path><path d="M440.38,290.56a4.33,4.33,0,1,1-4.36-4.3A4.33,4.33,0,0,1,440.38,290.56Z" style="fill: rgb(230, 230, 230); transform-origin: 436.05px 290.59px;" id="eljw85v8dp0aa" class="animable"></path><path d="M326.57,264.93a4.34,4.34,0,1,1-4.37-4.3A4.34,4.34,0,0,1,326.57,264.93Z" style="fill: rgb(230, 230, 230); transform-origin: 322.23px 264.97px;" id="elw43r62b5o5s" class="animable"></path><path d="M298.51,263.53a4.34,4.34,0,1,1-4.37-4.3A4.33,4.33,0,0,1,298.51,263.53Z" style="fill: rgb(230, 230, 230); transform-origin: 294.17px 263.57px;" id="el6fib20tyhgc" class="animable"></path><path d="M407.28,287.9a4.33,4.33,0,1,1-4.36-4.31A4.33,4.33,0,0,1,407.28,287.9Z" style="fill: rgb(235, 235, 235); transform-origin: 402.95px 287.92px;" id="el02mwes5xfot" class="animable"></path><path d="M431.49,268.11a4.33,4.33,0,1,1-4.36-4.3A4.32,4.32,0,0,1,431.49,268.11Z" style="fill: rgb(235, 235, 235); transform-origin: 427.16px 268.14px;" id="elwinpcbvyp2a" class="animable"></path><path d="M354,205.62a3,3,0,1,0,3-3.11A3,3,0,0,0,354,205.62Z" style="fill: rgb(224, 224, 224); transform-origin: 356.998px 205.51px;" id="el2z2i3gjrgd7" class="animable"></path><path d="M393.71,197.48a3,3,0,1,0,2.94-3.11A3,3,0,0,0,393.71,197.48Z" style="fill: rgb(224, 224, 224); transform-origin: 396.708px 197.369px;" id="el1wyo7dndq3y" class="animable"></path><path d="M306.32,197.4a3,3,0,1,1-3.11-3A3,3,0,0,1,306.32,197.4Z" style="fill: rgb(224, 224, 224); transform-origin: 303.32px 197.398px;" id="elv8cqnl53s5k" class="animable"></path><path d="M318,187.46a3.66,3.66,0,1,1-3.76-3.56A3.67,3.67,0,0,1,318,187.46Z" style="fill: rgb(230, 230, 230); transform-origin: 314.341px 187.559px;" id="el0v1y5qvcia8" class="animable"></path><path d="M381.4,200.22a3.66,3.66,0,1,0,3.57-3.76A3.67,3.67,0,0,0,381.4,200.22Z" style="fill: rgb(230, 230, 230); transform-origin: 385.059px 200.119px;" id="el46xbkeoccp2" class="animable"></path><path d="M457.59,132l-15.49,1L418,123.57l21.72-13.1,17.35-2-.13-5.21L252.15,128.64,53.83,72.4l-.91,5.12,16.84,4.59L89.23,98.37,63.94,104l-15.16-3.35-.85,4.77,203.21,42.79L457.7,136.81ZM431,111.45,413.88,122l-17.13-6.66Zm-51.57,5.83-13,9.14-14.18-6.08Zm-41.12,4.64L328.19,130l-12-5.57Zm-33.55,3.79-8,7.21-10.33-5.14Zm-27.9,3.15-6.43,6.52-9-4.78Zm-34,.35-9.64,3.35-5.35-7.43Zm-24.29-6.61-11,3.51-6.81-8.35Zm-28.91-7.86L177,118.41l-8.77-9.51Zm-35-9.53-14.94,3.84L128.27,98ZM78.2,84.4l33.25,9-18,4Zm-5.93,21.4,20.34-4.61,14.82,12.38Zm42,9.28L96.82,100.24l21.59-4.89,3.24.88L136.19,110l-20.88,5.36Zm7.62,1.69,16.84-4.41L150,123Zm33.59,7.42-13.25-12.74,18-4.72,2.6.71L174,119.28l-17.63,5.1Zm6.18,1.37,14.26-4.19,8.67,9.26Zm27.48,6.07L178.89,120.5,194.25,116l2.14.58L205,126.94l-15.16,4.84Zm5.1,1.13,12.29-4,6.8,8.2Zm22.9,5.06-8-9.87,13.32-4.31,1.79.49,6.76,9.22L217.72,138Zm4.28,1L232.17,135l5.39,7.34Zm29.41,6.49h0l-10-2.21-6.38-8.85,11.69-4.1,5.92,1.61,6-.73L269,136.82l-7.65,7.77Zm13.83-.89,6.44-6.43,10,5.37Zm20.27-1.3-12.38-6.56,8.09-8.08,1.84-.21,12.5,6.29L285.53,143Zm4.49-.29,8-7.06,11.54,5.81Zm24-1.54-14.25-7.1,10.1-8.94,2.2-.25,14.5,6.8-11.84,9.44Zm5.36-.35,10-7.82,13.45,6.31ZM347.68,139,331,131.3l12.77-10,2.68-.31,17.1,7.42-15,10.57Zm6.5-.41,12.72-8.77,16,6.92Zm35.42-2.28-19.82-8.48,16.47-11.36,3.33-.37,20.59,8.13-19.51,12Zm8-.52,16.54-10,19.39,7.66Z" style="fill: rgb(245, 245, 245); transform-origin: 252.815px 110.305px;" id="elrtdkbbhgqve" class="animable"></path><g id="elkv6ka8bsaw"><rect x="283.3" y="277.06" width="28.28" height="19.78" style="fill: rgb(230, 230, 230); transform-origin: 297.44px 286.95px; transform: rotate(2.92deg);" class="animable"></rect></g><g id="elcgf2o906npj"><rect x="369.62" y="272.97" width="35.27" height="19.78" style="fill: rgb(250, 250, 250); transform-origin: 387.255px 282.86px; transform: rotate(-6.26deg);" class="animable"></rect></g><polygon points="182.4 195.43 150.08 186.44 153.15 165.7 185.47 174.7 182.4 195.43" style="fill: rgb(230, 230, 230); transform-origin: 167.775px 180.565px;" id="el59ide8459m7" class="animable"></polygon><polygon points="120.35 286.95 83.06 278.44 86.53 254.94 123.82 263.45 120.35 286.95" style="fill: rgb(224, 224, 224); transform-origin: 103.44px 270.945px;" id="elevhr5t5sc2" class="animable"></polygon><polygon points="356.39 194.97 380.16 192.82 379.98 178 356.21 180.15 356.39 194.97" style="fill: rgb(224, 224, 224); transform-origin: 368.185px 186.485px;" id="elhcz8lchl6go" class="animable"></polygon></g><g id="freepik--Shadow--inject-7" class="animable" style="transform-origin: 250px 416.24px;"><ellipse id="freepik--path--inject-7" cx="250" cy="416.24" rx="193.89" ry="11.32" style="fill: rgb(245, 245, 245); transform-origin: 250px 416.24px;" class="animable"></ellipse></g><g id="freepik--Backboard--inject-7" class="animable" style="transform-origin: 339.43px 249.305px;"><rect x="380.36" y="264.78" width="1" height="13.56" style="fill: rgb(64, 123, 255); transform-origin: 380.86px 271.56px;" id="ele7viil41cvi" class="animable"></rect><rect x="380.36" y="282.22" width="1" height="6.67" style="fill: rgb(64, 123, 255); transform-origin: 380.86px 285.555px;" id="elg4nk1l1cn7w" class="animable"></rect><rect x="361.92" y="170.97" width="15.93" height="239.08" style="fill: rgb(64, 123, 255); transform-origin: 369.885px 290.51px;" id="eli9vtkccmuu" class="animable"></rect><g id="elctclhzrxozj"><rect x="361.92" y="170.97" width="15.93" height="20.13" style="opacity: 0.2; transform-origin: 369.885px 181.035px;" class="animable"></rect></g><rect x="268.79" y="88.56" width="141.28" height="96.18" style="fill: rgb(64, 123, 255); transform-origin: 339.43px 136.65px;" id="el6qi1v26w1uj" class="animable"></rect><g id="el7t9kdx4gw5a"><rect x="297.34" y="72" width="84.18" height="129.28" style="fill: rgb(255, 255, 255); transform-origin: 339.43px 136.64px; transform: rotate(90deg);" class="animable"></rect></g><path d="M364.89,132v38.38H314V132h50.92m5-5H309v48.38h60.92V127Z" style="fill: rgb(64, 123, 255); transform-origin: 339.46px 151.19px;" id="el3uvcldkcrkx" class="animable"></path><path d="M359.46,162a.51.51,0,0,0-.71.07l-.39.54a.13.13,0,0,0-.06.07.76.76,0,0,0-.08.11c-.61.31-1.44.74-2.45,1.32-.6-.67-1.2-1.34-1.8-2a.38.38,0,0,0-.55.51c.56.6,1.12,1.22,1.69,1.86-1.36.81-2.64,1.6-3.86,2.42-1-1.11-2.08-2.2-3.14-3.26.47-.33.94-.66,1.39-1a.38.38,0,0,0,.09-.53.37.37,0,0,0-.52-.09l-1.51,1c-.35-.34-.7-.69-1.05-1a.38.38,0,1,0-.51.55l.95.91c-1.27.92-2.45,1.83-3.58,2.74-1-1-2.15-2-3.36-3l.75-.63a.36.36,0,0,0,.05-.52.38.38,0,0,0-.53-.05l-.86.71-.86-.72a.38.38,0,1,0-.47.59l.76.62q-1.73,1.48-3.35,3c-1.14-.92-2.33-1.82-3.59-2.74l.95-.91a.38.38,0,0,0-.51-.55c-.35.32-.7.67-1.05,1l-1.51-1a.38.38,0,0,0-.53.09.39.39,0,0,0,.1.53c.45.3.92.63,1.39,1-1,1-2.1,2.12-3.15,3.26-1.31-.87-2.6-1.68-3.85-2.42.55-.63,1.11-1.26,1.68-1.86a.38.38,0,1,0-.55-.51c-.6.64-1.2,1.31-1.79,2-.83-.47-1.65-.9-2.43-1.3a1.25,1.25,0,0,0-.09-.12l0-.05-.44-.57a.49.49,0,0,0-.7-.07.5.5,0,0,0-.08.7s.16.2.43.56h0l0,0c.33.47,1,1.44,1.81,2.87a43.67,43.67,0,0,1,2.45,5c.1.24.2.47.3.72a47.89,47.89,0,0,1,1.59,4.74s0,0,0,.05c.24.85.47,1.78.7,2.86s.43,2.2.57,3.27.28,2.26.37,3.52c.07,1.06.1,2.21.1,3.52,0,.7,0,1.62-.08,2.55a49.76,49.76,0,0,1-.63,5.47c-.06.35-.12.71-.19,1.07-.25,1.32-.55,2.64-.9,3.94-.2.73-.41,1.47-.65,2.22a.49.49,0,0,0,.32.63.4.4,0,0,0,.15,0,.5.5,0,0,0,.48-.35c.18-.57.33-1.12.49-1.67.43.35.9.75,1.43,1.21l-.06.11a.37.37,0,0,0,.12.52.45.45,0,0,0,.19.05.37.37,0,0,0,.32-.17l.09.08a.38.38,0,0,0,.25.09.35.35,0,0,0,.28-.13.38.38,0,0,0,0-.53l-.18-.16c.6-1,1.27-2,2-3.12.78.74,1.61,1.56,2.46,2.46l-.48.68-.14.21a.37.37,0,0,0,.09.52.35.35,0,0,0,.21.07.38.38,0,0,0,.31-.16l.15-.21.38-.55c.25.26.49.52.73.8a.39.39,0,0,0,.28.12.38.38,0,0,0,.25-.09.37.37,0,0,0,0-.53c-.28-.32-.56-.62-.84-.92.76-1.08,1.51-2.08,2.14-2.9.73.82,1.49,1.71,2.29,2.68l-.9,1.16a.36.36,0,0,0,.07.52.3.3,0,0,0,.22.08.36.36,0,0,0,.3-.15c.26-.34.53-.67.8-1l.8,1a.37.37,0,0,0,.29.14.41.41,0,0,0,.24-.08.38.38,0,0,0,.06-.53c-.31-.38-.61-.77-.91-1.15.8-1,1.56-1.86,2.3-2.68.81,1.05,1.5,2,2.14,2.89l-.85.93a.37.37,0,0,0,0,.52.38.38,0,0,0,.53,0c.25-.28.49-.54.74-.8l.38.55.15.21a.38.38,0,0,0,.3.16.36.36,0,0,0,.22-.07.37.37,0,0,0,.09-.52l-.14-.21-.48-.68c.83-.88,1.65-1.7,2.45-2.46.69,1,1.36,2,2,3.12l-.18.16a.38.38,0,0,0,0,.53.35.35,0,0,0,.28.13.38.38,0,0,0,.25-.09l.1-.09a.34.34,0,0,0,.3.18.42.42,0,0,0,.21-.06.39.39,0,0,0,.11-.53l-.06-.09c.51-.44,1-.84,1.44-1.21.15.55.31,1.1.49,1.67a.5.5,0,0,0,.48.35.44.44,0,0,0,.15,0,.5.5,0,0,0,.32-.63c-.24-.75-.45-1.49-.65-2.22-.35-1.28-.65-2.6-.9-3.83a.37.37,0,0,0,0-.11l-.19-1.08a49.92,49.92,0,0,1-.62-5.48c-.06-.92-.08-1.79-.09-2.52,0-1.32,0-2.47.11-3.53.09-1.26.21-2.44.37-3.53s.33-2.12.57-3.26c.19-.89.41-1.8.7-2.87.43-1.55,1-3.13,1.57-4.71l0-.09c.09-.23.18-.46.29-.7a42.14,42.14,0,0,1,2.45-5c.73-1.28,1.37-2.24,1.79-2.84l.05-.06c.26-.36.41-.55.42-.56A.5.5,0,0,0,359.46,162Zm-5.82,9.46a.3.3,0,0,0,0,.08s0,0,0,.06c-1.08.7-2.09,1.39-3.08,2.1-1-1.17-2-2.23-2.92-3.22,1.21-.92,2.4-1.79,3.56-2.58.92,1,1.83,2,2.7,3.07C353.77,171.16,353.7,171.33,353.64,171.49Zm-7.92,26c.86-.85,1.75-1.7,2.65-2.51.78,1.09,1.51,2.14,2.2,3.19-.88.74-1.77,1.53-2.67,2.38C347.22,199.6,346.5,198.59,345.72,197.54Zm-3.47,2.54c-.77-1-1.55-1.91-2.32-2.81.83-1,1.66-1.88,2.48-2.73.78,1,1.55,1.92,2.32,2.93C343.93,198.28,343.09,199.15,342.25,200.08Zm-8.12-2.6c.73-1,1.5-1.94,2.32-2.94.8.83,1.63,1.74,2.49,2.72-.73.84-1.5,1.77-2.34,2.82C335.79,199.19,335,198.31,334.13,197.48ZM331,200.59c-.9-.85-1.8-1.65-2.67-2.38.7-1.06,1.44-2.13,2.2-3.18.9.82,1.79,1.66,2.66,2.52C332.5,198.4,331.73,199.45,331,200.59Zm-2.46,3.78c-.6-.53-1.13-1-1.61-1.36.33-1.26.63-2.54.88-3.83a2.23,2.23,0,0,1,0-.23l.07-.11c.87.74,1.76,1.53,2.66,2.38C329.77,202.35,329.1,203.39,328.49,204.37Zm-3.23-32.79L325,171c.92-1.09,1.81-2.1,2.69-3.07,1.19.82,2.39,1.68,3.57,2.58-.91,1-1.88,2-2.93,3.23-1-.74-2.07-1.45-3.07-2.1C325.27,171.62,325.27,171.6,325.26,171.58Zm25.41,11.19c-.16,1.08-.29,2.26-.37,3.5l-1.18.95c-.9-1.17-1.79-2.25-2.52-3.13,1-.89,2-1.74,3.09-2.56Zm-4.53,8.07c.94-.88,1.9-1.73,2.87-2.54.39.52.79,1,1.17,1.57v0c0,.73,0,1.59.09,2.49-.56.46-1.15,1-1.78,1.51C347.71,192.85,346.93,191.82,346.14,190.84Zm-3.7,2.57c-.81-1-1.65-1.93-2.5-2.86.86-.92,1.75-1.85,2.68-2.76.81.92,1.65,1.92,2.51,3C344.27,191.56,343.37,192.45,342.44,193.41Zm-3,3.28c-.86-1-1.7-1.9-2.49-2.74.83-1,1.67-1.94,2.49-2.84.84.92,1.68,1.88,2.49,2.84C341.1,194.81,340.27,195.73,339.43,196.69Zm-5.7-5.93c.83-1,1.67-2,2.5-3,.89.86,1.79,1.79,2.69,2.76-.82.9-1.66,1.86-2.5,2.86C335.49,192.45,334.59,191.56,333.73,190.76Zm-3.37,3.16q-.93-.81-1.77-1.5c.06-.91.08-1.81.08-2.51v0l1.17-1.57c1,.82,1.94,1.67,2.87,2.55C331.94,191.79,331.17,192.81,330.36,193.92Zm-1.18-12.38c1,.77,2,1.62,3.08,2.55-.86,1-1.71,2.08-2.53,3.13l-1.17-.95c-.08-1.25-.21-2.43-.36-3.5Zm2.7-10.57c1.16.9,2.26,1.8,3.33,2.72-1,1.05-2,2.07-2.92,3.08-1.06-.87-2.16-1.72-3.34-2.59C330,173,331,171.92,331.88,171Zm7.55-.28c1,.9,2.05,1.89,3.11,2.95-1.06.93-2.1,1.88-3.11,2.83-1-1-2.06-1.91-3.12-2.82C337.45,172.52,338.48,171.54,339.43,170.69Zm6.55,6.55c-1,.84-2.06,1.75-3.1,2.71-.95-1-1.93-2-2.91-3,1-1,2-1.89,3.11-2.82C344.07,175.18,345,176.2,346,177.24Zm-3.33,9.46c-.9-1-1.81-2-2.7-2.91,1-1,1.94-1.92,2.89-2.79.92,1,1.83,2,2.71,3C344.57,184.88,343.6,185.78,342.65,186.7Zm-3.22,3.3c-.91-1-1.81-1.91-2.7-2.78.91-1,1.81-2,2.69-2.89.9.92,1.8,1.89,2.7,2.89C341.19,188.14,340.29,189.07,339.43,190Zm-6.12-6c.86-1,1.75-2,2.7-3,.95.87,1.92,1.8,2.89,2.79-.89.92-1.8,1.89-2.7,2.91C335.27,185.8,334.3,184.9,333.31,184Zm6.11-6.5q1.49,1.44,2.91,2.94c-.95.87-1.93,1.81-2.91,2.81-1-1-1.95-1.94-2.9-2.81C337.47,179.45,338.44,178.47,339.42,177.51Zm-.54-.52c-1,1-2,1.95-2.91,3-1.06-1-2.1-1.88-3.1-2.7.91-1,1.87-2,2.91-3.07C336.83,175.09,337.87,176,338.88,177Zm-6.52.82c1,.81,2,1.71,3.09,2.68-.95,1-1.84,2-2.7,3-1.08-.93-2.11-1.79-3.09-2.56C330.5,179.93,331.41,178.87,332.36,177.81Zm-3.74,9.48.65.52c-.21.27-.41.54-.61.82C328.65,188.16,328.64,187.71,328.62,187.29Zm-.11,6c.45.38.92.77,1.4,1.2-.63.87-1.24,1.76-1.83,2.64C328.27,195.9,328.42,194.62,328.51,193.33Zm1.79-5.63c.82-1,1.66-2.09,2.52-3.11,1,.87,1.95,1.77,2.88,2.67-.85,1-1.69,2-2.52,3C332.24,189.38,331.28,188.52,330.3,187.7Zm12.85-.44c.94-.91,1.91-1.81,2.89-2.67.73.87,1.61,1.95,2.51,3.11q-1.46,1.23-2.88,2.55C344.82,189.19,344,188.19,343.15,187.26Zm7.05,1.38-.62-.82.66-.54C350.22,187.71,350.21,188.17,350.2,188.64Zm.14,4.68c.1,1.29.24,2.58.43,3.86-.58-.87-1.19-1.75-1.83-2.65Zm-4.23-9.8c-.88-1-1.79-2-2.71-3,1-1,2.07-1.86,3.09-2.69.85.94,1.75,2,2.72,3.15C348.17,181.77,347.13,182.63,346.11,183.52Zm.45-6.76c-.94-1-1.92-2.07-2.92-3.08,1.1-.94,2.22-1.85,3.34-2.71.94,1,1.9,2,2.92,3.21C348.73,175,347.63,175.89,346.56,176.76Zm.49-6.79c-1.08-1.12-2.11-2.14-3.14-3.11,1.14-.91,2.32-1.81,3.58-2.73,1.06,1.05,2.11,2.14,3.13,3.25C349.47,168.17,348.27,169,347.05,170Zm-.6.46c-1.12.87-2.24,1.78-3.34,2.72q-1.61-1.59-3.12-3c1.06-.95,2.15-1.89,3.34-2.85C344.35,168.3,345.38,169.32,346.45,170.43Zm-7-.74c-1.08-1-2.18-1.92-3.35-2.87q1.64-1.53,3.35-3c1.21,1,2.31,2,3.35,3C341.59,167.79,340.49,168.73,339.43,169.69Zm-.56.5c-.95.85-2,1.83-3.13,3-1.07-.93-2.18-1.83-3.33-2.73,1-1,2-2.06,3.12-3.09C336.7,168.28,337.8,169.22,338.87,170.19Zm-7.06-.22c-1.19-.91-2.39-1.77-3.58-2.59,1-1.13,2.1-2.22,3.14-3.25,1.26.92,2.44,1.82,3.58,2.73C333.86,167.9,332.8,168.94,331.81,170Zm-3.35,4.78c1.17.86,2.27,1.71,3.32,2.58-1,1.07-1.87,2.13-2.71,3.17-.51-.39-1-.76-1.47-1.11-.22-1-.44-2-.68-2.82C327.44,176,328,175.34,328.46,174.75Zm-.64,5.73.77.6-.55.69C328,181.34,327.9,180.91,327.82,180.48Zm3.1,13.94c.8-1.11,1.58-2.11,2.34-3.07.85.8,1.75,1.68,2.67,2.64-.83,1-1.6,2-2.34,2.95Q332.29,195.65,330.92,194.42Zm8.51,3.42c.77.9,1.54,1.84,2.31,2.8-.74.83-1.51,1.72-2.32,2.7-.8-1-1.57-1.87-2.31-2.7C337.94,199.6,338.71,198.68,339.43,197.84Zm3.5-3.85c.92-1,1.81-1.84,2.66-2.64.78,1,1.57,2,2.34,3.07-.91.82-1.8,1.66-2.67,2.51C344.49,195.93,343.72,195,342.93,194Zm8.05,4.86.09.13,0,.12s0,.07,0,.1c.25,1.29.55,2.57.88,3.81-.5.4-1,.85-1.62,1.36-.67-1.08-1.34-2.12-2-3.15C349.22,200.38,350.11,199.59,351,198.85Zm-.16-17.09-.54-.69.76-.59C351,180.91,350.88,181.34,350.82,181.76Zm.44-2.37h0c-.47.34-1,.71-1.46,1.1-1-1.18-1.87-2.22-2.73-3.17,1.06-.87,2.16-1.72,3.32-2.57.52.59,1,1.2,1.54,1.82C351.66,177.62,351.44,178.52,351.26,179.39ZM321.5,164.12l1.08.6-.06.07-.36.42C321.92,164.8,321.7,164.44,321.5,164.12Zm1.05,1.78.53-.62.16-.18c1.25.73,2.54,1.54,3.84,2.41q-1.17,1.29-2.4,2.73A41.68,41.68,0,0,0,322.55,165.9Zm3.17,6.93c.7.47,1.41,1,2.13,1.48l-1.18,1.4C326.38,174.73,326.06,173.77,325.72,172.83Zm5.78,28.28c.77-1.13,1.53-2.17,2.17-3,.83.84,1.65,1.7,2.47,2.6-.63.82-1.39,1.83-2.16,2.91C333.12,202.69,332.29,201.85,331.5,201.11Zm13.38,2.48c-.65-.91-1.35-1.85-2.16-2.91.84-.93,1.66-1.79,2.46-2.6.78,1,1.49,2,2.17,3C346.54,201.88,345.72,202.71,344.88,203.59Zm7.31-27.87c-.4-.48-.79-1-1.19-1.41.69-.51,1.41-1,2.15-1.5C352.8,173.79,352.48,174.75,352.19,175.72Zm2-5.49c-.78-.91-1.58-1.82-2.4-2.72,1.21-.81,2.48-1.61,3.85-2.41l.68.79A43.81,43.81,0,0,0,354.17,170.23Zm2.53-5-.42-.49,1.08-.61Z" style="fill: rgb(64, 123, 255); transform-origin: 339.426px 183.79px;" id="eljk0smbvlvrh" class="animable"></path><g id="elg3afxw0z2mt"><path d="M359.46,162a.51.51,0,0,0-.71.07l-.39.54a.13.13,0,0,0-.06.07.76.76,0,0,0-.08.11c-.61.31-1.44.74-2.45,1.32-.6-.67-1.2-1.34-1.8-2a.38.38,0,0,0-.55.51c.56.6,1.12,1.22,1.69,1.86-1.36.81-2.64,1.6-3.86,2.42-1-1.11-2.08-2.2-3.14-3.26.47-.33.94-.66,1.39-1a.38.38,0,0,0,.09-.53.37.37,0,0,0-.52-.09l-1.51,1c-.35-.34-.7-.69-1.05-1a.38.38,0,1,0-.51.55l.95.91c-1.27.92-2.45,1.83-3.58,2.74-1-1-2.15-2-3.36-3l.75-.63a.36.36,0,0,0,.05-.52.38.38,0,0,0-.53-.05l-.86.71-.86-.72a.38.38,0,1,0-.47.59l.76.62q-1.73,1.48-3.35,3c-1.14-.92-2.33-1.82-3.59-2.74l.95-.91a.38.38,0,0,0-.51-.55c-.35.32-.7.67-1.05,1l-1.51-1a.38.38,0,0,0-.53.09.39.39,0,0,0,.1.53c.45.3.92.63,1.39,1-1,1-2.1,2.12-3.15,3.26-1.31-.87-2.6-1.68-3.85-2.42.55-.63,1.11-1.26,1.68-1.86a.38.38,0,1,0-.55-.51c-.6.64-1.2,1.31-1.79,2-.83-.47-1.65-.9-2.43-1.3a1.25,1.25,0,0,0-.09-.12l0-.05-.44-.57a.49.49,0,0,0-.7-.07.5.5,0,0,0-.08.7s.16.2.43.56h0l0,0c.33.47,1,1.44,1.81,2.87a43.67,43.67,0,0,1,2.45,5c.1.24.2.47.3.72a47.89,47.89,0,0,1,1.59,4.74s0,0,0,.05c.24.85.47,1.78.7,2.86s.43,2.2.57,3.27.28,2.26.37,3.52c.07,1.06.1,2.21.1,3.52,0,.7,0,1.62-.08,2.55a49.76,49.76,0,0,1-.63,5.47c-.06.35-.12.71-.19,1.07-.25,1.32-.55,2.64-.9,3.94-.2.73-.41,1.47-.65,2.22a.49.49,0,0,0,.32.63.4.4,0,0,0,.15,0,.5.5,0,0,0,.48-.35c.18-.57.33-1.12.49-1.67.43.35.9.75,1.43,1.21l-.06.11a.37.37,0,0,0,.12.52.45.45,0,0,0,.19.05.37.37,0,0,0,.32-.17l.09.08a.38.38,0,0,0,.25.09.35.35,0,0,0,.28-.13.38.38,0,0,0,0-.53l-.18-.16c.6-1,1.27-2,2-3.12.78.74,1.61,1.56,2.46,2.46l-.48.68-.14.21a.37.37,0,0,0,.09.52.35.35,0,0,0,.21.07.38.38,0,0,0,.31-.16l.15-.21.38-.55c.25.26.49.52.73.8a.39.39,0,0,0,.28.12.38.38,0,0,0,.25-.09.37.37,0,0,0,0-.53c-.28-.32-.56-.62-.84-.92.76-1.08,1.51-2.08,2.14-2.9.73.82,1.49,1.71,2.29,2.68l-.9,1.16a.36.36,0,0,0,.07.52.3.3,0,0,0,.22.08.36.36,0,0,0,.3-.15c.26-.34.53-.67.8-1l.8,1a.37.37,0,0,0,.29.14.41.41,0,0,0,.24-.08.38.38,0,0,0,.06-.53c-.31-.38-.61-.77-.91-1.15.8-1,1.56-1.86,2.3-2.68.81,1.05,1.5,2,2.14,2.89l-.85.93a.37.37,0,0,0,0,.52.38.38,0,0,0,.53,0c.25-.28.49-.54.74-.8l.38.55.15.21a.38.38,0,0,0,.3.16.36.36,0,0,0,.22-.07.37.37,0,0,0,.09-.52l-.14-.21-.48-.68c.83-.88,1.65-1.7,2.45-2.46.69,1,1.36,2,2,3.12l-.18.16a.38.38,0,0,0,0,.53.35.35,0,0,0,.28.13.38.38,0,0,0,.25-.09l.1-.09a.34.34,0,0,0,.3.18.42.42,0,0,0,.21-.06.39.39,0,0,0,.11-.53l-.06-.09c.51-.44,1-.84,1.44-1.21.15.55.31,1.1.49,1.67a.5.5,0,0,0,.48.35.44.44,0,0,0,.15,0,.5.5,0,0,0,.32-.63c-.24-.75-.45-1.49-.65-2.22-.35-1.28-.65-2.6-.9-3.83a.37.37,0,0,0,0-.11l-.19-1.08a49.92,49.92,0,0,1-.62-5.48c-.06-.92-.08-1.79-.09-2.52,0-1.32,0-2.47.11-3.53.09-1.26.21-2.44.37-3.53s.33-2.12.57-3.26c.19-.89.41-1.8.7-2.87.43-1.55,1-3.13,1.57-4.71l0-.09c.09-.23.18-.46.29-.7a42.14,42.14,0,0,1,2.45-5c.73-1.28,1.37-2.24,1.79-2.84l.05-.06c.26-.36.41-.55.42-.56A.5.5,0,0,0,359.46,162Zm-5.82,9.46a.3.3,0,0,0,0,.08s0,0,0,.06c-1.08.7-2.09,1.39-3.08,2.1-1-1.17-2-2.23-2.92-3.22,1.21-.92,2.4-1.79,3.56-2.58.92,1,1.83,2,2.7,3.07C353.77,171.16,353.7,171.33,353.64,171.49Zm-7.92,26c.86-.85,1.75-1.7,2.65-2.51.78,1.09,1.51,2.14,2.2,3.19-.88.74-1.77,1.53-2.67,2.38C347.22,199.6,346.5,198.59,345.72,197.54Zm-3.47,2.54c-.77-1-1.55-1.91-2.32-2.81.83-1,1.66-1.88,2.48-2.73.78,1,1.55,1.92,2.32,2.93C343.93,198.28,343.09,199.15,342.25,200.08Zm-8.12-2.6c.73-1,1.5-1.94,2.32-2.94.8.83,1.63,1.74,2.49,2.72-.73.84-1.5,1.77-2.34,2.82C335.79,199.19,335,198.31,334.13,197.48ZM331,200.59c-.9-.85-1.8-1.65-2.67-2.38.7-1.06,1.44-2.13,2.2-3.18.9.82,1.79,1.66,2.66,2.52C332.5,198.4,331.73,199.45,331,200.59Zm-2.46,3.78c-.6-.53-1.13-1-1.61-1.36.33-1.26.63-2.54.88-3.83a2.23,2.23,0,0,1,0-.23l.07-.11c.87.74,1.76,1.53,2.66,2.38C329.77,202.35,329.1,203.39,328.49,204.37Zm-3.23-32.79L325,171c.92-1.09,1.81-2.1,2.69-3.07,1.19.82,2.39,1.68,3.57,2.58-.91,1-1.88,2-2.93,3.23-1-.74-2.07-1.45-3.07-2.1C325.27,171.62,325.27,171.6,325.26,171.58Zm25.41,11.19c-.16,1.08-.29,2.26-.37,3.5l-1.18.95c-.9-1.17-1.79-2.25-2.52-3.13,1-.89,2-1.74,3.09-2.56Zm-4.53,8.07c.94-.88,1.9-1.73,2.87-2.54.39.52.79,1,1.17,1.57v0c0,.73,0,1.59.09,2.49-.56.46-1.15,1-1.78,1.51C347.71,192.85,346.93,191.82,346.14,190.84Zm-3.7,2.57c-.81-1-1.65-1.93-2.5-2.86.86-.92,1.75-1.85,2.68-2.76.81.92,1.65,1.92,2.51,3C344.27,191.56,343.37,192.45,342.44,193.41Zm-3,3.28c-.86-1-1.7-1.9-2.49-2.74.83-1,1.67-1.94,2.49-2.84.84.92,1.68,1.88,2.49,2.84C341.1,194.81,340.27,195.73,339.43,196.69Zm-5.7-5.93c.83-1,1.67-2,2.5-3,.89.86,1.79,1.79,2.69,2.76-.82.9-1.66,1.86-2.5,2.86C335.49,192.45,334.59,191.56,333.73,190.76Zm-3.37,3.16q-.93-.81-1.77-1.5c.06-.91.08-1.81.08-2.51v0l1.17-1.57c1,.82,1.94,1.67,2.87,2.55C331.94,191.79,331.17,192.81,330.36,193.92Zm-1.18-12.38c1,.77,2,1.62,3.08,2.55-.86,1-1.71,2.08-2.53,3.13l-1.17-.95c-.08-1.25-.21-2.43-.36-3.5Zm2.7-10.57c1.16.9,2.26,1.8,3.33,2.72-1,1.05-2,2.07-2.92,3.08-1.06-.87-2.16-1.72-3.34-2.59C330,173,331,171.92,331.88,171Zm7.55-.28c1,.9,2.05,1.89,3.11,2.95-1.06.93-2.1,1.88-3.11,2.83-1-1-2.06-1.91-3.12-2.82C337.45,172.52,338.48,171.54,339.43,170.69Zm6.55,6.55c-1,.84-2.06,1.75-3.1,2.71-.95-1-1.93-2-2.91-3,1-1,2-1.89,3.11-2.82C344.07,175.18,345,176.2,346,177.24Zm-3.33,9.46c-.9-1-1.81-2-2.7-2.91,1-1,1.94-1.92,2.89-2.79.92,1,1.83,2,2.71,3C344.57,184.88,343.6,185.78,342.65,186.7Zm-3.22,3.3c-.91-1-1.81-1.91-2.7-2.78.91-1,1.81-2,2.69-2.89.9.92,1.8,1.89,2.7,2.89C341.19,188.14,340.29,189.07,339.43,190Zm-6.12-6c.86-1,1.75-2,2.7-3,.95.87,1.92,1.8,2.89,2.79-.89.92-1.8,1.89-2.7,2.91C335.27,185.8,334.3,184.9,333.31,184Zm6.11-6.5q1.49,1.44,2.91,2.94c-.95.87-1.93,1.81-2.91,2.81-1-1-1.95-1.94-2.9-2.81C337.47,179.45,338.44,178.47,339.42,177.51Zm-.54-.52c-1,1-2,1.95-2.91,3-1.06-1-2.1-1.88-3.1-2.7.91-1,1.87-2,2.91-3.07C336.83,175.09,337.87,176,338.88,177Zm-6.52.82c1,.81,2,1.71,3.09,2.68-.95,1-1.84,2-2.7,3-1.08-.93-2.11-1.79-3.09-2.56C330.5,179.93,331.41,178.87,332.36,177.81Zm-3.74,9.48.65.52c-.21.27-.41.54-.61.82C328.65,188.16,328.64,187.71,328.62,187.29Zm-.11,6c.45.38.92.77,1.4,1.2-.63.87-1.24,1.76-1.83,2.64C328.27,195.9,328.42,194.62,328.51,193.33Zm1.79-5.63c.82-1,1.66-2.09,2.52-3.11,1,.87,1.95,1.77,2.88,2.67-.85,1-1.69,2-2.52,3C332.24,189.38,331.28,188.52,330.3,187.7Zm12.85-.44c.94-.91,1.91-1.81,2.89-2.67.73.87,1.61,1.95,2.51,3.11q-1.46,1.23-2.88,2.55C344.82,189.19,344,188.19,343.15,187.26Zm7.05,1.38-.62-.82.66-.54C350.22,187.71,350.21,188.17,350.2,188.64Zm.14,4.68c.1,1.29.24,2.58.43,3.86-.58-.87-1.19-1.75-1.83-2.65Zm-4.23-9.8c-.88-1-1.79-2-2.71-3,1-1,2.07-1.86,3.09-2.69.85.94,1.75,2,2.72,3.15C348.17,181.77,347.13,182.63,346.11,183.52Zm.45-6.76c-.94-1-1.92-2.07-2.92-3.08,1.1-.94,2.22-1.85,3.34-2.71.94,1,1.9,2,2.92,3.21C348.73,175,347.63,175.89,346.56,176.76Zm.49-6.79c-1.08-1.12-2.11-2.14-3.14-3.11,1.14-.91,2.32-1.81,3.58-2.73,1.06,1.05,2.11,2.14,3.13,3.25C349.47,168.17,348.27,169,347.05,170Zm-.6.46c-1.12.87-2.24,1.78-3.34,2.72q-1.61-1.59-3.12-3c1.06-.95,2.15-1.89,3.34-2.85C344.35,168.3,345.38,169.32,346.45,170.43Zm-7-.74c-1.08-1-2.18-1.92-3.35-2.87q1.64-1.53,3.35-3c1.21,1,2.31,2,3.35,3C341.59,167.79,340.49,168.73,339.43,169.69Zm-.56.5c-.95.85-2,1.83-3.13,3-1.07-.93-2.18-1.83-3.33-2.73,1-1,2-2.06,3.12-3.09C336.7,168.28,337.8,169.22,338.87,170.19Zm-7.06-.22c-1.19-.91-2.39-1.77-3.58-2.59,1-1.13,2.1-2.22,3.14-3.25,1.26.92,2.44,1.82,3.58,2.73C333.86,167.9,332.8,168.94,331.81,170Zm-3.35,4.78c1.17.86,2.27,1.71,3.32,2.58-1,1.07-1.87,2.13-2.71,3.17-.51-.39-1-.76-1.47-1.11-.22-1-.44-2-.68-2.82C327.44,176,328,175.34,328.46,174.75Zm-.64,5.73.77.6-.55.69C328,181.34,327.9,180.91,327.82,180.48Zm3.1,13.94c.8-1.11,1.58-2.11,2.34-3.07.85.8,1.75,1.68,2.67,2.64-.83,1-1.6,2-2.34,2.95Q332.29,195.65,330.92,194.42Zm8.51,3.42c.77.9,1.54,1.84,2.31,2.8-.74.83-1.51,1.72-2.32,2.7-.8-1-1.57-1.87-2.31-2.7C337.94,199.6,338.71,198.68,339.43,197.84Zm3.5-3.85c.92-1,1.81-1.84,2.66-2.64.78,1,1.57,2,2.34,3.07-.91.82-1.8,1.66-2.67,2.51C344.49,195.93,343.72,195,342.93,194Zm8.05,4.86.09.13,0,.12s0,.07,0,.1c.25,1.29.55,2.57.88,3.81-.5.4-1,.85-1.62,1.36-.67-1.08-1.34-2.12-2-3.15C349.22,200.38,350.11,199.59,351,198.85Zm-.16-17.09-.54-.69.76-.59C351,180.91,350.88,181.34,350.82,181.76Zm.44-2.37h0c-.47.34-1,.71-1.46,1.1-1-1.18-1.87-2.22-2.73-3.17,1.06-.87,2.16-1.72,3.32-2.57.52.59,1,1.2,1.54,1.82C351.66,177.62,351.44,178.52,351.26,179.39ZM321.5,164.12l1.08.6-.06.07-.36.42C321.92,164.8,321.7,164.44,321.5,164.12Zm1.05,1.78.53-.62.16-.18c1.25.73,2.54,1.54,3.84,2.41q-1.17,1.29-2.4,2.73A41.68,41.68,0,0,0,322.55,165.9Zm3.17,6.93c.7.47,1.41,1,2.13,1.48l-1.18,1.4C326.38,174.73,326.06,173.77,325.72,172.83Zm5.78,28.28c.77-1.13,1.53-2.17,2.17-3,.83.84,1.65,1.7,2.47,2.6-.63.82-1.39,1.83-2.16,2.91C333.12,202.69,332.29,201.85,331.5,201.11Zm13.38,2.48c-.65-.91-1.35-1.85-2.16-2.91.84-.93,1.66-1.79,2.46-2.6.78,1,1.49,2,2.17,3C346.54,201.88,345.72,202.71,344.88,203.59Zm7.31-27.87c-.4-.48-.79-1-1.19-1.41.69-.51,1.41-1,2.15-1.5C352.8,173.79,352.48,174.75,352.19,175.72Zm2-5.49c-.78-.91-1.58-1.82-2.4-2.72,1.21-.81,2.48-1.61,3.85-2.41l.68.79A43.81,43.81,0,0,0,354.17,170.23Zm2.53-5-.42-.49,1.08-.61Z" style="fill: rgb(255, 255, 255); opacity: 0.6; transform-origin: 339.426px 183.79px;" class="animable"></path></g><path d="M358.42,164.56h-38a2.16,2.16,0,0,1-2.14-2.14h0a2.15,2.15,0,0,1,2.14-2.14h38a2.15,2.15,0,0,1,2.14,2.14h0A2.16,2.16,0,0,1,358.42,164.56Z" style="fill: rgb(38, 50, 56); transform-origin: 339.42px 162.42px;" id="elxt9miroy4rj" class="animable"></path></g><g id="freepik--Ball--inject-7" class="animable" style="transform-origin: 274.29px 236.965px;"><circle cx="274.29" cy="236.95" r="17.49" style="fill: rgb(64, 123, 255); transform-origin: 274.29px 236.95px;" id="elllqpvavwlqs" class="animable"></circle><path d="M274.43,254.84h0a.4.4,0,0,1-.39-.41,17.09,17.09,0,0,0-17.09-17.22h-.14a.4.4,0,0,1,0-.8h.14a17.89,17.89,0,0,1,17.89,18A.4.4,0,0,1,274.43,254.84Z" style="fill: rgb(38, 50, 56); transform-origin: 265.626px 245.625px;" id="elk5e0i2xmukj" class="animable"></path><path d="M291.61,237.49a17.87,17.87,0,0,1-17.86-18,.4.4,0,0,1,.4-.4h0a.4.4,0,0,1,.4.41,17.09,17.09,0,0,0,17.06,17.22h.16a.4.4,0,1,1,0,.8Z" style="fill: rgb(38, 50, 56); transform-origin: 282.96px 228.305px;" id="elk6l66zvi64s" class="animable"></path><path d="M286.66,249.72a.4.4,0,0,1-.29-.12l-24.73-24.73a.4.4,0,1,1,.57-.57L286.94,249a.4.4,0,0,1,0,.57A.38.38,0,0,1,286.66,249.72Z" style="fill: rgb(38, 50, 56); transform-origin: 274.291px 236.951px;" id="elw986dm23hvp" class="animable"></path><path d="M261.93,249.72a.41.41,0,0,1-.29-.69l24.73-24.73a.4.4,0,0,1,.57.57L262.21,249.6A.39.39,0,0,1,261.93,249.72Z" style="fill: rgb(38, 50, 56); transform-origin: 274.294px 236.951px;" id="elogdk0yumphb" class="animable"></path></g><g id="freepik--Character--inject-7" class="animable" style="transform-origin: 184.033px 277.272px;"><path d="M189.18,155.14c.09.69.52,1.19,1,1.13s.74-.65.65-1.34-.52-1.18-1-1.13S189.09,154.46,189.18,155.14Z" style="fill: rgb(38, 50, 56); transform-origin: 190.005px 155.036px;" id="elwjmxr3j9s7q" class="animable"></path><path d="M189.64,156.34a24.7,24.7,0,0,0,4,5.42c-1.06,1.28-3.18,1-3.18,1Z" style="fill: rgb(160, 39, 36); transform-origin: 191.64px 159.563px;" id="el2n5w67ijl1m" class="animable"></path><path d="M186.2,151.68a.41.41,0,0,1-.25-.7,4,4,0,0,1,3.52-1.09.41.41,0,0,1-.19.79h0a3.17,3.17,0,0,0-2.78.89A.43.43,0,0,1,186.2,151.68Z" style="fill: rgb(38, 50, 56); transform-origin: 187.78px 150.753px;" id="elqqor8w1ndfn" class="animable"></path><path d="M169.88,161.24c1.32,6.22,2.73,17.64-1.57,21.87,0,0,1.81,6.3,13.41,6.11,12.75-.21,6-6.43,6-6.43-7-1.54-6.89-6.71-5.76-11.58Z" style="fill: rgb(181, 91, 82); transform-origin: 178.908px 175.232px;" id="el31zuxg9yuu9" class="animable"></path><path d="M203.36,256.81s35.73,33.79,47.36,57.08c2.92,27.57,9.5,75.48,9.5,75.48L249.94,388s-22.43-49.5-17.81-69.26c-45.53-39.44-67.63-59.47-67.63-59.47Z" style="fill: rgb(181, 91, 82); transform-origin: 212.36px 323.09px;" id="elkmps3dopcbd" class="animable"></path><path d="M262.15,397.5,253,399.7c-4.1-12-14.92-31-17.09-46.72l19.48-5C257.36,364.87,259.51,382.87,262.15,397.5Z" style="fill: rgb(64, 123, 255); transform-origin: 249.03px 373.84px;" id="eljfyh5pax9zh" class="animable"></path><g id="el39q6p4a62x"><path d="M262.15,397.5,253,399.7c-4.1-12-14.92-31-17.09-46.72l19.48-5C257.36,364.87,259.51,382.87,262.15,397.5Z" style="fill: rgb(255, 255, 255); opacity: 0.7; transform-origin: 249.03px 373.84px;" class="animable"></path></g><path d="M261.12,389.74c-5.5-2.63-10-1.31-12.07.75,0,1.79,1.22,3.73,1.36,5.67L246.77,403a1.25,1.25,0,0,0,.79,1.79c3.25.83,7.31,1.74,11.38,2.86,4.76,1.31,8.8,2.69,14.39,4.23,3.38.92,5.25-2.23,3.92-2.93-6.05-3.17-9-7.09-13.63-12C263.12,396.39,262.15,390.47,261.12,389.74Z" style="fill: rgb(38, 50, 56); transform-origin: 262.154px 400.161px;" id="el2j73m81cft5" class="animable"></path><path d="M162.27,197.23c-1,.52-2.23,1.17-3.35,1.77s-2.29,1.26-3.41,1.92c-2.24,1.33-4.49,2.66-6.64,4.1a79.34,79.34,0,0,0-12,9.37l-1.28,1.31c-.29.3-.25.23-.33.32a2.88,2.88,0,0,0-.21.28,8.07,8.07,0,0,0-.89,2.37,33.09,33.09,0,0,0-.59,7.07c0,2.54.19,5.15.43,7.79s.57,5.32.92,7.9l0,.13a2.86,2.86,0,0,1-5.49,1.46,73.29,73.29,0,0,1-4.67-16.56,36.49,36.49,0,0,1-.33-9.31,17.46,17.46,0,0,1,1.46-5.47,11.76,11.76,0,0,1,1.78-2.77l1.47-1.74a63.26,63.26,0,0,1,6.35-6.24,82.53,82.53,0,0,1,6.87-5.36q3.54-2.5,7.25-4.66c1.24-.73,2.49-1.43,3.76-2.11s2.5-1.3,3.95-2a5.75,5.75,0,0,1,5,10.35Z" style="fill: rgb(181, 91, 82); transform-origin: 144.842px 215.565px;" id="elfhugqxip684" class="animable"></path><path d="M135.67,200.17l-.44.38a62.48,62.48,0,0,0-6.41,6.3l-1.47,1.73a13.81,13.81,0,0,0-1,1.34,12.62,12.62,0,0,0-.87,1.55,17.58,17.58,0,0,0-1.49,5.62,37.2,37.2,0,0,0,.32,9.45,69.38,69.38,0,0,0,1.54,7.31l.11.38,8.62-.22-.05-.53c-.29-3.17-.42-5.56-.43-7.75a31.74,31.74,0,0,1,.58-6.95,7.76,7.76,0,0,1,.81-2.2,1.24,1.24,0,0,1,.19-.24,2.17,2.17,0,0,0,.29-.29l1.28-1.3c1.36-1.33,2.89-2.68,4.53-4l.35-.28Z" style="fill: rgb(64, 123, 255); transform-origin: 132.979px 217.2px;" id="elr884iubkj0h" class="animable"></path><path d="M133.94,238.33l5.48,3.09-6.28,5.19s-4-1.65-4.16-5.39Z" style="fill: rgb(181, 91, 82); transform-origin: 134.2px 242.47px;" id="elo3u7qyt99x" class="animable"></path><polygon points="143.51 246.68 136.72 251.08 133.14 246.61 139.42 241.42 143.51 246.68" style="fill: rgb(181, 91, 82); transform-origin: 138.325px 246.25px;" id="elecnpmhpwae" class="animable"></polygon><path d="M202.05,190.09c2.34,8.43,4.87,27.2,1.51,67.24L158,259.64c-.6-6.27,1.49-34.67-4.2-64a10.24,10.24,0,0,1,8.54-12c1.43-.22,2.92-.41,4.39-.56a168.28,168.28,0,0,1,19.37-1c2.69.11,5.32.4,7.52.71A10.23,10.23,0,0,1,202.05,190.09Z" style="fill: rgb(38, 50, 56); transform-origin: 179.406px 220.858px;" id="ely8fbiptpu7h" class="animable"></path><path d="M198.75,257.31h0a.51.51,0,0,1-.47-.53c2-27.57-1.06-58.45-1.56-61.87a.5.5,0,1,1,1-.14c.5,3.43,3.54,34.43,1.57,62.08A.5.5,0,0,1,198.75,257.31Z" style="fill: rgb(255, 255, 255); transform-origin: 198.331px 225.823px;" id="elb1dhtphjknw" class="animable"></path><path d="M163,220.41l7.46-1a4.64,4.64,0,0,0,1.26,2.27,2.7,2.7,0,0,0,1.82.65,2.76,2.76,0,0,0,2.64-1.89q.6-1.39.46-5.86a8.07,8.07,0,0,1-2.56,2.1,7.43,7.43,0,0,1-3.26.69,9.25,9.25,0,0,1-6.51-2.61,10.4,10.4,0,0,1-3.29-6.69,9.4,9.4,0,0,1,.72-5,7.29,7.29,0,0,1,3.16-3.46,11.47,11.47,0,0,1,5.55-1.2,13.93,13.93,0,0,1,6.76,1.39,11.64,11.64,0,0,1,4.49,4.51,20.72,20.72,0,0,1,2.41,8.22q.85,7.51-1.87,11c-1.82,2.34-4.58,3.52-8.26,3.54a14.73,14.73,0,0,1-5.25-.73,9.09,9.09,0,0,1-3.39-2.22A11.61,11.61,0,0,1,163,220.41Zm12.62-12.47a5.73,5.73,0,0,0-1.52-3.52,3.92,3.92,0,0,0-2.88-1.26,2.8,2.8,0,0,0-2.38,1.17,4.83,4.83,0,0,0-.61,3.47,5.88,5.88,0,0,0,1.44,3.55,3.63,3.63,0,0,0,2.73,1.21,3,3,0,0,0,2.53-1.21A4.56,4.56,0,0,0,175.64,207.94Z" style="fill: rgb(255, 255, 255); transform-origin: 172.627px 212.739px;" id="elis5gslo2gn" class="animable"></path><g id="elew6mok7j77v"><path d="M204.27,202.87l-7.09-4.05a35.63,35.63,0,0,0,7.75,12.93C204.77,208.42,204.55,205.47,204.27,202.87Z" style="opacity: 0.2; transform-origin: 201.055px 205.285px;" class="animable"></path></g><path d="M191.56,257.8S177.67,329.06,165.31,352c-22.7,18-57.65,49.6-57.65,49.6l-5.84-8.64s30-45.78,48.79-53.36c6.1-59.93,7.38-79.93,7.38-79.93Z" style="fill: rgb(181, 91, 82); transform-origin: 146.69px 329.7px;" id="eli47h19pnrm" class="animable"></path><path d="M101.82,407.37l-9-3.25c7.26-10.44,21.35-31.54,30.61-40.56l16.16,11.14C129.28,382.23,115.68,395.64,101.82,407.37Z" style="fill: rgb(64, 123, 255); transform-origin: 116.205px 385.465px;" id="el0yfqq44xmu8" class="animable"></path><g id="eluqhq2ad8lt"><path d="M101.82,407.37l-9-3.25c7.26-10.44,21.35-31.54,30.61-40.56l16.16,11.14C129.28,382.23,115.68,395.64,101.82,407.37Z" style="fill: rgb(255, 255, 255); opacity: 0.7; transform-origin: 116.205px 385.465px;" class="animable"></path></g><path d="M106.67,403.41c0-2.54-6.56-7.34-9.32-6.34-1,.36-2.81,3.07-4.13,4.1l-6,4.93a1.24,1.24,0,0,0,0,1.95c2.68,2,6.07,4.43,9.4,7,3.89,3,7.08,3.11,14.57,3.11,3.5,0,4.47-3.54,3-3.86-6.68-1.46-8.62-2.4-9.65-7C104.42,406.65,106.71,404.74,106.67,403.41Z" style="fill: rgb(38, 50, 56); transform-origin: 100.799px 407.548px;" id="elh8r03je6e46" class="animable"></path><path d="M189.07,273s-3.42,13.19-5.12,22.33c-7.51,2-24.6,2.12-29.61-1.26.18-8.47-2-23.86,3.85-36.67C177.2,256.07,189.07,273,189.07,273Z" style="fill: rgb(38, 50, 56); transform-origin: 171.579px 277.033px;" id="elt0gfzxrv87e" class="animable"></path><g id="elc1barh2gcu"><path d="M176.27,275.23s3.49,10.75,8.3,16.93c.52-2.58,1.13-5.31,1.73-7.88Z" style="opacity: 0.2; transform-origin: 181.285px 283.695px;" class="animable"></path></g><path d="M200.71,187.25c2.13,2.18,4.46,4.53,6.79,6.69s4.71,4.33,7.13,6.38c4.83,4.07,9.94,7.89,15.09,10.36l1,.41c.36.16.48.2.78.31a20.24,20.24,0,0,0,2,.54c1.43.35,3,.65,4.55.92,3.15.53,6.38,1,9.63,1.43l19.63,2.53h0a2.87,2.87,0,0,1-.18,5.7c-6.72.45-13.39.61-20.14.49-3.37-.09-6.75-.19-10.19-.49-1.73-.15-3.46-.33-5.29-.61-.9-.15-1.85-.33-2.87-.59-.49-.13-1.17-.33-1.58-.49l-1.36-.49a56.08,56.08,0,0,1-9.72-5.06,96.83,96.83,0,0,1-8.54-6.12q-4.07-3.24-7.83-6.76-1.87-1.76-3.7-3.57c-1.24-1.23-2.38-2.42-3.62-3.79a5.75,5.75,0,0,1,8.36-7.89Z" style="fill: rgb(181, 91, 82); transform-origin: 230.299px 204.257px;" id="elrexialk4lck" class="animable"></path><path d="M264.73,216.85l8.63-2.53-.94,8.64a6.55,6.55,0,0,1-8.93-.3Z" style="fill: rgb(181, 91, 82); transform-origin: 268.425px 219.446px;" id="elt7ttr8vhqsh" class="animable"></path><polygon points="281.32 214.3 280.31 222.29 272.42 222.96 273.36 214.32 281.32 214.3" style="fill: rgb(181, 91, 82); transform-origin: 276.87px 218.63px;" id="el3fqaodbt5m8" class="animable"></polygon><path d="M166.24,156.63c1.59,8.32,2.1,13.26,6.89,17,7.2,5.65,17.05.48,18-8.15.83-7.76-1.92-20.05-10.55-22.33A11.54,11.54,0,0,0,166.24,156.63Z" style="fill: rgb(181, 91, 82); transform-origin: 178.635px 159.369px;" id="elaon761g7bg" class="animable"></path><path d="M182.73,156.34a25.63,25.63,0,0,0,3.09-8.84,2.74,2.74,0,0,0,2.73-1.83c.85-2.15-.71-5.33-2.27-5.39-1.44-3.5-8.19-5-8.59-3-4.88-2.33-11.24.59-9.8,1.67-4.08.58-9.5,3.53-8.11,7.51-3.22,2.41-2.47,8.58.56,9.88,0,5.19,8.69,11.94,8.69,11.94l8.11-.72a6.46,6.46,0,0,0,5.53-4.29A10.55,10.55,0,0,0,182.73,156.34Z" style="fill: rgb(38, 50, 56); transform-origin: 173.24px 152.332px;" id="ele57drga78gi" class="animable"></path><path d="M177.83,156.63a9.62,9.62,0,0,0,3.42,5.11c2.21,1.66,3.87,0,3.73-2.47-.13-2.26-1.44-5.85-3.88-6.53S177.21,154.17,177.83,156.63Z" style="fill: rgb(181, 91, 82); transform-origin: 181.338px 157.51px;" id="eltjrl4vde2f" class="animable"></path><polygon points="204.2 253.18 205.15 256.47 157.21 259.05 157.32 254.65 204.2 253.18" style="fill: rgb(38, 50, 56); transform-origin: 181.18px 256.115px;" id="elkbd1a6t289" class="animable"></polygon><path d="M205,256.48s10.59,9.77,16.14,17.22c-3.6,6.9-13.47,18.41-20.25,20.67-8.29-1.72-31.46-15.18-37.62-36.55C172.57,257.11,205,256.48,205,256.48Z" style="fill: rgb(38, 50, 56); transform-origin: 192.205px 275.425px;" id="ely6gty4huzz9" class="animable"></path><path d="M162.84,259.56c-1.54,0-3,0-4.21-.09a.49.49,0,0,1-.47-.52.47.47,0,0,1,.52-.47c9.34.45,27.84-1,44.7-2.42a.5.5,0,0,1,.08,1C188.1,258.38,172.77,259.56,162.84,259.56Z" style="fill: rgb(255, 255, 255); transform-origin: 181.04px 257.809px;" id="elzi1dvaq4nsf" class="animable"></path></g><defs>     <filter id="active" height="200%">         <feMorphology in="SourceAlpha" result="DILATED" operator="dilate" radius="2"></feMorphology>                <feFlood flood-color="#32DFEC" flood-opacity="1" result="PINK"></feFlood>        <feComposite in="PINK" in2="DILATED" operator="in" result="OUTLINE"></feComposite>        <feMerge>            <feMergeNode in="OUTLINE"></feMergeNode>            <feMergeNode in="SourceGraphic"></feMergeNode>        </feMerge>    </filter>    <filter id="hover" height="200%">        <feMorphology in="SourceAlpha" result="DILATED" operator="dilate" radius="2"></feMorphology>                <feFlood flood-color="#ff0000" flood-opacity="0.5" result="PINK"></feFlood>        <feComposite in="PINK" in2="DILATED" operator="in" result="OUTLINE"></feComposite>        <feMerge>            <feMergeNode in="OUTLINE"></feMergeNode>            <feMergeNode in="SourceGraphic"></feMergeNode>        </feMerge>            <feColorMatrix type="matrix" values="0   0   0   0   0                0   1   0   0   0                0   0   0   0   0                0   0   0   1   0 "></feColorMatrix>    </filter></defs></svg>