<svg class="animated" id="freepik_stories-beach-volleyball" xmlns="http://www.w3.org/2000/svg" viewBox="0 0 750 500" version="1.1" xmlns:xlink="http://www.w3.org/1999/xlink" xmlns:svgjs="http://svgjs.com/svgjs"><style>svg#freepik_stories-beach-volleyball:not(.animated) .animable {opacity: 0;}svg#freepik_stories-beach-volleyball.animated #freepik--character-2--inject-3 {animation: 2.8s 1 forwards cubic-bezier(.36,-0.01,.5,1.38) fadeIn;animation-delay: 0s;}svg#freepik_stories-beach-volleyball.animated #freepik--character-1--inject-3 {animation: 2.8s 1 forwards cubic-bezier(.36,-0.01,.5,1.38) fadeIn;animation-delay: 0s;}svg#freepik_stories-beach-volleyball.animated #freepik--Ball--inject-3 {animation: 2.6s 1 forwards cubic-bezier(.36,-0.01,.5,1.38) fadeIn;animation-delay: 0s;}            @keyframes fadeIn {                0% {                    opacity: 0;                }                100% {                    opacity: 1;                }            }        .animator-hidden { display: none; }</style><g id="freepik--background-complete--inject-3" class="animable" style="transform-origin: 397.145px 226.655px;"><path d="M731.52,212.17c0,.15-149.72.26-334.36.26s-334.39-.11-334.39-.26,149.68-.26,334.39-.26S731.52,212,731.52,212.17Z" style="fill: rgb(224, 224, 224); transform-origin: 397.145px 212.17px;" id="elpe1jk0k7d1" class="animable"></path><path d="M700.68,264.87l-1.64.48-4.8,1.36c-4.24,1.14-10.48,2.9-18.7,4.38a87.15,87.15,0,0,1-30.26.46c-5.87-.84-12.1-2.09-18.8-2.4s-13.75.89-21,2.75-14.7,4.25-22.86,5a40.57,40.57,0,0,1-12.44-.7,119.46,119.46,0,0,1-12.42-3.63,62.77,62.77,0,0,0-12.92-3.1,27.92,27.92,0,0,0-6.77.2,27.37,27.37,0,0,0-3.31.88,24.6,24.6,0,0,0-3.18,1.34c-4.17,2.07-7.93,5-12.22,7.23a21.89,21.89,0,0,1-6.91,2.34,18.53,18.53,0,0,1-7.37-.49c-4.83-1.28-9.2-3.83-13.87-5.67a31.82,31.82,0,0,0-7.28-1.95,37.26,37.26,0,0,0-7.62-.23c-10.3.71-20.25,4.64-30.82,6.59a41.5,41.5,0,0,1-16.21.22,29.64,29.64,0,0,1-7.74-2.89c-2.44-1.29-4.76-2.79-7.19-4.09a24.33,24.33,0,0,0-7.72-2.83,26.67,26.67,0,0,0-8.27,0c-5.52.9-10.8,3-16.21,4.75a61.75,61.75,0,0,1-8.23,2.23,31,31,0,0,1-8.48.54c-5.67-.51-11-2.48-16.2-4.3-2.61-.91-5.22-1.79-7.88-2.45a31.08,31.08,0,0,0-8.05-1.07,17,17,0,0,0-2,.1,16.56,16.56,0,0,0-2,.25,31,31,0,0,0-3.9,1,60.18,60.18,0,0,0-7.38,3.19c-2.4,1.18-4.78,2.41-7.23,3.46a50.49,50.49,0,0,1-23.15,3.91,50.45,50.45,0,0,1-15-3.3c-4.72-1.85-9.09-4.33-13.72-5.93a26.22,26.22,0,0,0-7.1-1.53,29.08,29.08,0,0,0-7.16.42,96.16,96.16,0,0,0-13.58,4,57,57,0,0,1-13.44,3.23,59.57,59.57,0,0,1-13.38-.48c-8.7-1.2-16.93-3.34-25-4.07a50,50,0,0,0-11.88.27,55.87,55.87,0,0,0-11,3A79.5,79.5,0,0,1,146,280.61a38.28,38.28,0,0,1-10.36.54c-6.72-.5-12.91-2-18.81-2.38a38.82,38.82,0,0,0-8.52.19,35.74,35.74,0,0,0-7.63,2c-4.74,1.79-8.87,3.93-12.77,5.41a32.24,32.24,0,0,1-10.78,2.45,20.29,20.29,0,0,1-8-1.15,13.89,13.89,0,0,1-4.29-2.52,16.32,16.32,0,0,1-1.21-1.2l.32.29c.21.19.49.52.92.87a14.18,14.18,0,0,0,4.3,2.46,20,20,0,0,0,8,1.09,32.33,32.33,0,0,0,10.72-2.48c3.88-1.49,8-3.64,12.75-5.45a35.33,35.33,0,0,1,7.68-2.05,38.73,38.73,0,0,1,8.58-.22c5.93.4,12.13,1.86,18.82,2.34a37.55,37.55,0,0,0,10.26-.56,77.12,77.12,0,0,0,10.39-3.19,56.53,56.53,0,0,1,11-3.07,49.74,49.74,0,0,1,12-.29c8.14.73,16.38,2.86,25,4a58.75,58.75,0,0,0,13.28.46A56.17,56.17,0,0,0,231,275a96.15,96.15,0,0,1,13.65-4,29.4,29.4,0,0,1,7.27-.44,26.85,26.85,0,0,1,7.22,1.55c4.69,1.63,9.07,4.1,13.75,5.94a50.58,50.58,0,0,0,30.26,1.88,53,53,0,0,0,7.48-2.5c2.43-1,4.8-2.27,7.21-3.46a61.6,61.6,0,0,1,7.44-3.22,31.25,31.25,0,0,1,4-1,17.22,17.22,0,0,1,2-.25,20.31,20.31,0,0,1,2.06-.11,32,32,0,0,1,8.19,1.09c2.68.67,5.31,1.55,7.92,2.46,5.22,1.82,10.5,3.77,16.07,4.27s11.15-.95,16.51-2.74,10.69-3.86,16.29-4.77a26.85,26.85,0,0,1,8.44,0,24.82,24.82,0,0,1,7.87,2.88c2.46,1.32,4.78,2.82,7.19,4.09a28.44,28.44,0,0,0,7.61,2.84,40.88,40.88,0,0,0,16-.21c10.51-1.93,20.47-5.87,30.87-6.59a38.34,38.34,0,0,1,7.73.25,31.5,31.5,0,0,1,7.39,2c4.72,1.86,9.07,4.4,13.81,5.65a17.83,17.83,0,0,0,7.18.49,21,21,0,0,0,6.76-2.29c4.25-2.19,8-5.13,12.23-7.22a26.13,26.13,0,0,1,3.24-1.36,29,29,0,0,1,3.38-.89,28,28,0,0,1,6.89-.2,63.62,63.62,0,0,1,13,3.13,118.15,118.15,0,0,0,12.36,3.63,40.12,40.12,0,0,0,12.32.71c8.1-.73,15.59-3.15,22.81-4.95s14.31-3.16,21.06-2.73,13,1.59,18.82,2.44a87.25,87.25,0,0,0,30.19-.37c8.21-1.44,14.46-3.18,18.7-4.28L699,265.3Z" style="fill: rgb(224, 224, 224); transform-origin: 382.155px 276.862px;" id="el0qdkne648tk" class="animable"></path><path d="M459.46,334.8l-.48,0-1.42-.15-5.46-.56c-2.37-.25-5.27-.5-8.64-.7a107.53,107.53,0,0,0-11.48-.1,66,66,0,0,0-13.7,2.07q-1.8.51-3.63,1.14c-1.2.46-2.44.89-3.65,1.44-2.43,1.07-4.89,2.32-7.54,3.32a19.54,19.54,0,0,1-8.56,1.46,26.19,26.19,0,0,1-8.64-2.71,45.29,45.29,0,0,0-8.63-3.4,21.31,21.31,0,0,0-9.43.12c-6.31,1.43-12,4.48-17.84,6.35a31.74,31.74,0,0,1-8.89,1.72,30.79,30.79,0,0,1-8.63-1c-5.51-1.33-10.43-3.51-15.18-5.05a55.82,55.82,0,0,0-7-1.89,28.39,28.39,0,0,0-3.36-.44c-.55,0-1.1-.1-1.64-.1l-1.6.05c-4.25.15-7.85,1.75-10.91,3.12a73,73,0,0,1-8,3.37,17.18,17.18,0,0,1-5.41.89,12.85,12.85,0,0,1-1.91-.14,4.52,4.52,0,0,1,.49,0,14.07,14.07,0,0,0,1.42,0,17.81,17.81,0,0,0,5.35-1,74.08,74.08,0,0,0,7.95-3.43c3.05-1.4,6.68-3.05,11-3.23l1.63-.06c.55,0,1.1.06,1.66.09a29.16,29.16,0,0,1,3.41.43,55.51,55.51,0,0,1,7,1.88c4.78,1.53,9.71,3.69,15.16,5a30,30,0,0,0,8.5,1,31.45,31.45,0,0,0,8.76-1.7c5.8-1.86,11.46-4.92,17.88-6.38a21.84,21.84,0,0,1,9.65-.12,46.11,46.11,0,0,1,8.73,3.44,25.41,25.41,0,0,0,8.47,2.68,18.9,18.9,0,0,0,8.35-1.41c2.62-1,5.08-2.22,7.53-3.29,1.22-.55,2.47-1,3.68-1.44s2.45-.8,3.67-1.13a65.52,65.52,0,0,1,13.8-2,103.76,103.76,0,0,1,11.5.18c3.38.22,6.29.51,8.65.78s4.21.5,5.45.67l1.41.19Z" style="fill: rgb(224, 224, 224); transform-origin: 368.645px 338.834px;" id="el6lwdva90ydg" class="animable"></path><path d="M257.19,394s-.14.06-.43.15l-1.28.42a13.13,13.13,0,0,1-2.13.51c-.42.08-.88.2-1.37.26l-1.59.16a42.43,42.43,0,0,1-8.19-.22c-3.17-.35-6.75-1-10.72-1.61a52.36,52.36,0,0,0-13-.65c-.59.06-1.16.19-1.75.27s-1.18.19-1.77.35c-1.17.29-2.35.66-3.53,1.07-2.37.82-4.77,1.81-7.34,2.56a24.42,24.42,0,0,1-8.13,1,41.18,41.18,0,0,1-8.43-1.33c-5.63-1.39-11.23-3.58-17.24-4.62a24.38,24.38,0,0,0-8.93,0,18,18,0,0,0-4.15,1.37,30.36,30.36,0,0,0-3.72,2.21c-2.37,1.59-4.86,3.24-7.7,3.67a15.06,15.06,0,0,1-4.18.15,22.68,22.68,0,0,1-4-.84,52.22,52.22,0,0,1-7.21-2.93c-2.28-1.08-4.46-2.16-6.64-3.05a37.55,37.55,0,0,0-12.71-2.7,39.93,39.93,0,0,0-10.7,1.06,40.49,40.49,0,0,0-7.68,2.69,40,40,0,0,0-4.5,2.53l-1.12.74a3.84,3.84,0,0,1-.39.24l.36-.28,1.09-.79a36.27,36.27,0,0,1,4.47-2.62,39.53,39.53,0,0,1,18.48-3.94,37.66,37.66,0,0,1,12.86,2.67c2.2.89,4.4,2,6.67,3a52.22,52.22,0,0,0,7.16,2.89,21.85,21.85,0,0,0,3.89.82,14.44,14.44,0,0,0,4-.16c2.72-.42,5.12-2,7.51-3.61a31.41,31.41,0,0,1,3.78-2.25,18.6,18.6,0,0,1,4.27-1.41,24.92,24.92,0,0,1,9.11,0c6.09,1.06,11.7,3.26,17.28,4.64a40.57,40.57,0,0,0,8.33,1.33,24.06,24.06,0,0,0,8-1c2.53-.73,4.93-1.72,7.32-2.53,1.19-.41,2.38-.78,3.58-1.07.59-.16,1.19-.25,1.79-.35s1.19-.21,1.78-.27a52,52,0,0,1,13.13.72c4,.63,7.54,1.31,10.7,1.68a41.88,41.88,0,0,0,8.14.3l1.57-.13c.5-.05,1-.16,1.38-.23a13.83,13.83,0,0,0,2.12-.46l1.3-.37A3.71,3.71,0,0,1,257.19,394Z" style="fill: rgb(224, 224, 224); transform-origin: 171.925px 394.806px;" id="ely959ozjy8mj" class="animable"></path><path d="M595,189.22c.59-4.28-5.45-7.8-10-8.17-2.17-.17-4.41.16-6.46-.55-4.44-1.55-6.22-7.29-10.55-9.12-3.24-1.36-7-.15-10.11,1.43s-6.24,3.57-9.75,3.8c-3,.19-6.36-.94-9,.55-2,1.11-3,3.41-4.87,4.76s-4.13,1.6-6.36,1.72-4.53.15-6.56,1.07-3.7,3.08-3.28,5.26Z" style="fill: rgb(235, 235, 235); transform-origin: 556.517px 180.38px;" id="elvcroyg4xnd" class="animable"></path><path d="M317,165.92c.43-3.12-4-5.7-7.3-6-1.58-.12-3.22.12-4.72-.4-3.25-1.13-4.55-5.33-7.71-6.67-2.37-1-5.1-.11-7.39,1.05s-4.57,2.61-7.14,2.77c-2.23.15-4.65-.68-6.6.41-1.46.81-2.22,2.49-3.56,3.48a8.55,8.55,0,0,1-4.65,1.26,13.06,13.06,0,0,0-4.79.78,3.8,3.8,0,0,0-2.41,3.85Z" style="fill: rgb(235, 235, 235); transform-origin: 288.873px 159.433px;" id="elq5x0jmn8wth" class="animable"></path><path d="M153.43,71.94c.59-4.28-5.45-7.8-10-8.17-2.16-.17-4.41.16-6.46-.55-4.44-1.55-6.21-7.29-10.54-9.12-3.24-1.36-7-.15-10.11,1.43s-6.24,3.57-9.75,3.8c-3,.19-6.37-.94-9,.55-2,1.11-3,3.41-4.86,4.76s-4.14,1.6-6.36,1.72-4.53.15-6.56,1.07-3.7,3.08-3.28,5.27Z" style="fill: rgb(235, 235, 235); transform-origin: 114.957px 63.1052px;" id="elxv34af0677k" class="animable"></path><path d="M462.45,143.27c.34-2.5-3.18-4.55-5.83-4.76a15.14,15.14,0,0,1-3.76-.33c-2.59-.9-3.63-4.25-6.16-5.32-1.89-.79-4.06-.08-5.89.84s-3.64,2.08-5.69,2.21c-1.78.12-3.71-.54-5.27.33-1.16.64-1.77,2-2.84,2.77a6.79,6.79,0,0,1-3.71,1,10.51,10.51,0,0,0-3.83.62,3,3,0,0,0-1.91,3.07Z" style="fill: rgb(235, 235, 235); transform-origin: 440.01px 138.11px;" id="elwmf1m5hqpaj" class="animable"></path><path d="M563.45,109c.7-5-6.43-9.2-11.79-9.63-2.55-.21-5.2.18-7.62-.66-5.24-1.83-7.34-8.6-12.45-10.76-3.82-1.61-8.23-.18-11.93,1.69s-7.37,4.21-11.51,4.48c-3.61.23-7.52-1.11-10.67.65-2.35,1.31-3.58,4-5.74,5.62s-4.88,1.89-7.51,2-5.35.17-7.74,1.27-4.37,3.62-3.88,6.21Z" style="fill: rgb(245, 245, 245); transform-origin: 518.016px 98.5607px;" id="elen4mtgll7vp" class="animable"></path><path d="M65.1,244.72a1.93,1.93,0,0,1,.29.39l.75,1.16c.64,1,1.54,2.52,2.59,4.4a151.07,151.07,0,0,1,7.39,15.12c1.27,3,2.39,6,3.33,8.65a63.06,63.06,0,0,1,2.21,7.25,19.28,19.28,0,0,1,.52,5.09,9.08,9.08,0,0,1-.14,1.38,1.48,1.48,0,0,1-.11.48s0-.67,0-1.87a21.66,21.66,0,0,0-.68-5A71.2,71.2,0,0,0,79,274.6c-1-2.67-2.09-5.59-3.36-8.61-2.54-6-5.21-11.35-7.23-15.15L66,246.38l-.67-1.22C65.15,244.88,65.08,244.73,65.1,244.72Z" style="fill: rgb(224, 224, 224); transform-origin: 73.6431px 266.68px;" id="el47kna2zh4ju" class="animable"></path><path d="M85,229.66a2.33,2.33,0,0,1,0,.58l-.15,1.63c-.15,1.42-.33,3.47-.5,6s-.29,5.57-.32,8.94.1,7.06.37,10.94.72,7.55,1.2,10.88,1,6.31,1.59,8.79,1,4.5,1.35,5.88c.16.65.28,1.18.38,1.6a1.83,1.83,0,0,1,.1.56,3.34,3.34,0,0,1-.2-.53l-.47-1.58c-.42-1.36-.94-3.36-1.52-5.85s-1.17-5.47-1.7-8.8-1-7-1.25-10.92-.35-7.6-.32-11,.2-6.41.43-8.95.45-4.6.66-6l.25-1.63A2.19,2.19,0,0,1,85,229.66Z" style="fill: rgb(224, 224, 224); transform-origin: 86.2874px 257.56px;" id="elz9x653j9fyc" class="animable"></path><path d="M96,250.18a6.78,6.78,0,0,1-.46,1.4c-.32.89-.74,2.18-1.17,3.81a51.34,51.34,0,0,0-1.13,5.81c-.29,2.2-.47,4.65-.55,7.22-.14,5.14.08,9.82.18,13.19a6.78,6.78,0,0,0,1.69,5,1.79,1.79,0,0,1-.31-.22,4.11,4.11,0,0,1-.71-.86,8.59,8.59,0,0,1-1-3.89c-.2-3.39-.47-8.06-.33-13.24a66,66,0,0,1,.6-7.27,45.07,45.07,0,0,1,1.24-5.83,34.53,34.53,0,0,1,1.34-3.79A8.94,8.94,0,0,1,96,250.18Z" style="fill: rgb(224, 224, 224); transform-origin: 94.0857px 268.395px;" id="elzmzmehxm9jk" class="animable"></path></g><g id="freepik--Shadows--inject-3" class="animable" style="transform-origin: 420.094px 467.992px;"><path d="M245.64,466.81A7.81,7.81,0,0,0,242,466a384.39,384.39,0,0,0-70.32,2.59c-10.36.36-18.57-1-25.65-1.1a7.55,7.55,0,0,0-3.91.7,2.85,2.85,0,0,0-1.41,3.39,4.22,4.22,0,0,0,2.73,1.88c13.37,4.61,27.51,9.27,41.39,6.59,6.33-1.23,12.29-3.95,18.57-5.4,13.2-3.06,27.15-.42,40.48-2.85,1.23-.22,2.62-.62,3.12-1.77A2.74,2.74,0,0,0,245.64,466.81Z" style="fill: rgb(235, 235, 235); transform-origin: 193.847px 473.129px;" id="el3mkmop9z9yj" class="animable"></path><path d="M525.59,462.3a10.84,10.84,0,0,0-7.11,3.65c9.77,6.14,22.32,5.12,33.66,3s23.05-5.15,34.24-2.35c7.26,1.82,13.79,6,21.11,7.51,10.75,2.22,21.71-1.52,32.52-3.45,19.88-3.55,41.11-1.11,59.6-9.23-4.84-4.59-12.58-2.66-19.17-1.58-11.88,1.95-24,.11-36.06,0-20-.14-40.18,4.55-59.76.57-7-1.43-13.78-3.94-20.87-4.86-13.68-1.78-27.37,2.5-40.35,7.2" style="fill: rgb(235, 235, 235); transform-origin: 609.045px 464.97px;" id="el030adi97h4w8" class="animable"></path></g><g id="freepik--Floor--inject-3" class="animable" style="transform-origin: 377.145px 458.516px;"><path d="M719.87,457.8l-1.82-.23c-.3-.05-.63-.08-1-.15l-1.21-.26-1.43-.32-1.6-.46a69.87,69.87,0,0,1-8.18-3.07c-3.18-1.36-6.79-3.06-10.92-4.8a98.72,98.72,0,0,0-14.11-4.81,58.51,58.51,0,0,0-17.53-2c-.4,0-.8,0-1.2.06l-1.2.15-2.42.31c-1.63.24-3.26.64-4.92,1s-3.32.85-5,1.36-3.37,1-5.07,1.66c-6.83,2.35-13.85,5.4-21.49,7.89-1.9.65-3.87,1.16-5.86,1.71-1,.25-2,.43-3,.65-.51.1-1,.23-1.54.3l-1.56.2a42.22,42.22,0,0,1-6.38.34l-3.24-.22c-1.08-.07-2.16-.25-3.25-.37-4.36-.56-8.76-1.39-13.2-2.39s-9-2.11-13.53-3.27-9.21-2.36-13.95-3.49a145.07,145.07,0,0,0-14.55-2.86c-1.24-.16-2.49-.25-3.75-.38s-2.52-.09-3.78,0a26.78,26.78,0,0,0-3.77.47l-1.88.38-1.85.54a117.57,117.57,0,0,0-14.52,5.86,120.07,120.07,0,0,1-15,5.92,45.32,45.32,0,0,1-16.34,2c-1.39-.12-2.79-.23-4.17-.47s-2.76-.42-4.15-.66c-2.77-.44-5.54-.95-8.33-1.48-5.57-1.07-11.16-2.28-16.8-3.5s-11.33-2.46-17.11-3.44c-1.45-.23-2.9-.48-4.36-.66-.73-.1-1.46-.22-2.19-.29l-2.19-.16a40.15,40.15,0,0,0-8.79.82,79.89,79.89,0,0,0-17,5.64c-2.77,1.2-5.42,2.62-8.16,4a40.3,40.3,0,0,1-4.25,1.74c-1.45.52-2.93.9-4.41,1.31a73.75,73.75,0,0,1-36,.24c-5.84-1.39-11.3-3.79-16.84-5.67a49.17,49.17,0,0,0-8.45-2.15,26.78,26.78,0,0,0-8.57.05c-5.67,1-10.74,3.85-15.76,6.44s-10.19,5.15-15.82,5.7-11.15-.4-16.36-1.89-10.27-3.41-15.35-4.91a71.63,71.63,0,0,0-7.65-1.87,49.17,49.17,0,0,0-7.73-.65,70,70,0,0,0-15.09,1.9c-9.78,2.21-19.09,5.39-28.51,6.55a45.31,45.31,0,0,1-13.91-.19A59.46,59.46,0,0,1,159,461.77c-4-1.67-8-3.39-12-4.61a37.75,37.75,0,0,0-12.1-1.67,60.65,60.65,0,0,0-11.57,1.65c-3.71.85-7.27,1.92-10.74,2.94-6.93,2-13.55,3.91-19.95,4.32-6.4.56-12.33-.68-17.59-2.1s-10-3-14.42-3.86a42.44,42.44,0,0,0-11.83-.89,26.18,26.18,0,0,0-8.44,2,20.36,20.36,0,0,0-4.59,2.75c-.46.39-.79.7-1,.9l-.35.31s.44-.44,1.34-1.25a19.7,19.7,0,0,1,4.58-2.81,26.22,26.22,0,0,1,8.47-2,42.25,42.25,0,0,1,11.88.84c4.41.89,9.18,2.41,14.45,3.82s11.14,2.62,17.5,2.05,13-2.31,19.88-4.35c3.46-1,7-2.1,10.75-3a60.37,60.37,0,0,1,11.64-1.67,37.87,37.87,0,0,1,12.22,1.66c4,1.22,8,2.94,12,4.61a58.93,58.93,0,0,0,12.7,4,44.83,44.83,0,0,0,13.79.17c9.36-1.16,18.65-4.33,28.46-6.56a69.51,69.51,0,0,1,15.19-1.93,48.9,48.9,0,0,1,7.81.65,74.63,74.63,0,0,1,7.71,1.88c5.1,1.5,10.12,3.43,15.34,4.9s10.68,2.5,16.17,1.86S287,463.33,292,460.74s10.12-5.44,15.9-6.49a27,27,0,0,1,8.74-.06,49.42,49.42,0,0,1,8.53,2.18c5.58,1.88,11,4.28,16.8,5.65a73.22,73.22,0,0,0,35.78-.24c1.46-.41,2.94-.79,4.37-1.3a41.56,41.56,0,0,0,4.2-1.72c2.69-1.36,5.4-2.8,8.17-4a80.32,80.32,0,0,1,17.12-5.66,41.08,41.08,0,0,1,8.91-.84l2.23.17c.74.07,1.47.19,2.2.28,1.47.19,2.92.44,4.37.67,5.8,1,11.49,2.22,17.14,3.45s11.22,2.44,16.79,3.5c2.78.53,5.55,1,8.32,1.49,1.38.24,2.76.45,4.14.65a41.43,41.43,0,0,0,4.13.47,44.66,44.66,0,0,0,16.16-2,119.37,119.37,0,0,0,14.95-5.89,121.87,121.87,0,0,1,14.59-5.88l1.87-.53,1.9-.39a29.2,29.2,0,0,1,3.84-.48c1.28,0,2.56,0,3.83.06s2.53.21,3.78.38a144.77,144.77,0,0,1,14.59,2.88c4.74,1.13,9.39,2.34,14,3.5s9.07,2.3,13.51,3.28,8.82,1.84,13.16,2.41c1.08.12,2.16.29,3.24.37l3.21.22a41.36,41.36,0,0,0,6.32-.34l1.55-.19c.52-.07,1-.2,1.53-.29,1-.22,2-.4,3-.65,2-.54,3.94-1,5.83-1.69,7.63-2.47,14.66-5.51,21.5-7.85,1.7-.63,3.42-1.11,5.09-1.65s3.37-.92,5-1.37,3.31-.71,4.94-.95l2.44-.3,1.21-.15c.4,0,.8,0,1.2-.06a58.53,58.53,0,0,1,17.61,2.08,99.66,99.66,0,0,1,14.13,4.86c4.13,1.76,7.73,3.47,10.9,4.85a71.52,71.52,0,0,0,8.15,3.11l1.6.48,1.41.32,1.21.28c.37.07.7.11,1,.15C719.26,457.69,719.87,457.8,719.87,457.8Z" style="fill: rgb(38, 50, 56); transform-origin: 377.145px 454.241px;" id="elr4dm63z4wx" class="animable"></path><path d="M190.69,471.55a8.88,8.88,0,0,1-1.29.7,16.83,16.83,0,0,1-1.57.7c-.62.24-1.32.56-2.13.8s-1.68.55-2.65.78-2,.44-3.11.65a42.37,42.37,0,0,1-7.24.5,41.46,41.46,0,0,1-7.22-.88c-1.08-.27-2.12-.5-3.06-.82a27.14,27.14,0,0,1-2.61-.91c-.8-.29-1.48-.64-2.09-.91a15.09,15.09,0,0,1-1.53-.79,8.65,8.65,0,0,1-1.25-.76c.06-.1,1.86.95,5,2.11.79.29,1.65.6,2.6.85s2,.51,3,.76a43.88,43.88,0,0,0,7.13.83,44.94,44.94,0,0,0,7.16-.45c1.08-.2,2.12-.35,3.07-.6s1.84-.47,2.64-.71C188.78,472.41,190.64,471.45,190.69,471.55Z" style="fill: rgb(38, 50, 56); transform-origin: 172.815px 473.145px;" id="el5sfi1ugy8kw" class="animable"></path><path d="M426.94,466.88a2.87,2.87,0,0,1-.48,0l-1.35-.18c-.59-.09-1.31-.2-2.14-.29s-1.79-.23-2.85-.3c-2.1-.21-4.62-.34-7.42-.37s-5.87.12-9.08.43-6.25.85-9,1.41-5.18,1.23-7.2,1.86c-1,.28-1.92.61-2.72.87s-1.48.5-2,.71l-1.29.45a1.4,1.4,0,0,1-.46.12,2,2,0,0,1,.42-.22l1.26-.54c.54-.24,1.22-.51,2-.8s1.69-.63,2.71-.94c2-.68,4.46-1.35,7.21-2a77.81,77.81,0,0,1,18.18-1.85c2.81.06,5.34.23,7.45.48,1.06.1,2,.26,2.85.38s1.55.25,2.13.38l1.34.28A1.39,1.39,0,0,1,426.94,466.88Z" style="fill: rgb(38, 50, 56); transform-origin: 403.945px 468.41px;" id="ela4tbzirhk7p" class="animable"></path><path d="M628.34,463.59a5.33,5.33,0,0,1-1.13.38c-.74.22-1.82.48-3.17.74a50.09,50.09,0,0,1-21.34-.54c-1.34-.33-2.4-.64-3.13-.9a5.37,5.37,0,0,1-1.11-.44c0-.09,1.65.41,4.32,1a57.25,57.25,0,0,0,21.2.54C626.67,463.92,628.32,463.5,628.34,463.59Z" style="fill: rgb(38, 50, 56); transform-origin: 613.4px 464.213px;" id="elt8g5xird3b" class="animable"></path></g><g id="freepik--Sun--inject-3" class="animable animator-hidden" style="transform-origin: 643.11px 86.635px;"><circle cx="642.66" cy="86.5" r="19.39" style="fill: rgb(17, 56, 146); transform-origin: 642.66px 86.5px;" id="el3dug13a12zh" class="animable"></circle><path d="M639.9,129.84a60.31,60.31,0,0,1-.26-8,60.4,60.4,0,0,1,.26-8,62.52,62.52,0,0,1,.26,8A62.43,62.43,0,0,1,639.9,129.84Z" style="fill: rgb(17, 56, 146); transform-origin: 639.898px 121.84px;" id="eln1zt487p77" class="animable"></path><path d="M628.73,109.34a69.25,69.25,0,0,1-4,7.49,69.19,69.19,0,0,1-4.47,7.23,70.17,70.17,0,0,1,4-7.49A69.48,69.48,0,0,1,628.73,109.34Z" style="fill: rgb(17, 56, 146); transform-origin: 624.495px 116.7px;" id="elukr3vn1vw9" class="animable"></path><path d="M617.26,102.21a34.13,34.13,0,0,1-4.49,3.9A33.26,33.26,0,0,1,608,109.6a33.85,33.85,0,0,1,4.5-3.9A33.52,33.52,0,0,1,617.26,102.21Z" style="fill: rgb(17, 56, 146); transform-origin: 612.63px 105.905px;" id="elykkzjyan86i" class="animable"></path><path d="M659.24,122c-.15,0-.74-3-1.74-6.7s-2-6.61-1.86-6.67a7,7,0,0,1,.86,1.86c.45,1.17,1,2.82,1.51,4.67s.84,3.56,1,4.8A7.68,7.68,0,0,1,659.24,122Z" style="fill: rgb(17, 56, 146); transform-origin: 657.434px 115.315px;" id="elsvzzkn8pydj" class="animable"></path><path d="M678.9,108a52,52,0,0,1-5.77-4.69,51.73,51.73,0,0,1-5.42-5.09,54.5,54.5,0,0,1,5.76,4.7A55.87,55.87,0,0,1,678.9,108Z" style="fill: rgb(17, 56, 146); transform-origin: 673.305px 103.11px;" id="elqzmydjcz5j" class="animable"></path><path d="M686.43,88.84a12.59,12.59,0,0,1-2.35-.3c-1.43-.23-3.42-.53-5.62-.78s-4.21-.41-5.66-.51a12.53,12.53,0,0,1-2.35-.24,9.25,9.25,0,0,1,2.37-.13,55.8,55.8,0,0,1,11.33,1.3A9.3,9.3,0,0,1,686.43,88.84Z" style="fill: rgb(17, 56, 146); transform-origin: 678.44px 87.8474px;" id="elzrsviyy9njn" class="animable"></path><path d="M686.45,70a88.39,88.39,0,0,1-9.36,2.54,90.53,90.53,0,0,1-9.48,2A91.54,91.54,0,0,1,677,72,89.4,89.4,0,0,1,686.45,70Z" style="fill: rgb(17, 56, 146); transform-origin: 677.03px 72.27px;" id="elc0tvp2e0yaa" class="animable"></path><path d="M664.55,48a68.2,68.2,0,0,1-4.44,7.18,68.61,68.61,0,0,1-4.87,6.9,69.4,69.4,0,0,1,4.44-7.18A68.61,68.61,0,0,1,664.55,48Z" style="fill: rgb(17, 56, 146); transform-origin: 659.895px 55.04px;" id="elf38dt4oi3d9" class="animable"></path><path d="M642.81,43.43a15.12,15.12,0,0,1,.07,2.66c0,1.82,0,4,0,6.41s0,4.59,0,6.41a14.89,14.89,0,0,1-.06,2.67,13.33,13.33,0,0,1-.31-2.65c-.11-1.64-.2-3.92-.2-6.43s.08-4.78.19-6.42A13,13,0,0,1,642.81,43.43Z" style="fill: rgb(17, 56, 146); transform-origin: 642.612px 52.505px;" id="elmldb8zirdyf" class="animable"></path><path d="M626.35,63.93a64.67,64.67,0,0,1-4.61-7,70.3,70.3,0,0,1-4.17-7.31,64.67,64.67,0,0,1,4.61,7A68.15,68.15,0,0,1,626.35,63.93Z" style="fill: rgb(17, 56, 146); transform-origin: 621.96px 56.775px;" id="elmk3l5ihi1" class="animable"></path><path d="M616.51,72.29a7.56,7.56,0,0,1-2.07-.29c-1.26-.25-3-.67-4.88-1.22s-3.57-1.15-4.77-1.62a7.76,7.76,0,0,1-1.89-.88c.05-.15,3.05.89,6.81,2S616.54,72.14,616.51,72.29Z" style="fill: rgb(17, 56, 146); transform-origin: 609.705px 70.2778px;" id="elav5h7vkbvr" class="animable"></path><path d="M612.22,87.18A36.69,36.69,0,0,1,606,88a38.09,38.09,0,0,1-6.23.34,36.27,36.27,0,0,1,6.18-.86A38,38,0,0,1,612.22,87.18Z" style="fill: rgb(17, 56, 146); transform-origin: 605.995px 87.7556px;" id="elbmtw5z131cu" class="animable"></path></g><g id="freepik--Plant--inject-3" class="animable" style="transform-origin: 86.622px 444.99px;"><path d="M79.51,425.33a7.74,7.74,0,0,1,5.24,3,13.68,13.68,0,0,1,2.47,5.62c.86,3.9,0,8.43-1.26,12.21-4.11-1.68-6.48-6.25-7.53-8.64-1.67-3.79-2.4-11.64,1.08-12.18" style="fill: rgb(17, 56, 146); transform-origin: 82.3017px 435.745px;" id="el7uqsiyi95pe" class="animable"></path><path d="M91.75,451.1a6.55,6.55,0,0,1,0-6.59,8.71,8.71,0,0,1,5.43-4,3.7,3.7,0,0,1,3.08.29,2.8,2.8,0,0,1,1,2.68,5.6,5.6,0,0,1-1.32,2.64c-2.16,2.66-4.73,4.83-8.15,5" style="fill: rgb(17, 56, 146); transform-origin: 96.0828px 445.711px;" id="elnbuwzumrtf8" class="animable"></path><path d="M91.62,464a4.92,4.92,0,0,1-.15-.81c-.08-.58-.19-1.33-.33-2.22a23.15,23.15,0,0,1-.11-7.4,14,14,0,0,1,3-6.72,9.69,9.69,0,0,1,1.65-1.53c.21-.16.4-.25.52-.33l.19-.1A15.49,15.49,0,0,0,94.23,447a14.53,14.53,0,0,0-2.92,6.64,24.53,24.53,0,0,0,0,7.32c.1.94.19,1.71.24,2.23A4.36,4.36,0,0,1,91.62,464Z" style="fill: rgb(38, 50, 56); transform-origin: 93.5874px 454.445px;" id="eldcklmjfp54" class="animable"></path><path d="M80.59,431.26a2.29,2.29,0,0,1,.16.33l.38,1c.34.82.8,2,1.36,3.51,1.13,3,2.62,7.12,4.17,11.72s2.85,8.81,3.76,11.86c.45,1.52.8,2.76,1,3.62.11.41.19.74.26,1a1.9,1.9,0,0,1,.08.35,1.31,1.31,0,0,1-.13-.33c-.09-.25-.19-.58-.32-1l-1.13-3.59c-1-3-2.29-7.22-3.83-11.83s-3-8.74-4.09-11.74L81,432.58l-.34-1A1.81,1.81,0,0,1,80.59,431.26Z" style="fill: rgb(38, 50, 56); transform-origin: 86.175px 447.955px;" id="elkm3f0urk15s" class="animable"></path><path d="M87.06,455.26a15.33,15.33,0,0,0-11.57-7.94c-1.23-.15-2.72,0-3.32,1.07s.07,2.43.87,3.38a13.13,13.13,0,0,0,14,3.82" style="fill: rgb(17, 56, 146); transform-origin: 79.4996px 451.762px;" id="elvm8x1kwvm2" class="animable"></path><path d="M77.22,450.7a4.35,4.35,0,0,1,.77.07,8.07,8.07,0,0,1,.9.14c.34.08.75.14,1.17.28a12.5,12.5,0,0,1,1.39.46,15.16,15.16,0,0,1,1.54.66,17,17,0,0,1,3.21,2.11,16.65,16.65,0,0,1,2.61,2.83,12.77,12.77,0,0,1,.9,1.42,14.53,14.53,0,0,1,.66,1.3c.2.4.31.8.44,1.13a8.88,8.88,0,0,1,.27.86,4.06,4.06,0,0,1,.16.76c-.06,0-.31-1.06-1.06-2.66a11.43,11.43,0,0,0-.68-1.27,14.7,14.7,0,0,0-.9-1.38,16.13,16.13,0,0,0-5.73-4.86,15.08,15.08,0,0,0-1.51-.68,11.79,11.79,0,0,0-1.36-.48C78.31,450.88,77.21,450.77,77.22,450.7Z" style="fill: rgb(38, 50, 56); transform-origin: 84.23px 456.71px;" id="el2ar28je34np" class="animable"></path></g><g id="freepik--character-2--inject-3" class="animable" style="transform-origin: 588.046px 335.292px;"><path d="M642.44,267.65c-.48-1-1.28-1.86-1.79-2.87-1.4-2.77-.37-6.16-1-9.19-1.05-4.65-6.07-7.51-10.83-7.66-.76,0-1.52,0-2.29,0a6.85,6.85,0,0,0-1.44-6c-2.2-2.24-6.12-2-8.28-4.28-1.64-1.73-1.76-4.37-2.69-6.56a9.2,9.2,0,0,0-6.74-5.35c-.26,0-.53-.06-.79-.09,2.59-.89,5.17-1.66,7.73-.89,3.39,1,5.54,4.42,8.78,5.84A8.53,8.53,0,0,0,634,226a13.24,13.24,0,0,1-13.16-2.31c-1.31-1.14-2.43-2.57-4-3.27-3.47-1.56-7.28.89-11,1.8a13.7,13.7,0,0,1-10.31-1.61c-3.13-1.92-5.33-5-8.09-7.45a12.73,12.73,0,0,0-6.59-3.28A20.63,20.63,0,0,0,570,208.29l0,.48a27.77,27.77,0,0,0-8.12,1.57c-3.24,1.13-6.47,3-8.15,5.92a67.54,67.54,0,0,0-6.4,8.74,9.81,9.81,0,0,0-1.69,5.55c.19,2.31,1.76,4.25,3.26,6s2.93,3.73,4.43,5.53a7.57,7.57,0,0,1-1.69,4.51c-1.34,1.81-3.06,3.55-3.31,5.79-.36,3.07,2.24,5.75,5.07,7a5.37,5.37,0,0,1,2.37,1.49c.79,1.08.47,2.57.5,3.91a6.51,6.51,0,0,0,3.34,5.61,5.41,5.41,0,0,0,6.31-1,7.68,7.68,0,0,0,1.64-3.63A16.47,16.47,0,0,0,564,251.5c-1.7-1.88-3.85-3.29-5.7-5s-3.49-3.92-3.65-6.44l-1.23.21c-.24-2.13-.51-4.48-.56-6.71-.08-3.26-.31-6.31.52-9.46a14.13,14.13,0,0,1,1.5-3.62l24.61,44.38c1.15,1.72,6.55,2.06,8.61,1.84s-3.51,9.39,2.11,11.92c6,2.72,7.46-7.69,10.08-5.22s4.17,4.14,7.25,2.28c1.76-1.06,3.39-2.6,5.43-2.73,3.67-.23,6.49,4.14,10.15,3.74,1.78-.2,3.2-1.51,4.64-2.58s3.31-2,5-1.29a14,14,0,0,1,2.08,1.43,5.22,5.22,0,0,0,7.6-6.59Z" style="fill: rgb(38, 50, 56); transform-origin: 594.292px 243.605px;" id="el6rqq1a43az7" class="animable"></path><path d="M503.15,342l-4.27-1.44s-10.67,3.59-12.72,4.82c-3.31,2-9.27,16.93-9.27,16.93s16.94,2.82,18.71,1.9,13.3-15.07,13.3-15.07Z" style="fill: rgb(255, 190, 157); transform-origin: 492.895px 352.477px;" id="elz5pjozy4snl" class="animable"></path><path d="M564,267.11a15.32,15.32,0,0,0-13.51,5.25c-.22.26-.42.52-.63.79-3.25,4.34-17.35,34.91-17.35,34.91l-35.25,34L507,351.4l39.41-29.87L560.53,292l3.92-24.8Z" style="fill: rgb(255, 190, 157); transform-origin: 530.855px 309.198px;" id="eljs6pof3jltk" class="animable"></path><path d="M628.24,365.45l-13.82-32s-59.8,13-68.47,27.12c-4.78,7.76,1.4,80.93,1.4,80.93-4.48,5.32-13.73,12.34-21.25,14.83,0,0-3.06,2-.39,3.58,7.37,4.3,10.32,3.15,17.32-1.37,4.54-2.94,9.51-1.37,15.37-.79,3.65.36,5.55-5.46,4.87-9.13-.85-4.5-1-6.68-1-6.68,1.15-14.67,2.75-29.41,7.82-41.27.84-3.68,2.22-6.44,1.83-10.19L570.48,375Z" style="fill: rgb(255, 190, 157); transform-origin: 576.428px 398.025px;" id="elb991spr72as" class="animable"></path><path d="M571,375.35c-.14.12-1.64-1.89-4.13-3.56s-4.86-2.45-4.79-2.62a4.56,4.56,0,0,1,1.57.43,16.34,16.34,0,0,1,3.51,1.76,13.73,13.73,0,0,1,2.93,2.64A4.31,4.31,0,0,1,571,375.35Z" style="fill: rgb(235, 153, 110); transform-origin: 566.539px 372.263px;" id="elo20irrttyap" class="animable"></path><path d="M606.25,333.46l-.44,2.21a61.68,61.68,0,0,0,22.12,28.58s12.68-17.51,24.66-19.13S665.2,345,665.2,345a21,21,0,0,0-7.67-18.07Z" style="fill: rgb(17, 56, 146); transform-origin: 635.543px 345.59px;" id="el3ut4ocy8uiq" class="animable"></path><path d="M598.15,321.53l8.1,7.19v4.74l2.93,3.91a21.71,21.71,0,0,0,11.35,8,13.21,13.21,0,0,0,7.4.22c7.32-2.16,25-12.13,29.6-18.65l-26.31-24.11Z" style="fill: rgb(255, 190, 157); transform-origin: 627.84px 324.422px;" id="ele09e232qj9b" class="animable"></path><path d="M624.05,337.46a19,19,0,0,1-2.66-1.38c-1.61-.89-3.85-2.11-6.35-3.39s-4.81-2.36-6.49-3.14a19.66,19.66,0,0,1-2.68-1.33,15.49,15.49,0,0,1,2.83,1c1.72.7,4,1.74,6.57,3s4.74,2.56,6.31,3.53A15.87,15.87,0,0,1,624.05,337.46Z" style="fill: rgb(235, 153, 110); transform-origin: 614.96px 332.84px;" id="el4y9817v42r9" class="animable"></path><path d="M587.83,262.38l-23.38,4.78-4.6,28.44s1.4,11.21,13.66,18.68c7.92,4.83,24.64,7.25,24.64,7.25l33.07-18.7s-22.64-33.07-30-37.56S587.83,262.38,587.83,262.38Z" style="fill: rgb(17, 56, 146); transform-origin: 595.535px 291.816px;" id="eljbshtdgd7m8" class="animable"></path><g id="elbxs9mm49q25"><g style="opacity: 0.3; transform-origin: 591.645px 306.655px;" class="animable"><path d="M598.81,295.87s-2.7,2.07-4,3.17c-6.94,5.74-13.63,10-20.4,15.75a40.85,40.85,0,0,0,6.28,2.65l13.93-13.39c1.57-1.52,3.25-3.09,5.37-3.65,2.7-.71,6-.06,8.89-.67C604.92,299.54,600.94,298.48,598.81,295.87Z" id="elgx4qpq6rzht" class="animable" style="transform-origin: 591.645px 306.655px;"></path></g></g><path d="M661.32,331.63s-.7.25-1.94.75a34.71,34.71,0,0,0-5.06,2.54c-2.05,1.23-4.38,2.88-6.92,4.78s-5.35,4-8.19,6.28a65.15,65.15,0,0,0-7.53,7,44.49,44.49,0,0,0-4.82,6.86c-1.21,2.06-2.14,3.77-2.81,4.93l-.78,1.34a2.14,2.14,0,0,1-.31.45,2.75,2.75,0,0,1,.21-.5l.7-1.38c.62-1.2,1.5-2.93,2.68-5a42.52,42.52,0,0,1,4.77-7,62.65,62.65,0,0,1,7.56-7.09c2.85-2.31,5.68-4.37,8.24-6.25a73,73,0,0,1,7-4.71,30.48,30.48,0,0,1,5.16-2.42c.64-.22,1.14-.37,1.49-.45A1.93,1.93,0,0,1,661.32,331.63Z" style="fill: rgb(235, 153, 110); transform-origin: 642.14px 349.095px;" id="el39yh2h8i7ye" class="animable"></path><path d="M699,437.55c-1.62-2.17-8.94-6.23-8.94-6.23s-8.87-7.32-18.47-16.48c-8.46-8.06-18.75-15.25-31.44-19.18,0,0,23.68-31.49,25.4-43.1,2.14-14.45-3.8-21.06-3.8-21.06-7.58,2-14.34,7.16-20.08,12.21-5,3.4-11.21,9.07-14.51,14.7-5.89,10-17.24,37.83-16.08,45.73,1.62,11.12,70.3,35.58,70.3,35.58,2.06,4.06,1.36,10.19,0,16.81,0,0-7.59,2.71-6.77,5.15h17.34S700.62,439.72,699,437.55Z" style="fill: rgb(255, 190, 157); transform-origin: 655.1px 396.59px;" id="elqytuuo7fm5a" class="animable"></path><path d="M641.37,393.74a20.2,20.2,0,0,1-3.21,5.06,20.63,20.63,0,0,1-4.19,4.29c-.11-.11,1.75-2,3.78-4.61S641.24,393.66,641.37,393.74Z" style="fill: rgb(235, 153, 110); transform-origin: 637.668px 398.414px;" id="elubg5wg169ii" class="animable"></path><path d="M577,279.07l-29.78,30.8-46.06,36.45,11.17,7.88,53.58-32.83,32.92-25.5s1.72,3.58,11.65,3.95c8.35.32,8.51-7.7,8.51-7.7s-8.55-16-14.79-22.18c-3.54-3.52-8.87-3.3-11.4-2.25C588.23,269.58,581.24,274.68,577,279.07Z" style="fill: rgb(255, 190, 157); transform-origin: 560.075px 310.606px;" id="elwzo4yc6o78c" class="animable"></path><path d="M585.47,272l-.22.2-.66.54c-.58.47-1.46,1.14-2.54,2.07-2.19,1.82-5.26,4.59-8.89,8.16s-7.82,8-12.41,12.9l-7.2,7.75c-2.53,2.66-5.09,5.46-7.92,8.17C534,322.08,523,330.89,514.75,337c-4.09,3.05-7.5,5.39-9.86,7l-2.77,1.78-.72.45c-.16.1-.25.15-.26.14l.23-.18.7-.5,2.7-1.86c2.33-1.65,5.7-4,9.76-7.11,8.13-6.14,19.1-15,30.75-25.3,2.79-2.67,5.37-5.48,7.89-8.13l7.23-7.73c4.61-4.91,8.83-9.29,12.51-12.83s6.78-6.28,9-8.05c1.1-.92,2-1.56,2.61-2l.69-.5C585.38,272,585.46,272,585.47,272Z" style="fill: rgb(235, 153, 110); transform-origin: 543.305px 309.186px;" id="el15zdepq72xf" class="animable"></path><path d="M609.74,294.54a26.31,26.31,0,0,0-7.3.21,26.91,26.91,0,0,0-6.8,2.68,6.38,6.38,0,0,1,1.75-1.31,16.5,16.5,0,0,1,10.23-2.1A6.07,6.07,0,0,1,609.74,294.54Z" style="fill: rgb(235, 153, 110); transform-origin: 602.69px 295.666px;" id="elh5roqa3o1zl" class="animable"></path><path d="M502.16,344.19a19.15,19.15,0,0,0-6.86.87c-2.7,1.12-16.11,17.75-16.11,17.75s-.35,1.48,2.07,1.59a9.51,9.51,0,0,0,4.44-1s-2.31,3.24,1.64,4.38,9.29.16,9.29.16,2.54,1.48,3.95,1.14l1.41-.34s4.33-.33,5.3-2.55,5-12,5-12Z" style="fill: rgb(255, 190, 157); transform-origin: 495.731px 356.646px;" id="elouaydrfktlc" class="animable"></path><path d="M485.7,363.44s-.1.09-.33.21a4.75,4.75,0,0,1-1.06.4,32.69,32.69,0,0,1-4.14.28,1.59,1.59,0,0,1-.71-.18.89.89,0,0,1-.51-.67,2.17,2.17,0,0,1,.63-1.47c.6-.82,1.27-1.69,2-2.6,1.42-1.81,3.05-3.74,4.85-5.69s3.6-3.74,5.29-5.3a20.1,20.1,0,0,1,4.9-3.69,7.12,7.12,0,0,1,4.08-.68,5,5,0,0,1,1.09.3c.23.11.35.18.34.2a11.51,11.51,0,0,0-1.46-.3,7.27,7.27,0,0,0-3.89.81,20.58,20.58,0,0,0-4.73,3.71c-1.67,1.57-3.44,3.36-5.23,5.3s-3.43,3.86-4.86,5.64c-.72.89-1.39,1.75-2,2.56-.31.4-.63.8-.58,1.15s.45.52.85.55c1.69-.1,3.15.07,4.06-.12S485.68,363.39,485.7,363.44Z" style="fill: rgb(235, 153, 110); transform-origin: 490.54px 354.16px;" id="el7m8z2pjvos" class="animable"></path><path d="M494.35,364.89s-.09.28-.39.69a7,7,0,0,1-1.55,1.54,6.41,6.41,0,0,1-3,1.23,5.38,5.38,0,0,1-1.95-.09,3.59,3.59,0,0,1-1.88-1,2.58,2.58,0,0,1-.74-2.05,3.92,3.92,0,0,1,.85-1.8c.67-.94,1.29-1.81,1.84-2.6a17.17,17.17,0,0,1,1.81-2.32,16.88,16.88,0,0,1-1.5,2.53l-1.76,2.66a3.56,3.56,0,0,0-.73,1.58,2,2,0,0,0,.6,1.63,4.14,4.14,0,0,0,3.41,1,6.48,6.48,0,0,0,2.86-1.06A14.44,14.44,0,0,0,494.35,364.89Z" style="fill: rgb(235, 153, 110); transform-origin: 489.59px 363.445px;" id="el7mv8ipwhqm8" class="animable"></path><path d="M505.21,363.78a5,5,0,0,1-1.18,2.88,4.94,4.94,0,0,1-2.37,2c-.09-.12,1-1,1.94-2.33S505.06,363.73,505.21,363.78Z" style="fill: rgb(235, 153, 110); transform-origin: 503.432px 366.219px;" id="el0cwyhbnxwz9r" class="animable"></path><path d="M499.81,364a2.67,2.67,0,0,1-.53,1.44A6.13,6.13,0,0,1,496.5,368a6.25,6.25,0,0,1-3.69.43,2.72,2.72,0,0,1-1.43-.57,14.21,14.21,0,0,1,1.48.2,6.76,6.76,0,0,0,3.43-.53,6.9,6.9,0,0,0,2.69-2.2C499.52,364.55,499.73,364,499.81,364Z" style="fill: rgb(235, 153, 110); transform-origin: 495.595px 366.269px;" id="elyhy85929sdr" class="animable"></path><path d="M552.53,228.14a13.63,13.63,0,0,1,1.59-12.39,17.87,17.87,0,0,1,7.69-5.86,19.22,19.22,0,0,1,12.83-1.19c4.21,1.23,7.9,4.6,8.84,8.88.43,1.94.31,4,1.15,5.84a4.36,4.36,0,0,1,.79,2.42,2.08,2.08,0,0,1-1.62,1.55,4.52,4.52,0,0,1-2.33-.2,24.52,24.52,0,0,1-7-3.92" style="fill: rgb(38, 50, 56); transform-origin: 568.566px 218.123px;" id="el7wjkors4p62" class="animable"></path><path d="M566.52,266.13c-.46-3.71-.63-5.24-.63-5.2s-8-.41-10.77-10.46c-1.39-5-2.08-13.36-2.42-20.22-.31-6.18,2.9-14.17,9.09-14.21l19.63,2.65a3.62,3.62,0,0,1,3.63,3.29l2.78,40.4s-8.57,14.8-16.25,13.38S566.52,266.13,566.52,266.13Z" style="fill: rgb(255, 190, 157); transform-origin: 570.255px 245.948px;" id="elha77fim6hjp" class="animable"></path><path d="M555.76,236.38a1.31,1.31,0,0,0,1.41,1.18,1.26,1.26,0,0,0,1.22-1.33,1.32,1.32,0,0,0-1.41-1.18A1.25,1.25,0,0,0,555.76,236.38Z" style="fill: rgb(38, 50, 56); transform-origin: 557.075px 236.305px;" id="elrgax4rsqgeg" class="animable"></path><path d="M555,234.38c.18.15,1.09-.69,2.5-.85s2.53.43,2.66.24-.13-.37-.62-.65a3.61,3.61,0,0,0-2.15-.41,3.52,3.52,0,0,0-2,.9C555,234,554.91,234.31,555,234.38Z" style="fill: rgb(38, 50, 56); transform-origin: 557.581px 233.541px;" id="elvlld4es78hr" class="animable"></path><path d="M569.09,235.12a1.31,1.31,0,0,0,1.41,1.18,1.26,1.26,0,0,0,1.22-1.33,1.33,1.33,0,0,0-1.41-1.19A1.27,1.27,0,0,0,569.09,235.12Z" style="fill: rgb(38, 50, 56); transform-origin: 570.405px 235.041px;" id="eltvsei5kcd6j" class="animable"></path><path d="M568.9,233.07c.18.15,1.1-.69,2.51-.85s2.52.43,2.66.24-.14-.37-.63-.65a3.61,3.61,0,0,0-2.15-.41,3.52,3.52,0,0,0-2,.9C568.93,232.68,568.81,233,568.9,233.07Z" style="fill: rgb(38, 50, 56); transform-origin: 571.489px 232.231px;" id="el0b0aqegqaft" class="animable"></path><path d="M565,244.12a9.21,9.21,0,0,0-2.34-.16c-.37,0-.71,0-.8-.26a1.8,1.8,0,0,1,.12-1.1l.75-2.86a47.82,47.82,0,0,0,1.58-7.45c-.17,0-1.14,3.23-2.18,7.3-.24,1-.48,2-.7,2.88a2.11,2.11,0,0,0,0,1.43.89.89,0,0,0,.65.46,2.21,2.21,0,0,0,.62,0A9.71,9.71,0,0,0,565,244.12Z" style="fill: rgb(38, 50, 56); transform-origin: 563.153px 238.336px;" id="elut5vi7uak8m" class="animable"></path><path d="M565.89,260.93a26.2,26.2,0,0,0,13.28-5.21s-2.64,7.47-13,7.67Z" style="fill: rgb(235, 153, 110); transform-origin: 572.53px 259.555px;" id="elrah3xlev1" class="animable"></path><path d="M566,247.45a2.54,2.54,0,0,1,2.17-1.2,2.28,2.28,0,0,1,1.7.68,1.49,1.49,0,0,1,.31,1.67,1.73,1.73,0,0,1-1.8.67,5.25,5.25,0,0,1-1.93-.87A1.59,1.59,0,0,1,566,248a.47.47,0,0,1-.05-.53" style="fill: rgb(235, 153, 110); transform-origin: 568.101px 247.783px;" id="el16v82o02fja" class="animable"></path><path d="M567,226.37c.18.37,1.57,0,3.25,0s3.07.31,3.25-.06c.08-.17-.2-.51-.78-.82a5.4,5.4,0,0,0-2.47-.56,5.3,5.3,0,0,0-2.48.58C567.21,225.86,566.94,226.2,567,226.37Z" style="fill: rgb(38, 50, 56); transform-origin: 570.253px 225.732px;" id="elmvjla2mmii" class="animable"></path><path d="M554.71,228.16c.28.3,1.22-.15,2.39-.29s2.18,0,2.37-.4c.08-.17-.11-.47-.58-.73a3.32,3.32,0,0,0-2-.3,3.24,3.24,0,0,0-1.83.86C554.68,227.67,554.58,228,554.71,228.16Z" style="fill: rgb(38, 50, 56); transform-origin: 557.072px 227.329px;" id="elg7b4eqpb0ps" class="animable"></path><path d="M584.1,239.44c-.09-.76.59-2.66,1.33-2.86,2-.54,5.61-.79,6.22,4.3.84,7-6.33,6.37-6.36,6.18S584.39,242.07,584.1,239.44Z" style="fill: rgb(255, 190, 157); transform-origin: 587.905px 241.734px;" id="el7w47omzezay" class="animable"></path><path d="M587.1,244.16s.13.07.35.14a1.21,1.21,0,0,0,.91-.09,3,3,0,0,0,1.06-2.86,4,4,0,0,0-.55-1.7,1.4,1.4,0,0,0-1-.82.62.62,0,0,0-.68.42c-.07.21,0,.34,0,.36s-.17-.1-.15-.4a.86.86,0,0,1,.23-.47,1,1,0,0,1,.65-.26,1.72,1.72,0,0,1,1.39.93,4.14,4.14,0,0,1,.66,1.89c.12,1.41-.44,2.81-1.41,3.23a1.32,1.32,0,0,1-1.13-.06C587.13,244.33,587.08,244.18,587.1,244.16Z" style="fill: rgb(235, 153, 110); transform-origin: 588.512px 241.555px;" id="el3kvjuh91fea" class="animable"></path><path d="M560.69,214.94a9.58,9.58,0,0,0,7.16,6.69c1.8.37,3.92.32,5.1,1.72s.8,3.73,1.94,5.22c1.57,2.07,5.31,1.61,6.56,3.89.54,1,.43,2.25,1,3.24a3.24,3.24,0,0,0,4,1.13,5.19,5.19,0,0,0,2.76-3.42,13.89,13.89,0,0,0,.32-4.51,24.78,24.78,0,0,0-1.55-8.73c-2.45-5.74-11.79-13.11-17.94-12.09" style="fill: rgb(38, 50, 56); transform-origin: 575.14px 222.549px;" id="elwun79fkzv3" class="animable"></path><path d="M568.81,249.4c0-.08.49,0,.88-.55a1.38,1.38,0,0,0,.28-1,1.54,1.54,0,0,0-.73-1,2.76,2.76,0,0,0-2.45-.1c-.65.23-1,.45-1.08.39s.27-.39.93-.73a3.68,3.68,0,0,1,1.26-.38,2.6,2.6,0,0,1,1.61.38,1.92,1.92,0,0,1,.94,1.41,1.66,1.66,0,0,1-.48,1.3,1.22,1.22,0,0,1-.83.4C568.92,249.5,568.81,249.43,568.81,249.4Z" style="fill: rgb(38, 50, 56); transform-origin: 568.077px 247.77px;" id="eluh2h424kii9" class="animable"></path><path d="M632,227.64a.64.64,0,0,1,.06.21,2.14,2.14,0,0,1,.05.63,3.16,3.16,0,0,1-1.14,2.13,4.6,4.6,0,0,1-3.64,1.15,7.69,7.69,0,0,1-4.36-2.62c-1.32-1.38-2.39-3.18-3.86-4.78a8.77,8.77,0,0,0-2.62-2,6.9,6.9,0,0,0-3.42-.61c-2.43.17-4.82,1.31-7.38,2.21a17.45,17.45,0,0,1-4.06,1,16.36,16.36,0,0,1-4.3-.2,26.38,26.38,0,0,1-7.88-3c-2.38-1.32-4.53-2.82-6.6-4.19-4.1-2.76-8.08-4.95-11.79-5.55a14.49,14.49,0,0,0-8.64.85,14.14,14.14,0,0,0-2.73,1.73,7,7,0,0,1,.61-.59,9.55,9.55,0,0,1,2-1.33,14.5,14.5,0,0,1,8.79-1c3.79.57,7.86,2.76,12,5.51,2.09,1.36,4.24,2.84,6.59,4.14a25.55,25.55,0,0,0,7.72,2.92,15.34,15.34,0,0,0,4.16.2,16.89,16.89,0,0,0,3.94-.93c2.53-.88,5-2,7.52-2.21a7.38,7.38,0,0,1,3.65.67,9.24,9.24,0,0,1,2.74,2.17c1.5,1.67,2.54,3.46,3.81,4.82a7.41,7.41,0,0,0,4.13,2.58,4.42,4.42,0,0,0,3.47-1,3.12,3.12,0,0,0,1.17-2A6.61,6.61,0,0,0,632,227.64Z" style="fill: rgb(69, 90, 100); transform-origin: 595.903px 221.597px;" id="elj1x703by6a" class="animable"></path><path d="M639,270.8a4.49,4.49,0,0,0,.53-.93,3.77,3.77,0,0,0-.23-3,4.71,4.71,0,0,0-1.37-1.7,5.86,5.86,0,0,0-2.4-1,18.28,18.28,0,0,0-6.43.37,16.45,16.45,0,0,1-3.83.26,8,8,0,0,1-3.95-1.37,13.29,13.29,0,0,1-4.88-7.64c-.86-3.13-1-6.52-1.87-9.87a15.65,15.65,0,0,0-2-4.8,9.62,9.62,0,0,0-3.87-3.56,9,9,0,0,0-5.22-.52,32.76,32.76,0,0,1-5.31.64,11.09,11.09,0,0,1-5-1.4,16.54,16.54,0,0,1-4-3,49.24,49.24,0,0,1-5.44-7.32,33.91,33.91,0,0,0-4.86-6.18,13.51,13.51,0,0,0-5.45-3.34,10,10,0,0,0-4.83-.21,7.64,7.64,0,0,0-2.82,1.19c-.59.4-.84.69-.86.66a3.85,3.85,0,0,1,.8-.74,7.31,7.31,0,0,1,2.84-1.31,10.19,10.19,0,0,1,4.94.13,13.77,13.77,0,0,1,5.64,3.35,34.3,34.3,0,0,1,5,6.21,48.24,48.24,0,0,0,5.43,7.23,16.07,16.07,0,0,0,3.84,2.91,10.71,10.71,0,0,0,4.79,1.33,33.6,33.6,0,0,0,5.23-.64,9.29,9.29,0,0,1,5.51.56,10,10,0,0,1,4.08,3.75,15.85,15.85,0,0,1,2.07,5c.85,3.42,1,6.81,1.84,9.88a12.9,12.9,0,0,0,4.67,7.4,7.4,7.4,0,0,0,3.73,1.33,17,17,0,0,0,3.74-.22,18.27,18.27,0,0,1,6.55-.3A6.08,6.08,0,0,1,638.1,265a5,5,0,0,1,1.4,1.81,3.83,3.83,0,0,1,.15,3.09A2.15,2.15,0,0,1,639,270.8Z" style="fill: rgb(69, 90, 100); transform-origin: 602.408px 243.294px;" id="eljrlciqvtg1" class="animable"></path></g><g id="freepik--character-1--inject-3" class="animable" style="transform-origin: 210.778px 257.38px;"><path d="M207,333.71l-11.3,43.68s-13,15.71-14.18,19.93-19.25,51.38-19.25,51.38L150,444.1s2.4-43.34,6.61-54.06,16.1-23.76,16.1-23.76l.92-45.6Z" style="fill: rgb(183, 136, 118); transform-origin: 178.5px 384.69px;" id="el76fxtfo7c7j" class="animable"></path><path d="M175.58,472.13c-7-7.35-12.93-22.59-12.06-27.76L149.9,444c.24-.2-.07.59-3.42,3.76-2.71,2.56-3.42,8.93,0,10.34,5.44,2.27,10.56,3.24,13.17,8,4,7.29,6.09,9.7,14.62,9.4C177.33,475.36,175.58,472.13,175.58,472.13Z" style="fill: rgb(183, 136, 118); transform-origin: 160.126px 459.748px;" id="el7zpw2mnz4vl" class="animable"></path><path d="M252.07,316.78l-34.4,10.46,24.47,29c-.82,1.43-3.54,4-4.32,6.62-1.38,4.65-7.22,52.36-7.22,52.36l10.77,17.6,26.91-69.49a22.26,22.26,0,0,0-1.17-18.6Z" style="fill: rgb(183, 136, 118); transform-origin: 243.725px 374.8px;" id="el2ulnllz4wy2" class="animable"></path><path d="M231.28,408.73l-.68,4.14s-8.18,2.57-8.93,6.38c-1.18,6,8.19,5.54,8.16,20.7-.55,2.2-2,11.84-.07,17.12a2.92,2.92,0,0,0,5.51-.15h0l13.14-42.06Z" style="fill: rgb(183, 136, 118); transform-origin: 234.989px 433.84px;" id="elaogogmdqccw" class="animable"></path><path d="M181.07,339.84s0-.1.16-.25a3,3,0,0,1,.6-.59,4.07,4.07,0,0,1,2.87-.79,3.82,3.82,0,0,1,1.94.73,4.54,4.54,0,0,1,1.48,2,4.73,4.73,0,0,1,.23,2.81,5,5,0,0,1-1.55,2.58,4.08,4.08,0,0,1-5.19.34,4.45,4.45,0,0,1-1.89-4.08,4.8,4.8,0,0,1,1.34-2.84,2.87,2.87,0,0,1,.67-.51c.17-.09.26-.11.27-.1a6.24,6.24,0,0,0-.82.74,4.89,4.89,0,0,0-1.15,2.73,4.16,4.16,0,0,0,1.8,3.69,4,4,0,0,0,2.3.67,3.82,3.82,0,0,0,2.39-1,4.48,4.48,0,0,0,1.4-2.33,4.33,4.33,0,0,0-.18-2.53,4.19,4.19,0,0,0-1.31-1.81,3.67,3.67,0,0,0-1.77-.73,4.06,4.06,0,0,0-2.73.61A10.29,10.29,0,0,0,181.07,339.84Z" style="fill: rgb(38, 50, 56); transform-origin: 184.082px 342.815px;" id="elgw6vn2va08h" class="animable"></path><path d="M185.77,346.72a10.51,10.51,0,0,1-.42-1.22,6.46,6.46,0,0,0-1.6-2.48,5.93,5.93,0,0,0-2.51-1.38c-.72-.2-1.2-.21-1.2-.29a2.29,2.29,0,0,1,1.27-.05,5.32,5.32,0,0,1,2.74,1.36,5.8,5.8,0,0,1,1.6,2.72A2.59,2.59,0,0,1,185.77,346.72Z" style="fill: rgb(38, 50, 56); transform-origin: 182.924px 343.977px;" id="el0ll16z2haezh" class="animable"></path><path d="M184.23,343.39a3.29,3.29,0,0,1,0-2.64,3.25,3.25,0,0,1,1.57-2.1,18.9,18.9,0,0,0-1.15,2.24A18.67,18.67,0,0,0,184.23,343.39Z" style="fill: rgb(38, 50, 56); transform-origin: 184.877px 341.02px;" id="elzm1ew6zg97" class="animable"></path><path d="M195.46,357.71s.08.05.21.19a3.08,3.08,0,0,1,.47.69,4.93,4.93,0,0,1-.61,5.12,4.63,4.63,0,0,1-2,1.41,4,4,0,0,1-2.65,0,4.31,4.31,0,0,1-2.19-1.85,4.73,4.73,0,0,1-.67-2.93,5.09,5.09,0,0,1,1.06-2.61,4.16,4.16,0,0,1,4.06-1.68,4.08,4.08,0,0,1,2.46,1.65,2.85,2.85,0,0,1,.39.75.83.83,0,0,1,0,.3,5.52,5.52,0,0,0-.58-.93,4,4,0,0,0-2.38-1.44,3.88,3.88,0,0,0-3.68,1.62,4.71,4.71,0,0,0-1,2.38A4.28,4.28,0,0,0,189,363a4,4,0,0,0,2,1.68,3.6,3.6,0,0,0,2.38,0,4.3,4.3,0,0,0,1.87-1.25,4.55,4.55,0,0,0,.92-1.82,4.72,4.72,0,0,0-.2-2.95C195.71,358,195.42,357.74,195.46,357.71Z" style="fill: rgb(38, 50, 56); transform-origin: 192.295px 360.67px;" id="el2cpwtilspyq" class="animable"></path><path d="M188.41,362.15a9.32,9.32,0,0,1,1.19-.34,6.4,6.4,0,0,0,2.53-1.51,7,7,0,0,0,1.63-2.55,9.6,9.6,0,0,1,.43-1.25,2.58,2.58,0,0,1-.13,1.35,6.18,6.18,0,0,1-1.64,2.8,5.62,5.62,0,0,1-2.75,1.49C188.89,362.29,188.4,362.21,188.41,362.15Z" style="fill: rgb(38, 50, 56); transform-origin: 191.319px 359.363px;" id="eleqqwpnsj06p" class="animable"></path><path d="M191.72,360.78a2.8,2.8,0,0,1,2.46.21c1.3.62,1.85,1.78,1.74,1.83a15.45,15.45,0,0,0-1.93-1.4A14.45,14.45,0,0,0,191.72,360.78Z" style="fill: rgb(38, 50, 56); transform-origin: 193.827px 361.705px;" id="elt0ezsn2b9v" class="animable"></path><path d="M183.33,355.71a1.3,1.3,0,0,1-.74-.36,3.28,3.28,0,0,1-1.17-2,3.73,3.73,0,0,1,1.12-3.37,3.25,3.25,0,0,1,1.88-.89,3.15,3.15,0,0,1,2.11.55,3.36,3.36,0,0,1,1.34,1.82,3.9,3.9,0,0,1,0,2.17,3.48,3.48,0,0,1-2.4,2.52,3,3,0,0,1-2.23-.35c-.47-.28-.62-.58-.6-.59a7.7,7.7,0,0,0,.68.42,3,3,0,0,0,2.08.19,3.17,3.17,0,0,0,2.08-2.3,3.55,3.55,0,0,0,0-1.91,2.87,2.87,0,0,0-1.16-1.56,2.73,2.73,0,0,0-3.49.26,3.36,3.36,0,0,0-1.07,3,3.39,3.39,0,0,0,1,2C183.07,355.57,183.35,355.67,183.33,355.71Z" style="fill: rgb(38, 50, 56); transform-origin: 184.693px 352.652px;" id="el9wssx4zly54" class="animable"></path><path d="M187,350.35a7.74,7.74,0,0,0-2,2.51,8.08,8.08,0,0,0-.4,3.27s-.24-.33-.33-1a4.73,4.73,0,0,1,.33-2.49,4.58,4.58,0,0,1,1.53-1.94C186.62,350.39,187,350.3,187,350.35Z" style="fill: rgb(38, 50, 56); transform-origin: 185.613px 353.234px;" id="ell0u0b35yv2" class="animable"></path><path d="M185.07,352.38c.08.09-.68.73-1.79.72s-1.83-.64-1.75-.74.8.27,1.77.27S185,352.26,185.07,352.38Z" style="fill: rgb(38, 50, 56); transform-origin: 183.3px 352.721px;" id="elius82bc8wch" class="animable"></path><path d="M187,345.64s.23.09.63.23a3.42,3.42,0,0,0,1.76.06,3.86,3.86,0,0,0,2.22-1.43,5.23,5.23,0,0,0,1-3.21,5.87,5.87,0,0,0-.17-1.35l.24.16a6.45,6.45,0,0,0-4.1,3,13.14,13.14,0,0,0-.92,2s0-.22.07-.61a5.82,5.82,0,0,1,.6-1.55,6.52,6.52,0,0,1,4.28-3.27l.2,0,.05.2a6.27,6.27,0,0,1,.2,1.46,5.56,5.56,0,0,1-1.11,3.51,4,4,0,0,1-2.48,1.49,3.15,3.15,0,0,1-1.87-.22C187.2,345.85,187,345.65,187,345.64Z" style="fill: rgb(38, 50, 56); transform-origin: 190.031px 343.027px;" id="eltyphj6xmzep" class="animable"></path><path d="M191.58,342a7.13,7.13,0,0,1-2.05,2.11,6.81,6.81,0,0,1-2.49,1.46,61.39,61.39,0,0,1,4.54-3.57Z" style="fill: rgb(38, 50, 56); transform-origin: 189.31px 343.785px;" id="elun7mpdej9ja" class="animable"></path><path d="M184.81,346.92s-.08.23-.34.56a5.24,5.24,0,0,1-3.72,1.92,4.89,4.89,0,0,1-2.94-.82,5.27,5.27,0,0,1-1.68-1.78l-.1-.16.14-.13a4.06,4.06,0,0,1,3.74-1,2.29,2.29,0,0,1,1.35.72,7.77,7.77,0,0,0-1.4-.44,4,4,0,0,0-3.41,1.09l0-.29a5,5,0,0,0,1.56,1.62,4.69,4.69,0,0,0,2.7.79,5,5,0,0,0,2.27-.62A9.38,9.38,0,0,0,184.81,346.92Z" style="fill: rgb(38, 50, 56); transform-origin: 180.42px 347.401px;" id="elc7qsnnqfzb" class="animable"></path><path d="M178.73,347.73a5.86,5.86,0,0,1,2.81-.76,5.72,5.72,0,0,1,2.86.24,20,20,0,0,1-2.84.23A19.86,19.86,0,0,1,178.73,347.73Z" style="fill: rgb(38, 50, 56); transform-origin: 181.565px 347.309px;" id="elqjihcabx7l9" class="animable"></path><path d="M176.61,368.62a.82.82,0,0,1-.06-.3,4.26,4.26,0,0,1,0-.87,6.25,6.25,0,0,1,1.24-2.95,11.13,11.13,0,0,1,3.59-2.92,31.31,31.31,0,0,0,4.69-2.87,7.21,7.21,0,0,0,2.67-4.71,8.47,8.47,0,0,0-.54-4.47,11,11,0,0,0-1.52-2.62,7.2,7.2,0,0,1-.7-.86,3.72,3.72,0,0,1,.83.74,9.62,9.62,0,0,1,1.68,2.59,8.7,8.7,0,0,1,.66,4.68,7.6,7.6,0,0,1-2.81,5,28.21,28.21,0,0,1-4.78,2.88,11.18,11.18,0,0,0-3.52,2.75,6.37,6.37,0,0,0-1.32,2.76C176.6,368.2,176.65,368.62,176.61,368.62Z" style="fill: rgb(38, 50, 56); transform-origin: 182.878px 357.335px;" id="eldegkrmyp4vv" class="animable"></path><path d="M189,352.25c-.13,0-.2-.57-.63-1s-.94-.6-.93-.73.16-.12.41-.09a1.46,1.46,0,0,1,.85.49,1.71,1.71,0,0,1,.41.94C189.07,352.09,189,352.25,189,352.25Z" style="fill: rgb(38, 50, 56); transform-origin: 188.275px 351.33px;" id="elp72mr9zuju" class="animable"></path><path d="M193.74,352.76c0,.14-1.08-.06-2.35.2s-2.19.84-2.26.72a3.33,3.33,0,0,1,2.19-1.19A3.13,3.13,0,0,1,193.74,352.76Z" style="fill: rgb(38, 50, 56); transform-origin: 191.435px 353.028px;" id="el0945b5aqe3ev" class="animable"></path><path d="M188.82,354.05a21.14,21.14,0,0,1,2.44.14,9,9,0,0,0,2.59-.24,5.28,5.28,0,0,0,2.72-1.62l0,.34-.08-.06a5.82,5.82,0,0,0-2.87-1.28,6,6,0,0,0-2.59.24,10.39,10.39,0,0,0-2.21,1.16s.14-.23.48-.52a5.89,5.89,0,0,1,1.64-1,5.66,5.66,0,0,1,2.74-.35,5.91,5.91,0,0,1,3.09,1.33l.08.06.19.16-.17.19a5.52,5.52,0,0,1-3,1.74,8.24,8.24,0,0,1-2.7.14,14.64,14.64,0,0,1-1.78-.28A1.87,1.87,0,0,1,188.82,354.05Z" style="fill: rgb(38, 50, 56); transform-origin: 192.93px 352.676px;" id="el7wabghvw8ik" class="animable"></path><path d="M181.81,361a1.38,1.38,0,0,1-.56-.11,4.86,4.86,0,0,1-1.38-.74,6.27,6.27,0,0,1-2.42-4.76v-.22l.2,0a5.58,5.58,0,0,1,.62-.07,4.17,4.17,0,0,1,2.92,1.12,4.33,4.33,0,0,1,1.25,2.34,4.4,4.4,0,0,1,0,1.83c-.09.42-.2.64-.23.63a7.05,7.05,0,0,0-.06-2.37,4.15,4.15,0,0,0-1.23-2.09,3.82,3.82,0,0,0-2.64-1,3.31,3.31,0,0,0-.56.06l.19-.25a6.32,6.32,0,0,0,2.17,4.53A12.33,12.33,0,0,0,181.81,361Z" style="fill: rgb(38, 50, 56); transform-origin: 179.993px 358.06px;" id="elg6kxfmtpy6g" class="animable"></path><path d="M182.11,361.17c-.07,0-.13-.27-.34-.67a6.91,6.91,0,0,0-1-1.44,8.9,8.9,0,0,1-1.09-1.48c-.22-.43-.27-.74-.22-.77s.21.22.49.57.69.81,1.15,1.36a4.59,4.59,0,0,1,1,1.62C182.21,360.84,182.16,361.17,182.11,361.17Z" style="fill: rgb(38, 50, 56); transform-origin: 180.804px 358.989px;" id="elwsplelbpe0g" class="animable"></path><path d="M188.71,362.41a4.08,4.08,0,0,1-2.93-.12,4.24,4.24,0,0,1-2.43-1.71c.09-.11,1.09.76,2.57,1.26S188.71,362.27,188.71,362.41Z" style="fill: rgb(38, 50, 56); transform-origin: 186.03px 361.598px;" id="elt8on7ez78f" class="animable"></path><path d="M180.72,362.85s.23,0,.58.18a4.6,4.6,0,0,1,1.36,1,5.41,5.41,0,0,1,1.25,2.29,6,6,0,0,1-.1,3.33l-.05.17h-.17a3.73,3.73,0,0,1-.73-.09,4.58,4.58,0,0,1-2.8-1.92,5.11,5.11,0,0,1-.37-4.72,1.66,1.66,0,0,1,.38-.61,7.59,7.59,0,0,0-.48,2.53,4.71,4.71,0,0,0,.81,2.54,4.31,4.31,0,0,0,2.56,1.72,3.83,3.83,0,0,0,.66.08l-.22.17a5.77,5.77,0,0,0,.12-3.07,5.14,5.14,0,0,0-1.09-2.18A8.55,8.55,0,0,0,180.72,362.85Z" style="fill: rgb(38, 50, 56); transform-origin: 181.689px 366.15px;" id="el2fkpnkkbg0f" class="animable"></path><path d="M182.31,367.94a4.44,4.44,0,0,1-1.51-2.52,4.94,4.94,0,0,1-.13-3c.14,0,.09,1.35.55,2.87S182.42,367.85,182.31,367.94Z" style="fill: rgb(38, 50, 56); transform-origin: 181.409px 365.18px;" id="elitnltir2jz" class="animable"></path><path d="M177.61,364.72a2,2,0,0,1-1.64-.28,3.14,3.14,0,0,1-1.31-1.36,3.78,3.78,0,0,1-.3-2.41c0-.1,0-.21.07-.31l0-.19.2,0a3.6,3.6,0,0,1,2.89,2.52,2.54,2.54,0,0,1,.08,1.68,9.83,9.83,0,0,0-.36-1.55,3.44,3.44,0,0,0-2.68-2.18l.25-.17a2.68,2.68,0,0,0-.07.27,3.52,3.52,0,0,0,.24,2.11,3.07,3.07,0,0,0,1.1,1.28A6.21,6.21,0,0,0,177.61,364.72Z" style="fill: rgb(38, 50, 56); transform-origin: 175.994px 362.479px;" id="elcl05xhyqqot" class="animable"></path><path d="M186.59,364.68s.35-.06.8.28a1.17,1.17,0,0,1,.43.94,1,1,0,0,1-.9,1,1,1,0,0,1-1-.73,1.19,1.19,0,0,1,.16-1.05c.38-.5.78-.46.77-.41s-.29.18-.5.59a.8.8,0,0,0,0,.71.61.61,0,0,0,.6.42.64.64,0,0,0,.53-.51.92.92,0,0,0-.24-.67C186.87,364.88,186.56,364.75,186.59,364.68Z" style="fill: rgb(38, 50, 56); transform-origin: 186.842px 365.788px;" id="eltnq2j7xwr9" class="animable"></path><path d="M177.85,360.83c0-.05.19-.15.56-.1a.69.69,0,0,1,.53.47.62.62,0,0,1-.06.54.58.58,0,0,1-.48.27.75.75,0,0,1-.69-.56.83.83,0,0,1,0-.74.51.51,0,0,1,.42-.25c.12,0,.16.08.15.1s-.22.08-.29.3a.61.61,0,0,0,.05.41c.08.15.21.28.32.27s.16-.4-.09-.49S177.84,360.9,177.85,360.83Z" style="fill: rgb(38, 50, 56); transform-origin: 178.3px 361.235px;" id="elzfz20qmgga" class="animable"></path><path d="M179.16,351.66s.22-.28.57,0a.63.63,0,0,1,.17.74.74.74,0,0,1-.77.47.75.75,0,0,1-.58-.67.78.78,0,0,1,.26-.69c.32-.26.58-.14.56-.09s-.19.11-.34.33a.46.46,0,0,0-.08.36.39.39,0,0,0,.26.29.34.34,0,0,0,.32-.18.27.27,0,0,0,0-.31C179.38,351.7,179.19,351.72,179.16,351.66Z" style="fill: rgb(38, 50, 56); transform-origin: 179.249px 352.111px;" id="elngbwvzzqd7j" class="animable"></path><path d="M190.58,347.18c0,.06-.14.18-.16.45s.14.57.48.45a.41.41,0,0,0,.17-.67c-.15-.21-.35-.21-.36-.28s.24-.22.57,0a.77.77,0,0,1,.3.65.79.79,0,0,1-.56.72.7.7,0,0,1-.83-.25.81.81,0,0,1-.07-.73C190.27,347.14,190.58,347.11,190.58,347.18Z" style="fill: rgb(38, 50, 56); transform-origin: 190.822px 347.782px;" id="el982gexpkoo4" class="animable"></path><path d="M196.37,355.2c0-.06.19-.19.49,0a.66.66,0,0,1,.28.57.76.76,0,0,1-.48.67.62.62,0,0,1-.72-.34.58.58,0,0,1,.15-.68c.32-.25.55,0,.5,0s-.18.06-.28.23a.18.18,0,0,0,0,.22.21.21,0,0,0,.23.1.32.32,0,0,0,.19-.24.35.35,0,0,0-.07-.28C196.53,355.3,196.37,355.26,196.37,355.2Z" style="fill: rgb(38, 50, 56); transform-origin: 196.514px 355.78px;" id="elgl6xujaz4zg" class="animable"></path><path d="M189.61,337c0,.07-.21,0-.39.21s-.25.49.05.62.49-.13.47-.39-.15-.37-.12-.43.3,0,.43.35a.77.77,0,0,1-.12.71.69.69,0,0,1-.84.2.74.74,0,0,1-.44-.77.81.81,0,0,1,.41-.58C189.43,336.75,189.65,337,189.61,337Z" style="fill: rgb(38, 50, 56); transform-origin: 189.367px 337.599px;" id="elebe9167xcyi" class="animable"></path><path d="M185.24,336a13.07,13.07,0,0,0,1.62-1.52,6.51,6.51,0,0,0,1.35-5.07l.27.18-.24.08a4.72,4.72,0,0,0-2.28,1.8,5,5,0,0,0-.81,2.34,8.05,8.05,0,0,0,.23,2.32s-.15-.18-.3-.57a5,5,0,0,1-.25-1.77,5.1,5.1,0,0,1,.8-2.56,4.94,4.94,0,0,1,2.48-2l.27-.09.23-.07,0,.26a6.78,6.78,0,0,1-.27,3.17,6.35,6.35,0,0,1-1.29,2.21,5.31,5.31,0,0,1-1.3,1.07C185.45,336,185.25,336,185.24,336Z" style="fill: rgb(38, 50, 56); transform-origin: 186.757px 332.6px;" id="elfmbugzcfaua" class="animable"></path><path d="M187.19,331.09a23.82,23.82,0,0,0-1.11,2.2c-.45,1.29-.33,2.42-.47,2.44a3.39,3.39,0,0,1,0-2.59C186.14,331.71,187.13,331,187.19,331.09Z" style="fill: rgb(38, 50, 56); transform-origin: 186.271px 333.406px;" id="el51uoun4b4hs" class="animable"></path><path d="M190.36,366.92s.13-.27.59-.42a2.14,2.14,0,0,1,1.87.39,7,7,0,0,1,2,2.08,8.59,8.59,0,0,1,.77,1.58c.09.29.19.59.26.9a2.35,2.35,0,0,1,0,1.06,1,1,0,0,1-.31.54.85.85,0,0,1-.57.19,3.39,3.39,0,0,1-.9-.26,5.63,5.63,0,0,1-1.44-.89,6.5,6.5,0,0,1-1.76-2.33,5.93,5.93,0,0,1-.52-1.94,1.87,1.87,0,0,1,0-.74,10.71,10.71,0,0,0,.79,2.52,6.46,6.46,0,0,0,1.73,2.13,5.44,5.44,0,0,0,1.36.81,3.1,3.1,0,0,0,.76.23.41.41,0,0,0,.42-.37,3.62,3.62,0,0,0-.27-1.68,8.3,8.3,0,0,0-.71-1.5,7.3,7.3,0,0,0-1.83-2.05,2,2,0,0,0-1.65-.49A3,3,0,0,0,190.36,366.92Z" style="fill: rgb(38, 50, 56); transform-origin: 193.112px 369.835px;" id="eldcbs4e9xiri" class="animable"></path><path d="M194.46,370.92a7,7,0,0,1-2.17-1.86,7.3,7.3,0,0,1-1.69-2.36,11.51,11.51,0,0,1,2,2A11.82,11.82,0,0,1,194.46,370.92Z" style="fill: rgb(38, 50, 56); transform-origin: 192.53px 368.81px;" id="el44m3wpq5b8c" class="animable"></path><path d="M182.71,112.44a20.25,20.25,0,0,1,8.13-5A10.11,10.11,0,0,1,200,109c1.91,1.61,3.08,4.11,5.33,5.18,3.1,1.48,6.68-.39,10.1-.6a1.93,1.93,0,0,1,1.88.66,2.12,2.12,0,0,1-.11,1.75q-1,2.88-2.09,5.76a5.29,5.29,0,0,0,4.56-.56,15.58,15.58,0,0,1-3.09,10.16,1.32,1.32,0,0,1,1.89.51,3.25,3.25,0,0,1,.18,2.18A16,16,0,0,1,198,146.75" style="fill: rgb(38, 50, 56); transform-origin: 201.201px 127.233px;" id="elrsp5nkd3i0j" class="animable"></path><path d="M184.49,111.54A10,10,0,0,0,172.66,114c-1.91,2.32-2.63,5.36-3.62,8.2s-2.5,5.79-5.24,7c-2.21,1-4.92.77-7,2.09-2.22,1.42-3.05,4.38-2.69,7a21.07,21.07,0,0,0,3,7.28,6.81,6.81,0,0,1-4.68,2.54,9.15,9.15,0,0,0,4.51,3.67,11.62,11.62,0,0,1,3.44,1.42,6.36,6.36,0,0,1,1.82,3.17,4.76,4.76,0,0,0,7,2.65,22.36,22.36,0,0,0,3.72-2.7s-.94,2.24,1.75,3.79a5.73,5.73,0,0,0,3.52-3.87" style="fill: rgb(38, 50, 56); transform-origin: 168.46px 135.341px;" id="elgxnsvucq25w" class="animable"></path><path d="M207,127.57a18.18,18.18,0,0,0-19-15.68l-.94,0c-10.11,1.16-14.77,10.4-13.33,20.47l4.56,46.66,23.24-1.36-1.09-15.21s9.66-2.06,9.23-11.82C209.38,146,208.17,136.3,207,127.57Z" style="fill: rgb(183, 136, 118); transform-origin: 191.579px 145.442px;" id="el14znuxlii3k" class="animable"></path><path d="M200.44,162.48a23.65,23.65,0,0,1-13-3s3.4,6.85,13.08,5.42Z" style="fill: rgb(170, 101, 80); transform-origin: 193.98px 162.288px;" id="elamja0cp73kw" class="animable"></path><path d="M205.2,134.56a1.4,1.4,0,0,1-1.26,1.48,1.34,1.34,0,0,1-1.51-1.18,1.41,1.41,0,0,1,1.27-1.48A1.33,1.33,0,0,1,205.2,134.56Z" style="fill: rgb(38, 50, 56); transform-origin: 203.815px 134.71px;" id="elvu3j7l38uqk" class="animable"></path><path d="M205.14,132.46c-.16.19-1.26-.53-2.76-.45s-2.55.9-2.73.73.08-.41.54-.79a3.84,3.84,0,0,1,2.17-.81,3.75,3.75,0,0,1,2.2.58C205,132.05,205.22,132.37,205.14,132.46Z" style="fill: rgb(38, 50, 56); transform-origin: 202.374px 131.949px;" id="elh0jqcbl9j2" class="animable"></path><path d="M190.48,136.2a1.4,1.4,0,0,1-1.27,1.48,1.33,1.33,0,0,1-1.5-1.17A1.4,1.4,0,0,1,189,135,1.35,1.35,0,0,1,190.48,136.2Z" style="fill: rgb(38, 50, 56); transform-origin: 189.094px 136.342px;" id="elrt0pajps3bc" class="animable"></path><path d="M190.44,134.07c-.16.19-1.26-.53-2.76-.45s-2.55.9-2.72.73.07-.41.53-.79a3.81,3.81,0,0,1,4.38-.23C190.34,133.66,190.52,134,190.44,134.07Z" style="fill: rgb(38, 50, 56); transform-origin: 187.682px 133.56px;" id="elhishlhu07sc" class="animable"></path><path d="M196.49,144.37a9.65,9.65,0,0,1,2.41-.58c.38-.06.74-.16.79-.42a2,2,0,0,0-.32-1.12c-.41-.91-.84-1.85-1.3-2.85-1.8-4.06-3.13-7.4-3-7.47s1.76,3.16,3.57,7.21c.43,1,.85,2,1.25,2.87a2.24,2.24,0,0,1,.28,1.49,1,1,0,0,1-.6.6,2.91,2.91,0,0,1-.64.13A10.46,10.46,0,0,1,196.49,144.37Z" style="fill: rgb(38, 50, 56); transform-origin: 197.63px 138.159px;" id="el6c1wo0t35n7" class="animable"></path><path d="M192.14,145.65c.25,0,.34,1.6,1.8,2.68s3.17.8,3.2,1-.37.34-1.1.4a4.08,4.08,0,0,1-2.67-.76,3.57,3.57,0,0,1-1.4-2.25C191.87,146.06,192,145.65,192.14,145.65Z" style="fill: rgb(38, 50, 56); transform-origin: 194.538px 147.695px;" id="elyj14i2yt067" class="animable"></path><path d="M190.37,129.73c-.08.43-1.59.49-3.29,1s-3,1.21-3.32.89c-.13-.15.05-.57.55-1.06a5.89,5.89,0,0,1,2.35-1.3,5.7,5.7,0,0,1,2.68-.13C190,129.27,190.4,129.53,190.37,129.73Z" style="fill: rgb(38, 50, 56); transform-origin: 187.045px 130.365px;" id="elapyqai5z6ob" class="animable"></path><path d="M204.69,126.71c-.3.36-1.59.09-3.11.18s-2.78.41-3.1.08c-.15-.17,0-.52.57-.88a5,5,0,0,1,2.49-.72,4.91,4.91,0,0,1,2.52.51C204.62,126.2,204.82,126.54,204.69,126.71Z" style="fill: rgb(38, 50, 56); transform-origin: 201.577px 126.238px;" id="el819nj5ebwjj" class="animable"></path><path d="M175.53,139.54c-.17-.06-6.81-1.6-6.22,5.05s7.15,4.69,7.14,4.5S175.53,139.54,175.53,139.54Z" style="fill: rgb(183, 136, 118); transform-origin: 172.861px 144.424px;" id="elp6iwg4rnoh8" class="animable"></path><path d="M174.79,146.72s-.11.09-.3.19a1.14,1.14,0,0,1-.87.1,2.9,2.9,0,0,1-1.55-2.46,3.7,3.7,0,0,1,.18-1.68,1.32,1.32,0,0,1,.79-1,.6.6,0,0,1,.71.26c.11.17.08.31.11.32s.14-.12.06-.39a.77.77,0,0,0-.3-.4.9.9,0,0,0-.66-.11,1.63,1.63,0,0,0-1.12,1.14,4,4,0,0,0-.23,1.89,3,3,0,0,0,1.94,2.72,1.25,1.25,0,0,0,1-.27C174.79,146.88,174.81,146.73,174.79,146.72Z" style="fill: rgb(170, 101, 80); transform-origin: 173.189px 144.423px;" id="el3lnamgy2xgd" class="animable"></path><path d="M180.64,119.58,205,120.86c3.91-2.38,1-5.91-2.8-6.87-4.4-1.13-9.49-3.85-14-3.66s-12.14,3.46-15,8.72a15.7,15.7,0,0,0-1.87,5.67,56.82,56.82,0,0,0,1.4,14.37,12.12,12.12,0,0,0,2.45,3.85h0c1.53-.1,2-1.35,1.7-2.85l-.63-5.92a9,9,0,0,0,2.13-10.63l-.1-.14A2.54,2.54,0,0,1,180.64,119.58Z" style="fill: rgb(38, 50, 56); transform-origin: 189.08px 126.63px;" id="el8v47kujtu5m" class="animable"></path><path d="M205.9,172.93s19.45,19.16,19.91,38c.12,5.14.78,62.73.78,62.73l-47.9-10.07V233.89s-3.76-14.73-5-21.66c-4.37-23.78,0-39.3,0-39.3Z" style="fill: rgb(183, 136, 118); transform-origin: 199.169px 223.295px;" id="elrbsy16swfw" class="animable"></path><path d="M255.72,75.5,245,127.93a31,31,0,0,1-6.28,13.29L194,196.38l-20.34-23.45,52.94-50.47,15.53-52.4Z" style="fill: rgb(183, 136, 118); transform-origin: 214.69px 133.22px;" id="el0oc6656ittp" class="animable"></path><path d="M252,51.85s4.56,11.21,4.56,15.66-1.71,13.27-1.71,13.27L240.66,75l1.39-8.7-8.74-25s3-1.41,5.08,1.87c0,0,0-3,.7-3.74s2.81.7,3.28,3.27,6.33,14.06,6.33,14.06-.24-6.79.23-7.73S251.17,49.6,252,51.85Z" style="fill: rgb(183, 136, 118); transform-origin: 244.935px 60.0081px;" id="elpcthl00k44" class="animable"></path><path d="M272.54,232.89l-36,25.28c-5.37-.2-24.08-28.07-24.08-28.07l12.34-21.89,11.74,28.26L261,227.52Z" style="fill: rgb(183, 136, 118); transform-origin: 242.5px 233.19px;" id="elw9eyqow0a19" class="animable"></path><path d="M259.11,209.92l-1.89,1.28v8.55l3.78,7.77,11.54,5.37s6.17-14.73,4.58-16.72-4.18-5.17-7-6.17-7.16,1.79-7.16,1.79L267.3,210h0A7.27,7.27,0,0,0,259.11,209.92Z" style="fill: rgb(183, 136, 118); transform-origin: 267.301px 220.793px;" id="el4bot1cob8ym" class="animable"></path><path d="M273.36,212a6.52,6.52,0,0,1-1.26.22,15,15,0,0,0-3.34.77,5.83,5.83,0,0,0-3.52,3.29,3.76,3.76,0,0,0-.2,1.38c0,.48.12,1,.16,1.54a3,3,0,0,1-.31,1.7,1.58,1.58,0,0,1-1.64.86,2.17,2.17,0,0,1-1.49-1.06,3.77,3.77,0,0,1-.46-1.65c-.07-1.08-.07-2.08-.1-3.06a9.39,9.39,0,0,1,.15-2.81,3.39,3.39,0,0,1,1.6-1.91,11.28,11.28,0,0,1,3.36-1c.8-.17,1.23-.32,1.24-.28a3.63,3.63,0,0,1-1.19.47,12.76,12.76,0,0,0-3.22,1.16,3,3,0,0,0-1.38,1.71,9.67,9.67,0,0,0-.09,2.67c.05,1,.07,2,.14,3a3.47,3.47,0,0,0,.39,1.44,1.69,1.69,0,0,0,1.13.8,1.06,1.06,0,0,0,1.11-.59,2.53,2.53,0,0,0,.25-1.42c0-.5-.13-1-.15-1.55a4.26,4.26,0,0,1,.25-1.56,6.12,6.12,0,0,1,3.84-3.48,13.19,13.19,0,0,1,3.45-.62A5.43,5.43,0,0,1,273.36,212Z" style="fill: rgb(170, 101, 80); transform-origin: 267.258px 215.88px;" id="elxikkwav1qn" class="animable"></path><path d="M275,214.32a7.62,7.62,0,0,0-3.05.38,5.25,5.25,0,0,0-2.53,2,5.48,5.48,0,0,0-.76,1.78,10.16,10.16,0,0,0-.16,2.11,6.59,6.59,0,0,1-.34,2.24,2.4,2.4,0,0,1-.66.94,1.4,1.4,0,0,1-1.11.35,2,2,0,0,1-1.41-1.4,7,7,0,0,1-.37-1.61,6.83,6.83,0,0,1,.14-2.35A2.09,2.09,0,0,1,265,218a11,11,0,0,0-.09,3.11,7.4,7.4,0,0,0,.41,1.49c.21.49.57,1,1.08,1.09s1-.41,1.23-1a6.11,6.11,0,0,0,.29-2.06,9.79,9.79,0,0,1,.18-2.22,5.7,5.7,0,0,1,.86-1.92,5.45,5.45,0,0,1,2.8-2.13,5.52,5.52,0,0,1,2.35-.25A1.83,1.83,0,0,1,275,214.32Z" style="fill: rgb(170, 101, 80); transform-origin: 269.783px 219.104px;" id="el5v8l55ddukw" class="animable"></path><path d="M276.67,217.38a4,4,0,0,0-1-.23,3,3,0,0,0-2.31,1.07,6.43,6.43,0,0,0-1.19,3.72,6.14,6.14,0,0,1-.53,2.46,2.26,2.26,0,0,1-1,1,1.57,1.57,0,0,1-1.5-.05,2.34,2.34,0,0,1-.91-1.15,5.64,5.64,0,0,1-.33-1.3,11.36,11.36,0,0,1,0-2.48c0-.38.07-.75.1-1.12a3.9,3.9,0,0,1,.21-1.09,9.11,9.11,0,0,1,.86-1.77c1.64-1.83,3.21-2.14,3.21-2a7.19,7.19,0,0,0-.89.46,8.15,8.15,0,0,0-2,1.77,10.33,10.33,0,0,0-.75,1.7,3.48,3.48,0,0,0-.16,1l-.09,1.13a11.75,11.75,0,0,0,0,2.37,2.93,2.93,0,0,0,1,2.07c.64.41,1.48-.08,1.83-.72a5.86,5.86,0,0,0,.49-2.25,6.66,6.66,0,0,1,1.39-3.93,3.12,3.12,0,0,1,2.61-1,2.1,2.1,0,0,1,.74.25C276.62,217.3,276.68,217.36,276.67,217.38Z" style="fill: rgb(170, 101, 80); transform-origin: 272.252px 219.989px;" id="el6lhfpwotd2n" class="animable"></path><path d="M261.63,217.06c.08.13-.47.57-.95,1.26s-.84,1.35-1,1.28,0-.79.55-1.58S261.57,216.94,261.63,217.06Z" style="fill: rgb(170, 101, 80); transform-origin: 260.629px 218.32px;" id="elnudbfuns78" class="animable"></path><path d="M211.16,175.22c.07.06-1,1.28-2.66,3.42a52.73,52.73,0,0,0-5.38,8.92,49.92,49.92,0,0,0-2.12,5.33,44,44,0,0,0-1.21,4.52c-.54,2.62-.66,4.28-.75,4.27a4.79,4.79,0,0,1,0-1.17,25.73,25.73,0,0,1,.38-3.17,36.72,36.72,0,0,1,1.11-4.6,44.18,44.18,0,0,1,7.67-14.32c.85-1,1.57-1.87,2.1-2.4A4.82,4.82,0,0,1,211.16,175.22Z" style="fill: rgb(170, 101, 80); transform-origin: 205.084px 188.45px;" id="el52qh262rhjv" class="animable"></path><path d="M226.59,122.46a5.52,5.52,0,0,1-.49.56l-1.49,1.53c-1.34,1.35-3.23,3.23-5.53,5.55-4.7,4.66-11.23,11.06-18.52,18.05s-13.95,13.26-18.84,17.72c-2.46,2.22-4.45,4-5.86,5.22l-1.62,1.38a3.9,3.9,0,0,1-.59.46,3.87,3.87,0,0,1,.52-.54l1.56-1.45,5.74-5.34c4.83-4.52,11.45-10.82,18.73-17.82l18.62-17.95c2.35-2.26,4.28-4.1,5.65-5.43l1.56-1.46A3.76,3.76,0,0,1,226.59,122.46Z" style="fill: rgb(170, 101, 80); transform-origin: 200.12px 147.695px;" id="el96anxofw82v" class="animable"></path><path d="M225.88,211.75a2.45,2.45,0,0,1,0,.62c0,.46,0,1,0,1.77,0,1.61-.08,3.82-.13,6.53-.11,5.51-.2,13.12-.13,21.53s.28,16,.45,21.52c.07,2.71.14,4.92.18,6.53,0,.72,0,1.31,0,1.77a2.93,2.93,0,0,1,0,.62,2.3,2.3,0,0,1-.08-.61c0-.46-.08-1-.13-1.77-.1-1.54-.22-3.77-.35-6.52-.26-5.51-.52-13.12-.6-21.54s.08-16,.28-21.54c.1-2.76.2-5,.29-6.52,0-.73.09-1.32.12-1.78A2.3,2.3,0,0,1,225.88,211.75Z" style="fill: rgb(170, 101, 80); transform-origin: 225.668px 242.195px;" id="el872xeip6jpd" class="animable"></path><path d="M226.59,273.69l26.71,42.72-38.83,11.8L206.54,307s-23.66-2.41-28.85-10.25,1-33.1,1-33.1Z" style="fill: rgb(17, 56, 146); transform-origin: 214.458px 295.93px;" id="elw61roesm7kr" class="animable"></path><path d="M213.11,301.44,207,333.71s-36.68-9.17-35-8.91l1.65-14s-1.94-13.05-1.94-20,7-27.2,7-27.2Z" style="fill: rgb(17, 56, 146); transform-origin: 192.41px 298.655px;" id="el87jvlg6d798" class="animable"></path><path d="M219.69,276.89a9.4,9.4,0,0,1,.4,2.63,32.23,32.23,0,0,1-1.68,12.72,10.31,10.31,0,0,1-1.07,2.44,22.3,22.3,0,0,1,.72-2.56,40.91,40.91,0,0,0,1.66-12.58A20.19,20.19,0,0,1,219.69,276.89Z" style="fill: rgb(38, 50, 56); transform-origin: 218.753px 285.785px;" id="el1jq70x5ka9w" class="animable"></path><path d="M183.63,270s.07.27.1.77a12.23,12.23,0,0,1-.11,2.11,15.71,15.71,0,0,1-.7,3.05,17.13,17.13,0,0,1-4,6.5,15.5,15.5,0,0,1-2.41,2,12.76,12.76,0,0,1-1.83,1,2.26,2.26,0,0,1-.72.26c-.05-.09.94-.56,2.34-1.6a18.52,18.52,0,0,0,4.55-5,18.27,18.27,0,0,0,2.41-6.31C183.56,271.14,183.54,270,183.63,270Z" style="fill: rgb(38, 50, 56); transform-origin: 178.848px 277.845px;" id="eliliddtld1cp" class="animable"></path><path d="M172.16,322.61a6.59,6.59,0,0,0,7.5-9.67,8.44,8.44,0,0,1,5.1,10.69,9,9,0,0,0,6.91-10.69,9.88,9.88,0,0,1,2.48,13,8.25,8.25,0,0,0,7.19-10.83c5.13,4,6.18,11.95,4.39,18.32L172,324.8Z" style="fill: rgb(250, 250, 250); transform-origin: 189.27px 323.185px;" id="elluyg4si1fmc" class="animable"></path><path d="M253.3,316.41l-6.14-9.82a13.64,13.64,0,0,0-8.14-5.92,13.93,13.93,0,0,1,1.78,14.76,10.18,10.18,0,0,0-10.69-10.37,9.81,9.81,0,0,1-.39,13.28,10.36,10.36,0,0,0-10.58-10.28,8.67,8.67,0,0,1,1.3,13.41,8.94,8.94,0,0,0-8.88-7.74c2,3.32,2.69,6.58,1.32,10.23l1.59,4.25Z" style="fill: rgb(250, 250, 250); transform-origin: 232.43px 314.44px;" id="elds564i4syu6" class="animable"></path><path d="M219.11,275.27a5.55,5.55,0,0,1,.3-1.28,21.71,21.71,0,0,1,1.27-3.37,4.49,4.49,0,0,1,.62-1.06,1.32,1.32,0,0,1,1.32-.57,1.39,1.39,0,0,1,1,1.23,2.84,2.84,0,0,1-.38,1.52,10.13,10.13,0,0,1-1.85,2.61,3.5,3.5,0,0,1-1.47,1,1.9,1.9,0,0,1-1.78-.58,13.23,13.23,0,0,1-3.41-5.64,1.45,1.45,0,0,1,0-.87.88.88,0,0,1,.76-.53,1.94,1.94,0,0,1,1.35.7,8.24,8.24,0,0,1,1.49,2,7.82,7.82,0,0,1,.92,3.49,3.67,3.67,0,0,1-.13,1.32s0-.47-.08-1.3a8.12,8.12,0,0,0-2.51-5.23,1.53,1.53,0,0,0-1-.56c-.33,0-.47.4-.35.85a13.28,13.28,0,0,0,3.3,5.35,1.36,1.36,0,0,0,1.3.46A3,3,0,0,0,221,274a9.71,9.71,0,0,0,1.79-2.47,2.46,2.46,0,0,0,.35-1.26,1,1,0,0,0-.61-.85.94.94,0,0,0-.91.4,5,5,0,0,0-.59,1C219.66,273.47,219.22,275.31,219.11,275.27Z" style="fill: rgb(250, 250, 250); transform-origin: 219.142px 271.559px;" id="el1qoqf83hr6h" class="animable"></path><path d="M229,287.86s-.22.16-.68.27a4.66,4.66,0,0,1-2,0,4.74,4.74,0,0,1-2.54-1.58,4.86,4.86,0,0,1-.88-1.56,6.07,6.07,0,0,1-.28-1.9,18.53,18.53,0,0,0,0-3.51,5.3,5.3,0,0,0-1.21-2.48,8.74,8.74,0,0,0-2.06-1.62,1.87,1.87,0,0,1,.71.2,5.16,5.16,0,0,1,1.62,1.17,5.52,5.52,0,0,1,1.41,2.64,16.53,16.53,0,0,1,.08,3.6,4.77,4.77,0,0,0,1,3.16,4.49,4.49,0,0,0,2.27,1.52A6.83,6.83,0,0,0,229,287.86Z" style="fill: rgb(250, 250, 250); transform-origin: 224.175px 281.859px;" id="elymbtwv6tr2" class="animable"></path><path d="M227.12,280.76c-.06,0-.39-.41-.9-1.12a12.67,12.67,0,0,0-2.22-2.53,5.42,5.42,0,0,0-3-1.22c-.85-.06-1.36.15-1.39.07s.46-.4,1.39-.44a5.09,5.09,0,0,1,3.33,1.19,9.48,9.48,0,0,1,2.2,2.73A3.76,3.76,0,0,1,227.12,280.76Z" style="fill: rgb(250, 250, 250); transform-origin: 223.364px 278.14px;" id="el70spvpjm9ax" class="animable"></path><path d="M179.7,303.06a4,4,0,0,1-.38.55l-1.15,1.54-4.39,5.73,0-.07-1.59,14-.17-.24,24.22,6.12,10.81,2.76-.31.19c2.27-10.58,3.95-19.87,5.31-26.46.67-3.3,1.22-5.93,1.63-7.73l.48-2.07a4.06,4.06,0,0,1,.2-.7,4.81,4.81,0,0,1-.11.72c-.1.52-.23,1.21-.4,2.08-.35,1.86-.86,4.49-1.48,7.76-1.27,6.61-2.89,15.91-5.14,26.51l0,.25L207,334l-10.81-2.74-24.2-6.2-.19,0,0-.19c.67-5.45,1.25-10.21,1.72-14v0l0,0,4.51-5.64,1.21-1.49A4.29,4.29,0,0,1,179.7,303.06Z" style="fill: rgb(38, 50, 56); transform-origin: 193.08px 315.34px;" id="elhvz7nym545q" class="animable"></path><g id="elu09ldlpuea"><g style="opacity: 0.2; transform-origin: 213.155px 307.075px;" class="animable"><path d="M210.06,317.34c3.51-1.59,5.63-5.4,6.08-9.23s-.54-7.67-1.84-11.3c-1.15,6.7-2.74,13.93-4.2,20.46" id="elmqqtlbi6zui" class="animable" style="transform-origin: 213.155px 307.075px;"></path></g></g><path d="M226.59,273.69a1.37,1.37,0,0,1,.16.21l.43.63,1.59,2.45c1.38,2.18,3.35,5.28,5.78,9.09l19,30.2.18.29-.32.1-1.09.33-37.77,11.38-.16.05-.05-.15c-1.26-3.55-2.27-6.38-3-8.37l-.82-2.22q-.13-.35-.21-.57c-.05-.13-.07-.2-.06-.2a.76.76,0,0,1,.1.18l.25.56c.22.49.53,1.22.91,2.19.77,1.92,1.78,4.76,3.12,8.32l-.2-.11,37.72-11.56,1.09-.33-.15.39-18.84-30.29-5.64-9.17c-.64-1.06-1.15-1.9-1.51-2.51-.16-.26-.28-.48-.38-.65S226.58,273.7,226.59,273.69Z" style="fill: rgb(38, 50, 56); transform-origin: 231.989px 301.055px;" id="el5bjpuqvvd7g" class="animable"></path></g><g id="freepik--Ball--inject-3" class="animable" style="transform-origin: 399.65px 75.5056px;"><circle cx="399.65" cy="75.5" r="25.3" style="fill: rgb(17, 56, 146); transform-origin: 399.65px 75.5px;" id="elhjllf6kkp7i" class="animable"></circle><path d="M403.4,50.47a1.7,1.7,0,0,1,.05.46c0,.3,0,.74,0,1.31a26,26,0,0,1-.64,4.79,28.17,28.17,0,0,1-7.73,13.79,29.11,29.11,0,0,1-13.94,7.48,27.06,27.06,0,0,1-4.79.64c-.57,0-1,0-1.32,0a1.42,1.42,0,0,1-.45,0,16.38,16.38,0,0,1,1.75-.17,31.57,31.57,0,0,0,4.73-.78,30,30,0,0,0,13.66-7.5,29,29,0,0,0,8.52-18.22C403.34,51.1,403.36,50.47,403.4,50.47Z" style="fill: rgb(255, 255, 255); transform-origin: 389.015px 64.714px;" id="elzuyp623ucmb" class="animable"></path><path d="M424.79,74.78a9.6,9.6,0,0,1-1.64.22,34.54,34.54,0,0,0-4.43.82,32.24,32.24,0,0,0-21.9,18.45,36.45,36.45,0,0,0-1.56,4.23,12.37,12.37,0,0,1-.49,1.58,1.28,1.28,0,0,1,.05-.43c.05-.27.11-.69.25-1.2a28.25,28.25,0,0,1,1.41-4.32,31.45,31.45,0,0,1,22.15-18.67,28.37,28.37,0,0,1,4.5-.66,11.79,11.79,0,0,1,1.23,0A2,2,0,0,1,424.79,74.78Z" style="fill: rgb(255, 255, 255); transform-origin: 409.779px 87.4281px;" id="ely6gdvnnpz2" class="animable"></path><path d="M405.13,82.6a7.77,7.77,0,0,1-2.22-.86,19.79,19.79,0,0,1-8.15-7.9,7.74,7.74,0,0,1-.93-2.18A32.62,32.62,0,0,0,398.62,78,32.69,32.69,0,0,0,405.13,82.6Z" style="fill: rgb(255, 255, 255); transform-origin: 399.48px 77.13px;" id="el6kqi2k8ls98" class="animable"></path><g id="elsdl3hw1ufg"><g style="opacity: 0.3; transform-origin: 402.268px 78.2706px;" class="animable"><path d="M415.28,55.73a25.3,25.3,0,0,1-35.55,35.56,25.3,25.3,0,1,0,35.55-35.56Z" id="elsdj88pltwsb" class="animable" style="transform-origin: 402.268px 78.2706px;"></path></g></g></g><g id="freepik--Lines--inject-3" class="animable" style="transform-origin: 311.095px 59.1px;"><path d="M277.28,89.21a3.22,3.22,0,0,1-.15-.67c-.08-.44-.15-1.1-.33-1.93a40.31,40.31,0,0,0-7.07-16.19,38.39,38.39,0,0,0-9.27-9l-1.8-1.17-.17-.11.06-.19a55.6,55.6,0,0,0,1.86-22,56.17,56.17,0,0,0-1.15-6.58c-.16-.77-.34-1.35-.42-1.76a3.74,3.74,0,0,1-.13-.62,2.2,2.2,0,0,1,.22.59c.12.4.33,1,.52,1.74a48.61,48.61,0,0,1,1.31,6.58,54,54,0,0,1-1.71,22.2l-.12-.29L260.76,61a38.37,38.37,0,0,1,9.36,9.18,40,40,0,0,1,5.05,9.45,36.89,36.89,0,0,1,1.83,7c.15.84.19,1.51.24,2A5,5,0,0,1,277.28,89.21Z" style="fill: rgb(38, 50, 56); transform-origin: 267.885px 59.1px;" id="elftqpp22w78u" class="animable"></path><path d="M353.93,61.35a1,1,0,0,1-.29-.06l-.8-.22-3.1-.88c-2.69-.75-6.61-1.74-11.5-2.74a159,159,0,0,0-17.37-2.37A146.62,146.62,0,0,0,299.42,55a153.38,153.38,0,0,0-17.53,2.23c-5.46,1-10.41,2.33-14.79,3.56l-.39.11.14-.38a48.35,48.35,0,0,0,2.88-15.86c0-1.93-.06-3.44-.13-4.47,0-.48-.07-.87-.1-1.17a1.74,1.74,0,0,1,0-.4,1.55,1.55,0,0,1,.07.4c0,.26.1.65.16,1.16a43.59,43.59,0,0,1,.25,4.48,47.13,47.13,0,0,1-2.73,16l-.26-.27a150.83,150.83,0,0,1,14.81-3.65,152.37,152.37,0,0,1,17.59-2.26,143.35,143.35,0,0,1,21.53.17,152,152,0,0,1,17.4,2.49A120.16,120.16,0,0,1,353.93,61.35Z" style="fill: rgb(38, 50, 56); transform-origin: 310.32px 49.985px;" id="elkp4iejjpynp" class="animable"></path><path d="M363.7,76.18a1.68,1.68,0,0,1-.52-.18l-1.46-.61c-1.25-.56-3.09-1.31-5.38-2.19s-5-1.84-8.13-2.79-6.55-1.83-10.2-2.61-7.19-1.29-10.4-1.68-6.13-.6-8.57-.7-4.44-.15-5.81-.14l-1.58,0a3,3,0,0,1-.55,0,2.22,2.22,0,0,1,.55-.07l1.58-.08c1.37-.06,3.36-.08,5.82,0s5.38.25,8.61.59,6.77.9,10.45,1.65S345.24,69,348.35,70s5.85,2,8.13,2.91,4.09,1.73,5.32,2.34l1.42.71A2.48,2.48,0,0,1,363.7,76.18Z" style="fill: rgb(38, 50, 56); transform-origin: 337.4px 70.6286px;" id="eliptz8nzoi8r" class="animable"></path></g><g id="freepik--Net--inject-3" class="animable" style="transform-origin: 359.44px 273.691px;"><path d="M362.78,464.22a10.2,10.2,0,0,1-6.68,0V82.6h6.68Z" style="fill: rgb(38, 50, 56); transform-origin: 359.44px 273.691px;" id="elj8nulwqq9yi" class="animable"></path></g><defs>     <filter id="active" height="200%">         <feMorphology in="SourceAlpha" result="DILATED" operator="dilate" radius="2"></feMorphology>                <feFlood flood-color="#32DFEC" flood-opacity="1" result="PINK"></feFlood>        <feComposite in="PINK" in2="DILATED" operator="in" result="OUTLINE"></feComposite>        <feMerge>            <feMergeNode in="OUTLINE"></feMergeNode>            <feMergeNode in="SourceGraphic"></feMergeNode>        </feMerge>    </filter>    <filter id="hover" height="200%">        <feMorphology in="SourceAlpha" result="DILATED" operator="dilate" radius="2"></feMorphology>                <feFlood flood-color="#ff0000" flood-opacity="0.5" result="PINK"></feFlood>        <feComposite in="PINK" in2="DILATED" operator="in" result="OUTLINE"></feComposite>        <feMerge>            <feMergeNode in="OUTLINE"></feMergeNode>            <feMergeNode in="SourceGraphic"></feMergeNode>        </feMerge>            <feColorMatrix type="matrix" values="0   0   0   0   0                0   1   0   0   0                0   0   0   0   0                0   0   0   1   0 "></feColorMatrix>    </filter></defs></svg>