<svg class="animated" id="freepik_stories-soccer" xmlns="http://www.w3.org/2000/svg" viewBox="0 0 500 500" version="1.1" xmlns:xlink="http://www.w3.org/1999/xlink" xmlns:svgjs="http://svgjs.com/svgjs"><style>svg#freepik_stories-soccer:not(.animated) .animable {opacity: 0;}svg#freepik_stories-soccer.animated #freepik--character-1--inject-8 {animation: 3.2s 1 forwards cubic-bezier(.36,-0.01,.5,1.38) slideDown;animation-delay: 0s;}svg#freepik_stories-soccer.animated #freepik--character-2--inject-8 {animation: 1s 1 forwards cubic-bezier(.36,-0.01,.5,1.38) fadeIn;animation-delay: 0s;}svg#freepik_stories-soccer.animated #freepik--obj-2--inject-8 {animation: 2.0s 1 forwards cubic-bezier(.36,-0.01,.5,1.38) slideDown;animation-delay: 0s;}            @keyframes slideDown {                0% {                    opacity: 0;                    transform: translateY(-30px);                }                100% {                    opacity: 1;                    transform: translateY(0);                }            }                    @keyframes fadeIn {                0% {                    opacity: 0;                }                100% {                    opacity: 1;                }            }        .animator-hidden { display: none; }</style><g id="freepik--background-complete--inject-8" class="animable" style="transform-origin: 250px 226.87px;"><rect y="382.4" width="500" height="0.25" style="fill: rgb(235, 235, 235); transform-origin: 250px 382.525px;" id="el4zhz3gjxbd9" class="animable"></rect><rect x="416.78" y="398.49" width="33.12" height="0.25" style="fill: rgb(235, 235, 235); transform-origin: 433.34px 398.615px;" id="eluxt3pt1dxip" class="animable"></rect><rect x="239.64" y="395.44" width="30.22" height="0.25" style="fill: rgb(235, 235, 235); transform-origin: 254.75px 395.565px;" id="elfsj6r3img1r" class="animable"></rect><rect x="345.89" y="389.21" width="69.89" height="0.25" style="fill: rgb(235, 235, 235); transform-origin: 380.835px 389.335px;" id="elol0x2he2hph" class="animable"></rect><rect x="52.46" y="390.89" width="167.14" height="0.25" style="fill: rgb(235, 235, 235); transform-origin: 136.03px 391.015px;" id="elbk19n1yuonm" class="animable"></rect><rect x="228.5" y="390.89" width="6.33" height="0.25" style="fill: rgb(235, 235, 235); transform-origin: 231.665px 391.015px;" id="elvcukwbnkpqj" class="animable"></rect><path d="M237,337.8H43.91a5.71,5.71,0,0,1-5.7-5.71V60.66A5.71,5.71,0,0,1,43.91,55H237a5.71,5.71,0,0,1,5.71,5.71V332.09A5.71,5.71,0,0,1,237,337.8ZM43.91,55.2a5.46,5.46,0,0,0-5.45,5.46V332.09a5.46,5.46,0,0,0,5.45,5.46H237a5.47,5.47,0,0,0,5.46-5.46V60.66A5.47,5.47,0,0,0,237,55.2Z" style="fill: rgb(235, 235, 235); transform-origin: 140.46px 196.4px;" id="elw3jwsb8e3eo" class="animable"></path><path d="M453.31,337.8H260.21a5.72,5.72,0,0,1-5.71-5.71V60.66A5.72,5.72,0,0,1,260.21,55h193.1A5.71,5.71,0,0,1,459,60.66V332.09A5.71,5.71,0,0,1,453.31,337.8ZM260.21,55.2a5.47,5.47,0,0,0-5.46,5.46V332.09a5.47,5.47,0,0,0,5.46,5.46h193.1a5.47,5.47,0,0,0,5.46-5.46V60.66a5.47,5.47,0,0,0-5.46-5.46Z" style="fill: rgb(235, 235, 235); transform-origin: 356.75px 196.4px;" id="elvfb18q4x6co" class="animable"></path><path d="M388.72,155.71h58.72a9.85,9.85,0,0,0-7.77-4c-5.09,0-.32,2.21-4.27,2.21s-8-7.15-20.57-7.15-2.16,5.37-8.66,5.37S378.88,147.41,388.72,155.71Z" style="fill: rgb(240, 240, 240); transform-origin: 416.78px 151.24px;" id="elwk0m55fhfis" class="animable"></path><path d="M277.08,96.46h79.33a13.34,13.34,0,0,0-10.5-5.38c-6.88,0-.43,3-5.77,3s-10.84-9.65-27.79-9.65-2.92,7.26-11.7,7.26S263.78,85.24,277.08,96.46Z" style="fill: rgb(245, 245, 245); transform-origin: 314.987px 90.445px;" id="ellk22if2wm2" class="animable"></path><path d="M214.85,103.48c-6.11,0-.38,2.64-5.11,2.64s-9.63-8.57-24.68-8.57c-14.8,0-3.63,7.29-10.65,7.54H174c-7,0-14.27-12.7-36.58-12.7s-3.85,9.55-15.4,9.55-48.53-8.45-31,6.31H224.18A11.84,11.84,0,0,0,214.85,103.48Z" style="fill: rgb(240, 240, 240); transform-origin: 155.281px 100.32px;" id="el46msv1r0rnz" class="animable"></path><path d="M100.16,74.48a11.45,11.45,0,0,1,2.25,1,11.18,11.18,0,0,1,2,1.52,12,12,0,0,1,1.22,1.43,12.69,12.69,0,0,1,1.92-.22,10.76,10.76,0,0,1,2.55.22,11.46,11.46,0,0,1,2.34.77,10,10,0,0,1,2,1.25,9.49,9.49,0,0,0-2.25-.71,10.82,10.82,0,0,0-2.34-.19,10.42,10.42,0,0,0-4.48,1.16l-1,.5-.33-1a9.49,9.49,0,0,0-2.41-3.8A10.08,10.08,0,0,0,99.91,75a9.45,9.45,0,0,0-2.14-1A10.31,10.31,0,0,1,100.16,74.48Z" style="fill: rgb(224, 224, 224); transform-origin: 106.105px 77.605px;" id="elvj6tf0pfa6p" class="animable"></path><path d="M70.85,75.39a9.29,9.29,0,0,1,1.64,1.08,8.82,8.82,0,0,1,1.39,1.47,8.35,8.35,0,0,1,.78,1.29,9.81,9.81,0,0,1,1.54.08,9.06,9.06,0,0,1,2,.52,8.78,8.78,0,0,1,1.74.93A7.36,7.36,0,0,1,81.37,82a7.65,7.65,0,0,0-1.68-.87,8.9,8.9,0,0,0-1.81-.46,8.14,8.14,0,0,0-3.67.3l-.81.26-.14-.82a7.56,7.56,0,0,0-1.41-3.31,7.65,7.65,0,0,0-1.26-1.35A7.39,7.39,0,0,0,69,74.71,8.3,8.3,0,0,1,70.85,75.39Z" style="fill: rgb(224, 224, 224); transform-origin: 75.185px 78.355px;" id="elu0lskzwtko" class="animable"></path><path d="M387.62,66A11.93,11.93,0,0,1,390,67a10.64,10.64,0,0,1,2.11,1.52,10.5,10.5,0,0,1,1.29,1.44,12.28,12.28,0,0,1,2-.29,11.46,11.46,0,0,1,2.63.16,11.58,11.58,0,0,1,2.43.73,9.91,9.91,0,0,1,2.15,1.23,10.09,10.09,0,0,0-2.34-.67,11.47,11.47,0,0,0-2.41-.13,10.68,10.68,0,0,0-4.59,1.32l-1,.54-.37-1A9.74,9.74,0,0,0,389.3,68a10.74,10.74,0,0,0-1.92-1.4,9.57,9.57,0,0,0-2.23-.94A9.88,9.88,0,0,1,387.62,66Z" style="fill: rgb(224, 224, 224); transform-origin: 393.88px 69.255px;" id="elj01kmiinani" class="animable"></path><path d="M389.55,92.3a8.13,8.13,0,0,1,1.56.64,7.28,7.28,0,0,1,1.41,1,6.7,6.7,0,0,1,.87,1,7.64,7.64,0,0,1,1.32-.19,7.4,7.4,0,0,1,1.77.1,8,8,0,0,1,1.62.49,6.21,6.21,0,0,1,1.44.83A6.62,6.62,0,0,0,398,95.7a7.24,7.24,0,0,0-4.69.79l-.65.36-.25-.67a6.51,6.51,0,0,0-1.72-2.58,7.06,7.06,0,0,0-1.29-.93,6.38,6.38,0,0,0-1.49-.64A7.28,7.28,0,0,1,389.55,92.3Z" style="fill: rgb(224, 224, 224); transform-origin: 393.725px 94.44px;" id="ell7m35dhddgq" class="animable"></path><path d="M414.94,88.07a5.87,5.87,0,0,1,1.11.45,4.91,4.91,0,0,1,1,.72,4.47,4.47,0,0,1,.62.68,6,6,0,0,1,.93-.14,5.72,5.72,0,0,1,1.25.08,5.1,5.1,0,0,1,1.15.35,4.21,4.21,0,0,1,1,.58,4.32,4.32,0,0,0-1.1-.32,5.45,5.45,0,0,0-1.14-.06,5.09,5.09,0,0,0-2.17.62l-.46.25-.18-.47a4.73,4.73,0,0,0-2.13-2.48,4.27,4.27,0,0,0-1.05-.45A4.61,4.61,0,0,1,414.94,88.07Z" style="fill: rgb(224, 224, 224); transform-origin: 417.885px 89.58px;" id="elqr333uyunvo" class="animable"></path><path d="M369.7,106.75a8.1,8.1,0,0,1,1.62.66,7.82,7.82,0,0,1,1.46,1,7.14,7.14,0,0,1,.9,1,9.43,9.43,0,0,1,1.37-.2,7.9,7.9,0,0,1,1.83.12,7.25,7.25,0,0,1,1.68.5,7,7,0,0,1,1.49.85,7.12,7.12,0,0,0-1.62-.46,7.8,7.8,0,0,0-1.67-.09,7.36,7.36,0,0,0-3.18.92l-.68.36-.25-.69a6.81,6.81,0,0,0-1.79-2.67,7.08,7.08,0,0,0-1.33-1,6.89,6.89,0,0,0-1.55-.66A7.72,7.72,0,0,1,369.7,106.75Z" style="fill: rgb(224, 224, 224); transform-origin: 374.015px 108.9px;" id="el0dtifm8k4lvn" class="animable"></path><path d="M373.87,134.75a5.08,5.08,0,0,1,1.09.44,5.35,5.35,0,0,1,1,.7,6.49,6.49,0,0,1,.6.67,4.75,4.75,0,0,1,.91-.13,4.92,4.92,0,0,1,1.22.07,5.12,5.12,0,0,1,1.13.34,4.47,4.47,0,0,1,1,.57,4.67,4.67,0,0,0-1.09-.31,5.23,5.23,0,0,0-1.12-.06,4.94,4.94,0,0,0-2.12.61l-.45.25-.18-.47a4.44,4.44,0,0,0-1.19-1.78,4.72,4.72,0,0,0-.89-.65,4.78,4.78,0,0,0-1-.44A4.53,4.53,0,0,1,373.87,134.75Z" style="fill: rgb(224, 224, 224); transform-origin: 376.8px 136.23px;" id="eloqtajjjg5af" class="animable"></path><path d="M406.35,126.58a3.88,3.88,0,0,1,.77.31,4,4,0,0,1,.69.5,3.8,3.8,0,0,1,.42.47,3.76,3.76,0,0,1,.65-.09,3.47,3.47,0,0,1,.86,0,3.53,3.53,0,0,1,.8.24,3.81,3.81,0,0,1,.71.4,3.5,3.5,0,0,0-1.56-.26,3.6,3.6,0,0,0-1.51.43l-.32.18-.12-.33a3.14,3.14,0,0,0-.84-1.26,3.18,3.18,0,0,0-.63-.46,3.14,3.14,0,0,0-.73-.31A3.8,3.8,0,0,1,406.35,126.58Z" style="fill: rgb(224, 224, 224); transform-origin: 408.395px 127.58px;" id="elqm8tpftgfu" class="animable"></path><polygon points="174.78 212.43 86.47 217.49 70.6 171.97 158.91 166.9 174.78 212.43" style="fill: rgb(245, 245, 245); transform-origin: 122.69px 192.195px;" id="eljhep6qts1k" class="animable"></polygon><polygon points="325.22 212.43 413.53 217.49 429.4 171.97 341.09 166.9 325.22 212.43" style="fill: rgb(245, 245, 245); transform-origin: 377.31px 192.195px;" id="elyee7ckgcok" class="animable"></polygon><path d="M483.61,382.4H16.39l40-164.52c0-14.41,387.22-14.41,387.22,0Z" style="fill: rgb(230, 230, 230); transform-origin: 250px 294.736px;" id="elacpgn1q04ae" class="animable"></path><path d="M475,352A1463.68,1463.68,0,0,1,25,352a4.07,4.07,0,0,1-3.39-4.66q.73-4.69,1.49-9.4a4,4,0,0,1,4.63-3.37,1446.45,1446.45,0,0,0,444.48,0,4,4,0,0,1,4.63,3.37c.5,3.13,1,6.27,1.49,9.4A4.07,4.07,0,0,1,475,352Z" style="fill: rgb(245, 245, 245); transform-origin: 249.971px 351.955px;" id="el9zlf0wzgsga" class="animable"></path><path d="M459.09,292a1362.43,1362.43,0,0,1-418.18,0,4.07,4.07,0,0,1-3.39-4.66q.66-4.1,1.3-8.19a4.05,4.05,0,0,1,4.64-3.37,1346.28,1346.28,0,0,0,413.08,0,4.05,4.05,0,0,1,4.64,3.37q.65,4.09,1.3,8.19A4.07,4.07,0,0,1,459.09,292Z" style="fill: rgb(245, 245, 245); transform-origin: 250px 291.935px;" id="elc51chz7bgvg" class="animable"></path><path d="M445.8,232a1277.22,1277.22,0,0,1-391.6,0,4.06,4.06,0,0,1-3.39-4.66q.55-3.6,1.13-7.18a4.07,4.07,0,0,1,4.64-3.38,1261.4,1261.4,0,0,0,386.84,0,4.07,4.07,0,0,1,4.64,3.38q.57,3.59,1.13,7.18A4.06,4.06,0,0,1,445.8,232Z" style="fill: rgb(245, 245, 245); transform-origin: 250px 231.915px;" id="eln4il95nv7a" class="animable"></path></g><g id="freepik--Shadow--inject-8" class="animable" style="transform-origin: 250px 416.24px;"><ellipse id="freepik--path--inject-8" cx="250" cy="416.24" rx="193.89" ry="11.32" style="fill: rgb(245, 245, 245); transform-origin: 250px 416.24px;" class="animable"></ellipse></g><g id="freepik--character-1--inject-8" class="animable" style="transform-origin: 201.427px 245.25px;"><path d="M226.74,306.22c-28.55-39.22-48.12-85.38-49.47-99.34l47.85,11.59s15.76,48.37,24.22,76.14c8.81,28.87-29.13,106.71-29.13,106.71l-11.59-1.2C219.94,356.4,214.9,324.79,226.74,306.22Z" style="fill: rgb(127, 62, 59); transform-origin: 213.969px 304.1px;" id="elfzwe41a5uei" class="animable"></path><path d="M208.85,396.23c1.85-7.8,6.5-35.12,8.61-52.29,15.36-1.46,25,2.05,25,2.05,0,2.54-12.65,38.12-20.55,59.22Z" style="fill: #113892; transform-origin: 225.655px 374.397px;" id="elqbrgghkbrzr" class="animable"></path><path d="M217.46,343.94c-.22,1.81-.47,3.73-.75,5.74a98.07,98.07,0,0,1,24.2,1.9,36.47,36.47,0,0,0,1.54-5.59S232.82,342.48,217.46,343.94Z" style="fill: rgb(38, 50, 56); transform-origin: 229.58px 347.582px;" id="elf47cszfqnw" class="animable"></path><path d="M222.61,214.82s3.67,2.54,4,4.38c3.11,2.92,10.06,22,10.93,30.88s6.81,12.67,4.93,22.47c-5.63-3.43-31.38,10.16-31.38,10.16-7.22-4.38-8.38-14.3-13-20.84-4.91-6.94-10.18-21-12.67-29.22C182.79,224,181.64,218,181.64,218Z" style="fill: rgb(38, 50, 56); transform-origin: 212.238px 248.765px;" id="elj0h7zmub2oc" class="animable"></path><g id="elfjg4go3ng5a"><path d="M198.73,230.09c-3.29-5.72-11.58-6.6-14.77-2.48q.63,2.32,1.46,5c2.5,8.19,7.76,22.29,12.67,29.24.28.39.55.8.81,1.22C203.46,253.89,204.15,239.53,198.73,230.09Z" style="opacity: 0.2; transform-origin: 193.26px 244.061px;" class="animable" id="eltj2bzwspdk9"></path></g><path d="M243.68,409.75c-9.65-3.35-15.37-5.7-17.86-11.45,0,0,2.55.45.66-2.75s-7.46-5.32-9-.91c0,0-6.46-3-9.76-.25l-4,13.36a2,2,0,0,0,1.51,2.42c5.95,1.15,9.53.84,15.29,1.87,6.75,1.2,11.32,2.74,19.35,3C244.74,415.16,245.68,410.45,243.68,409.75Z" style="fill: rgb(38, 50, 56); transform-origin: 224.164px 403.588px;" id="elephd2609hy8" class="animable"></path><polygon points="218.52 413.4 216.51 413.01 215.59 410 220.5 410.96 218.52 413.4" style="fill: rgb(38, 50, 56); transform-origin: 218.045px 411.7px;" id="elsrmrrs4uv5" class="animable"></polygon><polygon points="223.76 414.26 221.76 413.87 220.83 410.86 225.75 411.82 223.76 414.26" style="fill: rgb(38, 50, 56); transform-origin: 223.29px 412.56px;" id="el9g0wekmrvn" class="animable"></polygon><polygon points="229.73 415.37 227.7 415.21 226.44 412.32 231.44 412.72 229.73 415.37" style="fill: rgb(38, 50, 56); transform-origin: 228.94px 413.845px;" id="elvzcfu80pz8" class="animable"></polygon><polygon points="235.4 415.98 233.36 415.89 232 413.05 237.01 413.27 235.4 415.98" style="fill: rgb(38, 50, 56); transform-origin: 234.505px 414.515px;" id="elop9bgtn02wo" class="animable"></polygon><polygon points="241.01 416.23 238.97 416.14 237.62 413.3 242.62 413.52 241.01 416.23" style="fill: rgb(38, 50, 56); transform-origin: 240.12px 414.765px;" id="elgy6i5qfm4vo" class="animable"></polygon><polygon points="207.37 411.86 205.36 411.47 204.43 408.46 209.35 409.42 207.37 411.86" style="fill: rgb(38, 50, 56); transform-origin: 206.89px 410.16px;" id="el3ru4x1l4467" class="animable"></polygon><polygon points="212.91 412.78 210.91 412.39 209.98 409.37 214.9 410.33 212.91 412.78" style="fill: rgb(38, 50, 56); transform-origin: 212.44px 411.075px;" id="el7xotvd60me9" class="animable"></polygon><path d="M248.64,138.45c2,1.16,4,2.41,6,3.67s3.95,2.53,5.88,3.85l2.91,2,2.87,2,5.55,3.85-4.32-1.06c2.33,0,4.68.15,7.05,0s4.76-.22,7.16-.48,4.8-.58,7.22-1c1.2-.21,2.41-.43,3.61-.67l3.44-.73.67-.14a4.65,4.65,0,0,1,3.65,8.34l-1,.7-.91.63c-.62.41-1.22.78-1.84,1.16-1.24.73-2.49,1.43-3.77,2.06a65.52,65.52,0,0,1-7.91,3.34,68.61,68.61,0,0,1-8.32,2.3,73,73,0,0,1-8.63,1.31,6.48,6.48,0,0,1-3.34-.59l-1-.48c-2.39-1.14-4.49-2.19-6.62-3.35s-4.2-2.26-6.26-3.44-4.1-2.39-6.13-3.62-4-2.5-6-3.85a9.36,9.36,0,0,1,9.94-15.84Z" style="fill: rgb(127, 62, 59); transform-origin: 268.428px 153.402px;" id="el5fdqebnt315" class="animable"></path><path d="M239.24,129.61c8.93,3.12,20.32,14.19,23.75,16.59,4.56,3.18,3.68,11.13,1.3,14.57-1.86,2.7-5.16,5.58-9.84,4.51s-11.6-5-11.6-5S228.36,125.22,239.24,129.61Z" style="fill: #113892; transform-origin: 250.718px 147.369px;" id="elooyyru1exg" class="animable"></path><g id="eloihtzz1abtm"><path d="M239.24,129.61c8.93,3.12,20.32,14.19,23.75,16.59,4.56,3.18,3.68,11.13,1.3,14.57-1.86,2.7-5.16,5.58-9.84,4.51s-11.6-5-11.6-5S228.36,125.22,239.24,129.61Z" style="opacity: 0.2; transform-origin: 250.718px 147.369px;" class="animable" id="els5ilu26tmd"></path></g><path d="M293.66,150.87,303,147,304.36,159s-8.89,2.51-11-2Z" style="fill: rgb(127, 62, 59); transform-origin: 298.86px 153.348px;" id="el2gtafmka26" class="animable"></path><path d="M312.77,150.88l-.24,4.31a3.51,3.51,0,0,1-3.13,3.3l-5,.55L303,147l6.37.21A3.51,3.51,0,0,1,312.77,150.88Z" style="fill: rgb(127, 62, 59); transform-origin: 307.887px 153.02px;" id="elcxqk5rugu7e" class="animable"></path><path d="M119.11,251.91c-5.28-6.06-10.8-4.19-13.28-1.13-3.82,4.69-4.36,6.7-7.41,11.7-3.57,5.85-8.12,8.06-8.16,16.1,0,3.38,5,8.47,8.63,3.92a46.64,46.64,0,0,1,12.94-11.14c3.71-.25,8.85-1.42,5.62-4.8C117.45,266.56,122.61,256,119.11,251.91Z" style="fill: rgb(38, 50, 56); transform-origin: 105.294px 266.112px;" id="elfw6kf6knrz4" class="animable"></path><polygon points="105.59 250.05 107.16 248.74 110.08 249.92 106.23 253.13 105.59 250.05" style="fill: rgb(38, 50, 56); transform-origin: 107.835px 250.935px;" id="elyv9o18jo3k" class="animable"></polygon><polygon points="102.52 254.28 103.73 252.63 106.85 253.07 103.89 257.12 102.52 254.28" style="fill: rgb(38, 50, 56); transform-origin: 104.685px 254.875px;" id="elkt4m1dm18n7" class="animable"></polygon><polygon points="99.79 258.53 100.86 256.79 104 256.96 101.4 261.25 99.79 258.53" style="fill: rgb(38, 50, 56); transform-origin: 101.895px 259.02px;" id="elgw26fvvpmn5" class="animable"></polygon><polygon points="97.17 263.15 98.23 261.41 101.37 261.58 98.77 265.87 97.17 263.15" style="fill: rgb(38, 50, 56); transform-origin: 99.27px 263.64px;" id="elurz9sxy6qem" class="animable"></polygon><polygon points="94.48 266.59 95.84 265.07 98.9 265.81 95.57 269.55 94.48 266.59" style="fill: rgb(38, 50, 56); transform-origin: 96.69px 267.31px;" id="elu7ois9jm8q" class="animable"></polygon><polygon points="91.87 270.18 93.22 268.65 96.29 269.38 92.96 273.13 91.87 270.18" style="fill: rgb(38, 50, 56); transform-origin: 94.08px 270.89px;" id="elr9vnsvf1pp" class="animable"></polygon><polygon points="90.08 275.09 90.78 273.17 93.9 272.73 92.19 277.43 90.08 275.09" style="fill: rgb(38, 50, 56); transform-origin: 91.99px 275.08px;" id="elkzx3nfky5lj" class="animable"></polygon><path d="M138.77,275.88c18.84-26.85,16.39-57.41,34.67-69l41.91,6.54s-37.29,68.44-68.25,95.5C124.37,328.79,106.54,261,106.54,261c-.6-6.8,2.21-9.08,7.31-8.33C113.85,252.68,130.71,261,138.77,275.88Z" style="fill: rgb(127, 62, 59); transform-origin: 160.905px 259.724px;" id="el1uieow3lw3l" class="animable"></path><path d="M113.85,252.68c-5.1-.75-7.91,1.53-7.31,8.33A195.94,195.94,0,0,0,114.85,285c-2.22-10.12,7.86-21.63,15.5-20.16A69.6,69.6,0,0,0,113.85,252.68Z" style="fill: #113892; transform-origin: 118.405px 268.772px;" id="el9cozbqnqsc" class="animable"></path><path d="M125.34,260.29c-6.15.91-12.77,8.18-13.9,16,1,2.75,2.14,5.69,3.4,8.66-2.21-10.11,7.87-21.63,15.51-20.16A65.32,65.32,0,0,0,125.34,260.29Z" style="fill: rgb(38, 50, 56); transform-origin: 120.895px 272.62px;" id="eliy61wgjhxce" class="animable"></path><path d="M171.94,206.88s-3.9,2.17-4.42,4c-3.38,2.61-12.18,20.92-13.92,29.66s-7.79,11.59-6.89,21.54c13.13-.47,28.94,14.11,28.94,14.11,7.61-3.65,10.73-14.06,16.06-20s13.21-18.33,17.95-26a44.93,44.93,0,0,0,5.86-15.45Z" style="fill: rgb(38, 50, 56); transform-origin: 181.07px 241.535px;" id="elwgbtoldc15" class="animable"></path><path d="M175.84,207.07a30.73,30.73,0,0,0-4.42,7.75c-3.12,2.15-12.23,22.82-13.92,29.84s-8.11,11.44-7.46,17.56c.67.85,3.45,1.55,6,1.55-.65-6.11,5.61-10.76,7.3-17.78s10.79-27.69,13.92-29.85a32,32,0,0,1,4.42-7.74Z" style="fill: rgb(255, 255, 255); transform-origin: 165.837px 235.42px;" id="el5mbagaqo3sf" class="animable"></path><path d="M185.33,134.71c-3.57,33.73-13.82,66.39-15.09,73.25,47.35,3.9,52.72,19.16,59.61,14.59,9.41-26,18.88-50.7,22.92-69.39a20.2,20.2,0,0,0-11.94-22.89,207.32,207.32,0,0,0-34.64-10.77A17.36,17.36,0,0,0,185.33,134.71Z" style="fill: #113892; transform-origin: 211.732px 171.26px;" id="eliqsb0a1uqee" class="animable"></path><path d="M236.9,128.69A211.5,211.5,0,0,0,208.61,120a2.75,2.75,0,0,0,.18,2.71c2.29,4,10.22,7.6,18.33,9.5a24.19,24.19,0,0,0,5.2.76c2,0,3.37-.63,4.12-1.86A3.72,3.72,0,0,0,236.9,128.69Z" style="fill: rgb(255, 255, 255); transform-origin: 222.639px 126.485px;" id="el1ohsyiqfbd5" class="animable"></path><path d="M216,103.29l15.07,3.19c1,7.68,0,12.4,1.72,18.59,1.86,3.57,4.5,7.14-5.13,4.89-10-2.33-16.16-6.24-16.62-7.85C217,119.69,216,110.71,216,103.29Z" style="fill: rgb(127, 62, 59); transform-origin: 222.813px 116.976px;" id="elsw927v1sch" class="animable"></path><g id="elngoh61jtyjr"><path d="M215.79,114.3a13.19,13.19,0,0,1-1.44,4.85c7.66,2.7,12.56-.39,15.44-4.78A53.2,53.2,0,0,0,215.79,114.3Z" style="opacity: 0.2; transform-origin: 222.07px 117.016px;" class="animable" id="elhxslnmby81h"></path></g><path d="M209.34,82.4c-5.11,3.19-2,9-7,12.43a8.2,8.2,0,0,0,5.72-.92s-1.62,4.54-3.64,5.94c5.33.89,11.18-1.65,11.64-4.09S215.26,78.69,209.34,82.4Z" style="fill: rgb(38, 50, 56); transform-origin: 209.243px 90.9163px;" id="elgqgcg2qmyts" class="animable"></path><path d="M234.78,92.81c.3,9.92,1,15.71-3.54,21.19-6.81,8.24-19.43,4.74-22.7-4.91-2.94-8.69-2.94-23.45,6.37-28.18A13.68,13.68,0,0,1,234.78,92.81Z" style="fill: rgb(127, 62, 59); transform-origin: 220.906px 99.0218px;" id="elba6jmn4v1d" class="animable"></path><path d="M232.9,101.76c-4.78-2.24-5.37-9.44-2.49-12.44-2.93-4.19-20.44-1.62-28.29-9.93,4.39-.41,9.07.42,13.07-.9s8.52-3.18,15.22-2c7.68,1.36,9.9,5.76,8.59,8.44C244.85,85.81,242.9,101.08,232.9,101.76Z" style="fill: rgb(38, 50, 56); transform-origin: 222.199px 88.9372px;" id="elew72mv7kn5k" class="animable"></path><path d="M213.15,110.43s3-1.26,12-3.1c-.48,2.46-2,4.7-6.56,5.6S213.15,110.43,213.15,110.43Z" style="fill: rgb(38, 50, 56); transform-origin: 219.15px 110.206px;" id="elt6hyjb930tp" class="animable"></path><path d="M220.46,110.42a27.18,27.18,0,0,0-4.09,1.07,1.36,1.36,0,0,0-.85,1.35,5.84,5.84,0,0,0,3,.09,9.36,9.36,0,0,0,4.71-2.11C223,110.32,221.74,110.17,220.46,110.42Z" style="fill: rgb(255, 255, 255); transform-origin: 219.374px 111.692px;" id="elfrs33vqso4e" class="animable"></path><path d="M213.54,110.28c.37.43,1,1.74,2,1.71a58.61,58.61,0,0,0,7.78-2.18c.79-.28,1.15-1.54,1.45-2.4A89.5,89.5,0,0,0,213.54,110.28Z" style="fill: rgb(255, 255, 255); transform-origin: 219.155px 109.7px;" id="el0id9lhailkff" class="animable"></path><path d="M239.61,101a9.32,9.32,0,0,1-3.83,6.08c-2.72,1.89-5.18-.27-5.35-3.39-.16-2.81,1.06-7.18,4.24-7.82S240.08,98,239.61,101Z" style="fill: rgb(127, 62, 59); transform-origin: 235.044px 101.782px;" id="el6m0gdr7wr6l" class="animable"></path><path d="M220.12,98.33c.08.81-.29,1.49-.82,1.54s-1-.58-1.08-1.38S218.51,97,219,97,220.05,97.53,220.12,98.33Z" style="fill: rgb(38, 50, 56); transform-origin: 219.17px 98.4364px;" id="elxlrhap8pg3r" class="animable"></path><path d="M210.61,99.77c.08.81-.29,1.49-.82,1.54s-1-.57-1.08-1.38.29-1.49.82-1.53S210.54,99,210.61,99.77Z" style="fill: rgb(38, 50, 56); transform-origin: 209.66px 99.8555px;" id="elghmj26x9yde" class="animable"></path><path d="M213.92,100.29s-1.4,4.78-3.21,7.19c1.54,1.21,3.91.4,3.91.4Z" style="fill: rgb(99, 15, 15); transform-origin: 212.665px 104.218px;" id="elmbgy9d3lnlo" class="animable"></path><path d="M220.57,92.05a.4.4,0,0,0,0-.24.47.47,0,0,0-.56-.37,4.75,4.75,0,0,0-3.46,2.62.48.48,0,0,0,.26.62.49.49,0,0,0,.62-.27h0a3.82,3.82,0,0,1,2.76-2A.46.46,0,0,0,220.57,92.05Z" style="fill: rgb(38, 50, 56); transform-origin: 218.552px 93.0697px;" id="elx104efm3vj" class="animable"></path><path d="M205.93,93.86a.47.47,0,0,0,.43.1,3.71,3.71,0,0,1,3.36.63.48.48,0,0,0,.67,0,.48.48,0,0,0,0-.67,4.66,4.66,0,0,0-4.23-.84.47.47,0,0,0-.33.58A.42.42,0,0,0,205.93,93.86Z" style="fill: rgb(38, 50, 56); transform-origin: 208.169px 93.8091px;" id="elxeuqd5vfbz" class="animable"></path><path d="M165.15,135.66c-7.39,4,3.41,20.89,12.29,18.15C183.52,149.58,186.06,135,165.15,135.66Z" style="fill: rgb(38, 50, 56); transform-origin: 172.228px 144.874px;" id="el2ugbz368lq4" class="animable"></path><path d="M199.5,140l-2.37,1.54L194.8,143q-2.34,1.4-4.71,2.73c-3.19,1.75-6.42,3.41-9.74,5s-6.73,3-10.23,4.31c-.9.32-1.73.64-2.68.95l-2.84.93-3,.8c-1,.23-1.87.41-2.82.6A186.67,186.67,0,0,1,137.19,161c-7.11.52-14.17.79-21.33.65a4.67,4.67,0,0,1-1.08-9.19h.06c6.74-1.74,13.56-3.33,20.28-4.93,3.36-.83,6.71-1.59,10-2.46s6.57-1.69,9.67-2.65l2.26-.72,2-.7,2-1c.68-.31,1.45-.71,2.16-1.06,2.94-1.42,5.85-3,8.78-4.6s5.84-3.28,8.74-5l8.61-5.05.26-.15A9.35,9.35,0,0,1,199.5,140Z" style="fill: rgb(127, 62, 59); transform-origin: 157.511px 142.253px;" id="elg1gqlthwfxe" class="animable"></path><path d="M120.21,152.78l-10.41-1.53,1.74,12.49s9.59.24,10.54-4.83Z" style="fill: rgb(127, 62, 59); transform-origin: 115.94px 157.496px;" id="el81pey1o301g" class="animable"></path><path d="M101,157.7l1.34,4.28a3.66,3.66,0,0,0,4,2.51l5.21-.75-1.74-12.49-6.36,1.86A3.63,3.63,0,0,0,101,157.7Z" style="fill: rgb(127, 62, 59); transform-origin: 106.189px 157.888px;" id="el8jq73vy5er" class="animable"></path><path d="M204.67,119.25c-6.74-1.47-14,.9-17.18,2.56s-13.27,9.66-22.34,13.85c15.8,3.9,13.46,15,12.29,18.15C197,148.34,199.2,143.28,203,139.24S210,120.4,204.67,119.25Z" style="fill: #113892; transform-origin: 186.318px 136.299px;" id="elvl5fl2729qc" class="animable"></path><g id="el0po1w0w4bjx"><path d="M204.67,119.25c-6.74-1.47-14,.9-17.18,2.56s-13.27,9.66-22.34,13.85c15.8,3.9,13.46,15,12.29,18.15C197,148.34,199.2,143.28,203,139.24S210,120.4,204.67,119.25Z" style="opacity: 0.2; transform-origin: 186.318px 136.299px;" class="animable" id="elxh6obnonir"></path></g><path d="M247.17,159.67c-.49,3.74-3,6.49-5.72,6.14s-4.44-3.67-3.95-7.41,3.05-6.49,5.73-6.13S247.66,155.93,247.17,159.67Z" style="fill: rgb(255, 255, 255); transform-origin: 242.334px 159.039px;" id="el8927zx9etig" class="animable"></path><path d="M222.64,86.59c-9.49-.1-15.16,2.39-19.74,1.46,5.43-2.63,7.2-5.72,11.45-6.3S222.64,86.59,222.64,86.59Z" style="fill: rgb(38, 50, 56); transform-origin: 212.77px 84.9825px;" id="el0xtlolxblp3e" class="animable"></path><path d="M232.21,86.16c-3,1.79-10.28,1-13.75,2.09,5.21.9,11.6,2.53,14.47,1.06S232.21,86.16,232.21,86.16Z" style="fill: rgb(38, 50, 56); transform-origin: 226.251px 88.0301px;" id="el63pyl9t0zfg" class="animable"></path><path d="M233.76,87.27a12.9,12.9,0,0,0,3.46-1.22,4.46,4.46,0,0,0,1.95-2.6,4.32,4.32,0,0,0-.4-3.29,6.85,6.85,0,0,0-2.59-2.53,12.38,12.38,0,0,0-7.52-1.36,10.08,10.08,0,0,1-4.06,0,10.49,10.49,0,0,1-3.51-2A10.32,10.32,0,0,0,224.67,76a9.58,9.58,0,0,0,3.92-.33,13.18,13.18,0,0,1,8.14.91A8.22,8.22,0,0,1,240,79.41a5.91,5.91,0,0,1,.86,4.44,6.42,6.42,0,0,1-2.5,3.89,14.74,14.74,0,0,1-4,1.78,1.17,1.17,0,0,1-.75-2.22l.09,0Z" style="fill: rgb(38, 50, 56); transform-origin: 231.035px 81.9258px;" id="elhxkgicpj5aq" class="animable"></path><path d="M217.4,85.7A4.93,4.93,0,0,0,216,84a5.67,5.67,0,0,0-2.23-.85,11.49,11.49,0,0,0-5.22.58A14.67,14.67,0,0,0,206,84.78c-.79.44-1.61,1-2.49,1.37a6.92,6.92,0,0,1-2.81.69,12,12,0,0,1-2.82-.35,11.42,11.42,0,0,0,2.8.06,6.36,6.36,0,0,0,2.56-.92c.8-.46,1.5-1,2.3-1.6a15.87,15.87,0,0,1,2.55-1.41,13,13,0,0,1,5.83-1.23,7.35,7.35,0,0,1,3.11.84,7.25,7.25,0,0,1,2.43,2.31,1.18,1.18,0,0,1-2,1.3.31.31,0,0,1,0-.1Z" style="fill: rgb(38, 50, 56); transform-origin: 208.766px 84.1132px;" id="elvgwy4fhvml" class="animable"></path><path d="M206.8,76.12s3.27,3.36,9.73,3.6l2.86-2.58C213.77,78.77,206.8,76.12,206.8,76.12Z" style="fill: rgb(38, 50, 56); transform-origin: 213.095px 77.92px;" id="elp42dpp67wxa" class="animable"></path></g><g id="freepik--character-2--inject-8" class="animable animator-hidden" style="transform-origin: 333.181px 295.47px;"><path d="M324.68,338.14c17-26.37,29.08-54.38,30.73-63.3l-31.48,4.77s-9.81,33.62-14.26,51.86c-4.63,19,8.81,68,8.81,68L326,400C323.55,370.87,333,349.7,324.68,338.14Z" style="fill: rgb(206, 122, 99); transform-origin: 332.055px 337.42px;" id="el4dlfnfv31ps" class="animable"></path><path d="M327,402c-.33-5.17-.67-27.32,1.2-38.36A31.77,31.77,0,0,0,310,362.24c-.28,1.62,4.24,25.22,7,39.53Z" style="fill: rgb(38, 50, 56); transform-origin: 319.094px 381.756px;" id="el22n8u7igc6w" class="animable"></path><path d="M302.37,404.66c6.33-1.88,10-2.76,12.28-6.1,0,0-1.67,0-.07-1.83s7.33-2.9,7.77.09c0,0,3.54-1.17,5.3,1l.87,9a1.25,1.25,0,0,1-1.25,1.34c-3.92,0-6.15-.64-9.94-.7-4.43-.07-7.46.85-12.66.77C301.53,408.13,301.05,405.06,302.37,404.66Z" style="fill: #113892; transform-origin: 315.102px 401.592px;" id="elmxzfaxwdil" class="animable"></path><polygon points="325.71 408.93 327.03 408.93 327.99 407.13 324.75 407.13 325.71 408.93" style="fill: #113892; transform-origin: 326.37px 408.03px;" id="el23a6rr1jtg2" class="animable"></polygon><polygon points="322.08 408.82 323.4 408.82 324.36 407.02 321.12 407.02 322.08 408.82" style="fill: #113892; transform-origin: 322.74px 407.92px;" id="el2ws63wc0frk" class="animable"></polygon><polygon points="318.44 408.53 319.76 408.53 320.72 406.73 317.48 406.73 318.44 408.53" style="fill: #113892; transform-origin: 319.1px 407.63px;" id="elhav7jdpys2t" class="animable"></polygon><polygon points="314.81 408.82 316.13 408.82 317.09 407.02 313.85 407.02 314.81 408.82" style="fill: #113892; transform-origin: 315.47px 407.92px;" id="el53ptsyexkye" class="animable"></polygon><polygon points="311.17 408.93 312.49 408.93 313.45 407.13 310.21 407.13 311.17 408.93" style="fill: #113892; transform-origin: 311.83px 408.03px;" id="elt7bwvg0l6jr" class="animable"></polygon><polygon points="307.54 408.93 308.86 408.93 309.82 407.13 306.58 407.13 307.54 408.93" style="fill: #113892; transform-origin: 308.2px 408.03px;" id="elz3gs9bjj0u" class="animable"></polygon><polygon points="303.9 408.93 305.22 408.93 306.18 407.13 302.94 407.13 303.9 408.93" style="fill: #113892; transform-origin: 304.56px 408.03px;" id="elzrwjisxcjt" class="animable"></polygon><path d="M370.17,336.69c-7.77-27.51-7.8-47.63-12.62-56.28l-23.78,3s11.93,38.07,18.2,55.77c9.63,20.73,31.08,47.14,31.08,47.14l6.77-4.4C378.8,361.46,378.19,350.45,370.17,336.69Z" style="fill: rgb(206, 122, 99); transform-origin: 361.795px 333.365px;" id="eleu7gyak5f5" class="animable"></path><path d="M393.51,386.36c-2.42-4.29-11.86-23.07-14.82-33.27a30.17,30.17,0,0,0-16.08,6.29c.43,1.5,14,19.79,22.29,30.88Z" style="fill: rgb(38, 50, 56); transform-origin: 378.06px 371.675px;" id="elp2g0yj25ula" class="animable"></path><path d="M376.51,399.34c2.11-2.9,4.5-7,5.07-10.85,0,0-2.68-.59-2.06-2.78s6.31-4.26,7.92-1.89c0,0,1.83-4.19,4.22-3.08l4.19,6.88c.7,1,1,2.84-1.17,4.14a24.35,24.35,0,0,0-5.23,4c-2.92,3-2.48,5.39-7.61,6.79C379,403.38,373.65,403.27,376.51,399.34Z" style="fill: #113892; transform-origin: 386.03px 391.759px;" id="eldyecij3e78d" class="animable"></path><polygon points="395.52 391.79 396.35 390.84 395.66 389.03 393.64 391.35 395.52 391.79" style="fill: #113892; transform-origin: 394.995px 390.41px;" id="el3xz8w8egmf6" class="animable"></polygon><polygon points="392.71 393.54 393.83 392.99 393.9 391.06 391.14 392.41 392.71 393.54" style="fill: #113892; transform-origin: 392.52px 392.3px;" id="eldl17nqauoh" class="animable"></polygon><polygon points="390.41 395.54 391.44 394.83 391.21 392.9 388.69 394.66 390.41 395.54" style="fill: #113892; transform-origin: 390.065px 394.22px;" id="el8jhbpco41w2" class="animable"></polygon><polygon points="388.51 398.05 389.23 397.03 388.37 395.3 386.59 397.81 388.51 398.05" style="fill: #113892; transform-origin: 387.91px 396.675px;" id="elmiem6uw5hej" class="animable"></polygon><polygon points="386.44 400.48 387.28 399.54 386.61 397.73 384.56 400.02 386.44 400.48" style="fill: #113892; transform-origin: 385.92px 399.105px;" id="elyri5udi3iec" class="animable"></polygon><polygon points="383.78 402.36 384.92 401.85 385.06 399.92 382.25 401.17 383.78 402.36" style="fill: #113892; transform-origin: 383.655px 401.14px;" id="elcgeggbuzjlw" class="animable"></polygon><polygon points="380.88 403.27 382.1 403 382.62 401.14 379.62 401.81 380.88 403.27" style="fill: #113892; transform-origin: 381.12px 402.205px;" id="elke59kkisp" class="animable"></polygon><polygon points="377.58 403.39 378.83 403.42 379.78 401.74 376.71 401.66 377.58 403.39" style="fill: #113892; transform-origin: 378.245px 402.54px;" id="el3xu138i2xao" class="animable"></polygon><path d="M325.76,277.41s-2.51,1.43-2.83,2.59c-2.17,1.71-7,16.53-7.28,22.29s-3.93,8.43-2.36,14.69c5.81,4.5,19.93,7.11,19.93,7.11,4.5-3.09,6.65-10.41,9.4-14.81,2.92-4.66,4.74-14.78,6.05-20.16,1.38-5.67,3.3-7.34,3.3-7.34Z" style="fill: #113892; transform-origin: 332.435px 300.75px;" id="el8ebu2clex8u" class="animable"></path><g id="elwjiw020uxcp"><path d="M344.57,295c-9.08,7-10.39,19.23-8.09,25.74,2.47-3.54,4.15-8.24,6.14-11.42,2.09-3.35,3.62-9.5,4.8-14.7Z" style="opacity: 0.2; transform-origin: 341.454px 307.68px;" class="animable" id="el75zh15qcqba"></path></g><path d="M321.85,238c-1.27.88-2.57,1.69-3.87,2.49s-2.62,1.59-4,2.34-2.69,1.51-4.06,2.23-2.73,1.43-4.27,2.17l-.59.28a2.67,2.67,0,0,1-.33.12A51.51,51.51,0,0,1,292,249.3c-2.09,0-4.15-.05-6.21-.22a54,54,0,0,1-6.18-.87,3,3,0,0,1,.12-6l.17,0c1.8-.29,3.74-.58,5.59-.91s3.72-.67,5.54-1.07,3.59-.85,5.32-1.32,3.38-1.08,4.95-1.68l-.92.4,3.59-2.49q1.84-1.29,3.74-2.55c1.25-.85,2.53-1.67,3.8-2.49s2.57-1.62,3.88-2.37h0A6.05,6.05,0,0,1,321.85,238Z" style="fill: rgb(207, 122, 100); transform-origin: 300.678px 238.049px;" id="eltsfsfbp7bvq" class="animable"></path><path d="M321.46,222c-5.77,2-13.14,9.17-15.36,10.73-2.94,2.06-2.37,7.2-.84,9.42,1.21,1.75,3.34,3.61,6.37,2.92s15.54-7.46,15.54-7.46S328.5,219.19,321.46,222Z" style="fill: #113892; transform-origin: 315.636px 233.463px;" id="elsdsn6ooxvl" class="animable"></path><path d="M281.79,242.33l-6.54-.29,1.87,7.63s5.95-.46,6.22-3.67Z" style="fill: rgb(206, 122, 99); transform-origin: 279.295px 245.855px;" id="el0dbj38hjcczn" class="animable"></path><path d="M270.2,246.6l1.1,2.56a2.29,2.29,0,0,0,2.64,1.31l3.18-.8L275.25,242l-3.83,1.56A2.26,2.26,0,0,0,270.2,246.6Z" style="fill: rgb(206, 122, 99); transform-origin: 273.558px 246.267px;" id="eluyw02zmol3n" class="animable"></path><path d="M359.21,277.12s2.9,7.49,2.78,8.7c1.39,2.38,3.51,11,3.26,16.77s2.88,8.93.3,14.69c-8.18-2.31-19.63,4.31-19.63,4.31-4.22-3.46-4.58-10.48-7-15.06s-5.87-13.62-6.86-19.38-1.46-9.09-1.46-9.09Z" style="fill: #113892; transform-origin: 348.588px 299.355px;" id="el6lafua9bvtq" class="animable"></path><g id="el0l6752fqnn9n"><path d="M359.61,312.37c-5.49.12-12,2.87-16.39,5.76a11,11,0,0,0,2.69,3.47s11.47-6.64,19.64-4.32a11,11,0,0,0,1-4A19.46,19.46,0,0,0,359.61,312.37Z" style="fill: rgb(255, 255, 255); opacity: 0.8; transform-origin: 354.885px 316.973px;" class="animable" id="elfc4zm5vzzmd"></path></g><path d="M357.32,229.69c-.84,21.91,3.31,46,2.43,48.86-30.67-1.88-34.39,4.59-38.44,4-3.62-17.51-4.95-35.59-6.28-47.88-.68-6.25,1.09-11.39,7.18-13A134.45,134.45,0,0,1,345.38,218,11.22,11.22,0,0,1,357.32,229.69Z" style="fill: rgb(38, 50, 56); transform-origin: 337.383px 250.282px;" id="elzgpm68luj1r" class="animable"></path><path d="M340.71,236.32c.29,3.12-2.82,6.22-2.82,6.22s-3.57-1.95-3.86-5.06,1.19-3.6,3-3.92S340.42,233.21,340.71,236.32Z" style="fill: rgb(255, 255, 255); transform-origin: 337.361px 237.979px;" id="elzgh9o4701wp" class="animable"></path><g id="elvivd8yh7zl"><path d="M357.32,229.68a11.25,11.25,0,0,0-3.09-8.2c-4.57,9.74-1.6,18,3.22,24.27C357.21,240.49,357.12,235,357.32,229.68Z" style="opacity: 0.2; transform-origin: 354.704px 233.615px;" class="animable" id="elf1s5s2m197j"></path></g><path d="M324.88,221.06a136,136,0,0,1,18.9-2.92,1.79,1.79,0,0,1-.37,1.72c-1.83,2.34-7.24,3.92-12.61,4.38a14.6,14.6,0,0,1-3.4,0,2.86,2.86,0,0,1-2.46-1.57A2.3,2.3,0,0,1,324.88,221.06Z" style="fill: rgb(255, 255, 255); transform-origin: 334.312px 221.24px;" id="eli9mjslq71z" class="animable"></path><path d="M340.51,205.67l-11,3.56c.32,5,2.61,8.27-2.07,10.83-1.14.62-3.13,3.22,3.24,2.67,6.61-.57,10.92-2.5,11.36-3.49A41.43,41.43,0,0,1,340.51,205.67Z" style="fill: rgb(206, 122, 99); transform-origin: 334.132px 214.238px;" id="elgsjjp14dd3v" class="animable"></path><g id="el1xftlw55lib"><path d="M330,212.72c.41,2.34.74,4.22-.58,5.82,4.56-.64,8.22-4.17,8.57-7A10.37,10.37,0,0,0,330,212.72Z" style="opacity: 0.2; transform-origin: 333.705px 214.874px;" class="animable" id="eld3v17e4da9"></path></g><path d="M322.46,189.35c-2.17,3.69,2.05,5.85,2.05,5.85s-2.93,8.08-.86,13.14c3.92-3.23,4.83-15,4.83-15Z" style="fill: rgb(38, 50, 56); transform-origin: 325.16px 198.845px;" id="el8pdzucpgfus" class="animable"></path><path d="M342,200.35c-.73,6.38-.82,10.15-4.23,13.24-5.12,4.64-12.87,1.23-14.07-5.25-1.08-5.83.29-15.28,6.69-17.44A8.84,8.84,0,0,1,342,200.35Z" style="fill: rgb(206, 122, 99); transform-origin: 332.716px 203.084px;" id="elakbftfm9kx9" class="animable"></path><path d="M339,199c-.78,3.44-3.82,7.63-3.82,7.63a46.12,46.12,0,0,0-7.55-.51c-3.59.12-5.31-.7-5.12,1.55s1.29,4.26.34,8,10.36,1.85,14.95-.91a2.67,2.67,0,0,0,1.27-2.51c-.43-5.48,0-7.15,1.21-9.24A4.64,4.64,0,0,0,339,199Z" style="fill: rgb(38, 50, 56); transform-origin: 331.418px 208.38px;" id="eltmqdegj1zu" class="animable"></path><path d="M327.73,202.12a18.61,18.61,0,0,1-2.73,4.3,3,3,0,0,0,2.47.62Z" style="fill: rgb(186, 77, 60); transform-origin: 326.365px 204.608px;" id="elmkq2mk99jrn" class="animable"></path><path d="M340.51,205.67c-3.49-3.23-.78-6.83-1.46-9.61s-11.56,1.85-16.23-4.88,4.82-12.55,11.3-6.87c8,7,13.38,3.38,12.28,9.85C351.72,196.06,345.1,208.59,340.51,205.67Z" style="fill: rgb(38, 50, 56); transform-origin: 334.974px 194.06px;" id="elt78ydz7lwt" class="animable"></path><path d="M345.23,194.53s3.13-1.59,2.52-4.38C349.94,192.92,348,195.08,345.23,194.53Z" style="fill: rgb(38, 50, 56); transform-origin: 346.963px 192.383px;" id="elpwq1ctivbc" class="animable"></path><path d="M344.62,206a6.07,6.07,0,0,1-3.67,2.84c-2.07.54-2.25-2-1.76-4,.44-1.76,1.83-3.61,3.9-3.29S345.58,204.26,344.62,206Z" style="fill: rgb(206, 122, 99); transform-origin: 342.036px 205.214px;" id="elng63icmga2" class="animable"></path><path d="M331.88,201.44c0,.52-.33.93-.67.91s-.59-.46-.57-1,.33-.92.67-.9S331.9,200.92,331.88,201.44Z" style="fill: rgb(38, 50, 56); transform-origin: 331.26px 201.4px;" id="el0u9dur9ifv6e" class="animable"></path><path d="M325.66,201.48c0,.52-.33.93-.67.91s-.59-.46-.57-1,.33-.93.67-.91S325.68,201,325.66,201.48Z" style="fill: rgb(38, 50, 56); transform-origin: 325.04px 201.435px;" id="el8ck7ghcrav3" class="animable"></path><path d="M333.2,197.67a.33.33,0,0,0,0-.15.3.3,0,0,0-.31-.3,3.09,3.09,0,0,0-2.52,1.25.31.31,0,0,0,.09.42.32.32,0,0,0,.43-.09h0a2.41,2.41,0,0,1,2-1A.29.29,0,0,0,333.2,197.67Z" style="fill: rgb(38, 50, 56); transform-origin: 331.766px 198.079px;" id="elee6xxd17oe5" class="animable"></path><path d="M323.08,198a.33.33,0,0,0,.29,0,2.39,2.39,0,0,1,2.19.26.31.31,0,0,0,.43-.05.3.3,0,0,0-.06-.43,3,3,0,0,0-2.76-.37.32.32,0,0,0-.09.54Z" style="fill: rgb(38, 50, 56); transform-origin: 324.512px 197.777px;" id="elpprqlxp7ov" class="animable"></path><path d="M358.05,222.78c2,1.42,3.71,2.82,5.49,4.32s3.5,3,5.18,4.61a79.08,79.08,0,0,1,9.6,10.64l.26.35a4.74,4.74,0,0,1,.92,2.8,50.11,50.11,0,0,1-.69,7.71c-.36,2.44-.87,4.8-1.4,7.14s-1.16,4.65-1.84,6.94-1.4,4.53-2.26,6.8a3,3,0,0,1-5.85-1.24v-.05c.13-2.29.31-4.62.48-6.92s.33-4.59.47-6.87.25-4.54.32-6.74a55.5,55.5,0,0,0-.14-6.28l1.18,3.15c-1.31-1.44-2.8-2.87-4.31-4.31s-3.14-2.82-4.75-4.22-3.29-2.76-5-4.13l-5-4-.07-.06a6,6,0,0,1,7.35-9.6Z" style="fill: rgb(207, 122, 100); transform-origin: 363.885px 248.903px;" id="el85iff0jw0jl" class="animable"></path><path d="M369.08,270.09l-3.87,5.6,7.74,2.57s2.89-5.49.22-7.49Z" style="fill: rgb(206, 122, 99); transform-origin: 369.756px 274.175px;" id="el3axkkdnic5a" class="animable"></path><path d="M366.42,282.65l2.87.44a2.36,2.36,0,0,0,2.6-1.59l1.06-3.24-7.74-2.57-.75,4.22A2.37,2.37,0,0,0,366.42,282.65Z" style="fill: rgb(206, 122, 99); transform-origin: 368.688px 279.404px;" id="elrgnlxjy4rv" class="animable"></path><path d="M347.19,218.05a18.22,18.22,0,0,1,12.54,3.19c4.18,3.09,6.24,5.22,9.61,10.75a19.63,19.63,0,0,1-7.8,11.6c-6.75-5.4-12.44-9.46-14.31-12.51S343.72,218.43,347.19,218.05Z" style="fill: #113892; transform-origin: 357.25px 230.761px;" id="el3nzevvgnxef" class="animable"></path><g id="elnysc90ryyor"><path d="M313.14,311.73a11.37,11.37,0,0,0,.15,5.25c5.81,4.5,19.93,7.11,19.93,7.11a12.71,12.71,0,0,0,3.07-3.13C331.32,319.64,318.34,315.13,313.14,311.73Z" style="fill: rgb(255, 255, 255); opacity: 0.8; transform-origin: 324.597px 317.91px;" class="animable" id="elgc2o20xh1u"></path></g><path d="M380.73,359a59.63,59.63,0,0,0-14.31,6.15c.52.71,1.07,1.49,1.65,2.3a57.49,57.49,0,0,1,13.7-5.82C381.4,360.72,381.05,359.84,380.73,359Z" style="fill: #113892; transform-origin: 374.095px 363.225px;" id="el5kscm5lih3h" class="animable"></path><path d="M382.84,364.2a60.18,60.18,0,0,0-13,5.64c.53.74,1.09,1.51,1.67,2.29A59.08,59.08,0,0,1,384,366.8C383.59,365.93,383.21,365.07,382.84,364.2Z" style="fill: #113892; transform-origin: 376.92px 368.165px;" id="el1a15l8vpzuu" class="animable"></path><path d="M310.71,367.76c.14.85.3,1.79.47,2.79a55.91,55.91,0,0,1,16.06,1.26c.07-1,.15-1.92.23-2.84A57.47,57.47,0,0,0,310.71,367.76Z" style="fill: #113892; transform-origin: 319.09px 369.705px;" id="el767qnvumpz3" class="animable"></path><path d="M311.69,373.47c.16.9.33,1.85.51,2.82a56.22,56.22,0,0,1,14.74,1.15c0-1,.07-1.91.13-2.85A58.7,58.7,0,0,0,311.69,373.47Z" style="fill: #113892; transform-origin: 319.38px 375.404px;" id="elh3pgg6drm5c" class="animable"></path></g><g id="freepik--obj-2--inject-8" class="animable animator-active" style="transform-origin: 131.48px 385.76px;"><g id="elno8sxdo63vb"><ellipse cx="131.48" cy="385.76" rx="32.61" ry="28.48" style="fill: rgb(255, 255, 255); transform-origin: 131.48px 385.76px; transform: rotate(-43.06deg);" class="animable" id="elenjwl8mxex"></ellipse></g><path d="M127.35,416.74a26.87,26.87,0,0,1-20.63-9c-5.14-5.88-7.34-13.71-6.21-22.05,2.31-17,18-30.91,35.1-30.91a26.89,26.89,0,0,1,20.63,9c5.14,5.88,7.34,13.71,6.21,22.05l-.5-.07.5.07C160.14,402.87,144.39,416.74,127.35,416.74Zm8.26-61c-16.56,0-31.87,13.48-34.11,30.05a26.37,26.37,0,0,0,6,21.25,25.89,25.89,0,0,0,19.88,8.66c16.56,0,31.86-13.48,34.11-30.05a26.38,26.38,0,0,0-6-21.25A25.91,25.91,0,0,0,135.61,355.78Z" style="fill: rgb(38, 50, 56); transform-origin: 131.48px 385.76px;" id="el9a3anwa2vmv" class="animable"></path><path d="M121.24,383.78s0-.06,0-.09l-7.32-2.49-10.51,6.95,2.52,13.31H118l.08,0,5.31-6.17Z" style="fill: none; transform-origin: 113.4px 391.33px;" id="ellnd6pjmrfs9" class="animable"></path><path d="M142.24,383.9l-5.3,11.51,3.58,6.06h12.21l6.17-13.39-8.52-6.87-8.1,2.52A.39.39,0,0,1,142.24,383.9Z" style="fill: none; transform-origin: 147.92px 391.34px;" id="elnpy4xf7ajzr" class="animable"></path><path d="M132.41,376l1.13-8.39-8.72-7-12.54,8.29,2.19,11.58s0,.06,0,.09l7.32,2.49Z" style="fill: none; transform-origin: 122.91px 371.835px;" id="elsr0o43lc9yh" class="animable"></path><path d="M141.8,383.05l8.09-2.52a.58.58,0,0,1,0-.18l5.31-11.53-10.18-8.21-10.74,7.1-1.14,8.39Z" style="fill: none; transform-origin: 144.17px 371.83px;" id="elagq0avx1fp5" class="animable"></path><path d="M136.36,396H124l-.08,0-5.32,6.17,2.13,11.23h14L140,402,136.37,396Z" style="fill: none; transform-origin: 129.3px 404.7px;" id="elu5guq0b7g6f" class="animable"></path><path d="M132.83,378.66a.38.38,0,0,1-.38.33h0a.39.39,0,0,1-.34-.44l.16-1.19-9.22,6.1,1.1.38a.38.38,0,0,1,.25.49.41.41,0,0,1-.37.27l-.13,0-1.53-.52,2,10.28L125.4,393a.39.39,0,0,1,.59.51L124.75,395h11l-.88-1.49a.39.39,0,1,1,.67-.4l.76,1.28L141,384.11l-1.52.47-.11,0a.38.38,0,0,1-.37-.28.39.39,0,0,1,.25-.49l1.36-.42L133,377.28Z" style="fill: rgb(38, 50, 56); transform-origin: 131.685px 386.14px;" id="elsabgkkh8uf" class="animable"></path><polygon points="133.02 377.28 140.63 383.41 141.8 383.05 133.18 376.1 133.02 377.28" style="fill: rgb(38, 50, 56); transform-origin: 137.41px 379.755px;" id="elitn71wc11fi" class="animable"></polygon><path d="M136.94,395.41l5.3-11.51a.39.39,0,0,0,0-.18l-1.25.39-4.71,10.24Z" style="fill: rgb(38, 50, 56); transform-origin: 139.265px 389.565px;" id="el173p9ajcvp6" class="animable"></path><path d="M123.89,396l.08,0h12.4l-.6-1h-11Z" style="fill: rgb(38, 50, 56); transform-origin: 130.13px 395.5px;" id="elflbwagm6fts" class="animable"></path><path d="M121.25,383.69s0,.06,0,.09l2.18,11.53.85-1-2-10.28Z" style="fill: rgb(38, 50, 56); transform-origin: 122.765px 389.5px;" id="elxi03crrmam9" class="animable"></path><polygon points="132.41 376.02 121.78 383.05 123 383.46 132.22 377.36 132.41 376.02" style="fill: rgb(38, 50, 56); transform-origin: 127.095px 379.74px;" id="ela7rsjf42qnj" class="animable"></polygon><path d="M133.7,366.46l.19-1.38a.39.39,0,0,1,.44-.33.38.38,0,0,1,.33.43l-.16,1.2,9.93-6.57-.64-3.36a28.93,28.93,0,0,0-8.18-1.17,32,32,0,0,0-8.45,1.16l-1.59,3.46Z" style="fill: rgb(38, 50, 56); transform-origin: 135px 360.87px;" id="elofj08mo0wa" class="animable"></path><path d="M125.27,359.84a.39.39,0,0,1-.11.54l-.34.22,8.72,7,.16-1.17-8.13-6.56,1.59-3.46c-.43.11-.86.24-1.28.37l-1.4,3a.13.13,0,0,0,0,.06l.26-.17A.39.39,0,0,1,125.27,359.84Z" style="fill: rgb(38, 50, 56); transform-origin: 129.088px 362.005px;" id="elfdb4hs910cd" class="animable"></path><path d="M134.5,366.38l-.18,1.33,10.74-7.1-.32-.26a.39.39,0,1,1,.49-.6l.25.2-.59-3.15c-.37-.13-.73-.24-1.1-.35l.64,3.36Z" style="fill: rgb(38, 50, 56); transform-origin: 139.9px 362.08px;" id="elx2xmnmt2txc" class="animable"></path><path d="M132.22,377.36l-.16,1.19a.39.39,0,0,0,.34.44h0a.38.38,0,0,0,.38-.33l.19-1.38.16-1.18,1.14-8.39.18-1.33.16-1.2a.38.38,0,0,0-.33-.43.39.39,0,0,0-.44.33l-.19,1.38-.16,1.17L132.41,376Z" style="fill: rgb(38, 50, 56); transform-origin: 133.335px 371.868px;" id="elg0t9qjovegm" class="animable"></path><path d="M112.71,380.79l-1.1-.38a.38.38,0,0,1-.25-.49.39.39,0,0,1,.5-.25l1.53.52-2.07-10.9h-3.24A34.46,34.46,0,0,0,101,385.63l2,1.59Z" style="fill: rgb(38, 50, 56); transform-origin: 107.195px 378.255px;" id="el9bvzy3xfr8" class="animable"></path><path d="M102.89,387.46a.4.4,0,0,1,.46.31l.07.38,10.51-6.95-1.22-.41L103,387.22l-2-1.59a.59.59,0,0,1,0,.13c0,.36-.08.71-.11,1.06l1.75,1.41-.06-.31A.39.39,0,0,1,102.89,387.46Z" style="fill: rgb(38, 50, 56); transform-origin: 107.41px 384.51px;" id="elt7e61r4t6db" class="animable"></path><path d="M113.39,380.19l1.07.37s0-.06,0-.09l-2.19-11.58-.32.21a.36.36,0,0,1-.22.07.39.39,0,0,1-.21-.71l.26-.18H108.9c-.28.34-.56.67-.82,1h3.24Z" style="fill: rgb(38, 50, 56); transform-origin: 111.27px 374.42px;" id="elcg22az59mkm" class="animable"></path><path d="M122.32,384.05l1.53.52.13,0a.41.41,0,0,0,.37-.27.38.38,0,0,0-.25-.49l-1.1-.38-1.22-.41-7.32-2.49-1.07-.37-1.53-.52a.39.39,0,0,0-.5.25.38.38,0,0,0,.25.49l1.1.38,1.22.41,7.32,2.49Z" style="fill: rgb(38, 50, 56); transform-origin: 117.855px 382.094px;" id="eln84xfzmiog" class="animable"></path><path d="M151.14,380.14l1.52-.47a.39.39,0,0,1,.49.26.38.38,0,0,1-.26.48l-1.35.43,7.92,6.38,2.52-1.67a27.85,27.85,0,0,0-2.63-16.26h-3.21Z" style="fill: rgb(38, 50, 56); transform-origin: 156.696px 378.255px;" id="elbdlzob1bakk" class="animable"></path><path d="M156.12,369a.38.38,0,0,1-.3.15.4.4,0,0,1-.25-.09l-.33-.26-5.31,11.53a.58.58,0,0,0,0,.18l1.25-.39,5-10.85h3.21c-.18-.35-.36-.68-.55-1h-3l.25.2A.37.37,0,0,1,156.12,369Z" style="fill: rgb(38, 50, 56); transform-origin: 154.656px 374.39px;" id="el74hn9w3x9z" class="animable"></path><path d="M162,385.76a1.49,1.49,0,0,1,0-.21l-2.52,1.67-7.92-6.38-1.16.36,8.52,6.87.17-.39a.4.4,0,0,1,.52-.19.39.39,0,0,1,.19.52l-.12.27h.05l2.06-1.37C161.84,386.52,161.9,386.14,162,385.76Z" style="fill: rgb(38, 50, 56); transform-origin: 156.2px 384.56px;" id="el3y7ck916hez" class="animable"></path><path d="M153.15,379.93a.39.39,0,0,0-.49-.26l-1.52.47-1.25.39-8.09,2.52-1.16.36-1.36.42a.39.39,0,0,0-.25.49.38.38,0,0,0,.37.28l.11,0,1.52-.47,1.25-.39,8.1-2.52,1.16-.36,1.35-.43A.38.38,0,0,0,153.15,379.93Z" style="fill: rgb(38, 50, 56); transform-origin: 146.093px 382.126px;" id="ellc8uiezca9e" class="animable"></path><path d="M141.12,402.48,142,404a.38.38,0,0,1-.14.53.35.35,0,0,1-.19.06.39.39,0,0,1-.34-.19l-.75-1.28-4.85,10.51,1.37,1.1a36.54,36.54,0,0,0,15.8-10.13l-.4-2.09Z" style="fill: rgb(38, 50, 56); transform-origin: 144.315px 408.605px;" id="eln6fqr9nl3vj" class="animable"></path><path d="M152.92,402.36a.32.32,0,0,1-.16,0,.39.39,0,0,1-.19-.51l.16-.35H140.52l.6,1H152.5l.4,2.09c.29-.31.57-.63.85-.95l-.33-1.75s0,0,0,0l-.13.29A.41.41,0,0,1,152.92,402.36Z" style="fill: rgb(38, 50, 56); transform-origin: 147.135px 403.045px;" id="elpzqzpypnb7h" class="animable"></path><path d="M140.58,403.09,140,402l-5.22,11.33h.38a.39.39,0,0,1,.39.39.38.38,0,0,1-.39.39h-.32l1.13.91c.39-.11.79-.22,1.18-.35l-1.37-1.1Z" style="fill: rgb(38, 50, 56); transform-origin: 137.68px 408.51px;" id="elqsvmbewxqhe" class="animable"></path><path d="M136.32,394.35l-.76-1.28a.39.39,0,1,0-.67.4l.88,1.49.6,1L140,402l.63,1.06.75,1.28a.39.39,0,0,0,.34.19.35.35,0,0,0,.19-.06A.38.38,0,0,0,142,404l-.88-1.49-.6-1-3.58-6.06Z" style="fill: rgb(38, 50, 56); transform-origin: 138.44px 398.705px;" id="el7azyh3c78f3" class="animable"></path><path d="M117.73,403.11l-1.14,1.31a.37.37,0,0,1-.29.14.39.39,0,0,1-.26-.1.39.39,0,0,1,0-.55l1.24-1.43H106l-1,2.13a25.26,25.26,0,0,0,13,10.07l1.76-1.17Z" style="fill: rgb(38, 50, 56); transform-origin: 112.38px 408.58px;" id="el2js3okvaz5k" class="animable"></path><path d="M119.87,413.75a.39.39,0,0,1,.39-.39h.44l-2.13-11.23-.84,1,2,10.4-1.76,1.17,1.23.4,1.37-.91,0,0h-.3A.38.38,0,0,1,119.87,413.75Z" style="fill: rgb(38, 50, 56); transform-origin: 119.215px 408.615px;" id="ela9y3n6y21qv" class="animable"></path><path d="M117.24,402.48l.87-1-.08,0H105.94l.08.44a.39.39,0,0,1-.31.45h-.07a.38.38,0,0,1-.38-.32l-.06-.31,0,0-.84,1.81c.21.35.42.7.64,1l1-2.13Z" style="fill: rgb(38, 50, 56); transform-origin: 111.235px 403.015px;" id="elachehfex7k4" class="animable"></path><path d="M124.75,395l1.24-1.44a.39.39,0,0,0-.59-.51l-1.13,1.32-.85,1-5.31,6.17-.87,1L116,403.91a.39.39,0,0,0,0,.55.39.39,0,0,0,.26.1.37.37,0,0,0,.29-.14l1.14-1.31.84-1,5.32-6.17Z" style="fill: rgb(38, 50, 56); transform-origin: 120.983px 398.74px;" id="eld4soz2lec0e" class="animable"></path><path d="M159.59,387.49a.4.4,0,0,0-.52.19l-.17.39-6.17,13.39-.16.35a.39.39,0,0,0,.19.51.32.32,0,0,0,.16,0,.41.41,0,0,0,.36-.23l.13-.29,6.25-13.56.12-.27A.39.39,0,0,0,159.59,387.49Z" style="fill: rgb(38, 50, 56); transform-origin: 156.17px 394.893px;" id="elo97n55u3sqb" class="animable"></path><path d="M144.68,359.81a.38.38,0,0,0,.06.54l.32.26,10.18,8.21.33.26a.4.4,0,0,0,.25.09.38.38,0,0,0,.3-.15.37.37,0,0,0-.06-.54l-.25-.2L145.48,360l-.25-.2A.39.39,0,0,0,144.68,359.81Z" style="fill: rgb(38, 50, 56); transform-origin: 150.402px 364.431px;" id="el1xyn2a0ixt" class="animable"></path><path d="M135.5,413.75a.39.39,0,0,0-.39-.39H120.26a.39.39,0,0,0-.39.39.38.38,0,0,0,.39.39h14.85A.38.38,0,0,0,135.5,413.75Z" style="fill: rgb(38, 50, 56); transform-origin: 127.685px 413.75px;" id="elu02l9h5ccbn" class="animable"></path><path d="M105.64,402.36h.07a.39.39,0,0,0,.31-.45l-.08-.44-2.52-13.31-.07-.38a.4.4,0,0,0-.46-.31.39.39,0,0,0-.31.46l.06.31,2.56,13.5.06.31A.38.38,0,0,0,105.64,402.36Z" style="fill: rgb(38, 50, 56); transform-origin: 104.299px 394.912px;" id="els0zhvzatdwm" class="animable"></path><path d="M111.42,369a.39.39,0,0,0,.32.17.36.36,0,0,0,.22-.07l.32-.21,12.54-8.29.34-.22a.39.39,0,0,0-.43-.65l-.26.17-12.68,8.38-.26.18A.39.39,0,0,0,111.42,369Z" style="fill: rgb(38, 50, 56); transform-origin: 118.339px 364.422px;" id="elfqi6z43x43w" class="animable"></path></g><defs>     <filter id="active" height="200%">         <feMorphology in="SourceAlpha" result="DILATED" operator="dilate" radius="2"></feMorphology>                <feFlood flood-color="#32DFEC" flood-opacity="1" result="PINK"></feFlood>        <feComposite in="PINK" in2="DILATED" operator="in" result="OUTLINE"></feComposite>        <feMerge>            <feMergeNode in="OUTLINE"></feMergeNode>            <feMergeNode in="SourceGraphic"></feMergeNode>        </feMerge>    </filter>    <filter id="hover" height="200%">        <feMorphology in="SourceAlpha" result="DILATED" operator="dilate" radius="2"></feMorphology>                <feFlood flood-color="#ff0000" flood-opacity="0.5" result="PINK"></feFlood>        <feComposite in="PINK" in2="DILATED" operator="in" result="OUTLINE"></feComposite>        <feMerge>            <feMergeNode in="OUTLINE"></feMergeNode>            <feMergeNode in="SourceGraphic"></feMergeNode>        </feMerge>            <feColorMatrix type="matrix" values="0   0   0   0   0                0   1   0   0   0                0   0   0   0   0                0   0   0   1   0 "></feColorMatrix>    </filter></defs></svg>