<svg class="animated" id="freepik_stories-soccer" xmlns="http://www.w3.org/2000/svg" viewBox="0 0 500 500" version="1.1" xmlns:xlink="http://www.w3.org/1999/xlink" xmlns:svgjs="http://svgjs.com/svgjs"><style>svg#freepik_stories-soccer:not(.animated) .animable {opacity: 0;}svg#freepik_stories-soccer.animated #freepik--Ball--inject-130 {animation: 1.5s Infinite  linear floating;animation-delay: 0s;}            @keyframes floating {                0% {                    opacity: 1;                    transform: translateY(0px);                }                50% {                    transform: translateY(-10px);                }                100% {                    opacity: 1;                    transform: translateY(0px);                }            }        </style><g id="freepik--Floor--inject-130" class="animable" style="transform-origin: 250.009px 339.995px;"><g id="freepik--Field--inject-130" class="animable" style="transform-origin: 250.009px 339.995px;"><path d="M419,236.91c-93.31-53.87-244.59-53.87-337.9,0-46.66,26.94-70,62.24-70,97.55v11c0,35.33,23.28,70.66,70,97.62,93.31,53.87,244.6,53.87,337.9,0,46.65-26.94,70-62.24,70-97.54,0-1.84,0-8.81,0-10.45C489.18,299.55,465.87,264,419,236.91Z" style="fill: rgb(33, 76, 206); transform-origin: 250.051px 339.995px;" id="el34wz06bck9a" class="animable"></path><g id="el16uwmcc24oz"><path d="M419,236.91c-93.31-53.87-244.59-53.87-337.9,0-46.66,26.94-70,62.24-70,97.55v11c0,35.33,23.28,70.66,70,97.62,93.31,53.87,244.6,53.87,337.9,0,46.65-26.94,70-62.24,70-97.54,0-1.84,0-8.81,0-10.45C489.18,299.55,465.87,264,419,236.91Z" style="opacity: 0.15; transform-origin: 250.051px 339.995px;" class="animable"></path></g><path d="M81.05,432c-93.31-53.87-93.31-141.22,0-195.09s244.59-53.87,337.9,0S512.26,378.13,419,432,174.36,485.88,81.05,432Z" style="fill: rgb(33, 76, 206); transform-origin: 250.003px 334.457px;" id="elfvn5o97cb7k" class="animable"></path><g id="elvhhddhahice"><path d="M81,432c-93.31-53.87-93.31-141.22,0-195.09s244.6-53.87,337.91,0,93.31,141.22,0,195.09S174.34,485.88,81,432Z" style="fill: rgb(255, 255, 255); opacity: 0.3; transform-origin: 249.955px 334.457px;" class="animable"></path></g><path d="M79.4,431,417.26,236c-1.42-.81-2.86-1.6-4.32-2.39l-337.67,195Q77.3,429.79,79.4,431Z" style="fill: rgb(250, 250, 250); transform-origin: 246.265px 332.305px;" id="elaaleosg4aqk" class="animable"></path><path d="M250,396.45c-28.75,0-57.49-6.31-79.38-18.95h0c-21.58-12.46-33.46-29.13-33.46-47s11.88-34.51,33.46-47c43.77-25.27,115-25.27,158.76,0,21.58,12.46,33.46,29.14,33.46,47S351,365,329.38,377.5C307.5,390.14,278.75,396.45,250,396.45Zm0-128c-28,0-56.07,6.16-77.42,18.49-20.31,11.72-31.5,27.2-31.5,43.57s11.19,31.84,31.5,43.56h0c42.69,24.65,112.15,24.65,154.84,0,20.31-11.72,31.5-27.19,31.5-43.56s-11.19-31.85-31.5-43.57C306.08,274.65,278,268.48,250,268.48Z" style="fill: rgb(250, 250, 250); transform-origin: 250px 330.499px;" id="elqxbkptpiwv" class="animable"></path></g></g><g id="freepik--Shadows--inject-130" class="animable" style="transform-origin: 237.823px 358.777px;"><g id="freepik--Shadow--inject-130"><path d="M419.82,318c3.17.39,6.47-1.58,8.3-4.3,7.3-10.83,2.4-28.8-8.14-35.68-10-6.52-23.78-5.17-34.87-2.63a73.07,73.07,0,0,0-31.72,16l-.48.43a10.62,10.62,0,0,0-2.37,2.81c-1.64,3.1.56,5.37,3.17,6.92,4.76,2.83,10.77,2.59,16.12,1.17,10.71-2.84,22.44-10.57,32.79-2.44,4.32,3.39,7.26,8.18,10.5,12.62,1.44,2,3.09,4,5.4,4.8A6,6,0,0,0,419.82,318Z" style="opacity: 0.15; transform-origin: 390.786px 295.67px;" class="animable"></path></g><g id="freepik--shadow--inject-130"><path d="M142.8,292.7c-24.1-20.88-64.13-23.31-88.71-2.2-3.36,2.89-6.49,6.24-8.14,10.35s-1.6,9.12,1,12.69a10.81,10.81,0,0,0,2,2.06c-7.09,5.2-6.49,12.75,1.81,17.55,9,5.17,23.5,5.17,32.46,0s8.94-13.32.37-18.51c5.69-1.95,11.29-4.25,17.16-6.23,7.69-2.6,14.57-3,22.57-2.73,6.63.26,13.82,2.51,20.24-.28C150.27,302.49,146.89,296.25,142.8,292.7Z" style="opacity: 0.15; transform-origin: 95.7099px 306.417px;" class="animable"></path></g><g id="freepik--shadow--inject-130"><path d="M240.16,440.39c12.62,3.51,19.89,4,32.41,3.85a82.41,82.41,0,0,0,25.06-4.2,48.13,48.13,0,0,0,16.77-9.42c4.36-3.82,9.24-9.12,8.83-15.35-.44-6.84-8.49-8.48-14-7.56-4.86.82-9.08,3.63-13.36,5.87a57.23,57.23,0,0,1-20.44,5.92c-10.4,1.15-20.88.33-31.28-.45-5.21-.4-10.42-.79-15.64-.93-4.12-.11-10.63-.81-11.66,4.57a8.19,8.19,0,0,0,1.4,5.87c2.34,3.59,6,5.3,9.8,7.24A87.74,87.74,0,0,0,240.16,440.39Z" style="opacity: 0.15; transform-origin: 270.01px 425.869px;" class="animable"></path></g></g><g id="freepik--Clouds--inject-130" class="animable" style="transform-origin: 244.775px 45.0889px;"><g id="freepik--clouds--inject-130" class="animable" style="transform-origin: 244.775px 45.0889px;"><path d="M111.74,46.07l-5,2.9a5,5,0,0,0,0-.66V46.85c0-2.59-1.82-3.63-4.06-2.34a7.82,7.82,0,0,0-2.42,2.32c-.37-3.25-2.92-4.46-6-2.67A13.41,13.41,0,0,0,88.2,54.67v2.18a5.73,5.73,0,0,0,.52,2.52l-4.17,2.4a5,5,0,0,0-2.25,3.9c0,1.43,1,2,2.25,1.3l27.19-15.7a5,5,0,0,0,2.25-3.9C114,45.94,113,45.35,111.74,46.07Z" style="fill: rgb(235, 235, 235); transform-origin: 98.145px 55.3px;" id="elnsledsctx4t" class="animable"></path><path d="M416.35,43.43l5,2.89c0-.22,0-.44,0-.66V44.21c0-2.59,1.82-3.64,4.06-2.35a8.09,8.09,0,0,1,2.42,2.33c.36-3.25,2.91-4.47,6-2.68A13.42,13.42,0,0,1,439.88,52V54.2a5.71,5.71,0,0,1-.51,2.52l4.17,2.41A5,5,0,0,1,445.79,63c0,1.44-1,2-2.25,1.3l-27.19-15.7a5,5,0,0,1-2.26-3.89C414.09,43.29,415.1,42.71,416.35,43.43Z" style="fill: rgb(235, 235, 235); transform-origin: 429.94px 52.6421px;" id="elzd84w9phovn" class="animable"></path><path d="M78.57,32.74,75.8,33.81v-6.1c0-4.83-3.85-6-8-3.58h0a16.76,16.76,0,0,0-7.58,13.13v.89a4.08,4.08,0,0,0-3.52.54h0a12.06,12.06,0,0,0-5.45,9.45v.4l-3.86,2.23A7.91,7.91,0,0,0,43.76,57c0,2.29,1.6,3.22,3.59,2.08L78.57,41a8,8,0,0,0,3.59-6.22C82.16,32.53,80.55,31.6,78.57,32.74Z" style="fill: rgb(235, 235, 235); transform-origin: 62.96px 41.238px;" id="elp30cj3n9dw9" class="animable"></path></g></g><g id="freepik--character-3--inject-130" class="animable" style="transform-origin: 391.888px 188.639px;"><g id="freepik--Character--inject-130" class="animable" style="transform-origin: 391.888px 188.639px;"><g id="freepik--Bottom--inject-130" class="animable" style="transform-origin: 391.677px 242.604px;"><path d="M359.86,218.66c-.81,2.17,2.2,5.49,9.69,7.83s10.26,1.75,11.07,0-2-7-8-9.32S360.8,216,359.86,218.66Z" style="fill: rgb(55, 71, 79); transform-origin: 370.244px 221.976px;" id="el66tvlgyjg1e" class="animable"></path><path d="M374.67,175.51s-6.21,17.3-9.9,29c-4.65,14.75-5.54,21.33-4.48,25.27,2.09,7.8,11.11,37.07,11.84,41.23s1.24,6-1.67,10-7.29,7.89-10.31,9.46-4.49,3.42-.94,4.85c2.92,1.18,9.21,2.09,12.71-.21s4.5-6.25,8.17-7.85c1.44-.63,5.31-1.18,6-4s-1.42-5.8-2-9.35-2-25.29-2.06-33.26a28.7,28.7,0,0,0-3.45-13.26l11.11-22.13s3.71,19.08,5.91,26.52,13,41.24,15.14,49.95,1.59,12.63,1.7,18.09,1.34,10.18,4.21,11.07,6.43-.77,8.16-4a15.32,15.32,0,0,0,0-12.58c-1.88-3.74-2.8-7.74-4-12.24s-1.2-19.12-1.27-27.2a61.38,61.38,0,0,0-2.7-18c-1-2.93-2.16-6.15-2.16-6.15s-.19-28.31,0-37a90.68,90.68,0,0,0-1.51-20.4s-7.69,6.27-22.46,6.11C379.09,179.22,374.67,175.51,374.67,175.51Z" style="fill: rgb(242, 143, 143); transform-origin: 391.648px 242.224px;" id="elbggva1eg0vq" class="animable"></path><path d="M420.79,282c-1.22-4.51-1.2-19.12-1.27-27.2a62.44,62.44,0,0,0-2.37-16.93c-3.72,4.07-14.25,5.08-18.87,2.59h0c4,13,10.81,34.54,12.46,41.24,2.13,8.7,1.59,12.63,1.7,18.09s1.34,10.18,4.21,11.07,6.43-.77,8.16-4a15.32,15.32,0,0,0,0-12.58C422.93,290.45,422,286.45,420.79,282Z" style="fill: rgb(69, 90, 100); transform-origin: 412.22px 274.484px;" id="el115w0o0aa4nn" class="animable"></path><path d="M418,241.31c-.28-1.31-.59-2.49-.89-3.49-3.72,4.07-14.25,5.08-18.87,2.59h0c.43,1.39.9,2.88,1.38,4.44C402.84,246.06,413,247.05,418,241.31Z" style="fill: rgb(33, 76, 206); transform-origin: 408.12px 241.8px;" id="el6q1uwq4fc7n" class="animable"></path><path d="M412.14,303.43c.46,3.52,1.18,5.83,2.58,7.82a5.24,5.24,0,0,0,6.18,1.68c2.36-.78,5.31-2.62,5.78-5.73a19.48,19.48,0,0,0-.6-8.43Z" style="fill: rgb(38, 50, 56); transform-origin: 419.516px 306.049px;" id="elm0qjpgwdal" class="animable"></path><path d="M420.11,277.1c1,0,1.63,4.74,2.54,9.46,1,5.06,2.39,7.06,3.23,11.2,1,4.74.87,6.89-.59,9.9s-7.19,6.27-10.41,2.34c-2.63-3.2-3-6.93-3.12-11.72a105.36,105.36,0,0,0-1.22-12c-.45-3.56-1.39-7-.56-7.46.1.52,1.16,4.26,1.64,4,.2-.11,0-.88-.08-1.35a1.54,1.54,0,0,1,.19-1.17,1.84,1.84,0,0,1,1.06-.57c1-.26,2.49-.63,3.47-.79.49-.08,1.25-.14,1.74-.17a3.62,3.62,0,0,1,1.27.09.88.88,0,0,1,.57.44,1.45,1.45,0,0,1,.09.55,4.06,4.06,0,0,0,.19,1c.05.14.16.3.3.26s.11-.3.09-.42C420.39,279.8,420.34,279.4,420.11,277.1Z" style="fill: rgb(33, 76, 206); transform-origin: 418.088px 294.455px;" id="elkypl0fh2dxk" class="animable"></path><g id="elhhrd137yluc"><path d="M420.11,277.1c1,0,1.63,4.74,2.54,9.46,1,5.06,2.39,7.06,3.23,11.2,1,4.74.87,6.89-.59,9.9s-7.19,6.27-10.41,2.34c-2.63-3.2-3-6.93-3.12-11.72a105.36,105.36,0,0,0-1.22-12c-.45-3.56-1.39-7-.56-7.46.1.52,1.16,4.26,1.64,4,.2-.11,0-.88-.08-1.35a1.54,1.54,0,0,1,.19-1.17,1.84,1.84,0,0,1,1.06-.57c1-.26,2.49-.63,3.47-.79.49-.08,1.25-.14,1.74-.17a3.62,3.62,0,0,1,1.27.09.88.88,0,0,1,.57.44,1.45,1.45,0,0,1,.09.55,4.06,4.06,0,0,0,.19,1c.05.14.16.3.3.26s.11-.3.09-.42C420.39,279.8,420.34,279.4,420.11,277.1Z" style="opacity: 0.4; transform-origin: 418.088px 294.455px;" class="animable"></path></g><g id="el1io23667s33"><path d="M425.56,296.42c.15.68,1.06,5.2-.12,6.12s-2.28-2.55-2.28-2.55-3.23-.74-7.68,1.6c.29.72-.24,3.22-1.54,2.79s-2.16-5.62-2.17-5.69c.14,4.59.56,8.2,3.11,11.31,3.22,3.93,8.94.67,10.41-2.34s1.56-5.16.59-9.9C425.79,297.29,425.68,296.85,425.56,296.42Z" style="opacity: 0.3; transform-origin: 419.144px 304.115px;" class="animable"></path></g><path d="M422.82,300.32c.14,1.73,1.81,1,1.71-1.42s-1.59-8.14-1.88-12.34c-.91-4.72-1.56-9.56-2.56-9.57.05.69.35,3.44.42,3.83.63,3.48,1.05,10.19,1.59,13.39A56.67,56.67,0,0,1,422.82,300.32Z" style="fill: rgb(55, 71, 79); transform-origin: 422.312px 289.13px;" id="el8xwhla6a6ml" class="animable"></path><path d="M416,301.5a60.48,60.48,0,0,1-1.38-6c-.57-3.17-2.47-9.67-3.4-13.1-.28-.57-1.25-3.59-1.25-3.62-.6.34-.6,1.3,0,4.29.28,1.45.77,3.41,1.24,5.45,1.14,4.05,2,9.91,2.7,12.24S416.46,303.17,416,301.5Z" style="fill: rgb(55, 71, 79); transform-origin: 412.796px 290.713px;" id="elgba93o36hve" class="animable"></path><path d="M415.33,301.74a.37.37,0,0,1-.19-.68,12.31,12.31,0,0,1,8.09-1.43.37.37,0,0,1-.14.72,11.68,11.68,0,0,0-7.56,1.34A.46.46,0,0,1,415.33,301.74Z" style="fill: rgb(235, 235, 235); transform-origin: 419.227px 300.601px;" id="elpunrki0p7h" class="animable"></path><path d="M414.24,298.05a.38.38,0,0,1-.32-.18.37.37,0,0,1,.14-.51,15.07,15.07,0,0,1,8.94-1.58.37.37,0,1,1-.11.73,14.53,14.53,0,0,0-8.47,1.49A.31.31,0,0,1,414.24,298.05Z" style="fill: rgb(235, 235, 235); transform-origin: 418.605px 296.85px;" id="elzow8ezw5ay" class="animable"></path><path d="M413.68,294.42a.37.37,0,0,1-.32-.17.38.38,0,0,1,.12-.51c.18-.11,4.4-2.68,8.94-1.49a.36.36,0,0,1,.26.45.36.36,0,0,1-.44.26c-4.23-1.1-8.33,1.38-8.37,1.41A.45.45,0,0,1,413.68,294.42Z" style="fill: rgb(235, 235, 235); transform-origin: 418.001px 293.178px;" id="elsqhl8v7l19" class="animable"></path><path d="M412.46,291.18a.36.36,0,0,1-.19-.68c.2-.12,4.94-3,9.93-1.59a.37.37,0,0,1-.2.71c-4.67-1.31-9.3,1.48-9.35,1.51A.34.34,0,0,1,412.46,291.18Z" style="fill: rgb(235, 235, 235); transform-origin: 417.257px 289.852px;" id="el2uefwu2vzc8" class="animable"></path><path d="M411.83,287.55a.38.38,0,0,1-.32-.18.37.37,0,0,1,.13-.51c.21-.12,5.3-3.08,10-1.7a.36.36,0,0,1,.25.45.37.37,0,0,1-.46.25c-4.37-1.28-9.36,1.61-9.41,1.64A.41.41,0,0,1,411.83,287.55Z" style="fill: rgb(235, 235, 235); transform-origin: 416.681px 286.172px;" id="elpz96yqlryo" class="animable"></path><path d="M382.63,241.24a21.89,21.89,0,0,0-1.51-7.43c-4.15,3.69-14.25,4.52-18.95,2.55,3.39,11.59,9.37,31.26,10,34.62.73,4.17,1.24,6-1.67,10s-7.29,7.89-10.31,9.46-4.49,3.42-.94,4.85c2.92,1.18,9.21,2.09,12.71-.21s4.5-6.25,8.17-7.85c1.44-.63,5.31-1.18,6-4s-1.42-5.8-2-9.35S382.88,249.2,382.63,241.24Z" style="fill: rgb(69, 90, 100); transform-origin: 371.721px 265.156px;" id="elezzzoreapji" class="animable"></path><path d="M381.12,233.81c-4.15,3.69-14.25,4.52-18.95,2.55.33,1.14.69,2.35,1.06,3.61,4,1.24,12.72,2.43,18.8-3.27A15.84,15.84,0,0,0,381.12,233.81Z" style="fill: rgb(33, 76, 206); transform-origin: 372.1px 237.405px;" id="elg7hn12spu4" class="animable"></path><path d="M356.73,294.24a2.75,2.75,0,0,0,1,2.73,12.82,12.82,0,0,0,9.69.95c4.6-1.25,6.95-2.93,8.61-4.75a22.24,22.24,0,0,1,6-5.16c1.82-.91,3.93-1.89,4.47-2.59s.09-3.38.09-3.38Z" style="fill: rgb(38, 50, 56); transform-origin: 371.719px 290.251px;" id="el38n3b5ex83n" class="animable"></path><path d="M378.38,274.05c.41,0,.89,0,1.12.32a1.16,1.16,0,0,1,.15.68c0,.32,0,.63,0,.94s-.08.66,0,.84.68,0,.86-.2a7.21,7.21,0,0,0,1.14-1.86c.21-.35.92-.64,1.24-.89a9.37,9.37,0,0,0,1.26-1c.28-.37-.24-.62-.29-1.06a.78.78,0,0,1,.81.54c.24.72,1,3.77,1.47,5a9,9,0,0,1,.51,5.68c-1,1.67-3.14,2.82-5.09,3.89a26.5,26.5,0,0,0-6.07,5.1,18.9,18.9,0,0,1-9.38,5c-3.62.47-7.85-.14-9-1.69-1.43-1.92-.7-3.24,4.32-6.46,1.08-.69,2.07-1.52,3.08-2.31l.21-.17a30.57,30.57,0,0,0,4.05-3.66,9.76,9.76,0,0,0,2.16-4.38c.3-1.32.46-2.66.86-3.95a.75.75,0,0,1,.18-.34c.2-.21.54-.15.82-.09a12.42,12.42,0,0,0,3,.24Z" style="fill: rgb(33, 76, 206); transform-origin: 371.678px 284.501px;" id="elneddvc6bti" class="animable"></path><g id="el59wqb8d1ooj"><path d="M378.38,274.05c.41,0,.89,0,1.12.32a1.16,1.16,0,0,1,.15.68c0,.32,0,.63,0,.94s-.08.66,0,.84.68,0,.86-.2a7.21,7.21,0,0,0,1.14-1.86c.21-.35.92-.64,1.24-.89a9.37,9.37,0,0,0,1.26-1c.28-.37-.24-.62-.29-1.06a.78.78,0,0,1,.81.54c.24.72,1,3.77,1.47,5a9,9,0,0,1,.51,5.68c-1,1.67-3.14,2.82-5.09,3.89a26.5,26.5,0,0,0-6.07,5.1,18.9,18.9,0,0,1-9.38,5c-3.62.47-7.85-.14-9-1.69-1.43-1.92-.7-3.24,4.32-6.46,1.08-.69,2.07-1.52,3.08-2.31l.21-.17a30.57,30.57,0,0,0,4.05-3.66,9.76,9.76,0,0,0,2.16-4.38c.3-1.32.46-2.66.86-3.95a.75.75,0,0,1,.18-.34c.2-.21.54-.15.82-.09a12.42,12.42,0,0,0,3,.24Z" style="opacity: 0.4; transform-origin: 371.678px 284.501px;" class="animable"></path></g><g id="elbsn2o78s7x"><path d="M375.52,292a35.53,35.53,0,0,1,2.63-2.58h0s-5.78,4.69-8.56,3.3c-1.8-.89-1.2-2.36-1.22-2.8s-4.33-1.75-5.94-1.72h0c-.41.3-.76.55-1,.69-5,3.22-5.75,4.54-4.32,6.46,1.16,1.55,4.29,2.45,9,1.81C369.14,296.71,373.57,294.09,375.52,292Z" style="opacity: 0.3; transform-origin: 367.308px 292.784px;" class="animable"></path></g><path d="M368.63,288.56c-3.15,1.79-1.57,2.57-.69,2.22a30.56,30.56,0,0,0,9.29-6.83c3.18-3.32,5.43-7.16,6.61-8.38a9.37,9.37,0,0,0,1.34-1.54c-.19-.72-.33-1.39-.44-1.74a.75.75,0,0,0-.89-.49l.09.95a3.36,3.36,0,0,1-1.09,1.13,4.17,4.17,0,0,0-1.17.89c-.39.65-.66,1.13-1.21,1.93C378.5,279.61,371.78,286.77,368.63,288.56Z" style="fill: rgb(55, 71, 79); transform-origin: 375.968px 281.32px;" id="elgqtl5v8m3o9" class="animable"></path><path d="M368.06,290.26a.31.31,0,0,1-.22-.09,7.37,7.37,0,0,0-5.82-1.41.32.32,0,0,1-.4-.24.33.33,0,0,1,.24-.41,8,8,0,0,1,6.43,1.58.33.33,0,0,1,0,.47A.35.35,0,0,1,368.06,290.26Z" style="fill: rgb(235, 235, 235); transform-origin: 364.998px 289.116px;" id="elo3fx9zftbsr" class="animable"></path><path d="M370.73,288.08a.33.33,0,0,1-.23-.09,7.41,7.41,0,0,0-5.82-1.42.33.33,0,0,1-.16-.64A8,8,0,0,1,371,287.5a.32.32,0,0,1,0,.47A.34.34,0,0,1,370.73,288.08Z" style="fill: rgb(235, 235, 235); transform-origin: 367.691px 286.932px;" id="elesoez0jfg1c" class="animable"></path><path d="M373.4,286a.35.35,0,0,1-.23-.09,7.41,7.41,0,0,0-5.82-1.41.33.33,0,0,1-.4-.24.33.33,0,0,1,.24-.4,8,8,0,0,1,6.44,1.57.33.33,0,0,1,0,.47A.31.31,0,0,1,373.4,286Z" style="fill: rgb(235, 235, 235); transform-origin: 370.334px 284.859px;" id="elhwvpzlg9h2l" class="animable"></path><path d="M375.83,283.68a.35.35,0,0,1-.23-.09,8.7,8.7,0,0,0-6.33-1.23.33.33,0,0,1-.16-.65,9.26,9.26,0,0,1,6.95,1.39.33.33,0,0,1,0,.47A.32.32,0,0,1,375.83,283.68Z" style="fill: rgb(235, 235, 235); transform-origin: 372.507px 282.607px;" id="elhf07liryexw" class="animable"></path><path d="M377.79,281.06a.33.33,0,0,1-.23-.1c-1.31-1.25-4.7-1.51-6.92-.95a.33.33,0,0,1-.16-.65c2.44-.61,6-.3,7.54,1.12a.34.34,0,0,1,0,.47A.34.34,0,0,1,377.79,281.06Z" style="fill: rgb(235, 235, 235); transform-origin: 374.17px 280.062px;" id="eljcnm8cwy8w" class="animable"></path><path d="M374.12,174s5.51,4.07,17.53,3.88a48.33,48.33,0,0,0,21.68-6,132.2,132.2,0,0,1,1.75,13.32c.27,5.31.05,41.39.05,41.39s-6.24,5.63-21.82,2.5l-3.48-22.55-9.21,19.94s-.24-4-8.76-7.24-12-.59-12-.59,7.1-23,9-28.49S374.12,174,374.12,174Z" style="fill: rgb(69, 90, 100); transform-origin: 387.537px 200.959px;" id="elvw0q3u2siwc" class="animable"></path><path d="M389.83,206.55l-1.31-9.18s-5.87-1.21-9.43-5.57c0,0,.36,4.16,6.71,7.37l2.39,7.38-6.09,16.73Z" style="fill: rgb(55, 71, 79); transform-origin: 384.46px 207.54px;" id="ela1xphjajgns" class="animable"></path><path d="M406,229.83c.81-.09,1.55-.21,2.24-.35.64-21.27-.1-43.31-1.9-54.43-.66.24-1.37.47-2.11.7C405.92,187.15,406.62,208.9,406,229.83Z" style="fill: rgb(33, 76, 206); transform-origin: 406.348px 202.44px;" id="eljpstd8ty1qc" class="animable"></path><path d="M413,227.92c.59-22-.29-44.53-2.26-54.68-.6.28-1.29.58-2.06.9,1.89,10.69,2.69,33,2.07,54.68A18.72,18.72,0,0,0,413,227.92Z" style="fill: rgb(33, 76, 206); transform-origin: 410.93px 201.03px;" id="elcl41n3x4h0p" class="animable"></path><path d="M396.28,223.42a.17.17,0,0,1,0-.14.2.2,0,0,1,.08-.13l1.59-1.19.15-.1a.31.31,0,0,1,.19-.06h.9a.16.16,0,0,1,.13.06.2.2,0,0,1,.06.14l-.06,4.74a.16.16,0,0,1-.06.13.2.2,0,0,1-.14.06h-1a.18.18,0,0,1-.14-.06.2.2,0,0,1-.06-.14l.05-3.2-.88.64a.17.17,0,0,1-.15,0,.17.17,0,0,1-.13-.08Z" style="fill: rgb(33, 76, 206); transform-origin: 397.822px 224.365px;" id="elh0j1aariqdl" class="animable"></path><path d="M402.36,221.78a2.63,2.63,0,0,1,.94.17,2.07,2.07,0,0,1,.65.44,1.81,1.81,0,0,1,.38.64,2.83,2.83,0,0,1,.14.76c0,.21,0,.43,0,.66s0,.45,0,.65a2.39,2.39,0,0,1-.16.75,1.71,1.71,0,0,1-.39.63,2,2,0,0,1-.66.43,2.71,2.71,0,0,1-.95.15,2.58,2.58,0,0,1-.94-.18,1.82,1.82,0,0,1-.65-.44,1.65,1.65,0,0,1-.38-.64,2.38,2.38,0,0,1-.14-.76c0-.2,0-.41,0-.64s0-.45,0-.66a2.71,2.71,0,0,1,.16-.76,1.74,1.74,0,0,1,.4-.63,1.87,1.87,0,0,1,.66-.42A2.71,2.71,0,0,1,402.36,221.78Zm.74,3.26c0-.41,0-.82,0-1.23a1.61,1.61,0,0,0-.06-.33.56.56,0,0,0-.12-.27.62.62,0,0,0-.23-.19,1,1,0,0,0-.37-.07.93.93,0,0,0-.36.06.76.76,0,0,0-.24.18.77.77,0,0,0-.14.27,1.14,1.14,0,0,0-.05.33,10.1,10.1,0,0,0,0,1.23,1.63,1.63,0,0,0,.05.34.66.66,0,0,0,.12.27.55.55,0,0,0,.24.18.8.8,0,0,0,.36.07,1,1,0,0,0,.37-.06.61.61,0,0,0,.24-.17.87.87,0,0,0,.14-.27A1.63,1.63,0,0,0,403.1,225Z" style="fill: rgb(33, 76, 206); transform-origin: 402.335px 224.42px;" id="el2n2x0tvi3l2" class="animable"></path></g><g id="freepik--Top--inject-130" class="animable" style="transform-origin: 391.888px 129.876px;"><g id="freepik--Arm--inject-130" class="animable" style="transform-origin: 363.486px 103.88px;"><path d="M346.4,119.38c1,1.08,3.21,3.2,10,9.12,5,4.32,12.88,9.87,15.26,14.33-.31-7.43,12.67-19.25,12.67-19.25-4.31-.43-8.8.35-12.57-1.76A67.06,67.06,0,0,1,355.5,109c-.46-3.32-1.68-16.64-1.09-22.62a4.34,4.34,0,0,1,1.4-2.75c2.1-1.94,2.77-3.65,4.21-5.86,1.12-1.73,2.24-2.32,2-2.76a2.35,2.35,0,0,0-3.15-.48,16.18,16.18,0,0,0-3.35,2.44,28.84,28.84,0,0,1,2.24-7.2c2.48-5.25,2.64-6.62-4.1-5.41-4.22.76-8.17,4.32-9.58,14.22a79.22,79.22,0,0,0-.86,10.79c0,8.31-.83,16.64-.5,23.35C342.84,115.58,344.45,117.33,346.4,119.38Z" style="fill: rgb(242, 143, 143); transform-origin: 363.486px 103.39px;" id="elaudneldkuv" class="animable"></path><path d="M381.86,122.93a25.56,25.56,0,0,1-10.38-2.48,60.37,60.37,0,0,1-10.67-6.68s-8,4.76-7.84,13.17c0,0,8.88,7.26,12.38,10.19a51.13,51.13,0,0,1,6.44,6.68Z" style="fill: rgb(33, 76, 206); transform-origin: 367.414px 128.79px;" id="el8f9kcf7k78n" class="animable"></path><g id="elsvuk4fn5qe"><path d="M381.86,122.93a25.56,25.56,0,0,1-10.38-2.48,60.37,60.37,0,0,1-10.67-6.68s-8,4.76-7.84,13.17c0,0,8.88,7.26,12.38,10.19a51.13,51.13,0,0,1,6.44,6.68Z" style="opacity: 0.15; transform-origin: 367.414px 128.79px;" class="animable"></path></g></g><path d="M414.84,178.29c-.35-5.68-1.83-17.62-2.07-21.89-.43-7.36-.76-12.41-.87-14.18-.17-2.95-3.78-17.41-5.63-17.82a113.57,113.57,0,0,0-16.54-1.71,44.78,44.78,0,0,0-9.64.54,9.9,9.9,0,0,0-7.59,7.52,42.44,42.44,0,0,0-1,9.2c0,3.61,1.69,11.85,2.37,20.32a125.26,125.26,0,0,1-1.74,18.87C378.61,183.66,403.79,188.53,414.84,178.29Z" style="fill: rgb(33, 76, 206); transform-origin: 393.17px 153.489px;" id="elzguxtvrvah" class="animable"></path><path d="M411.9,142.22a10.08,10.08,0,0,0-.14-1.18c-14.67,4.64-31.62,2.55-40.23.21.07.9.19,2,.34,3.15,8.76,2.31,25.6,4.3,40.14-.38C412,143.24,411.93,142.64,411.9,142.22Z" style="fill: rgb(69, 90, 100); transform-origin: 391.77px 143.952px;" id="elruz72o26vb8" class="animable"></path><path d="M406.27,124.4a113.57,113.57,0,0,0-16.54-1.71,44.78,44.78,0,0,0-9.64.54,9.9,9.9,0,0,0-7.59,7.52,43.39,43.39,0,0,0-.95,6.75c7.49,2.34,24.85,4.9,39.49,0C409.81,132.15,407.59,124.69,406.27,124.4Z" style="fill: rgb(69, 90, 100); transform-origin: 391.295px 131.462px;" id="eln3x8rps5cir" class="animable"></path><path d="M397.15,92.79a5.74,5.74,0,0,1,4.38,3.12c.92,1.83.3,5.52-.74,10.4a45.48,45.48,0,0,1-2.72,9.19,4.52,4.52,0,0,1-2.18,2l0-5.16-2.69-3.25s-.72-.32-1.79-6.13a50,50,0,0,1-.67-7.74Z" style="fill: rgb(38, 50, 56); transform-origin: 396.359px 105.145px;" id="el96dtcwvevj" class="animable"></path><path d="M392.93,99.18a10.73,10.73,0,1,1-11-10.41A10.73,10.73,0,0,1,392.93,99.18Z" style="fill: rgb(38, 50, 56); transform-origin: 382.205px 99.4965px;" id="el3dp3op8cfvg" class="animable"></path><path d="M394.73,107.34a21.79,21.79,0,0,1,2.12-2.67,3.15,3.15,0,0,1,2.45-.93,2.85,2.85,0,0,1,2.53,1.73c1.23,2.24-.17,5.27-1.87,6.64a3.29,3.29,0,0,1-4.11.19l.08,11.28s-.8,2.52-5.71,4.43c-3.83,1.49-9.33-.3-5.85-4.1l-.12-3.73a14.11,14.11,0,0,1-5.6.23c-1.94-.39-3.44-1.31-4.57-4.25-2-5.2-2.09-13.55,0-20.62,2-1.7,5.88-1.46,8.28-1a37.82,37.82,0,0,1,6.16,2.72,6.31,6.31,0,0,0,1.79,2.66,6,6,0,0,0,3.13,1.26s-.35,1.3-.38,1.42a14,14,0,0,0-.34,1.59,8.67,8.67,0,0,0,.07,3.13,1.16,1.16,0,0,0,.53.87.87.87,0,0,0,.87-.16A2.91,2.91,0,0,0,394.73,107.34Z" style="fill: rgb(242, 143, 143); transform-origin: 387.422px 111.369px;" id="elhl9fvw1hrtm" class="animable"></path><path d="M372.09,88.35a.49.49,0,0,1,.38-.31.58.58,0,0,1,.36.15,17.44,17.44,0,0,0,2.4,1.5,8.41,8.41,0,0,1-.14-3.2c.09-.65.23-2.16,1-2.35.48-.11.91.28,1.27.6,3.32,2.91,7.48,1.38,11.37,1.38,3.25,0,7.21,1.2,8.77,4.31.72,1.42.88,2.94-.41,4-1.1.89-4.8,1.8-6.13,2.23-3.52,1.16-12.57,4.14-17.55-1.74A9.48,9.48,0,0,1,371.77,91a4.79,4.79,0,0,1,.31-2.63Z" style="fill: rgb(38, 50, 56); transform-origin: 384.879px 91.2853px;" id="elz3l8ci5dz3p" class="animable"></path><path d="M384.25,120.18s3.91-.72,5.82-2.05a12.31,12.31,0,0,0,3.38-4.08s-.56,3-2,4.37c-2.34,2.13-7.11,3.07-7.11,3.07Z" style="fill: rgb(177, 102, 104); transform-origin: 388.85px 117.77px;" id="elxyyrxokg3b" class="animable"></path><path d="M384.85,105.77a1.19,1.19,0,0,0,1.21,1.19,1.23,1.23,0,1,0-1.21-1.19Z" style="fill: rgb(38, 50, 56); transform-origin: 386.079px 105.73px;" id="elh1ql7gzdk88" class="animable"></path><path d="M386.45,101.69l2.48,1.47a1.52,1.52,0,0,0-.52-2A1.42,1.42,0,0,0,386.45,101.69Z" style="fill: rgb(38, 50, 56); transform-origin: 387.781px 102.062px;" id="el22tko96bxht" class="animable"></path><path d="M385.18,112.73l-5,1.53a2.75,2.75,0,0,0,3.36,1.77A2.56,2.56,0,0,0,385.18,112.73Z" style="fill: rgb(177, 102, 104); transform-origin: 382.754px 114.433px;" id="el4otvng1gafx" class="animable"></path><path d="M381.86,116a2.84,2.84,0,0,1,2.95-2.19,2.64,2.64,0,0,1,.49.08,2.52,2.52,0,0,1-1.76,2.17A2.68,2.68,0,0,1,381.86,116Z" style="fill: rgb(255, 168, 167); transform-origin: 383.58px 114.985px;" id="el7wv7ezvy33k" class="animable"></path><path d="M374.66,102.63l2.58-1.33a1.4,1.4,0,0,0-1.92-.66A1.52,1.52,0,0,0,374.66,102.63Z" style="fill: rgb(38, 50, 56); transform-origin: 375.877px 101.556px;" id="eluv9qbsc4tb8" class="animable"></path><path d="M375.6,105.51a1.19,1.19,0,0,0,1.21,1.18,1.23,1.23,0,1,0-1.21-1.18Z" style="fill: rgb(38, 50, 56); transform-origin: 376.829px 105.46px;" id="elfx9shdng0c8" class="animable"></path><polygon points="381.2 111.42 377.47 110.47 381.72 104.53 381.2 111.42" style="fill: rgb(177, 102, 104); transform-origin: 379.595px 107.975px;" id="els9ox2fftzk" class="animable"></polygon><path d="M424.38,190.05c1.21-2.26,3.08-6.67,3.26-8.24a21.85,21.85,0,0,1-3,2.25c-1,.39-2.28.38-2.78-.43-.37-.59,1.25-1.5,1.88-2.44a40.88,40.88,0,0,1,4.09-5.09,3.27,3.27,0,0,0,1.24-2.24c.45-6.29.2-13.88.44-21-4.52-2.85-16.4-8.26-20.17-10.58-2.49-2.8-3.83-5.83-4.47-10.57-.16-1.2.27-6.29,1.21-7.14,4.73.39,6.8,1,10,3.23,1.63,1.12,3.35,2.47,10.47,7.81,4,3,9.68,7,13.94,12,1.9,2.28-.95,21.63-1.63,25.92-.36,2.32-1.59,9.07-2.37,12.1-1.31,5.12-4.85,9.39-8.67,10C421.73,196.63,422.74,193.1,424.38,190.05Z" style="fill: rgb(242, 143, 143); transform-origin: 422.985px 160.187px;" id="el5z9hkknvyvq" class="animable"></path><path d="M405.34,124.22c4.57.55,7.45.51,11.31,3.35,2.62,1.92,15.53,11.59,15.53,11.59s1.65,6.2-5.76,12.42l-17.15-8S400.27,136.25,405.34,124.22Z" style="fill: rgb(33, 76, 206); transform-origin: 418.064px 137.9px;" id="elxpg553f3a6" class="animable"></path><g id="elbcr606l08bi"><path d="M405.34,124.22c4.57.55,7.45.51,11.31,3.35,2.62,1.92,15.53,11.59,15.53,11.59s1.65,6.2-5.76,12.42l-17.15-8S400.27,136.25,405.34,124.22Z" style="opacity: 0.15; transform-origin: 418.064px 137.9px;" class="animable"></path></g></g></g></g><g id="freepik--character-2--inject-130" class="animable" style="transform-origin: 251.92px 311.213px;"><g id="freepik--character--inject-130" class="animable" style="transform-origin: 251.92px 311.213px;"><g id="freepik--bottom--inject-130" class="animable" style="transform-origin: 271.474px 360.589px;"><path d="M301.09,362c-2.8-6.66-4.25-9.21-8.09-14.24,0,0-2.75-31.09-3.37-43.05a106.6,106.6,0,0,0-1.93-13.2c-14,5.83-28.26,6.8-42.72,4.41-.14,5.64-3.1,18.43-8.45,46.51-.62,3.29-1.81,7.94-.68,14.89.58,4.32,1.08,7.74,2.33,13.82,1.5,7.36,5.45,24.42,6.85,30.61s1.7,8.77,2.39,11.83,1.09,1,1.31,2.58-.32,1.25-.57,2.52c1.09-.87,2.07-.57,3.37-.92s3.07.52,4.34-.42c1.93-1.43,3.68,1.49,3.73-3.89s.13-19.63.13-26.61c0-5,0-11.25-.19-15.38-.25-6.44-1.76-10.21-3.38-15.89l11.6-36.2s1.48,19.64,3.05,29.12c.73,4.45,1.58,5.81,3.66,9.12,1.83,2.9,26.56,39.59,30.2,43.3,2.06,2.09,7.44-8.49,7.44-8.49S302.06,364.27,301.09,362Z" style="fill: rgb(177, 102, 104); transform-origin: 273.746px 355.095px;" id="elc357nalgnwv" class="animable"></path><path d="M301.09,362h0a76.62,76.62,0,0,0-3.38-7.24c-5.67-.71-14.82,4.16-18.38,10.13,7.86,11.68,22.6,33.22,25.34,36a1,1,0,0,0,1.18.14c2.43-1.1,6.26-8.63,6.26-8.63S302.06,364.27,301.09,362Z" style="fill: rgb(33, 76, 206); transform-origin: 295.72px 377.926px;" id="ell1c24q0cnzk" class="animable"></path><g id="el55usg5kd6f"><path d="M301.09,362h0a76.62,76.62,0,0,0-3.38-7.24c-5.67-.71-14.82,4.16-18.38,10.13,7.86,11.68,22.6,33.22,25.34,36a1,1,0,0,0,1.18.14c2.43-1.1,6.26-8.63,6.26-8.63S302.06,364.27,301.09,362Z" style="opacity: 0.3; transform-origin: 295.72px 377.926px;" class="animable"></path></g><path d="M281.08,367.53c1.14-1.74,10.14-10.43,17.9-10.32a23.82,23.82,0,0,0-1.82-3.46A23.67,23.67,0,0,0,279,364.31Z" style="fill: rgb(55, 71, 79); transform-origin: 288.99px 360.64px;" id="elm71itg2lms" class="animable"></path><path d="M304.34,406.08c0,.68,0,1.35,0,2,0,1.73-.18,2.16-.47,2.45-.91.93-2.85.52-5,1.33-3.13,1.18-2.53,4.57-2.53,4.57s2.62,3.06,5.28,3.64a10.15,10.15,0,0,0,5.46-.5c2.67-1.46,9.29-5.25,9.18-5.68s1.52-18.21,1.48-18.34c-.31-1.06-1.49-1.65-2.37-2.16-.47-.27-.94-.52-1.41-.77a7.54,7.54,0,0,1-1.57-1.57,1.81,1.81,0,0,0-.66-.51,1.93,1.93,0,0,0-1.48.32c-.53.24-1.06.51-1.57.8a11.44,11.44,0,0,0-2.71,2.13,5.65,5.65,0,0,0-1.5,2c-.52,2,0,3.13.22,5.1-.48-.54-1.68-2.06-1.68-2.06a1.61,1.61,0,0,0-.43,2.16A9.27,9.27,0,0,1,304.34,406.08Z" style="fill: rgb(69, 90, 100); transform-origin: 307.017px 405.372px;" id="el5f38w6ds7ah" class="animable"></path><path d="M316.24,413.92c0-.12.11-1.89.3-4.29l-7.16-2.08c-.08,4.14-2,8.61-5.54,8.12s-3.19-2.61-1.78-2.88,1.17-.79,1.78-2.23c-.91.93-2.85.52-5,1.33-3.13,1.18-2.53,4.57-2.53,4.57s2.62,3.06,5.28,3.64a10.15,10.15,0,0,0,5.46-.5C309.73,418.14,316.35,414.35,316.24,413.92Z" style="fill: rgb(55, 71, 79); transform-origin: 306.402px 413.909px;" id="el8hstpbd1f7a" class="animable"></path><path d="M318.72,396.33c1.24.47.7,4.36-.07,7.61s-1.2,4.38-.81,7.08.62,3.92-.48,4.91-9.87,5.09-9.87,5.09a32.27,32.27,0,0,0,2-10.16c.23-6,.63-9.85,3.41-12.57A6.56,6.56,0,0,1,318.72,396.33Z" id="elay0neyjmwh" class="animable" style="transform-origin: 313.473px 408.632px;"></path><path d="M296.32,416.46a12.48,12.48,0,0,0,7.16,3.49c3.9.49,5.14-2.44,5.55-7.08s.3-11.08,2.13-13.91,5.35-3.67,6.56-3.38a3.44,3.44,0,0,1,1,.75,6.84,6.84,0,0,0-5.89,2.23c-2.41,2.41-2.34,7.76-2.46,12.35s-.31,9.9-4,10.45a13.31,13.31,0,0,1-10-3A2,2,0,0,1,296.32,416.46Z" style="fill: rgb(38, 50, 56); transform-origin: 307.412px 408.484px;" id="el5ggn8qwxczc" class="animable"></path><path d="M312.61,391.36l-.24-.28a1.81,1.81,0,0,0-.66-.51,1.93,1.93,0,0,0-1.48.32c-.53.24-1.06.51-1.57.8a11.44,11.44,0,0,0-2.71,2.13,5.65,5.65,0,0,0-1.5,2c-.52,2,0,3.13.22,5.1.1,1.41,1,5.53.38,8.3s-1.93,3-2.6,3.33-.46,1.13.45.93A4.91,4.91,0,0,0,306,410.2a18,18,0,0,0,.37-6,48.34,48.34,0,0,1-.54-7C306,396,307.87,393,312.61,391.36Z" style="fill: rgb(38, 50, 56); transform-origin: 307.333px 402.023px;" id="el7rwnmbwm3o2" class="animable"></path><path d="M303.25,413a.38.38,0,0,1-.37-.32,4.33,4.33,0,0,1,.35-2.26.37.37,0,0,1,.5-.15.38.38,0,0,1,.15.5,3.56,3.56,0,0,0-.27,1.82.37.37,0,0,1-.32.41Z" style="fill: rgb(235, 235, 235); transform-origin: 303.386px 411.613px;" id="el7gxhbxbzvpd" class="animable"></path><path d="M305.42,410.83l-.09,0a2.22,2.22,0,0,1-1.51-1.44.37.37,0,0,1,.24-.46.38.38,0,0,1,.46.25,1.51,1.51,0,0,0,1,.94.37.37,0,0,1-.09.73Z" style="fill: rgb(235, 235, 235); transform-origin: 304.804px 409.884px;" id="elcavq8lhooyk" class="animable"></path><path d="M305.74,408.27a2,2,0,0,1-1.79-1,.38.38,0,0,1,.15-.5.37.37,0,0,1,.5.15,1.26,1.26,0,0,0,1.18.66.37.37,0,0,1,.39.34.37.37,0,0,1-.33.4Z" style="fill: rgb(235, 235, 235); transform-origin: 305.04px 407.523px;" id="eln0mxskwgcp" class="animable"></path><path d="M305.67,406.07a2.42,2.42,0,0,1-1.77-.78.36.36,0,0,1,0-.52.35.35,0,0,1,.51,0,1.8,1.8,0,0,0,1.25.54.38.38,0,0,1,.38.35.37.37,0,0,1-.35.38Z" style="fill: rgb(235, 235, 235); transform-origin: 304.915px 405.365px;" id="elq1iunyw5u7" class="animable"></path><path d="M305.59,403.91a3.42,3.42,0,0,1-2.3-1.06.35.35,0,0,1,0-.51.37.37,0,0,1,.52,0,2.66,2.66,0,0,0,1.77.82.37.37,0,0,1,0,.74Z" style="fill: rgb(235, 235, 235); transform-origin: 304.563px 403.072px;" id="elgwfzuv9tm8j" class="animable"></path><path d="M224.15,423.53c-.76,0-.86,1-.31,2.19.86,1.82,4,3.5,6.92,4s8.72.42,11.86.32,6.6,1.19,9,1.5a13.73,13.73,0,0,0,9.47-1.72c.5-.31.49-1.34.55-2.05.07-1,0-1.44-.51-1.47C248.66,425.63,236.46,424.37,224.15,423.53Z" style="fill: rgb(38, 50, 56); transform-origin: 242.577px 427.644px;" id="elx2a5p9vx58o" class="animable"></path><path d="M261.13,423a14,14,0,0,1,.17,4.53c-.43,1.25-1.77,1.82-3,2.12a20.31,20.31,0,0,1-9.4,0,27.64,27.64,0,0,0-6.37-.85,61.22,61.22,0,0,1-8.47.05,21.36,21.36,0,0,1-6.28-1.56c-1.73-.77-3.29-1.63-4.05-3.47a5.83,5.83,0,0,1,2.05-4.83c2.22-1.47,4.54-1,6.62-1,2.78-.05,5.12,0,7.66-.13a10.5,10.5,0,0,0,4.52-1.17,3.85,3.85,0,0,0,1.59-1.69c.48-.86.35-1.6,1.38-1.9,3,.58,8.8,1.51,11.27,1.83,2.27.3,1.4,2.68,1.49,3.66C260.53,420.7,261,421.59,261.13,423Z" style="fill: rgb(69, 90, 100); transform-origin: 242.563px 421.651px;" id="elbelwjsfpvvj" class="animable"></path><path d="M235.12,417.88h0Z" style="fill: rgb(55, 71, 79); transform-origin: 235.12px 417.88px;" id="elnoisdbaequg" class="animable"></path><path d="M232.44,424.89c-2.41-1.15-2.2-3.17-.68-3.55s1.71-.13,2-1.13A6.65,6.65,0,0,1,235,418l.07-.11,0,0-.48,0-2.21,0h-.5a24.91,24.91,0,0,0-3.47.07l-.23,0a6.24,6.24,0,0,0-2.41.94l-.19.15a5.43,5.43,0,0,0-1.55,2.39,5.72,5.72,0,0,0-.31,2.29l0,.09c.77,1.78,2.3,2.62,4,3.38a21.36,21.36,0,0,0,6.28,1.56,55.08,55.08,0,0,0,7.92,0C240.3,425.63,234.84,426,232.44,424.89Z" style="fill: rgb(55, 71, 79); transform-origin: 232.813px 423.381px;" id="el5j8vf1fh0md" class="animable"></path><path d="M260.42,416.44c-.08-1.21-.51-1.26-1.33-1.55s-1.79,1.48-2.72,1.23c-3.24.6-6.66,0-9.29,1.86a12.52,12.52,0,0,1-5.11,2.23,31.3,31.3,0,0,1-8.7.49c-1.06-.06-.64,1,0,1.2,2.1.57,7.71,0,8.86-.21,3.39-.74,5.39-3,8-2.64a26.91,26.91,0,0,0,7.65,0A3.19,3.19,0,0,0,260.42,416.44Z" style="fill: rgb(38, 50, 56); transform-origin: 246.522px 418.502px;" id="elv5rfkqghf9c" class="animable"></path><path d="M233.65,421.42a.36.36,0,0,1-.36-.35,4.62,4.62,0,0,1,1.51-3.34.37.37,0,0,1,.55.49A4,4,0,0,0,234,421a.37.37,0,0,1-.35.39Z" style="fill: rgb(235, 235, 235); transform-origin: 234.356px 419.526px;" id="elj636m0drkrn" class="animable"></path><path d="M236.33,421.51h0a.37.37,0,0,1-.36-.37,5.22,5.22,0,0,1,1.61-3.5.37.37,0,0,1,.52,0,.37.37,0,0,1,0,.52,4.63,4.63,0,0,0-1.42,3A.37.37,0,0,1,236.33,421.51Z" style="fill: rgb(235, 235, 235); transform-origin: 237.088px 419.522px;" id="el4ub9hp33t55" class="animable"></path><path d="M239.16,421.51a.38.38,0,0,1-.37-.34,5.51,5.51,0,0,1,1.07-3.65.37.37,0,0,1,.52-.09.38.38,0,0,1,.09.51,4.67,4.67,0,0,0-.94,3.17.38.38,0,0,1-.34.4Z" style="fill: rgb(235, 235, 235); transform-origin: 239.654px 419.435px;" id="elvgkq7k5u6hn" class="animable"></path><path d="M242,421.07a.36.36,0,0,1-.36-.28,5,5,0,0,1,.84-3.8.36.36,0,0,1,.5-.13.38.38,0,0,1,.13.51,4.21,4.21,0,0,0-.76,3.25.36.36,0,0,1-.27.44Z" style="fill: rgb(235, 235, 235); transform-origin: 242.358px 418.939px;" id="el38wc996321d" class="animable"></path><path d="M245.17,420.29a.4.4,0,0,1-.32-.18,5,5,0,0,1-.32-3.88A.36.36,0,0,1,245,416a.37.37,0,0,1,.27.45,4.21,4.21,0,0,0,.25,3.32.38.38,0,0,1-.13.51A.41.41,0,0,1,245.17,420.29Z" style="fill: rgb(235, 235, 235); transform-origin: 244.925px 418.139px;" id="elq6arh34hw4a" class="animable"></path><path d="M259.6,413.41c.06-5.43.12-19.51.13-26.63,0-5.09-.07-10.88-.17-15.43a39.79,39.79,0,0,0-.91-7.3c-6.76,3.47-14,4-21.35,2.53.23,1.28.52,2.84.81,4.27,1.74,8.36,5.39,24.21,6.68,30.71,1.23,6.25,1.67,8.47,2.39,11.62,1.09.4,2.44.37,2.13,2s-1.19,1.83-2.62,3.1c1.09-.87,7.37-.32,8.95-.35a4.69,4.69,0,0,0,4-1.85Z" style="fill: rgb(33, 76, 206); transform-origin: 248.515px 391.165px;" id="elxzhy3eywm6e" class="animable"></path><g id="el8ut23n8wrc7"><path d="M259.6,413.41c.06-5.43.12-19.51.13-26.63,0-5.09-.07-10.88-.17-15.43a39.79,39.79,0,0,0-.91-7.3c-6.76,3.47-14,4-21.35,2.53.23,1.28.52,2.84.81,4.27,1.74,8.36,5.39,24.21,6.68,30.71,1.23,6.25,1.67,8.47,2.39,11.62,1.09.4,2.44.37,2.13,2s-1.19,1.83-2.62,3.1c1.09-.87,7.37-.32,8.95-.35a4.69,4.69,0,0,0,4-1.85Z" style="opacity: 0.3; transform-origin: 248.515px 391.165px;" class="animable"></path></g><path d="M237.27,366.4c.21,1.39.5,2.76.78,4.13,7.44,1.3,14.46.68,21.25-2.74a28.84,28.84,0,0,0-.69-3.93A32.28,32.28,0,0,1,237.27,366.4Z" style="fill: rgb(55, 71, 79); transform-origin: 248.285px 367.51px;" id="el9b2ca8un91h" class="animable"></path><path d="M245,294.7c5.29,2.43,20.25,1.39,29.56-.28s12.79-5,12.79-5a106.51,106.51,0,0,1,3.08,12.74C291.29,307.74,293,345,293,345s-5.9,7.17-23.18,3.43l-2-22.08-9,24.46s-13.3,2.23-23.91-3.68Z" style="fill: rgb(33, 76, 206); transform-origin: 263.955px 320.321px;" id="elj2sni77ydn9" class="animable"></path><g id="elf0654b0kd6i"><path d="M245,294.7c5.29,2.43,20.25,1.39,29.56-.28s12.79-5,12.79-5a106.51,106.51,0,0,1,3.08,12.74C291.29,307.74,293,345,293,345s-5.9,7.17-23.18,3.43l-2-22.08-9,24.46s-13.3,2.23-23.91-3.68Z" style="opacity: 0.3; transform-origin: 263.955px 320.321px;" class="animable"></path></g><g id="el7xv1tiufkqn"><path d="M267.82,326.38,270,315.59s8.93-.88,13.6-8.78c0,0-.09,8-11.23,11.06l-2.75,10.48.2,20.11Z" style="opacity: 0.25; transform-origin: 275.71px 327.635px;" class="animable"></path></g><path d="M237,348.21a27.6,27.6,0,0,0,2.77,1.06l10-53.44a22.36,22.36,0,0,1-2.69-.46Z" style="fill: rgb(55, 71, 79); transform-origin: 243.385px 322.32px;" id="elkl2llhgyncn" class="animable"></path><path d="M241.88,349.89c1,.24,1.89.42,2.81.57l10-54.33c-.94,0-1.85-.05-2.73-.1Z" style="fill: rgb(55, 71, 79); transform-origin: 248.285px 323.245px;" id="el4tqfnpu42m2" class="animable"></path></g><g id="freepik--top--inject-130" class="animable" style="transform-origin: 246.506px 245.279px;"><path d="M279.61,234.25c8.65.49,9.37.82,15.52,10.72,6.34,10.22,12.14,19.26,13,21.64,1,2.63.75,4.41-3.18,7.05-4.54,3.07-22.8,9-22.8,9L280.56,273l12.08-7.16L281.2,252.06Z" style="fill: rgb(177, 102, 104); transform-origin: 294.119px 258.455px;" id="elz4s4f9wtvfs" class="animable"></path><path d="M281.15,234.09c5.45.59,6.76.39,10.31,4.76s12.61,19.52,12.61,19.52a16.16,16.16,0,0,1-12.46,7L281.15,254Z" style="fill: rgb(33, 76, 206); transform-origin: 292.61px 249.73px;" id="elaww50pncp7q" class="animable"></path><g id="elm3f0wzpbefs"><path d="M281.15,234.09c5.45.59,6.76.39,10.31,4.76s12.61,19.52,12.61,19.52a16.16,16.16,0,0,1-12.46,7L281.15,254Z" style="opacity: 0.3; transform-origin: 292.61px 249.73px;" class="animable"></path></g><path d="M288,268.57l-7.4,4.39,1.59,9.68,6.34-2.14C288.2,274.67,288.05,271.51,288,268.57Z" style="fill: rgb(154, 74, 77); transform-origin: 284.565px 275.605px;" id="el32rwh6j72w4" class="animable"></path><g id="el6vqfv44pbdh"><path d="M286.32,244.54,281.15,254l6.93,7.51S289.47,251.64,286.32,244.54Z" style="opacity: 0.1; transform-origin: 284.768px 253.025px;" class="animable"></path></g><polygon points="292.64 265.8 295.19 268.78 291.5 266.47 292.64 265.8" style="fill: rgb(154, 74, 77); transform-origin: 293.345px 267.29px;" id="ellyn51scht0e" class="animable"></polygon><polygon points="256.98 229.08 258.5 240.96 273.93 239.84 271.63 224.09 256.98 229.08" style="fill: rgb(177, 102, 104); transform-origin: 265.455px 232.525px;" id="elqmlpfigeiq" class="animable"></polygon><path d="M248.07,212.44s-3.52,5.11-3.13,5.62,2.93,1,2.93,1Z" style="fill: rgb(154, 74, 77); transform-origin: 246.49px 215.75px;" id="elf7bmhxbeyra" class="animable"></path><path d="M257.44,199c-6.45,1.33-8.89,3.58-9.55,13.8-.68,10.69,1,14.63,2.36,16.07.95,1,6.21,1.18,8.87.46,6.32-1.13,11.06-3,14.6-8.36,4.17-6.31,5.11-15.4.69-18.94C268.2,197.07,260.06,198.48,257.44,199Z" style="fill: rgb(177, 102, 104); transform-origin: 262.524px 214.089px;" id="elz3h4ourzk6q" class="animable"></path><path d="M257.06,229.69l-.29-1.84a10.06,10.06,0,0,1-6.52,1C251,229.65,254.35,229.94,257.06,229.69Z" style="fill: rgb(154, 74, 77); transform-origin: 253.655px 228.814px;" id="elg7p26oed4mt" class="animable"></path><path d="M246,202.57a3,3,0,0,0,0,1.9,3.26,3.26,0,0,0,4.08,1.86,1.83,1.83,0,0,0,1,1.92,3,3,0,0,0,2.6,0c.78-.27,1-.42,1.43,0s.32,1.55.32,2c0,.88,0,2,0,3.15,0,1.78,1.14,3.13,1.7.76,0,0,1-3.95,4.37-3.44s3.6,4.27,2,7.21c-1,1.79-3.56,1.3-3.56,1.3a8.76,8.76,0,0,0,3.83,8.08c1.92.53,6.49.5,8.12-1.06,3.22-4.26,5.39-6.13,7-10.51,3.53-9.63.81-13.7-2.31-16.1-.17-.13-.23-1.27-.3-1.53a8.6,8.6,0,0,0-.49-1.4,5.56,5.56,0,0,0-1.58-2.1,10.06,10.06,0,0,0-6.09-1.88,27.1,27.1,0,0,1-5.25,0,16.37,16.37,0,0,1-3.32-1.1,11.76,11.76,0,0,0-3.37-.94,4.4,4.4,0,0,0-3.27,1,2.71,2.71,0,0,0-.69,3.18,4.91,4.91,0,0,0-3.42,0,3.59,3.59,0,0,0-2.19,2.54,2.83,2.83,0,0,0,1.34,3A3.23,3.23,0,0,0,246,202.57Z" style="fill: rgb(38, 50, 56); transform-origin: 263.199px 209.143px;" id="elcy1w7kehxd" class="animable"></path><path d="M288.79,293.54a158.91,158.91,0,0,1-1.93-20.46c-.28-6.8-.45-9.77-.2-16.05.37-9.13-.47-15-1.33-17.44-1.26-3.59-2.94-5.34-4.18-5.5-1.56-.16-6.41-.72-8.17-1-.48,2.23-11.9,3.37-15.19,2.29l-6.31,1.18c-4.14,1.5-7.22,9.14-7.48,20.89s.27,33,.13,38.6c0,0,9.72,5.2,25.77,3.5S288.79,293.54,288.79,293.54Z" style="fill: rgb(55, 71, 79); transform-origin: 266.359px 266.491px;" id="el6xl71v69wne" class="animable"></path><path d="M244,277.23c2.4-5.33,3.52-12.23,5-18.46l-5.07,11.64Z" style="fill: rgb(55, 71, 79); transform-origin: 246.465px 268px;" id="el3sohbp7q17z" class="animable"></path><path d="M251.45,236.54c-4.35.87-6.21.59-9.3,2.57-2.69,1.73-4.11,4.16-6.7,10.55-2.13,5.26-5.93,16.76-8.16,21.74-5,1.47-17.41,2.79-22.17,1.9a4.69,4.69,0,0,1-2.36-1.43c-1.85-1.81-3.41-1.79-5.27-3.26-1.45-1.14-2.14-2.29-2.55-2.08s-1.08,1.36-.46,2.87a21.66,21.66,0,0,0,2.4,3.07c-1.31.18-4.72-1.09-8-3.23-4-2.59-4.88-1.91-4.36,4.18.33,3.82,3.39,7,11.55,8.88a96.4,96.4,0,0,0,11.41,2c7.85.62,19.69,1.06,25.2,0,3.73-.74,4-2.19,6.4-5.4,4.61-6.23,10-20.07,10-20.07C254,248.41,253,241.62,251.45,236.54Z" style="fill: rgb(177, 102, 104); transform-origin: 218.552px 260.74px;" id="el2mxqm8073up" class="animable"></path><path d="M252.13,236.41c-3.85.25-8.24.49-11.85,3.62s-3.79,5.17-5.83,10.83S229,266.28,229,266.28s1.75,6.4,14,7.17l9-21S254.25,244.09,252.13,236.41Z" style="fill: rgb(33, 76, 206); transform-origin: 241.02px 254.93px;" id="el5ny6cdp1lid" class="animable"></path><g id="eldscqlqd98j9"><path d="M252.13,236.41c-3.85.25-8.24.49-11.85,3.62s-3.79,5.17-5.83,10.83S229,266.28,229,266.28s1.75,6.4,14,7.17l9-21S254.25,244.09,252.13,236.41Z" style="opacity: 0.3; transform-origin: 241.02px 254.93px;" class="animable"></path></g></g></g></g><g id="freepik--character-1--inject-130" class="animable" style="transform-origin: 113.216px 193.336px;"><g id="freepik--character--inject-130" class="animable" style="transform-origin: 113.216px 193.336px;"><g id="freepik--bottom--inject-130" class="animable" style="transform-origin: 92.9252px 236.703px;"><path d="M142.35,294.61c-3-1.56-7.32-5.43-10.19-9.35s-2.36-5.73-1.64-9.84,10.25-35.29,11.76-43.12-1.26-14.75-3.68-23.22c-2.85-10-6.83-29.66-6.83-29.66l-41.38-6.3a202.76,202.76,0,0,0-.65,23.46c.28,12.2-.64,24.4-.62,36.59,0,2.22,0,4.38,1.2,6.35a10.37,10.37,0,0,0,4.24,3.85c2.39,1.22,5.81,2.1,8.31,1.13,3.35-1.29,4.43-4.56,5.34-7.64,2.18-7.35,5.94-34.85,5.94-34.85l9.86,30.1a30.63,30.63,0,0,0-3.27,13.28c-.07,7.87-1.43,29.33-2,32.84s-2.72,6.42-2,9.23,4.53,3.35,6,4c3.62,1.57,4.61,5.48,8.06,7.75s9.67,1.37,12.56.2C146.78,298,145.33,296.17,142.35,294.61Z" style="fill: rgb(255, 168, 167); transform-origin: 117.23px 236.866px;" id="eluewhd3j7dio" class="animable"></path><path d="M103.79,243.38c-2.32,2.52-4.74,3.16-13.83.77l-.8-.22c-6.1-1.69-12.09-3.84-18.06-6-2.19-.78-4.38-1.56-6.57-2.36s-4.13-1.32-6.11-2.26a4,4,0,0,0-2.75-.62c-.36.1-.68.31-1,.43a1.06,1.06,0,0,1-1-.14,4.53,4.53,0,0,0,.89-1,13.8,13.8,0,0,0,1.35-3.39c.39-1.39.37-2.94,1.19-4.12,1-1.46,2.63-1.49,4.21-1.33,1.88.2,3.77.36,5.65.52,4.07.34,11.11.93,16.71,1.32C99.86,226.17,103.79,243.38,103.79,243.38Z" style="fill: rgb(255, 168, 167); transform-origin: 78.73px 234.359px;" id="elaoj7h0aaeoh" class="animable"></path><path d="M71.1,238c4.16,1.48,8.33,3,12.54,4.3-1.46-7.38.6-15.07,2.64-16.88a22.39,22.39,0,0,0-2.69-.36c-5.6-.39-12.64-1-16.71-1.32-1.88-.16-3.77-.32-5.65-.52-1.58-.16-3.19-.13-4.21,1.33-.82,1.18-.8,2.73-1.19,4.12A13.8,13.8,0,0,1,54.48,232a4.53,4.53,0,0,1-.89,1,1.06,1.06,0,0,0,1,.14c.35-.12.67-.33,1-.43a4,4,0,0,1,2.75.62c2,.94,4.06,1.51,6.11,2.26S68.91,237.19,71.1,238Z" style="fill: rgb(69, 90, 100); transform-origin: 69.935px 232.727px;" id="elinn1ruotpf" class="animable"></path><path d="M86.28,225.39a22.39,22.39,0,0,0-2.69-.36l-1-.07c-2.29,3.21-3.57,10.4-2.23,16.21,1.1.37,2.2.75,3.31,1.1C82.18,234.89,84.24,227.2,86.28,225.39Z" style="fill: rgb(33, 76, 206); transform-origin: 83.0476px 233.615px;" id="elmupa1womitn" class="animable"></path><path d="M142.35,294.61c-3-1.56-7.32-5.43-10.19-9.35s-2.36-5.73-1.64-9.84c.51-2.92,5.67-19.15,8.83-31.65-7.22,2.33-16.45-1.81-18.09-3.5a25.51,25.51,0,0,0-.71,5.33c-.29,7.86-1.24,29.12-1.85,32.63s-2.72,6.42-2,9.23,4.53,3.35,6,4c3.62,1.57,4.61,5.48,8.06,7.75s9.67,1.37,12.56.2C146.78,298,145.33,296.17,142.35,294.61Z" style="fill: rgb(69, 90, 100); transform-origin: 130.942px 270.441px;" id="el0lhxg8dx3d1g" class="animable"></path><path d="M129.7,248.39a22.75,22.75,0,0,0,8.47-.09c.42-1.54.81-3.06,1.18-4.53-7.22,2.33-16.45-1.81-18.09-3.5a25.33,25.33,0,0,0-.69,5A35,35,0,0,0,129.7,248.39Z" style="fill: rgb(33, 76, 206); transform-origin: 129.96px 244.507px;" id="el1j8oa5csl9c" class="animable"></path><path d="M146.13,298.06a2.77,2.77,0,0,1-1,2.74,12.8,12.8,0,0,1-9.68.94c-4.6-1.25-7-2.92-8.62-4.75a22.27,22.27,0,0,0-6-5.16c-1.82-.91-3.92-1.88-4.47-2.58s-.09-3.39-.09-3.39Z" style="fill: rgb(38, 50, 56); transform-origin: 131.139px 294.073px;" id="elo4n2uh000bg" class="animable"></path><path d="M124.48,277.88a1.22,1.22,0,0,0-1.13.32,1.19,1.19,0,0,0-.14.68c0,.31,0,.63,0,.94s.08.66,0,.83-.67,0-.85-.2a7.15,7.15,0,0,1-1.14-1.85c-.21-.35-.92-.65-1.24-.9a7.15,7.15,0,0,1-1.26-1c-.28-.36.24-.62.28-1.05a.77.77,0,0,0-.8.53c-.25.73-1,3.78-1.48,5a9.13,9.13,0,0,0-.51,5.69c1,1.67,3.15,2.82,5.09,3.88a26.15,26.15,0,0,1,6.07,5.11,19,19,0,0,0,9.39,5c3.61.47,7.84-.15,9-1.69,1.44-1.92.7-3.24-4.32-6.46-1.07-.69-2.07-1.53-3.07-2.32l-.21-.17a30.5,30.5,0,0,1-4.05-3.65,9.66,9.66,0,0,1-2.16-4.38c-.3-1.32-.46-2.67-.87-3.95a.76.76,0,0,0-.17-.35c-.2-.2-.54-.15-.82-.09a11.55,11.55,0,0,1-3,.24Z" style="fill: rgb(33, 76, 206); transform-origin: 131.192px 288.33px;" id="elcoy6bye9r48" class="animable"></path><g id="elq4nwg956py"><path d="M124.48,277.88a1.22,1.22,0,0,0-1.13.32,1.19,1.19,0,0,0-.14.68c0,.31,0,.63,0,.94s.08.66,0,.83-.67,0-.85-.2a7.15,7.15,0,0,1-1.14-1.85c-.21-.35-.92-.65-1.24-.9a7.15,7.15,0,0,1-1.26-1c-.28-.36.24-.62.28-1.05a.77.77,0,0,0-.8.53c-.25.73-1,3.78-1.48,5a9.13,9.13,0,0,0-.51,5.69c1,1.67,3.15,2.82,5.09,3.88a26.15,26.15,0,0,1,6.07,5.11,19,19,0,0,0,9.39,5c3.61.47,7.84-.15,9-1.69,1.44-1.92.7-3.24-4.32-6.46-1.07-.69-2.07-1.53-3.07-2.32l-.21-.17a30.5,30.5,0,0,1-4.05-3.65,9.66,9.66,0,0,1-2.16-4.38c-.3-1.32-.46-2.67-.87-3.95a.76.76,0,0,0-.17-.35c-.2-.2-.54-.15-.82-.09a11.55,11.55,0,0,1-3,.24Z" style="opacity: 0.4; transform-origin: 131.192px 288.33px;" class="animable"></path></g><g id="elrmy7dl1qf6s"><path d="M127.33,295.8a35.4,35.4,0,0,0-2.62-2.58h0s5.78,4.7,8.56,3.31a2.32,2.32,0,0,0,1.22-2.81c0-.44,4.32-1.75,5.94-1.72h0c.41.31.76.56,1,.7,5,3.22,5.76,4.54,4.32,6.46-1.16,1.54-4.28,2.45-8.95,1.81C133.71,300.54,129.29,297.92,127.33,295.8Z" style="opacity: 0.3; transform-origin: 135.554px 296.588px;" class="animable"></path></g><path d="M134.22,292.39c3.15,1.78,1.58,2.57.7,2.22a30.35,30.35,0,0,1-9.3-6.84c-3.18-3.31-5.42-7.16-6.61-8.37a9.25,9.25,0,0,1-1.33-1.54c.19-.72.33-1.4.44-1.74a.75.75,0,0,1,.89-.49c0,.43-.09.94-.09.94a3.39,3.39,0,0,0,1.09,1.14,4,4,0,0,1,1.17.89c.39.65.66,1.12,1.21,1.93C124.36,283.43,131.08,290.6,134.22,292.39Z" style="fill: rgb(55, 71, 79); transform-origin: 126.889px 285.15px;" id="eletubjqekumk" class="animable"></path><path d="M134.79,294.09a.32.32,0,0,1-.24-.11.33.33,0,0,1,0-.47,8.05,8.05,0,0,1,6.44-1.57.33.33,0,0,1-.16.65A7.37,7.37,0,0,0,135,294,.35.35,0,0,1,134.79,294.09Z" style="fill: rgb(235, 235, 235); transform-origin: 137.848px 292.946px;" id="el0fc7rb6hlieq" class="animable"></path><path d="M132.13,291.9a.31.31,0,0,1-.24-.1.33.33,0,0,1,0-.47,8,8,0,0,1,6.44-1.58.34.34,0,0,1,.24.41.34.34,0,0,1-.4.24,7.4,7.4,0,0,0-5.82,1.41A.35.35,0,0,1,132.13,291.9Z" style="fill: rgb(235, 235, 235); transform-origin: 135.186px 290.756px;" id="elmzbp2xim7u" class="animable"></path><path d="M129.46,289.81a.36.36,0,0,1-.25-.11.33.33,0,0,1,0-.47,8,8,0,0,1,6.43-1.57.33.33,0,0,1,.24.41.34.34,0,0,1-.4.24,7.37,7.37,0,0,0-5.82,1.41A.31.31,0,0,1,129.46,289.81Z" style="fill: rgb(235, 235, 235); transform-origin: 132.502px 288.665px;" id="elsqv9s4jfawo" class="animable"></path><path d="M127,287.51a.36.36,0,0,1-.25-.11.34.34,0,0,1,0-.47c1.06-1,4.45-2,7-1.39a.33.33,0,0,1-.16.64c-2.19-.54-5.4.36-6.34,1.24A.31.31,0,0,1,127,287.51Z" style="fill: rgb(235, 235, 235); transform-origin: 130.323px 286.433px;" id="eli7a1mjn8e99" class="animable"></path><path d="M125.07,284.88a.31.31,0,0,1-.24-.1.33.33,0,0,1,0-.47c1.48-1.42,5.09-1.73,7.54-1.12a.33.33,0,0,1,.24.4.34.34,0,0,1-.4.25c-2.23-.56-5.62-.3-6.92,1A.35.35,0,0,1,125.07,284.88Z" style="fill: rgb(235, 235, 235); transform-origin: 128.676px 283.888px;" id="elgim47iky2tt" class="animable"></path><path d="M90.31,171.12c-.51,6.13-1.15,12-1.28,20.32s-1.35,35.31-1.35,35.31,2.12,3.56,10.18,4.66c8.43,1.15,12.48-.76,12.48-.76l3.9-27.18,7.9,27.53s3.39,1.07,12.22-2.49,8.79-5.64,8.79-5.64L131.1,175.74Z" style="fill: rgb(69, 90, 100); transform-origin: 115.415px 201.449px;" id="elcf10yvoezcu" class="animable"></path><path d="M98.14,223.29a.19.19,0,0,1,0-.16.24.24,0,0,1,.09-.13l1.68-1.24.15-.1a.37.37,0,0,1,.21-.06l.93,0a.21.21,0,0,1,.21.21l-.1,5a.17.17,0,0,1-.07.14.2.2,0,0,1-.14.06l-1,0a.18.18,0,0,1-.15-.07.16.16,0,0,1-.05-.14l.06-3.36-.92.67a.23.23,0,0,1-.16,0,.25.25,0,0,1-.14-.08Z" style="fill: rgb(33, 76, 206); transform-origin: 99.7662px 224.305px;" id="elj73hbpe33g" class="animable"></path><path d="M103.49,225.45l.12.15a.73.73,0,0,0,.16.14.66.66,0,0,0,.22.12.85.85,0,0,0,.3,0,1.06,1.06,0,0,0,.31,0,.57.57,0,0,0,.26-.12.61.61,0,0,0,.19-.2.65.65,0,0,0,.07-.29.53.53,0,0,0-.19-.43.87.87,0,0,0-.56-.18.64.64,0,0,0-.2,0l-.18.06-.15.06-.12,0-1.2,0a.26.26,0,0,1-.15-.07.17.17,0,0,1-.05-.15l.28-2.74a.27.27,0,0,1,.07-.14.2.2,0,0,1,.15-.06l3.29.07a.2.2,0,0,1,.14.06.2.2,0,0,1,.06.15l0,.81a.21.21,0,0,1-.21.21l-2.23,0-.07.68a2,2,0,0,1,.32-.12,1.64,1.64,0,0,1,.4,0,2.71,2.71,0,0,1,.82.14,2,2,0,0,1,.65.37,1.55,1.55,0,0,1,.43.58,1.73,1.73,0,0,1,.14.78,1.79,1.79,0,0,1-.19.81,1.62,1.62,0,0,1-.49.58,2.07,2.07,0,0,1-.71.36,3.17,3.17,0,0,1-.88.1,3.23,3.23,0,0,1-.93-.15,2.06,2.06,0,0,1-.69-.38,1.55,1.55,0,0,1-.43-.53,1.34,1.34,0,0,1-.15-.61.17.17,0,0,1,.05-.12.21.21,0,0,1,.12,0l1,0a.36.36,0,0,1,.19.05Z" style="fill: rgb(33, 76, 206); transform-origin: 104.326px 224.391px;" id="elta1u4xo25tm" class="animable"></path><path d="M99.69,172.18l-2.62-.3c-1.69,13.83-2,45.8-2.39,58.9.59.15,1.21.29,1.89.42C97,218.51,97.74,186.4,99.69,172.18Z" style="fill: rgb(33, 76, 206); transform-origin: 97.185px 201.54px;" id="el92wpo52yh9" class="animable"></path><path d="M90.45,229.1a15.67,15.67,0,0,0,1.87.9c.38-12.09,1.11-43.44,3-58.32l-2.61-.29C91.11,185.72,90.82,216.3,90.45,229.1Z" style="fill: rgb(33, 76, 206); transform-origin: 92.885px 200.695px;" id="el8vg632e951d" class="animable"></path><path d="M114.24,203.47l.58-4s9.07-2.36,11.56-7c0,0-.2,6.43-8.72,9.27L122.14,231Z" style="fill: rgb(55, 71, 79); transform-origin: 120.31px 211.735px;" id="elgk2wwzowa2" class="animable"></path><path d="M43.79,249.18a2.72,2.72,0,0,1-2.75-1,12.76,12.76,0,0,1-1.12-9.66c1.17-4.63,2.8-7,4.6-8.7a22.28,22.28,0,0,0,5-6.14c.88-1.83,1.84-4.68,3.59-5.48,2.05-.94,2.86.26,2.86.26Z" style="fill: rgb(38, 50, 56); transform-origin: 47.7044px 233.543px;" id="el8tmx6tcp8rr" class="animable"></path><path d="M59.53,235.36c-1.68.18-3.31,1.69-5.51,4.08-2.89,3.15-4.69,5.78-5.63,5.91a19.52,19.52,0,0,1,4-6.53C55.25,235.93,56.44,234.79,59.53,235.36Z" style="fill: rgb(55, 71, 79); transform-origin: 53.96px 240.284px;" id="el53h8he0gz5r" class="animable"></path><path d="M61,230.22a1.36,1.36,0,0,0-.48-.68,4.52,4.52,0,0,0-1.07-.49,3.54,3.54,0,0,1-1.09-.78.2.2,0,0,1,.11-.13c.76-.56,1.55-1.07,2.32-1.62a10,10,0,0,0,1.37-1.39c.14-.15,1.56-1.79,1.57-1.79s1.29.22,1.29.22.37-.2-1.06-1c-1.85-1-2.85-2.14-4-2.77a8.26,8.26,0,0,0-5-1.33c-2.34,1.35-3.31,3.74-4.33,5.7a26.24,26.24,0,0,1-5,6.16,18.85,18.85,0,0,0-4.87,9.48c-.41,3.62.28,7.84,1.85,9,1.94,1.4,3.78,2,6.41-3.21a8.9,8.9,0,0,0,.61-2.19c.52-.74,1.08-1.44,1.62-2.15l.16-.21a30.64,30.64,0,0,1,3.59-4.12,6.64,6.64,0,0,1,5.39-1.47c.41.06.9.14,1.17-.16s.16-.76.06-1.14a15,15,0,0,1-.5-2.56A6.67,6.67,0,0,0,61,230.22Z" style="fill: rgb(33, 76, 206); transform-origin: 52.8535px 234.111px;" id="elr8alw8wldzm" class="animable"></path><g id="eldfnqiv366f9"><path d="M61,230.22a1.36,1.36,0,0,0-.48-.68,4.52,4.52,0,0,0-1.07-.49,3.54,3.54,0,0,1-1.09-.78.2.2,0,0,1,.11-.13c.76-.56,1.55-1.07,2.32-1.62a10,10,0,0,0,1.37-1.39c.14-.15,1.56-1.79,1.57-1.79s1.29.22,1.29.22.37-.2-1.06-1c-1.85-1-2.85-2.14-4-2.77a8.26,8.26,0,0,0-5-1.33c-2.34,1.35-3.31,3.74-4.33,5.7a26.24,26.24,0,0,1-5,6.16,18.85,18.85,0,0,0-4.87,9.48c-.41,3.62.28,7.84,1.85,9,1.94,1.4,3.78,2,6.41-3.21a8.9,8.9,0,0,0,.61-2.19c.52-.74,1.08-1.44,1.62-2.15l.16-.21a30.64,30.64,0,0,1,3.59-4.12,6.64,6.64,0,0,1,5.39-1.47c.41.06.9.14,1.17-.16s.16-.76.06-1.14a15,15,0,0,1-.5-2.56A6.67,6.67,0,0,0,61,230.22Z" style="opacity: 0.4; transform-origin: 52.8535px 234.111px;" class="animable"></path></g><g id="el9n5aeldkso"><path d="M40.85,239.83c-.41,3.62.28,7.84,1.85,9,1.94,1.4,3.78,2,6.41-3.21a7.18,7.18,0,0,0,.52-1.7,2.45,2.45,0,0,1,.07-.37.48.48,0,0,0,0-.12l0-.05c0-1.63-1.38-5.87-1.82-5.88s-1.9.61-2.82-1.17c-1.44-2.76,3.15-8.61,3.15-8.61h0c-.39.45-.8.9-1.22,1.34l0,0c-.41.44-.84.87-1.27,1.28A18.85,18.85,0,0,0,40.85,239.83Z" style="opacity: 0.3; transform-origin: 45.2188px 238.763px;" class="animable"></path></g><path d="M64.33,222.57a3.1,3.1,0,0,1-.53-.1h0c-.89-.21-2.32,1.82-2.89,2.27-2.44,1.93-4.24,2.14-7.49,5.38s-5.35,5.16-6.36,7.79c-.33.89.48,2.45,2.21-.73,1.48-2.71,9-8.79,9-8.84a1.59,1.59,0,0,1,.21-.2c.76-.56,1.55-1.07,2.32-1.62a10.07,10.07,0,0,0,1.44-1.32,11.17,11.17,0,0,1,1-1.23,3.25,3.25,0,0,1,.67-.48l1.18.08S65.67,222.78,64.33,222.57Z" style="fill: rgb(55, 71, 79); transform-origin: 56.1013px 230.771px;" id="ellbdl0942cs8" class="animable"></path><path d="M49.49,244.21h-.07a.33.33,0,0,1-.25-.4A7.37,7.37,0,0,0,47.65,238a.34.34,0,0,1,0-.47.33.33,0,0,1,.47,0A8,8,0,0,1,49.82,244,.34.34,0,0,1,49.49,244.21Z" style="fill: rgb(235, 235, 235); transform-origin: 48.7485px 240.821px;" id="eliu40vsmboql" class="animable"></path><path d="M51.63,241.51h-.07a.33.33,0,0,1-.25-.4,7.37,7.37,0,0,0-1.52-5.79.34.34,0,0,1,0-.47.33.33,0,0,1,.47,0A8.08,8.08,0,0,1,52,241.25.35.35,0,0,1,51.63,241.51Z" style="fill: rgb(235, 235, 235); transform-origin: 50.8978px 238.132px;" id="eleyj3a1c8dsn" class="animable"></path><path d="M53.68,238.79H53.6a.34.34,0,0,1-.25-.4,7.45,7.45,0,0,0-1.51-5.8.32.32,0,0,1,0-.47.34.34,0,0,1,.47,0A8,8,0,0,1,54,238.54.32.32,0,0,1,53.68,238.79Z" style="fill: rgb(235, 235, 235); transform-origin: 52.9266px 235.408px;" id="elljpbrdp51gb" class="animable"></path><path d="M55.77,236.84h-.08a.33.33,0,0,1-.25-.4,8.67,8.67,0,0,0-1.34-6.3.34.34,0,0,1,0-.48.34.34,0,0,1,.47,0,9.22,9.22,0,0,1,1.51,6.92A.32.32,0,0,1,55.77,236.84Z" style="fill: rgb(235, 235, 235); transform-origin: 55.1144px 233.203px;" id="elgrl56most1k" class="animable"></path><path d="M58,236.35H58a.33.33,0,0,1-.25-.4c.51-2.23.2-5.61-1.08-6.89a.34.34,0,0,1,0-.48.33.33,0,0,1,.47,0c1.45,1.45,1.82,5.06,1.26,7.51A.34.34,0,0,1,58,236.35Z" style="fill: rgb(235, 235, 235); transform-origin: 57.6099px 232.419px;" id="el1cpszp8mfsv" class="animable"></path></g><g id="freepik--top--inject-130" class="animable" style="transform-origin: 121.222px 140.74px;"><path d="M181.67,164.11c-2.5.51-7.27,1-8.82.74a19.88,19.88,0,0,0,3-2.21c.67-.82,1-2.08.4-2.79-.46-.52-1.8.78-2.89,1.1a40.13,40.13,0,0,0-6.05,2.46,3.23,3.23,0,0,1-2.5.53c-6.15-1.38-12.14-3.47-19-5.29-1.43-5.15-5.84-18.69-7.14-23.31s-2.38-7.06-6.73-9c-1.11-.5-6.54.49-7.9,1.55-1.13,5.52-.89,7.71.31,10.76.72,1.84,1.52,3.54,4.58,11.89a110.52,110.52,0,0,0,6.8,15.68c.4.75,1.08,2.37,4.34,3.22,6.78,1.76,18.6,3.41,21.67,3.83,2.33.32,9.15,1.09,12.28,1.22,5.28.22,10.38-2,12.06-5.43C188.74,163.47,185.07,163.42,181.67,164.11Z" style="fill: rgb(255, 168, 167); transform-origin: 155.151px 150.356px;" id="ellb6llg776nl" class="animable"></path><path d="M131.78,126c2.7,1.07,4.59,2.35,5.87,5.57s6.47,20.05,6.47,20.05-4.34,6.83-14.26,6.91l-6.19-20S122.53,127.77,131.78,126Z" style="fill: rgb(33, 76, 206); transform-origin: 133.873px 142.265px;" id="eldsj0l3u24wp" class="animable"></path><g id="el9m5jbl690n9"><path d="M131.78,126c2.7,1.07,4.59,2.35,5.87,5.57s6.47,20.05,6.47,20.05-4.34,6.83-14.26,6.91l-6.19-20S122.53,127.77,131.78,126Z" style="opacity: 0.15; transform-origin: 133.873px 142.265px;" class="animable"></path></g><path d="M131.78,126s-8.63-3.14-15.71-3.45c-3.82-.17-14.52.93-18.62,1.57-1.87.29-3.75,10.33-4.71,17.56-.23,1.75-1.12,7.49-2,16.6-.43,4.25-1.34,19.07-1.69,24.75,10.59,6.54,35.54,7.36,43.83-2.06,0,0-.34-13.63-.11-20.88s1.15-16.69,1.58-20.28C135,133.82,133.55,130.17,131.78,126Z" style="fill: rgb(33, 76, 206); transform-origin: 111.779px 155.263px;" id="el46e0oazxn0t" class="animable"></path><path d="M92.67,142.2c-.1.68-.24,1.67-.42,3,11.24,1.27,32.19,2.05,41.6-.82.11-1.17.22-2.23.32-3.11C125,144.18,104.13,143.45,92.67,142.2Z" style="fill: rgb(69, 90, 100); transform-origin: 113.21px 143.806px;" id="eln3c56rb2yj" class="animable"></path><path d="M116.07,122.54c-3.82-.17-14.52.93-18.62,1.57-1.6.25-3.2,7.56-4.23,14.2,15.68,1.19,30.26,1.58,41.27-.57.18-4.81-1.16-8.07-2.71-11.75C131.78,126,123.15,122.85,116.07,122.54Z" style="fill: rgb(69, 90, 100); transform-origin: 113.863px 130.9px;" id="eluvn3ztv8ehe" class="animable"></path><path d="M64.8,192.49c.23-3-.15-5.66.66-8.48a7.3,7.3,0,0,0,.36.82c.14.3.26.62.44.93a5.39,5.39,0,0,0,1.39,1.59,3,3,0,0,0,2.07.62.4.4,0,0,0,.35-.16c.1-.15,0-.34,0-.52a26.22,26.22,0,0,1-1.29-3.87c-.32-1.5-.14-2.43-.54-4.4-.48-2.35-1.77-2.81-1.19-4.73,1.73-5.74,5.79-13.68,8.17-18.45,6.28-4.5,12.43-9,18.3-13.93,3.48-5.15,5.57-11.68,3.31-17.8-5.74.78-7.25.63-12,5.63-2,2.08-15.92,14-18.68,16.81-1.94,2-3.42,2.22-4.64,8-1,4.67-2,9.83-3.75,18.08a99.68,99.68,0,0,0-2.25,12c-.34,4,.81,8.56,3.64,10.75C63.6,198.92,64.48,196.49,64.8,192.49Z" style="fill: rgb(255, 168, 167); transform-origin: 76.6115px 160.602px;" id="elphdtbo2hpth" class="animable"></path><path d="M97.45,124.11c-4.92,0-6.65-1-12.43,4.07-5.15,4.48-14.84,14.08-14.84,14.08s-.9,8,8.33,12.28L93.7,142.35A18.78,18.78,0,0,0,97.45,124.11Z" style="fill: rgb(33, 76, 206); transform-origin: 84.2678px 139.285px;" id="el1bobrq0tv12" class="animable"></path><g id="elsjmsm2tujvt"><path d="M97.45,124.11c-4.92,0-6.65-1-12.43,4.07-5.15,4.48-14.84,14.08-14.84,14.08s-.9,8,8.33,12.28L93.7,142.35A18.78,18.78,0,0,0,97.45,124.11Z" style="opacity: 0.15; transform-origin: 84.2678px 139.285px;" class="animable"></path></g><path d="M126.36,85.51a19.71,19.71,0,0,0-10.76-.67,14.15,14.15,0,0,0-9.11,6.32,14.9,14.9,0,0,0-1.25,13.71c1.61,4.38,2.87,6.73,3.5,8.18a25.22,25.22,0,0,1,1.1,3.73l.29-5.41,3-3.27s.62-.25,1.76-4.68a11.24,11.24,0,0,0,17.26,3.92,7.33,7.33,0,0,0,1.24-1,7.17,7.17,0,0,0,.72-2.15,26.07,26.07,0,0,0,1-4.94,13.81,13.81,0,0,0-1.28-7.73,14.16,14.16,0,0,0-7.28-5.9Z" style="fill: rgb(38, 50, 56); transform-origin: 119.67px 100.583px;" id="elxiwlejbbot" class="animable"></path><path d="M112.43,105.53a1.71,1.71,0,0,1-.11.14,1.36,1.36,0,0,1-1.15.54,1.83,1.83,0,0,1-1.19-.91c-.41-.59-.73-1.24-1.14-1.83a3.8,3.8,0,0,0-1.13-1.13,2,2,0,0,0-1.27-.07,3.21,3.21,0,0,0-2.24,1.67c-1.4,2.29-.08,5.53,1.63,7a3.46,3.46,0,0,0,4.3.39l-.62,11.8s.72,2.69,5.76,4.92c3.94,1.74,9.77.13,6.32-4l.3-3.9a14.86,14.86,0,0,0,5.85.51c2-.32,3.67-1.21,5-4.23,2.33-5.35,2.69-14.73.88-22.23-.67.6-2.39,2.2-6.72,2.61a21.67,21.67,0,0,1-5.09-.18c-1.65-.25-3.2-.73-4.79-1.12a5.07,5.07,0,0,1-2.66,3.95,1.94,1.94,0,0,0-.75.5,1.83,1.83,0,0,0-.22,1.06,12.74,12.74,0,0,1-.5,3.42A3.85,3.85,0,0,1,112.43,105.53Z" style="fill: rgb(255, 168, 167); transform-origin: 119.189px 111.472px;" id="elkvifn7lbo7" class="animable"></path><path d="M121.89,120.18s-4-.94-6-2.42a13,13,0,0,1-3.33-4.44s.44,3.2,1.93,4.68c2.34,2.33,7.29,3.55,7.29,3.55Z" style="fill: rgb(242, 143, 143); transform-origin: 117.225px 117.435px;" id="elzimdpaq0i5c" class="animable"></path><path d="M123.27,105a1.24,1.24,0,1,1-1.12-1.39A1.26,1.26,0,0,1,123.27,105Z" style="fill: rgb(38, 50, 56); transform-origin: 122.039px 104.845px;" id="el3yngeq5y7jv" class="animable"></path><path d="M123.06,101.5l-3,.66a1.59,1.59,0,0,1,1.18-1.85A1.49,1.49,0,0,1,123.06,101.5Z" style="fill: rgb(38, 50, 56); transform-origin: 121.545px 101.214px;" id="el12nywdql2e1c" class="animable"></path><path d="M121.77,112.28l5.12,1.91a2.86,2.86,0,0,1-3.61,1.64A2.67,2.67,0,0,1,121.77,112.28Z" style="fill: rgb(177, 102, 104); transform-origin: 124.222px 114.137px;" id="elwrie44q6nc9" class="animable"></path><path d="M125,115.87a3,3,0,0,0-3.46-2.42,2.63,2.63,0,0,0,1.71,2.38A2.7,2.7,0,0,0,125,115.87Z" style="fill: rgb(242, 143, 143); transform-origin: 123.27px 114.702px;" id="el1meac7iwk4i" class="animable"></path><path d="M133.44,102.11l-3-.47a1.45,1.45,0,0,1,1.68-1.29A1.6,1.6,0,0,1,133.44,102.11Z" style="fill: rgb(38, 50, 56); transform-origin: 131.945px 101.22px;" id="elh3t62ggnvug" class="animable"></path><path d="M132.25,105.33a1.24,1.24,0,1,1-1.12-1.39A1.27,1.27,0,0,1,132.25,105.33Z" style="fill: rgb(38, 50, 56); transform-origin: 131.018px 105.175px;" id="elstll1d1qsnr" class="animable"></path><polygon points="126.01 111.16 129.97 110.4 125.91 103.92 126.01 111.16" style="fill: rgb(242, 143, 143); transform-origin: 127.94px 107.54px;" id="el23bkn9go8q6" class="animable"></polygon></g></g></g><g id="freepik--Ball--inject-130" class="animable" style="transform-origin: 78.93px 275.63px;"><g id="freepik--soccer-ball--inject-130" class="animable" style="transform-origin: 78.93px 275.63px;"><g id="el7rgvar3n7jf"><circle cx="78.93" cy="275.63" r="18.07" style="fill: rgb(245, 245, 245); transform-origin: 78.93px 275.63px; transform: rotate(-45deg);" class="animable"></circle></g><path d="M82.1,266.83a19.39,19.39,0,0,0-7.28,2,40,40,0,0,0,0,7.31,24.76,24.76,0,0,0,6.51,2.24s3.46-2.87,4.41-5.46A15,15,0,0,0,82.1,266.83Z" style="fill: rgb(69, 90, 100); transform-origin: 80.1963px 272.605px;" id="elt68ydcxe9h" class="animable"></path><path d="M70,265.8l-.51-1a.71.71,0,0,0-.1.14l-.09.11.48,1,5,3,.54.39a.47.47,0,0,1,.06-.09.34.34,0,0,1,.12-.12l-.56-.42Z" style="fill: rgb(69, 90, 100); transform-origin: 72.4px 267.12px;" id="el4i137o9xyw5" class="animable"></path><path d="M80.3,258.82c-.41-.06-.86-.1-1.36-.14a12.14,12.14,0,0,0-7.48,1.93l-1,.59a.82.82,0,0,1,.1.26l1.07-.62A12,12,0,0,1,78.92,259c.64.05,1.2.11,1.7.18A1,1,0,0,1,80.3,258.82Z" style="fill: rgb(69, 90, 100); transform-origin: 75.54px 260.055px;" id="elkbrdxod4pz8" class="animable"></path><path d="M83.84,261.2l-.24.79L82,266.78l-.39,1,.27.08.38-1,1.64-4.8.24-.81A1.34,1.34,0,0,1,83.84,261.2Z" style="fill: rgb(69, 90, 100); transform-origin: 82.875px 264.53px;" id="el47m3ycphsp" class="animable"></path><path d="M92.55,273.11a4.63,4.63,0,0,1-.58.43,54.24,54.24,0,0,0-6.23-.72h-.09a2.34,2.34,0,0,0-.38,0,2.62,2.62,0,0,1,0,.28,1.83,1.83,0,0,1,.47,0,56,56,0,0,1,6.25.72h0l0,0a4.07,4.07,0,0,0,.56-.4A1.38,1.38,0,0,1,92.55,273.11Z" style="fill: rgb(69, 90, 100); transform-origin: 88.91px 273.316px;" id="ellqi81358mn" class="animable"></path><path d="M89.94,263.08a13.93,13.93,0,0,1,4,5.77,4.42,4.42,0,0,1,.15.66l.26-.1a3.88,3.88,0,0,0-.14-.64,14.19,14.19,0,0,0-4.09-5.89l-.35-.34a8.59,8.59,0,0,0-.67-.6.83.83,0,0,1-.07.13l-.1.09c.21.17.42.36.65.58Z" style="fill: rgb(69, 90, 100); transform-origin: 91.64px 265.725px;" id="el7h51qyzm0x2" class="animable"></path><path d="M81.48,278.42c0-.11.14-.48.33-1a1,1,0,0,1-.34.11,8.61,8.61,0,0,0-.27.83v0L83,285.14l0,0s.63.44,1.29.88l.06,0,.3-.08c-.53-.34-1.06-.71-1.44-1Z" style="fill: rgb(69, 90, 100); transform-origin: 82.925px 281.72px;" id="el3t6kxg34uja" class="animable"></path><path d="M94,279.34c-.13.33-.28.68-.45,1a17.44,17.44,0,0,1-4.4,5.48c-.25.14-.7.36-1.17.57a.7.7,0,0,1,.22.2c.54-.23,1-.47,1.11-.53a18,18,0,0,0,4.5-5.6q.23-.5.42-1A1.45,1.45,0,0,1,94,279.34Z" style="fill: rgb(69, 90, 100); transform-origin: 91.105px 282.965px;" id="elnyf8teht4p" class="animable"></path><path d="M75.61,275.58c-.26.13-.54.29-.86.48a40.51,40.51,0,0,0-5.36,4.29l0,0a11.36,11.36,0,0,0-.55,1,2.35,2.35,0,0,1,.19.25c.22-.46.43-.86.59-1.13a39.71,39.71,0,0,1,5.3-4.24c.35-.21.65-.38.93-.53A1,1,0,0,1,75.61,275.58Z" style="fill: rgb(69, 90, 100); transform-origin: 72.345px 278.59px;" id="elvm3rgokskeg" class="animable"></path><path d="M79.58,289.06,78,289a12.92,12.92,0,0,1-6.66-2.45l0,0h0a8.07,8.07,0,0,1-.87-.26l0,.29c.39.13.7.21.8.24A13.28,13.28,0,0,0,78,289.24l1.51.09A.66.66,0,0,1,79.58,289.06Z" style="fill: rgb(69, 90, 100); transform-origin: 75.025px 287.81px;" id="eld3880y3s729" class="animable"></path><path d="M64.24,278.15a.71.71,0,0,1,.29,0,6.05,6.05,0,0,1-.2-1,27.76,27.76,0,0,1,.34-7.12c.09-.44.2-.87.32-1.27l-.2,0H64.7a10.7,10.7,0,0,0-.3,1.21,27.93,27.93,0,0,0-.35,7.21C64.1,277.53,64.16,277.84,64.24,278.15Z" style="fill: rgb(69, 90, 100); transform-origin: 64.4741px 273.455px;" id="el6mcfb6hjmj9" class="animable"></path><path d="M78.93,258.82A14.12,14.12,0,0,1,83.74,262a17.21,17.21,0,0,1,6,.61,11.46,11.46,0,0,0-.32-1.76,18,18,0,0,0-9-3.26A12.77,12.77,0,0,0,78.93,258.82Z" style="fill: rgb(69, 90, 100); transform-origin: 84.335px 260.1px;" id="el7tj9zdp4fsl" class="animable"></path><path d="M96.45,271.21a13.85,13.85,0,0,0-2.36-2.4A24.9,24.9,0,0,1,92,273.68a46.91,46.91,0,0,1,1.67,6.75,16.26,16.26,0,0,0,2.89-.86,18,18,0,0,0-.11-8.36Z" style="fill: rgb(69, 90, 100); transform-origin: 94.4993px 274.62px;" id="ele5ryg9qno8i" class="animable"></path><path d="M66.93,287.83a11.59,11.59,0,0,0,4.3-1.21s-.92-2.74-1.74-6.17a35,35,0,0,1-5.3-3.26s-1.13,1.17-1.39,4.91A18.24,18.24,0,0,0,66.93,287.83Z" style="fill: rgb(69, 90, 100); transform-origin: 67.015px 282.51px;" id="eljeec8ml9o1" class="animable"></path><path d="M63.1,266.9A7.2,7.2,0,0,0,64.54,270a12.6,12.6,0,0,1,5.34-4.12,36.56,36.56,0,0,1,1.65-5.17,16.49,16.49,0,0,0-2.68-.1A18.2,18.2,0,0,0,63.1,266.9Z" style="fill: rgb(69, 90, 100); transform-origin: 67.315px 265.297px;" id="elng0akiqoxub" class="animable"></path><path d="M89.21,286a26.33,26.33,0,0,1-6.12-.92,32.19,32.19,0,0,1-5.13,4,10.2,10.2,0,0,0,2.88,3.58,20.07,20.07,0,0,0,6.66-1.91A13.63,13.63,0,0,0,89.21,286Z" style="fill: rgb(69, 90, 100); transform-origin: 83.585px 288.87px;" id="el7uos16eh4ze" class="animable"></path><g id="ela61sfnop9go"><path d="M94.49,284.82c-3,4.29-14.68,7-22.12-2.65s-3.14-20.73,2.27-24.1a18.07,18.07,0,1,0,19.85,26.75Z" style="opacity: 0.1; transform-origin: 77.6781px 275.881px;" class="animable"></path></g></g></g><defs>     <filter id="active" height="200%">         <feMorphology in="SourceAlpha" result="DILATED" operator="dilate" radius="2"></feMorphology>                <feFlood flood-color="#32DFEC" flood-opacity="1" result="PINK"></feFlood>        <feComposite in="PINK" in2="DILATED" operator="in" result="OUTLINE"></feComposite>        <feMerge>            <feMergeNode in="OUTLINE"></feMergeNode>            <feMergeNode in="SourceGraphic"></feMergeNode>        </feMerge>    </filter>    <filter id="hover" height="200%">        <feMorphology in="SourceAlpha" result="DILATED" operator="dilate" radius="2"></feMorphology>                <feFlood flood-color="#ff0000" flood-opacity="0.5" result="PINK"></feFlood>        <feComposite in="PINK" in2="DILATED" operator="in" result="OUTLINE"></feComposite>        <feMerge>            <feMergeNode in="OUTLINE"></feMergeNode>            <feMergeNode in="SourceGraphic"></feMergeNode>        </feMerge>            <feColorMatrix type="matrix" values="0   0   0   0   0                0   1   0   0   0                0   0   0   0   0                0   0   0   1   0 "></feColorMatrix>    </filter></defs></svg>